<svg width="24" height="24" viewBox="0 0 24 24" fill="none" xmlns="http://www.w3.org/2000/svg">
<path d="M4.1758 1.125C3.3472 1.125 2.5939 1.42633 2.02894 1.99129C1.42633 2.5939 1.125 3.34716 1.125 4.1381C1.125 4.9667 1.46398 5.72 2.02894 6.28496C2.5939 6.84992 3.38485 7.1889 4.13815 7.15125C4.13815 7.15125 4.1758 7.15125 4.21349 7.15125C4.96679 7.15125 5.68239 6.84992 6.24735 6.28496C6.81232 5.72 7.15129 4.9667 7.15129 4.1381C7.18894 3.34716 6.84997 2.59386 6.285 2.0289C5.72004 1.42628 4.96674 1.125 4.1758 1.125ZM5.72004 5.75769C5.30572 6.17201 4.74076 6.43565 4.13815 6.398C3.57318 6.398 2.97057 6.17201 2.55625 5.75769C2.10428 5.34337 1.8783 4.74076 1.8783 4.13815C1.8783 3.53554 2.10428 2.97057 2.55625 2.5186C2.97057 2.10428 3.53554 1.8783 4.1758 1.8783C4.74076 1.8783 5.30572 2.10428 5.72004 2.5186C6.17201 2.97057 6.398 3.53554 6.398 4.13815C6.398 4.74076 6.17201 5.34337 5.72004 5.75769Z" fill="#BCB6E9"/>
<path d="M5.64503 7.9043H2.59423C1.99162 7.9043 1.50195 8.39392 1.50195 9.03422V22.2167C1.50195 22.8193 2.02927 23.3466 2.63188 23.3466H5.64503C6.24764 23.3466 6.77495 22.8193 6.77495 22.2543V9.03422C6.77495 8.43157 6.24764 7.9043 5.64503 7.9043ZM6.02165 22.2543C6.02165 22.4427 5.83332 22.5933 5.64503 22.5933H2.63188C2.44354 22.5933 2.25525 22.405 2.25525 22.2167V9.03422C2.25525 8.84589 2.40589 8.65759 2.59423 8.65759H5.64503C5.83336 8.65759 6.02165 8.84593 6.02165 9.03422V22.2543Z" fill="#BCB6E9"/>
<path d="M18.4514 7.52734H17.6605C16.1916 7.52734 14.798 8.16765 13.8941 9.18458V8.65727C13.8941 8.28064 13.5175 7.90397 13.1408 7.90397H9.37439C9.03541 7.90397 8.62109 8.2053 8.62109 8.61957V22.6683C8.62109 23.0826 9.03541 23.3462 9.37439 23.3462H13.5175C13.8564 23.3462 14.2708 23.0826 14.2708 22.6683V14.5328C14.2708 13.2899 15.1747 12.3106 16.3423 12.3106C16.9449 12.3106 17.5098 12.5366 17.9242 12.9509C18.3008 13.2899 18.4515 13.8172 18.4515 14.4952V22.593C18.4515 22.9696 18.8281 23.3463 19.2048 23.3463H22.9712C23.3478 23.3463 23.7245 22.9697 23.7245 22.593V12.8756C23.7244 9.86254 21.4269 7.52734 18.4514 7.52734ZM22.9711 22.5553L22.9335 22.593H19.2424L19.2047 14.4952C19.2047 13.5913 18.9788 12.9133 18.4891 12.4237C17.9242 11.8588 17.1709 11.5574 16.3799 11.5574C14.798 11.5951 13.5551 12.8757 13.5551 14.5329V22.593H9.41204V8.65727H13.1408L13.1784 8.69492V11.0678L14.1954 10.0508L14.233 10.0132C14.9863 8.9586 16.3045 8.28064 17.6981 8.28064H18.4891C21.0126 8.28064 22.9711 10.3145 22.9711 12.8757V22.5553Z" fill="#BCB6E9"/>
</svg>
