<svg width="480" height="424" viewBox="0 0 480 424" fill="none" xmlns="http://www.w3.org/2000/svg">
<g clip-path="url(#clip0_2024_18866)">
<path d="M241.579 423.501C363.468 423.501 462.278 417.739 462.278 410.632C462.278 403.524 363.468 397.762 241.579 397.762C119.69 397.762 20.8789 403.524 20.8789 410.632C20.8789 417.739 119.69 423.501 241.579 423.501Z" fill="#9085DA"/>
<path d="M55.7177 38.2967C54.5782 33.2923 55.0871 29.079 57.2452 25.6545C59.4034 22.2323 62.9753 19.9557 67.9598 18.8236C73.0707 17.6632 77.3199 18.1394 80.7086 20.2523C84.0972 22.3641 86.3533 25.8875 87.4768 30.8237C88.2929 34.4073 88.3578 37.4829 87.6725 40.0505C86.9862 42.6191 85.6476 44.8002 83.6556 46.5938C81.6624 48.3884 78.9624 49.6705 75.5556 50.4445C72.0929 51.231 69.1015 51.331 66.5814 50.7457C64.0612 50.1592 61.8245 48.834 59.8712 46.7688C57.918 44.7048 56.5327 41.8815 55.7177 38.2967ZM65.2155 36.1861C65.92 39.2821 67.0026 41.3746 68.463 42.4646C69.9222 43.5568 71.6433 43.8751 73.6273 43.425C75.666 42.9635 77.0934 41.9429 77.9084 40.3653C78.7234 38.7877 78.7416 36.2827 77.9596 32.8536C77.3028 29.9678 76.2397 27.9913 74.7702 26.9229C73.3006 25.8568 71.5682 25.5499 69.5716 26.0034C67.6582 26.4376 66.2763 27.4628 65.4249 29.0779C64.5735 30.6941 64.504 33.0628 65.2155 36.1861Z" fill="#060415"/>
<path d="M92.0029 34.5473C91.2311 31.1602 91.741 28.1074 93.5316 25.3909C95.3209 22.6745 98.1644 20.8742 102.061 19.991C106.515 18.9795 110.173 19.5046 113.037 21.5686C115.339 23.2314 116.837 25.5819 117.529 28.6211C118.306 32.0388 117.81 35.0939 116.036 37.7911C114.264 40.4882 111.374 42.2919 107.366 43.2012C103.792 44.0127 100.695 43.7638 98.0756 42.4511C94.8554 40.8223 92.8315 38.1877 92.0029 34.5473ZM100.544 32.5878C100.995 34.5666 101.729 35.9396 102.749 36.7068C103.768 37.4728 104.885 37.7172 106.099 37.441C107.327 37.1614 108.23 36.4658 108.806 35.352C109.382 34.2392 109.436 32.6503 108.967 30.5885C108.528 28.6643 107.804 27.3209 106.794 26.5605C105.783 25.8001 104.691 25.5523 103.519 25.8194C102.276 26.1013 101.358 26.8128 100.766 27.9517C100.173 29.0894 100.099 30.6351 100.544 32.5878Z" fill="#060415"/>
<path d="M126.141 47.2982L119.16 16.6366L127.141 14.8237L127.888 18.1073C128.677 16.4775 129.476 15.3147 130.287 14.6169C131.381 13.6803 132.682 13.0393 134.19 12.6983C137.164 12.0221 139.723 12.637 141.868 14.5396C144.012 16.4434 145.466 19.0677 146.227 22.415C147.068 26.11 146.824 29.1311 145.493 31.4792C144.162 33.8263 142.143 35.3084 139.434 35.9233C138.122 36.2211 136.874 36.2699 135.689 36.0687C134.505 35.8676 133.387 35.4266 132.336 34.7412L134.75 45.3444L126.141 47.2982ZM130.249 25.8656C130.649 27.6228 131.316 28.8424 132.249 29.5254C133.183 30.2085 134.215 30.4199 135.346 30.1642C136.338 29.9392 137.077 29.3425 137.56 28.3752C138.044 27.4069 138.065 25.9475 137.621 23.9948C137.211 22.1956 136.561 20.9545 135.671 20.2703C134.781 19.5838 133.833 19.3564 132.827 19.5838C131.739 19.8315 130.928 20.4635 130.395 21.4773C129.862 22.4934 129.813 23.955 130.249 25.8656Z" fill="#060415"/>
<path d="M149.875 26.5366L158.156 23.8202C158.733 24.7442 159.386 25.3523 160.113 25.6433C160.839 25.932 161.727 25.9581 162.774 25.7206C163.918 25.4603 164.75 25.0159 165.268 24.3851C165.674 23.9123 165.815 23.4054 165.691 22.8609C165.553 22.2483 165.123 21.8471 164.405 21.6596C163.891 21.5277 162.602 21.5129 160.541 21.6141C157.463 21.7721 155.299 21.7607 154.046 21.5845C152.794 21.4061 151.654 20.8856 150.627 20.0195C149.601 19.1545 148.935 18.052 148.631 16.7154C148.299 15.2526 148.437 13.8967 149.048 12.6442C149.659 11.3917 150.651 10.3347 152.026 9.47312C153.401 8.61159 155.346 7.89555 157.859 7.32498C160.512 6.72259 162.517 6.48163 163.872 6.59756C165.228 6.71576 166.426 7.10334 167.464 7.76142C168.503 8.42064 169.466 9.41061 170.354 10.7347L162.45 13.3648C162.079 12.6999 161.611 12.2566 161.046 12.0338C160.273 11.7383 159.413 11.6985 158.463 11.9156C157.499 12.1339 156.837 12.4635 156.475 12.9045C156.113 13.3455 155.986 13.8103 156.098 14.2979C156.221 14.8412 156.594 15.1879 157.216 15.339C157.837 15.4925 159.11 15.4652 161.031 15.264C163.938 14.9424 166.149 14.9083 167.662 15.1663C169.175 15.4231 170.418 15.9982 171.392 16.8905C172.365 17.7827 172.997 18.8624 173.286 20.1309C173.577 21.4129 173.474 22.7473 172.975 24.1339C172.476 25.5217 171.474 26.7628 169.968 27.8596C168.463 28.9541 166.272 29.8293 163.396 30.484C159.332 31.4069 156.305 31.483 154.318 30.7181C152.33 29.9521 150.849 28.5586 149.875 26.5366Z" fill="#060415"/>
<path d="M177.664 -1.57466L187.007 -1.62695L187.048 5.53693L185.325 19.9386L179.547 19.9704L177.704 5.58922L177.664 -1.57466ZM178.121 22.1663L186.841 22.1174L186.885 29.8166L178.165 29.8655L178.121 22.1663Z" fill="#060415"/>
<path d="M161.834 190.575L144.097 193.791L127.994 106.033L93.7729 112.24L38.0098 211.122L43.9971 243.751L115.523 230.778L120.42 257.466L154.641 251.259L149.744 224.572L167.481 221.354L161.834 190.575ZM72.083 206.854L101.632 155.063L109.877 199.999L72.083 206.854Z" fill="#7A6DD3"/>
<path d="M304.673 100.065C304.011 94.0024 302.798 88.6161 301.034 83.905C299.271 79.1939 296.618 74.5759 293.078 70.0512C289.538 65.5265 284.717 61.5984 278.617 58.2694C272.516 54.9415 264.464 52.624 254.459 51.3226C233.638 48.6141 217.407 52.3057 205.761 62.3929C194.115 72.4824 186.453 91.8088 182.77 120.371C181.272 131.988 180.901 142.727 181.658 152.588C182.413 162.447 184.225 170.379 187.097 176.38C191.025 184.812 196.585 191.546 203.772 196.579C210.958 201.613 220.803 204.944 233.31 206.571C255.617 209.472 272.147 205.198 282.904 193.742C293.658 182.289 300.794 162.927 304.309 135.662C305.879 123.497 305.999 111.632 304.673 100.065Z" fill="#7A6DD3"/>
<path d="M243.589 194.903C240.852 194.809 237.939 194.563 234.93 194.171C224.511 192.816 216.448 190.182 210.966 186.342C205.557 182.555 201.465 177.572 198.454 171.105L198.398 170.988C196.21 166.415 194.78 159.903 194.147 151.634C193.458 142.669 193.81 132.688 195.192 121.967C199.254 90.4597 207.646 77.314 213.97 71.8356C221.344 65.448 231.296 62.5611 244.396 63.0089C247.08 63.101 249.923 63.3408 252.843 63.7204C261.251 64.8138 267.903 66.671 272.615 69.2408C277.179 71.7311 280.745 74.5941 283.213 77.7481C285.949 81.2443 287.999 84.7893 289.307 88.2831C290.699 91.9998 291.681 96.4199 292.228 101.42C293.44 112 293.325 122.961 291.894 134.065C288.738 158.546 282.641 175.747 273.773 185.189C267.195 192.196 257.323 195.374 243.593 194.904C243.59 194.903 243.589 194.903 243.589 194.903Z" fill="#060415"/>
<path d="M265.865 100.4L266.013 96.0947L263.366 95.2309C263.257 93.7602 263.011 92.3076 262.661 90.9073L264.904 89.2559L263.38 85.2119L260.605 85.4347C259.943 84.1276 259.166 82.8831 258.295 81.7158L259.733 79.3199L256.777 76.1715L254.295 77.44C253.178 76.4921 251.999 75.6328 250.738 74.8736L251.14 72.123L247.204 70.3386L245.401 72.4492C244.027 72.0037 242.603 71.6707 241.13 71.4502L240.46 68.7542L236.136 68.6064L235.283 71.2501C233.797 71.3695 232.355 71.6048 230.954 71.9548L229.287 69.726L225.237 71.2365L225.462 74.0075C224.151 74.6792 222.906 75.4544 221.737 76.325L219.349 74.8906L216.185 77.8298L217.455 80.3178C216.506 81.4225 215.645 82.6103 214.895 83.8696L212.141 83.457L210.344 87.3873L212.469 89.1888C212.023 90.5618 211.678 91.9939 211.469 93.4533L208.757 94.133L208.609 98.4383L211.267 99.3033C211.375 100.785 211.622 102.227 211.973 103.626L209.729 105.277L211.254 109.321L214.029 109.097C214.69 110.404 215.468 111.649 216.338 112.816L214.901 115.212L217.857 118.361L220.337 117.093C221.443 118.041 222.633 118.9 223.893 119.661L223.48 122.41L227.416 124.194L229.232 122.084C230.605 122.529 232.029 122.862 233.502 123.083L234.173 125.779L238.496 125.927L239.35 123.283C240.834 123.164 242.277 122.928 243.679 122.578L245.334 124.807L249.384 123.297L249.171 120.526C250.481 119.854 251.715 119.078 252.895 118.207L255.283 119.642L258.448 116.702L257.177 114.214C258.127 113.109 258.987 111.922 259.736 110.662L262.49 111.075L264.287 107.145L262.162 105.343C262.608 103.971 262.953 102.549 263.163 101.079L265.865 100.4ZM236.731 114.347C227.289 114.024 219.894 106.117 220.218 96.6891C220.542 87.2498 228.46 79.8677 237.902 80.1905C247.344 80.5133 254.738 88.4193 254.414 97.8587C254.092 107.287 246.173 114.67 236.731 114.347Z" fill="#3824BD"/>
<path d="M276.135 170.983L276.339 169.089L275.199 168.625C275.195 167.974 275.139 167.33 275.03 166.701L276.07 166.042L275.542 164.21L274.308 164.22C274.059 163.621 273.766 163.047 273.42 162.506L274.124 161.498L272.932 160.016L271.794 160.489C271.341 160.04 270.85 159.623 270.316 159.25L270.592 158.044L268.92 157.128L268.047 158.009C267.447 157.754 266.828 157.568 266.207 157.425L265.997 156.212L264.101 156L263.636 157.138C262.984 157.142 262.347 157.207 261.709 157.316L261.05 156.268L259.214 156.805L259.224 158.037C258.633 158.286 258.058 158.579 257.508 158.925L256.498 158.213L255.014 159.403L255.488 160.539C255.046 160.992 254.621 161.481 254.246 162.015L253.047 161.748L252.13 163.418L253.004 164.281C252.757 164.889 252.563 165.498 252.419 166.127L251.204 166.328L251 168.221L252.139 168.694C252.135 169.336 252.199 169.981 252.309 170.61L251.261 171.268L251.798 173.101L253.032 173.099C253.282 173.69 253.574 174.264 253.921 174.805L253.209 175.813L254.401 177.303L255.548 176.822C256.001 177.271 256.491 177.688 257.026 178.062L256.75 179.268L258.422 180.185L259.295 179.312C259.895 179.558 260.514 179.744 261.135 179.886L261.345 181.1L263.241 181.312L263.706 180.173C264.35 180.17 264.995 180.105 265.633 179.997L266.292 181.043L268.119 180.507L268.118 179.275C268.709 179.025 269.284 178.733 269.834 178.388L270.836 179.099L272.328 177.909L271.845 176.773C272.295 176.32 272.712 175.831 273.095 175.297L274.294 175.564L275.211 173.894L274.337 173.031C274.583 172.424 274.77 171.813 274.912 171.193L276.135 170.983ZM266.574 170.248C265.693 171.849 263.674 172.44 262.07 171.56C260.467 170.681 259.884 168.665 260.764 167.064C261.645 165.463 263.655 164.881 265.259 165.76C266.863 166.639 267.454 168.647 266.574 170.248Z" fill="#3824BD"/>
<path d="M256 131.203L258.142 129.723C258.142 129.722 258.142 129.72 258.143 129.718C258.355 128.94 258.648 128.192 259.005 127.487L258.456 125.334L261.562 122.007L263.749 122.407C264.425 122.003 265.153 121.661 265.913 121.396C265.915 121.395 265.917 121.395 265.919 121.395L267.248 119.156L271.797 119L273.276 121.142C273.279 121.143 273.282 121.143 273.285 121.144C274.062 121.356 274.81 121.648 275.513 122.004L277.666 121.455L280.993 124.562L280.593 126.745C280.594 126.745 280.594 126.746 280.594 126.747C281.007 127.431 281.342 128.159 281.606 128.92L283.844 130.249L284 134.798L281.857 136.278C281.646 137.061 281.362 137.808 280.998 138.518C280.998 138.519 280.998 138.519 280.998 138.519L281.545 140.666L278.439 143.992L276.266 143.595C275.58 144 274.853 144.344 274.082 144.608C274.081 144.609 274.08 144.609 274.079 144.609L272.752 146.844L268.204 147L266.726 144.86C265.94 144.648 265.191 144.356 264.479 143.998C264.479 143.998 264.478 143.998 264.478 143.997L262.335 144.544L259.009 141.438L259.408 139.255C258.996 138.57 258.661 137.842 258.397 137.081L256.158 135.751L256 131.203ZM270.176 138.118C273.004 138.021 275.212 135.647 275.116 132.828C275.019 130 272.653 127.791 269.826 127.888C266.998 127.985 264.79 130.351 264.886 133.178C264.982 135.997 267.349 138.215 270.176 138.118Z" fill="#3824BD"/>
<path d="M224.894 176.176C224.742 176.176 224.594 176.115 224.486 176.003L222.099 173.547C220.883 173.432 219.681 173.21 218.518 172.881L214.798 174.519C214.621 174.6 214.417 174.579 214.254 174.473L208.022 170.348C207.86 170.24 207.764 170.059 207.767 169.865L207.828 165.815C207.071 164.874 206.396 163.852 205.818 162.772L202.625 161.536C202.444 161.465 202.312 161.31 202.272 161.12L200.787 153.802C200.748 153.613 200.81 153.416 200.948 153.281L203.408 150.898C203.522 149.69 203.745 148.489 204.073 147.319L202.435 143.61C202.356 143.432 202.375 143.228 202.481 143.065L206.611 136.841C206.718 136.68 206.871 136.58 207.095 136.587L211.149 136.649C212.1 135.89 213.125 135.216 214.198 134.643L215.436 131.453C215.507 131.272 215.664 131.14 215.854 131.1L223.182 129.616C223.372 129.58 223.569 129.639 223.704 129.777L226.087 132.231C227.298 132.345 228.503 132.569 229.676 132.896L233.39 131.261C233.567 131.183 233.772 131.2 233.935 131.307L240.167 135.432C240.328 135.54 240.424 135.721 240.422 135.915L240.36 139.967C241.118 140.909 241.792 141.931 242.368 143.007L245.563 144.245C245.744 144.315 245.876 144.471 245.916 144.661L247.402 151.978C247.44 152.168 247.379 152.365 247.24 152.5L244.779 154.883C244.666 156.078 244.443 157.277 244.113 158.456L245.753 162.171C245.832 162.348 245.814 162.554 245.708 162.716L241.578 168.941C241.471 169.102 241.3 169.183 241.095 169.195L237.04 169.134C236.095 169.886 235.072 170.558 233.995 171.133L232.753 174.33C232.684 174.511 232.525 174.643 232.335 174.683L225.007 176.167C224.969 176.173 224.932 176.176 224.894 176.176ZM218.478 171.709C218.531 171.709 218.586 171.717 218.638 171.733C219.857 172.09 221.124 172.326 222.407 172.433C222.545 172.445 222.672 172.505 222.768 172.604L225.086 174.989L231.804 173.629L233.01 170.524C233.06 170.395 233.156 170.289 233.278 170.225C234.419 169.631 235.497 168.924 236.482 168.121C236.586 168.037 236.703 167.979 236.85 167.994L240.801 168.054L244.588 162.348L242.99 158.73C242.936 158.608 242.927 158.469 242.965 158.341C243.324 157.101 243.56 155.835 243.666 154.578C243.677 154.44 243.737 154.313 243.836 154.216L246.226 151.902L244.864 145.195L241.76 143.993C241.628 143.941 241.52 143.844 241.456 143.718C240.864 142.581 240.155 141.509 239.349 140.528C239.264 140.424 239.217 140.293 239.22 140.159L239.28 136.21L233.566 132.429L229.951 134.02C229.828 134.074 229.691 134.083 229.562 134.046C228.329 133.688 227.056 133.452 225.78 133.346C225.642 133.335 225.515 133.273 225.419 133.177L223.105 130.793L216.387 132.154L215.184 135.253C215.134 135.382 215.038 135.489 214.915 135.552C213.781 136.142 212.702 136.851 211.71 137.66C211.606 137.744 211.467 137.804 211.34 137.789L207.39 137.728L203.603 143.433L205.199 147.047C205.267 147.202 205.262 147.38 205.187 147.531C204.866 148.666 204.631 149.934 204.524 151.205C204.512 151.342 204.452 151.469 204.353 151.566L201.965 153.879L203.326 160.586L206.429 161.787C206.568 161.84 206.68 161.946 206.74 162.079C207.33 163.207 208.038 164.277 208.839 165.251C208.924 165.356 208.972 165.489 208.97 165.623L208.91 169.569L214.624 173.352L218.248 171.756C218.321 171.726 218.399 171.709 218.478 171.709ZM224.076 168.032C221.198 168.032 218.291 167.219 215.718 165.516C212.341 163.282 210.038 159.867 209.231 155.904C208.423 151.94 209.212 147.899 211.45 144.527H211.451C216.078 137.565 225.511 135.653 232.479 140.265C239.447 144.883 241.36 154.301 236.74 161.262C233.825 165.652 228.994 168.032 224.076 168.032ZM212.399 145.155C210.33 148.273 209.6 152.01 210.347 155.678C211.093 159.344 213.224 162.502 216.347 164.568C222.798 168.835 231.519 167.07 235.79 160.633C240.063 154.196 238.295 145.483 231.849 141.213C225.404 136.947 216.679 138.715 212.399 145.155Z" fill="#3824BD"/>
<path d="M441.718 200.832L423.853 198.425L435.668 109.99L401.2 105.346L317.59 182.208L313.197 215.088L385.241 224.797L381.649 251.691L416.117 256.335L419.709 229.441L437.575 231.849L441.718 200.832ZM351.318 188.65L395.436 148.497L389.386 193.78L351.318 188.65Z" fill="#7A6DD3"/>
<path d="M210.223 284.02C211.804 258.557 208.895 212.271 256.828 218.398C308.204 224.965 293.506 284.952 293.506 284.952L210.223 284.02Z" fill="#060415"/>
<path d="M243.303 268.715C254.854 268.715 264.218 259.364 264.218 247.83C264.218 236.296 254.854 226.945 243.303 226.945C231.751 226.945 222.387 236.296 222.387 247.83C222.387 259.364 231.751 268.715 243.303 268.715Z" fill="#9085DA"/>
<path d="M246.05 226.978C236.142 225.289 225.55 232.581 224.506 239.969L263.784 243.576C262.4 235.154 253.911 228.318 246.05 226.978Z" fill="#060415"/>
<path d="M259.31 247.311C259.029 252.771 256.049 257.056 252.654 256.882C249.258 256.708 246.733 252.14 247.013 246.68C247.295 241.22 250.275 236.935 253.67 237.109C257.066 237.283 259.591 241.85 259.31 247.311Z" fill="#060415"/>
<path d="M243.303 269.851C231.142 269.851 221.248 259.973 221.248 247.83C221.248 235.687 231.142 225.809 243.303 225.809C255.465 225.809 265.357 235.687 265.357 247.83C265.357 259.973 255.464 269.851 243.303 269.851ZM243.303 228.082C232.397 228.082 223.525 236.94 223.525 247.83C223.525 258.719 232.396 267.578 243.303 267.578C254.209 267.578 263.081 258.719 263.081 247.83C263.081 236.94 254.208 228.082 243.303 228.082Z" fill="#7A6DD3"/>
<path opacity="0.3" d="M287.663 283.379C287.619 283.379 287.574 283.373 287.529 283.363C287.224 283.289 287.035 282.982 287.109 282.676C287.146 282.523 290.773 267.112 287.006 251.53C286.932 251.226 287.12 250.919 287.426 250.844C287.728 250.776 288.039 250.958 288.113 251.263C291.946 267.119 288.254 282.785 288.215 282.942C288.153 283.205 287.92 283.379 287.663 283.379Z" fill="#7A6DD3"/>
<path opacity="0.3" d="M284.489 243.01C284.273 243.01 284.067 242.887 283.972 242.678C282.508 239.489 280.692 236.561 278.574 233.975C278.375 233.732 278.411 233.375 278.655 233.176C278.897 232.976 279.256 233.011 279.456 233.256C281.635 235.916 283.503 238.927 285.006 242.205C285.137 242.49 285.012 242.828 284.726 242.957C284.649 242.993 284.569 243.01 284.489 243.01Z" fill="#7A6DD3"/>
<path d="M103.547 403.449C103.405 403.449 103.264 403.447 103.123 403.443C99.9816 403.357 97.5047 400.744 97.59 397.605C97.6754 394.469 100.264 392.042 103.435 392.082C103.47 392.083 103.507 392.083 103.544 392.083C106.833 392.083 114.744 388.093 131.293 362.043C132.182 360.645 133.639 359.702 135.281 359.463C136.926 359.23 138.587 359.716 139.84 360.804C160.261 378.584 181.903 389.651 182.12 389.761C184.921 391.182 186.04 394.603 184.617 397.4C183.194 400.198 179.77 401.318 176.969 399.896C176.11 399.46 157.193 389.803 137.359 373.588C123.488 394.409 113.195 403.449 103.547 403.449Z" fill="#060415"/>
<path d="M138.759 359.783C138.597 359.783 138.436 359.772 138.272 359.749C136.405 359.483 135.107 357.755 135.375 355.89C136.184 350.234 135.181 329.037 128.005 312.557C127.35 311.056 127.858 309.302 129.213 308.379C144.806 297.769 178.018 296.5 179.425 296.452C181.3 296.411 182.89 297.859 182.956 299.741C183.022 301.622 181.547 303.202 179.663 303.266C179.356 303.278 150.318 304.389 135.398 312.589C141.754 328.999 143.195 349.456 142.135 356.855C141.892 358.557 140.431 359.783 138.759 359.783Z" fill="#060415"/>
<path d="M144.496 355.369C142.225 350.02 131.988 350.628 125.978 355.212C122.766 357.662 118.419 365.033 117.961 367.704C117.505 370.376 119.358 372.796 122.54 372.521C126.465 372.183 131.853 366.487 131.853 366.487C128.268 369.997 132.893 372.473 139.795 367.397C143.624 364.582 147.039 361.359 144.496 355.369Z" fill="#4E3CC4"/>
<path d="M192.096 401.55C192.846 401.311 192.594 400.588 191.758 400.588H176.346C147 397.485 126.497 401.644 139.417 402.625C152.337 403.605 138.508 403.4 129.073 406.963C119.637 410.527 199.252 411.425 206.493 406.963C213.17 402.847 181.697 404.878 192.096 401.55Z" fill="#060415"/>
<path d="M302.442 406.085L168.35 401.647L162.785 271.824L321.132 275.36L302.442 406.085Z" fill="#4E3CC4"/>
<path d="M210.222 403.602C209.928 403.602 209.679 403.378 209.655 403.08L198.906 272.69C198.88 272.378 199.113 272.103 199.428 272.078C199.75 272.06 200.016 272.285 200.041 272.597L210.79 402.987C210.815 403.3 210.583 403.575 210.269 403.6C210.253 403.601 210.237 403.602 210.222 403.602Z" fill="#060415"/>
<path d="M302.441 406.086L338.482 400.607L349.834 279.891L321.132 275.36L302.441 406.086Z" fill="#4E3CC4"/>
<path opacity="0.2" d="M302.441 406.086L338.482 400.607L349.834 279.891L321.132 275.36L302.441 406.086Z" fill="#060415"/>
<path d="M179.809 376.623L176.503 299.493C176.158 291.442 182.7 284.776 190.768 284.956L291.004 287.194C299.375 287.381 305.7 294.83 304.516 303.106L293.403 380.838C292.396 387.883 286.238 393.041 279.116 392.804L193.3 389.964C186.001 389.722 180.122 383.907 179.809 376.623Z" fill="#060415"/>
<path d="M190.638 308.624L206.146 309.117L206.019 313.11L196.31 312.802L196.216 315.774L205.222 316.06L205.1 319.873L196.094 319.587L195.977 323.273L205.966 323.59L205.832 327.825L190.043 327.324L190.638 308.624Z" fill="#9085DA"/>
<path d="M209.025 327.926L209.621 309.227L219.265 309.534C221.054 309.591 222.416 309.787 223.351 310.124C224.286 310.46 225.03 311.051 225.583 311.899C226.136 312.747 226.393 313.765 226.355 314.957C226.322 315.994 226.071 316.882 225.604 317.621C225.138 318.359 224.508 318.951 223.718 319.393C223.215 319.675 222.53 319.9 221.663 320.068C222.344 320.32 222.84 320.566 223.147 320.804C223.354 320.965 223.652 321.302 224.04 321.817C224.429 322.332 224.687 322.727 224.814 323.005L227.444 328.513L220.906 328.305L217.995 322.492C217.626 321.741 217.293 321.249 216.993 321.018C216.585 320.716 216.117 320.555 215.589 320.538L215.078 320.522L214.836 328.113L209.025 327.926ZM215.193 316.989L217.632 317.066C217.896 317.074 218.409 317.006 219.173 316.86C219.559 316.796 219.878 316.61 220.13 316.303C220.383 315.997 220.516 315.638 220.529 315.23C220.548 314.627 220.372 314.158 219.998 313.822C219.625 313.487 218.911 313.303 217.855 313.269L215.313 313.188L215.193 316.989Z" fill="#9085DA"/>
<path d="M229.373 328.573L229.968 309.874L239.613 310.181C241.401 310.238 242.764 310.434 243.698 310.771C244.634 311.107 245.377 311.698 245.93 312.546C246.484 313.394 246.741 314.414 246.702 315.604C246.669 316.641 246.419 317.529 245.952 318.268C245.484 319.006 244.856 319.597 244.066 320.04C243.563 320.321 242.878 320.547 242.01 320.715C242.692 320.967 243.187 321.213 243.495 321.451C243.703 321.611 244 321.949 244.389 322.464C244.777 322.979 245.036 323.374 245.163 323.652L247.793 329.16L241.253 328.952L238.343 323.139C237.975 322.388 237.64 321.896 237.341 321.665C236.932 321.363 236.465 321.202 235.936 321.185L235.425 321.169L235.184 328.758L229.373 328.573ZM235.54 317.636L237.98 317.713C238.244 317.721 238.757 317.653 239.521 317.506C239.907 317.441 240.225 317.256 240.478 316.949C240.731 316.642 240.864 316.284 240.876 315.876C240.896 315.273 240.719 314.803 240.346 314.468C239.973 314.133 239.258 313.949 238.203 313.915L235.661 313.834L235.54 317.636Z" fill="#9085DA"/>
<path d="M248.77 319.843C248.868 316.79 249.794 314.441 251.552 312.794C253.309 311.148 255.708 310.373 258.748 310.469C261.865 310.568 264.24 311.48 265.873 313.204C267.506 314.928 268.274 317.296 268.179 320.307C268.109 322.492 267.684 324.273 266.903 325.649C266.121 327.024 265.022 328.079 263.605 328.813C262.188 329.547 260.441 329.88 258.362 329.814C256.251 329.747 254.514 329.356 253.151 328.64C251.789 327.924 250.7 326.826 249.887 325.344C249.073 323.862 248.7 322.029 248.77 319.843ZM254.556 320.052C254.495 321.94 254.804 323.307 255.48 324.154C256.156 325.001 257.099 325.444 258.309 325.483C259.552 325.522 260.527 325.148 261.234 324.363C261.941 323.577 262.328 322.138 262.395 320.045C262.451 318.286 262.137 316.988 261.451 316.154C260.766 315.318 259.815 314.882 258.597 314.843C257.43 314.806 256.479 315.189 255.746 315.991C255.013 316.793 254.616 318.147 254.556 320.052Z" fill="#9085DA"/>
<path d="M271.068 329.897L271.664 311.198L281.308 311.505C283.097 311.561 284.459 311.758 285.394 312.095C286.329 312.431 287.073 313.022 287.626 313.87C288.179 314.718 288.436 315.737 288.398 316.927C288.364 317.965 288.114 318.853 287.647 319.591C287.181 320.33 286.551 320.921 285.761 321.363C285.257 321.645 284.572 321.87 283.706 322.038C284.387 322.291 284.882 322.536 285.19 322.775C285.397 322.935 285.695 323.273 286.083 323.788C286.472 324.303 286.73 324.698 286.857 324.975L289.487 330.483L282.949 330.275L280.038 324.463C279.669 323.712 279.336 323.219 279.036 322.989C278.628 322.686 278.16 322.526 277.632 322.509L277.121 322.493L276.879 330.082L271.068 329.897ZM277.236 318.959L279.675 319.037C279.939 319.045 280.452 318.977 281.216 318.83C281.602 318.765 281.921 318.58 282.173 318.273C282.426 317.966 282.559 317.608 282.572 317.2C282.591 316.597 282.415 316.127 282.041 315.792C281.668 315.457 280.954 315.272 279.898 315.238L277.356 315.158L277.236 318.959Z" fill="#9085DA"/>
<path d="M280.279 361.668C279.874 361.668 279.471 361.504 279.175 361.182L269.43 350.534L258.916 360.125C258.307 360.682 257.362 360.638 256.806 360.031L247.061 349.382L236.547 358.974C235.938 359.53 234.992 359.487 234.436 358.88L224.692 348.231L214.177 357.824C213.886 358.091 213.492 358.231 213.103 358.214C212.707 358.196 212.334 358.022 212.067 357.73L202.322 347.081L191.808 356.672C191.199 357.228 190.254 357.184 189.697 356.578C189.141 355.97 189.184 355.026 189.793 354.47L201.409 343.871C202.018 343.313 202.963 343.357 203.521 343.966L213.266 354.614L223.78 345.021C224.071 344.754 224.464 344.616 224.854 344.632C225.25 344.65 225.623 344.824 225.89 345.116L235.635 355.764L246.149 346.173C246.757 345.616 247.703 345.659 248.26 346.267L258.004 356.916L268.519 347.324C269.128 346.766 270.072 346.809 270.63 347.418L281.382 359.168C281.939 359.777 281.896 360.721 281.287 361.277C281 361.539 280.639 361.668 280.279 361.668Z" fill="#9085DA"/>
<path d="M100.148 408.846L93.0249 405.454L86.6699 374.576L90.1189 370.783L100.148 408.846Z" fill="#4E3CC4"/>
<path d="M100.149 408.846L109.602 403.332L101.497 377.891L90.1191 370.783L100.149 408.846Z" fill="#4E3CC4"/>
<path opacity="0.2" d="M100.149 408.846L109.602 403.332L101.497 377.891L90.1191 370.783L100.149 408.846Z" fill="#060415"/>
<path d="M255.181 414.459C254.913 414.459 254.65 414.454 254.395 414.447C251.253 414.361 248.775 411.748 248.862 408.61C248.948 405.474 251.543 403.008 254.707 403.086C263.475 403.372 282.032 397.994 292.633 387.718C293.289 387.083 294.087 386.615 294.962 386.353C312.933 380.968 319.621 391.848 319.898 392.314L310.101 398.099C310.101 398.099 310.139 398.177 310.232 398.307C310.123 398.157 307.578 394.853 299.473 396.897C286.17 409.022 265.749 414.459 255.181 414.459Z" fill="#060415"/>
<path d="M254.551 422.014L233.819 420.709L232.184 382.547L260.045 383.587L254.551 422.014Z" fill="#4E3CC4"/>
<path d="M254.551 422.014L259.396 417.198L262.4 393.402L260.045 383.587L254.551 422.014Z" fill="#4E3CC4"/>
<path opacity="0.2" d="M254.551 422.014L259.396 417.198L262.4 393.402L260.045 383.587L254.551 422.014Z" fill="#060415"/>
<path d="M374.655 407.562C373.935 407.562 373.209 407.336 372.591 406.867C360.759 397.888 344.766 381.947 338.628 366.568C338.538 366.344 338.473 366.109 338.434 365.871C335.441 348.103 332.582 310.7 332.461 309.116C332.319 307.239 333.727 305.6 335.607 305.458C337.482 305.321 339.128 306.722 339.27 308.601C339.3 308.983 342.188 346.751 345.107 364.376C351.229 379.329 367.824 394.684 376.723 401.437C378.224 402.577 378.517 404.716 377.375 406.215C376.705 407.098 375.686 407.562 374.655 407.562Z" fill="#060415"/>
<path d="M390.44 409.285C387.801 409.285 384.807 408.089 381.546 405.733C380.018 404.628 379.676 402.497 380.782 400.972C381.888 399.447 384.023 399.105 385.55 400.208C388.37 402.246 389.91 402.466 390.441 402.466C392.327 402.466 393.856 403.992 393.856 405.875C393.855 407.759 392.326 409.285 390.44 409.285Z" fill="#060415"/>
<path d="M382.503 405.635C386.156 394.798 401.136 396.939 406.295 398.549C411.454 400.158 416.101 402.183 418.896 404.008C421.69 405.832 421.734 408.878 418.009 410.618C413.415 412.764 401.89 410.86 401.89 410.86C407.855 413.468 401.878 417.648 391.412 413.542C388.004 412.206 381.213 409.606 382.503 405.635Z" fill="#4E3CC4"/>
<path d="M346.144 313.792C344.788 323.001 337.152 329.791 330.939 328.879C324.726 327.968 324.468 319.744 325.823 310.535C327.179 301.326 329.635 294.622 335.848 295.533C342.061 296.446 347.5 304.585 346.144 313.792Z" fill="#060415"/>
<path d="M195.907 277.033C196.422 277.033 196.839 276.616 196.839 276.102C196.839 275.588 196.422 275.171 195.907 275.171C195.392 275.171 194.975 275.588 194.975 276.102C194.975 276.616 195.392 277.033 195.907 277.033Z" fill="#060415"/>
<path d="M205.391 282.812C205.391 283.325 204.973 283.743 204.459 283.743C203.944 283.743 203.525 283.325 203.525 282.812C203.525 282.297 203.943 281.881 204.459 281.881C204.974 281.881 205.391 282.297 205.391 282.812Z" fill="#060415"/>
<path d="M206.436 392.952C206.436 393.467 206.018 393.883 205.504 393.883C204.988 393.883 204.57 393.466 204.57 392.952C204.57 392.437 204.988 392.021 205.504 392.021C206.018 392.02 206.436 392.437 206.436 392.952Z" fill="#060415"/>
<path d="M214.989 399.661C214.989 400.176 214.571 400.592 214.055 400.592C213.541 400.592 213.123 400.175 213.123 399.661C213.123 399.146 213.541 398.73 214.055 398.73C214.571 398.729 214.989 399.146 214.989 399.661Z" fill="#060415"/>
<path d="M217.531 419.429L220.615 414.087L217.531 408.745H214.229L216.094 414.087L214.229 419.429H217.531Z" fill="#060415"/>
<path d="M214.447 416.871C212.91 416.871 211.658 415.621 211.658 414.086C211.658 412.552 212.91 411.313 214.447 411.313L209.202 410.265L207.811 414.494L210.151 418.062L214.447 416.871Z" fill="#060415"/>
<path d="M214.894 408.745H208.714L205.629 414.087L208.714 419.429H214.894L217.979 414.087L214.894 408.745ZM211.81 416.871C210.273 416.871 209.021 415.621 209.021 414.087C209.021 412.552 210.273 411.313 211.81 411.313C213.346 411.313 214.587 412.552 214.587 414.087C214.587 415.621 213.346 416.871 211.81 416.871Z" fill="#4E3CC4"/>
<path d="M432.683 408.389L430.393 404.421L432.683 400.455H435.136L433.75 404.422L435.136 408.389H432.683Z" fill="#4E3CC4"/>
<path d="M434.975 406.49C436.116 406.49 437.046 405.561 437.046 404.421C437.046 403.282 436.116 402.362 434.975 402.362L438.87 401.583L439.903 404.724L438.165 407.374L434.975 406.49Z" fill="#4E3CC4"/>
<path d="M434.641 400.455H439.232L441.523 404.421L439.232 408.389H434.641L432.35 404.421L434.641 400.455ZM436.932 406.49C438.074 406.49 439.004 405.561 439.004 404.421C439.004 403.282 438.074 402.362 436.932 402.362C435.791 402.362 434.87 403.282 434.87 404.421C434.869 405.561 435.791 406.49 436.932 406.49Z" fill="#060415"/>
<path d="M347.38 413.655H352.523C353.861 413.655 354.958 412.561 354.958 411.224C354.958 409.887 353.861 408.792 352.523 408.792H347.38C346.04 408.792 344.945 409.887 344.945 411.224C344.945 412.561 346.04 413.655 347.38 413.655Z" fill="#060415"/>
<path d="M339.164 409.068C340.434 406.379 343.512 405.164 346.041 406.354C348.569 407.544 349.589 410.689 348.32 413.378C347.051 416.068 343.972 417.283 341.444 416.093C338.913 414.903 337.893 411.758 339.164 409.068Z" fill="#4E3CC4"/>
<path d="M340.611 416.071L342.021 416.735L346.926 406.35L345.515 405.686L340.611 416.071Z" fill="#060415"/>
</g>
<defs>
<clipPath id="clip0_2024_18866">
<rect width="479" height="424" fill="white" transform="translate(0.5)"/>
</clipPath>
</defs>
</svg>
