<svg width="1440" height="692" viewBox="0 0 1440 692" fill="none" xmlns="http://www.w3.org/2000/svg">
<path d="M861 310H903C914.046 310 923 301.046 923 290V218C923 206.954 931.954 198 943 198H1196.5" stroke="#7A6DD3" stroke-width="4"/>
<path d="M861 346H1196" stroke="#7A6DD3" stroke-width="4"/>
<path d="M1196.5 494H941C929.954 494 921 485.046 921 474V402C921 390.954 912.044 382 900.998 382C888.109 382 876.935 382 861 382" stroke="#7A6DD3" stroke-width="4"/>
<path d="M580 348H263.5" stroke="#7A6DD3" stroke-width="4"/>
<path d="M579 384H342C330.954 384 322 392.954 322 404V477C322 488.046 313.046 497 302 497H264" stroke="#7A6DD3" stroke-width="4"/>
<path d="M264 200H304C315.046 200 324 208.954 324 220V292C324 303.046 332.954 312 344 312H579" stroke="#7A6DD3" stroke-width="4"/>
<path d="M264 53H362.5C373.546 53 382.5 61.9543 382.5 73V256C382.5 267.046 391.454 276 402.5 276H582.5" stroke="#7A6DD3" stroke-width="4"/>
<path d="M582.5 420H402C390.954 420 382 428.954 382 440V625C382 636.046 373.043 645 361.997 645C327.478 645 302.983 645 264 645" stroke="#7A6DD3" stroke-width="4"/>
<g filter="url(#filter0_i_1727_12762)">
<circle cx="216" cy="50" r="50" fill="#060415"/>
</g>
<g clip-path="url(#clip0_1727_12762)">
<path d="M218.013 27.654C216.697 25.4102 215.305 25.4875 213.989 27.654C207.954 36.6291 198.824 50.0919 198.824 56.8233C198.824 61.543 200.759 65.8759 203.853 68.9707C206.948 72.0656 211.281 73.9999 216.001 73.9999C220.721 73.9999 225.053 72.0656 228.148 68.9707C231.243 65.8759 233.177 61.543 233.177 56.8233C233.177 50.0145 224.048 36.6291 218.013 27.654ZM228.38 64.4832C227.142 66.4948 225.363 68.2744 223.196 69.5123C222.191 70.054 220.953 69.7445 220.411 68.7386C219.792 67.6554 220.179 66.4175 221.185 65.8759C222.732 65.0248 223.97 63.7868 224.899 62.3167C225.827 60.8467 226.369 59.1445 226.446 57.3649C226.523 56.2043 227.452 55.3532 228.613 55.4306C229.773 55.508 230.624 56.4364 230.547 57.597C230.392 60.0729 229.618 62.3941 228.38 64.4832Z" fill="#7A6DD3"/>
</g>
<g filter="url(#filter1_i_1727_12762)">
<circle cx="216" cy="198" r="50" fill="#060415"/>
</g>
<g clip-path="url(#clip1_1727_12762)">
<path d="M227.709 191.103C227.381 190.571 226.803 190.247 226.18 190.247H217.924L222.386 176.341C222.561 175.796 222.465 175.198 222.127 174.736C221.791 174.274 221.251 174 220.679 174H212.473C211.694 174 211.003 174.503 210.766 175.245L204.111 195.989C203.936 196.535 204.032 197.132 204.37 197.594C204.706 198.056 205.246 198.33 205.818 198.33H207.263H213.888L211.75 221.17C211.716 221.533 211.945 221.869 212.295 221.97C212.645 222.071 213.017 221.911 213.182 221.585L227.779 192.853C228.061 192.297 228.034 191.634 227.709 191.103Z" fill="#7A6DD3"/>
</g>
<g filter="url(#filter2_i_1727_12762)">
<circle cx="216" cy="346" r="50" fill="#060415"/>
</g>
<path d="M217.875 324.867C208.182 323.773 199.938 331.35 199.938 340.814C199.938 346.734 203.209 352.156 208.364 354.929V360.351C208.364 362.396 210.035 364.049 212.062 364.049H212.462C212.664 365.83 214.153 367.238 216.001 367.238C217.849 367.238 219.337 365.83 219.54 364.049H219.938C221.964 364.049 223.635 362.396 223.635 360.351V354.947C228.88 352.156 232.062 346.751 232.062 340.814C232.062 332.331 225.483 325.742 217.875 324.867ZM211.226 335.48C210.478 336.15 209.361 336.081 208.72 335.338C208.062 334.609 208.115 333.489 208.844 332.831C210.124 331.694 211.653 330.894 213.413 330.449C214.373 330.218 215.333 330.805 215.564 331.747C215.813 332.707 215.226 333.667 214.266 333.898C213.093 334.2 212.062 334.734 211.226 335.48Z" fill="#7A6DD3"/>
<g filter="url(#filter3_i_1727_12762)">
<circle cx="216" cy="494" r="50" fill="#060415"/>
</g>
<g clip-path="url(#clip2_1727_12762)">
<path d="M220.814 511.967C220.814 514.901 219.831 516.901 218.054 517.731C216.163 518.283 214.516 517.825 213.891 517.758C212.129 516.98 209.589 513.542 213.575 510.386C215.012 509.185 216.628 507.836 216.852 503.696C218.176 504.892 220.814 507.799 220.814 511.967ZM211.489 470C215.402 477.953 212.939 482.217 212.939 482.217C212.939 482.217 209.893 480.197 208.728 479.669C209.658 483.991 209.102 489.513 205.702 491.722C192.022 502.307 202.814 513.139 207.166 515.602C205.689 513.788 201.524 507.013 209.914 501.668C218.519 496.137 213.455 489.248 213.455 489.248C213.455 489.248 220.272 488.084 226.485 501.317C228.845 508.086 226.257 513.352 225.126 515.221C230.371 511.772 233.342 505.433 233.342 499.116C233.342 480.81 214.882 470.03 211.489 470Z" fill="#7A6DD3"/>
</g>
<g filter="url(#filter4_i_1727_12762)">
<circle cx="216" cy="642" r="50" fill="#060415"/>
</g>
<g clip-path="url(#clip3_1727_12762)">
<path d="M227.709 635.103C227.381 634.571 226.803 634.247 226.18 634.247H217.924L222.386 620.341C222.561 619.796 222.465 619.198 222.127 618.736C221.791 618.274 221.251 618 220.679 618H212.473C211.694 618 211.003 618.503 210.766 619.245L204.111 639.989C203.936 640.535 204.032 641.132 204.37 641.594C204.706 642.056 205.246 642.33 205.818 642.33H207.263H213.888L211.75 665.17C211.716 665.533 211.945 665.869 212.295 665.97C212.645 666.071 213.017 665.911 213.182 665.585L227.779 636.853C228.061 636.297 228.034 635.634 227.709 635.103Z" fill="#7A6DD3"/>
</g>
<g filter="url(#filter5_i_1727_12762)">
<rect x="573" y="216" width="294" height="294" rx="20" fill="#060415"/>
<path d="M648.955 383.732C645.615 383.732 642.695 383.244 640.195 382.268C637.715 381.271 635.762 379.855 634.336 378.02C632.91 376.164 632.109 373.938 631.934 371.34L631.904 370.871H640.254L640.312 371.193C640.508 372.287 640.996 373.234 641.777 374.035C642.578 374.816 643.613 375.432 644.883 375.881C646.152 376.311 647.588 376.525 649.189 376.525C650.83 376.525 652.236 376.311 653.408 375.881C654.6 375.432 655.518 374.807 656.162 374.006C656.826 373.186 657.158 372.238 657.158 371.164V371.135C657.158 369.709 656.592 368.596 655.459 367.795C654.346 366.975 652.471 366.291 649.834 365.744L645.381 364.865C641.221 364.025 638.086 362.609 635.977 360.617C633.867 358.625 632.812 356.037 632.812 352.854V352.824C632.812 350.246 633.506 348 634.893 346.086C636.279 344.152 638.184 342.658 640.605 341.604C643.027 340.529 645.801 339.992 648.926 339.992C652.188 339.992 655 340.5 657.363 341.516C659.746 342.531 661.602 343.967 662.93 345.822C664.258 347.678 664.99 349.836 665.127 352.297L665.156 352.854H656.807L656.777 352.502C656.621 351.389 656.201 350.441 655.518 349.66C654.834 348.859 653.926 348.244 652.793 347.814C651.68 347.385 650.391 347.17 648.926 347.17C647.422 347.17 646.123 347.395 645.029 347.844C643.936 348.273 643.096 348.869 642.51 349.631C641.943 350.393 641.66 351.281 641.66 352.297V352.326C641.66 353.654 642.227 354.729 643.359 355.549C644.492 356.369 646.27 357.023 648.691 357.512L653.174 358.42C657.607 359.299 660.85 360.695 662.9 362.609C664.971 364.504 666.006 367.111 666.006 370.432V370.461C666.006 373.176 665.322 375.529 663.955 377.521C662.607 379.494 660.654 381.027 658.096 382.121C655.557 383.195 652.51 383.732 648.955 383.732ZM682.574 383.645C679.097 383.645 676.519 382.912 674.839 381.447C673.16 379.982 672.32 377.57 672.32 374.211V358.039H667.955V351.594H672.32V343.918H680.963V351.594H686.705V358.039H680.963V373.273C680.963 374.738 681.285 375.764 681.929 376.35C682.593 376.916 683.57 377.199 684.859 377.199C685.25 377.199 685.591 377.189 685.884 377.17C686.177 377.131 686.451 377.092 686.705 377.053V383.322C686.236 383.4 685.65 383.469 684.947 383.527C684.263 383.605 683.472 383.645 682.574 383.645ZM690.821 383V351.594H699.376V357.072H699.552C700.021 355.139 700.87 353.635 702.101 352.561C703.331 351.486 704.864 350.949 706.7 350.949C707.169 350.949 707.618 350.979 708.048 351.037C708.478 351.096 708.849 351.174 709.161 351.271V358.801C708.81 358.664 708.361 358.557 707.814 358.479C707.267 358.381 706.681 358.332 706.056 358.332C704.65 358.332 703.448 358.605 702.452 359.152C701.456 359.699 700.695 360.5 700.167 361.555C699.64 362.609 699.376 363.898 699.376 365.422V383H690.821ZM722.77 383.645C720.466 383.645 718.503 383.176 716.882 382.238C715.28 381.281 714.05 379.924 713.19 378.166C712.35 376.408 711.93 374.309 711.93 371.867V351.594H720.485V370.08C720.485 372.131 720.964 373.723 721.921 374.855C722.897 375.988 724.343 376.555 726.257 376.555C727.546 376.555 728.649 376.262 729.567 375.676C730.505 375.09 731.227 374.279 731.735 373.244C732.262 372.189 732.526 370.988 732.526 369.641V351.594H741.081V383H732.526V377.814H732.35C731.55 379.631 730.348 381.057 728.747 382.092C727.145 383.127 725.153 383.645 722.77 383.645ZM746.34 383V340.725H754.895V383H746.34ZM766.086 383L756.389 369.113L761.809 362.609L775.959 383H766.086ZM753.84 373.742V364.162H755.071L765.676 351.594H775.373L760.871 368.088H758.967L753.84 373.742ZM787.898 383.645C785.262 383.645 782.986 382.99 781.072 381.682C779.158 380.373 777.684 378.498 776.648 376.057C775.633 373.615 775.125 370.695 775.125 367.297V367.268C775.125 363.85 775.643 360.93 776.678 358.508C777.713 356.066 779.178 354.201 781.072 352.912C782.986 351.604 785.262 350.949 787.898 350.949C790.125 350.949 792.078 351.496 793.758 352.59C795.438 353.664 796.707 355.148 797.566 357.043H797.742V340.725H806.297V383H797.742V377.639H797.566C796.727 379.514 795.467 380.988 793.787 382.062C792.127 383.117 790.164 383.645 787.898 383.645ZM790.77 376.555C792.156 376.555 793.377 376.184 794.432 375.441C795.486 374.68 796.307 373.605 796.893 372.219C797.479 370.832 797.771 369.191 797.771 367.297V367.268C797.771 365.373 797.469 363.742 796.863 362.375C796.277 360.988 795.457 359.924 794.402 359.182C793.367 358.42 792.156 358.039 790.77 358.039C789.344 358.039 788.113 358.41 787.078 359.152C786.043 359.895 785.242 360.959 784.676 362.346C784.109 363.713 783.826 365.354 783.826 367.268V367.297C783.826 369.191 784.1 370.832 784.646 372.219C785.213 373.605 786.014 374.68 787.049 375.441C788.104 376.184 789.344 376.555 790.77 376.555Z" fill="#7A6DD3"/>
</g>
<g filter="url(#filter6_i_1727_12762)">
<circle cx="1244" cy="198" r="50" fill="#060415"/>
</g>
<path d="M1254 188C1252.67 187.998 1251.4 187.471 1250.47 186.534C1249.53 185.596 1249 184.326 1249 183V176H1232C1230.67 176 1229.4 176.527 1228.46 177.464C1227.53 178.402 1227 179.674 1227 181V215C1227 216.326 1227.53 217.598 1228.46 218.536C1229.4 219.473 1230.67 220 1232 220H1256C1256.66 220 1257.31 219.871 1257.91 219.619C1258.52 219.368 1259.07 219 1259.54 218.536C1260 218.071 1260.37 217.52 1260.62 216.913C1260.87 216.307 1261 215.657 1261 215V188H1254ZM1234 185H1245C1245.27 185 1245.52 185.105 1245.71 185.293C1245.89 185.48 1246 185.735 1246 186C1246 186.265 1245.89 186.52 1245.71 186.707C1245.52 186.895 1245.27 187 1245 187H1234C1233.73 187 1233.48 186.895 1233.29 186.707C1233.11 186.52 1233 186.265 1233 186C1233 185.735 1233.11 185.48 1233.29 185.293C1233.48 185.105 1233.73 185 1234 185ZM1249 213H1234C1233.73 213 1233.48 212.895 1233.29 212.707C1233.11 212.52 1233 212.265 1233 212C1233 211.735 1233.11 211.48 1233.29 211.293C1233.48 211.105 1233.73 211 1234 211H1249C1249.27 211 1249.52 211.105 1249.71 211.293C1249.89 211.48 1250 211.735 1250 212C1250 212.265 1249.89 212.52 1249.71 212.707C1249.52 212.895 1249.27 213 1249 213ZM1254 208H1234C1233.73 208 1233.48 207.895 1233.29 207.707C1233.11 207.52 1233 207.265 1233 207C1233 206.735 1233.11 206.48 1233.29 206.293C1233.48 206.105 1233.73 206 1234 206H1254C1254.27 206 1254.52 206.105 1254.71 206.293C1254.89 206.48 1255 206.735 1255 207C1255 207.265 1254.89 207.52 1254.71 207.707C1254.52 207.895 1254.27 208 1254 208ZM1254 203H1234C1233.73 203 1233.48 202.895 1233.29 202.707C1233.11 202.52 1233 202.265 1233 202C1233 201.735 1233.11 201.48 1233.29 201.293C1233.48 201.105 1233.73 201 1234 201H1254C1254.27 201 1254.52 201.105 1254.71 201.293C1254.89 201.48 1255 201.735 1255 202C1255 202.265 1254.89 202.52 1254.71 202.707C1254.52 202.895 1254.27 203 1254 203ZM1254 198H1234C1233.73 198 1233.48 197.895 1233.29 197.707C1233.11 197.52 1233 197.265 1233 197C1233 196.735 1233.11 196.48 1233.29 196.293C1233.48 196.105 1233.73 196 1234 196H1254C1254.27 196 1254.52 196.105 1254.71 196.293C1254.89 196.48 1255 196.735 1255 197C1255 197.265 1254.89 197.52 1254.71 197.707C1254.52 197.895 1254.27 198 1254 198ZM1254 193H1237C1236.73 193 1236.48 192.895 1236.29 192.707C1236.11 192.52 1236 192.265 1236 192C1236 191.735 1236.11 191.48 1236.29 191.293C1236.48 191.105 1236.73 191 1237 191H1254C1254.27 191 1254.52 191.105 1254.71 191.293C1254.89 191.48 1255 191.735 1255 192C1255 192.265 1254.89 192.52 1254.71 192.707C1254.52 192.895 1254.27 193 1254 193Z" fill="#7A6DD3"/>
<path d="M1260.41 185.414L1251.59 176.586C1251.42 176.419 1251.22 176.283 1251 176.186V183C1251 183.796 1251.32 184.559 1251.88 185.121C1252.44 185.684 1253.2 186 1254 186H1260.81C1260.72 185.782 1260.58 185.584 1260.41 185.414Z" fill="#7A6DD3"/>
<g filter="url(#filter7_i_1727_12762)">
<circle cx="1244" cy="346" r="50" fill="#060415"/>
</g>
<g clip-path="url(#clip4_1727_12762)">
<path fill-rule="evenodd" clip-rule="evenodd" d="M1263.76 365.765H1224.24C1221.9 365.765 1220 363.865 1220 361.522V330.478C1220 328.134 1221.9 326.235 1224.24 326.235H1239.06C1240.34 326.235 1241.76 327.053 1242.39 328.168L1243.82 330.666C1243.95 330.899 1244.43 331.177 1244.7 331.177H1263.76C1266.1 331.177 1268 333.076 1268 335.416V361.525C1268 363.87 1266.1 365.765 1263.76 365.765ZM1243.3 344.588C1242.91 344.588 1242.59 344.902 1242.59 345.295V355.176C1242.59 355.566 1242.9 355.882 1243.3 355.882H1244.7C1245.09 355.882 1245.41 355.569 1245.41 355.176V345.295C1245.41 344.905 1245.1 344.588 1244.7 344.588H1243.3ZM1236.95 348.824C1236.55 348.824 1236.24 349.145 1236.24 349.526V355.18C1236.24 355.568 1236.55 355.882 1236.95 355.882H1238.35C1238.74 355.882 1239.06 355.561 1239.06 355.18V349.526C1239.06 349.138 1238.75 348.824 1238.35 348.824H1236.95ZM1251.05 355.882C1251.45 355.882 1251.76 355.572 1251.76 355.175V341.061C1251.76 340.67 1251.45 340.353 1251.05 340.353H1249.65C1249.26 340.353 1248.94 340.663 1248.94 341.061V355.175C1248.94 355.566 1249.25 355.882 1249.65 355.882H1251.05Z" fill="#7A6DD3"/>
</g>
<g filter="url(#filter8_i_1727_12762)">
<circle cx="1244" cy="494" r="50" fill="#060415"/>
</g>
<g clip-path="url(#clip5_1727_12762)">
<path d="M1221.33 500.708H1226.67C1227.4 500.708 1228 501.305 1228 502.042V515.375C1228 516.111 1227.4 516.708 1226.67 516.708H1221.33C1220.6 516.708 1220 516.111 1220 515.375V502.042C1220 501.305 1220.6 500.708 1221.33 500.708Z" fill="#7A6DD3"/>
<path d="M1234.67 490.042H1240C1240.74 490.042 1241.33 490.639 1241.33 491.375V515.375C1241.33 516.111 1240.74 516.708 1240 516.708H1234.67C1233.93 516.708 1233.33 516.111 1233.33 515.375V491.375C1233.33 490.639 1233.93 490.042 1234.67 490.042Z" fill="#7A6DD3"/>
<path d="M1248 495.375H1253.33C1254.07 495.375 1254.67 495.972 1254.67 496.708V515.375C1254.67 516.111 1254.07 516.708 1253.33 516.708H1248C1247.26 516.708 1246.67 516.111 1246.67 515.375V496.708C1246.67 495.972 1247.26 495.375 1248 495.375Z" fill="#7A6DD3"/>
<path d="M1261.33 487.375H1266.67C1267.4 487.375 1268 487.972 1268 488.708V515.375C1268 516.111 1267.4 516.708 1266.67 516.708H1261.33C1260.6 516.708 1260 516.111 1260 515.375V488.708C1260 487.972 1260.6 487.375 1261.33 487.375Z" fill="#7A6DD3"/>
<path d="M1264 471.375C1261.79 471.377 1260 473.167 1260 475.375C1260.01 475.811 1260.08 476.242 1260.23 476.652L1253.55 480.62C1252.68 479.691 1251.41 479.241 1250.14 479.41C1248.88 479.58 1247.77 480.348 1247.17 481.475L1241.28 478.559C1241.31 478.388 1241.33 478.215 1241.33 478.042C1241.34 476.422 1240.36 474.961 1238.87 474.34C1237.37 473.719 1235.65 474.06 1234.51 475.205C1233.36 476.349 1233.02 478.071 1233.64 479.566L1226 485.266C1225.4 484.905 1224.71 484.712 1224 484.708C1221.79 484.708 1220 486.499 1220 488.708C1220 490.917 1221.79 492.708 1224 492.708C1226.21 492.708 1228 490.917 1228 488.708C1228 488.227 1227.91 487.751 1227.73 487.302L1235.44 481.546C1236.95 482.387 1238.84 482.141 1240.08 480.938L1246.77 484.254C1247.22 486.242 1249.09 487.576 1251.11 487.351C1253.14 487.125 1254.67 485.413 1254.67 483.375C1254.67 483.273 1254.64 483.178 1254.64 483.078L1261.9 478.762C1262.53 479.16 1263.25 479.373 1264 479.375C1266.21 479.375 1268 477.584 1268 475.375C1268 473.166 1266.21 471.375 1264 471.375Z" fill="#7A6DD3"/>
</g>
<defs>
<filter id="filter0_i_1727_12762" x="166" y="0" width="100" height="100" filterUnits="userSpaceOnUse" color-interpolation-filters="sRGB">
<feFlood flood-opacity="0" result="BackgroundImageFix"/>
<feBlend mode="normal" in="SourceGraphic" in2="BackgroundImageFix" result="shape"/>
<feColorMatrix in="SourceAlpha" type="matrix" values="0 0 0 0 0 0 0 0 0 0 0 0 0 0 0 0 0 0 127 0" result="hardAlpha"/>
<feOffset/>
<feGaussianBlur stdDeviation="12"/>
<feComposite in2="hardAlpha" operator="arithmetic" k2="-1" k3="1"/>
<feColorMatrix type="matrix" values="0 0 0 0 0.478431 0 0 0 0 0.427451 0 0 0 0 0.827451 0 0 0 0.8 0"/>
<feBlend mode="normal" in2="shape" result="effect1_innerShadow_1727_12762"/>
</filter>
<filter id="filter1_i_1727_12762" x="166" y="148" width="100" height="100" filterUnits="userSpaceOnUse" color-interpolation-filters="sRGB">
<feFlood flood-opacity="0" result="BackgroundImageFix"/>
<feBlend mode="normal" in="SourceGraphic" in2="BackgroundImageFix" result="shape"/>
<feColorMatrix in="SourceAlpha" type="matrix" values="0 0 0 0 0 0 0 0 0 0 0 0 0 0 0 0 0 0 127 0" result="hardAlpha"/>
<feOffset/>
<feGaussianBlur stdDeviation="12"/>
<feComposite in2="hardAlpha" operator="arithmetic" k2="-1" k3="1"/>
<feColorMatrix type="matrix" values="0 0 0 0 0.478431 0 0 0 0 0.427451 0 0 0 0 0.827451 0 0 0 0.8 0"/>
<feBlend mode="normal" in2="shape" result="effect1_innerShadow_1727_12762"/>
</filter>
<filter id="filter2_i_1727_12762" x="166" y="296" width="100" height="100" filterUnits="userSpaceOnUse" color-interpolation-filters="sRGB">
<feFlood flood-opacity="0" result="BackgroundImageFix"/>
<feBlend mode="normal" in="SourceGraphic" in2="BackgroundImageFix" result="shape"/>
<feColorMatrix in="SourceAlpha" type="matrix" values="0 0 0 0 0 0 0 0 0 0 0 0 0 0 0 0 0 0 127 0" result="hardAlpha"/>
<feOffset/>
<feGaussianBlur stdDeviation="12"/>
<feComposite in2="hardAlpha" operator="arithmetic" k2="-1" k3="1"/>
<feColorMatrix type="matrix" values="0 0 0 0 0.478431 0 0 0 0 0.427451 0 0 0 0 0.827451 0 0 0 0.8 0"/>
<feBlend mode="normal" in2="shape" result="effect1_innerShadow_1727_12762"/>
</filter>
<filter id="filter3_i_1727_12762" x="166" y="444" width="100" height="100" filterUnits="userSpaceOnUse" color-interpolation-filters="sRGB">
<feFlood flood-opacity="0" result="BackgroundImageFix"/>
<feBlend mode="normal" in="SourceGraphic" in2="BackgroundImageFix" result="shape"/>
<feColorMatrix in="SourceAlpha" type="matrix" values="0 0 0 0 0 0 0 0 0 0 0 0 0 0 0 0 0 0 127 0" result="hardAlpha"/>
<feOffset/>
<feGaussianBlur stdDeviation="12"/>
<feComposite in2="hardAlpha" operator="arithmetic" k2="-1" k3="1"/>
<feColorMatrix type="matrix" values="0 0 0 0 0.478431 0 0 0 0 0.427451 0 0 0 0 0.827451 0 0 0 0.8 0"/>
<feBlend mode="normal" in2="shape" result="effect1_innerShadow_1727_12762"/>
</filter>
<filter id="filter4_i_1727_12762" x="166" y="592" width="100" height="100" filterUnits="userSpaceOnUse" color-interpolation-filters="sRGB">
<feFlood flood-opacity="0" result="BackgroundImageFix"/>
<feBlend mode="normal" in="SourceGraphic" in2="BackgroundImageFix" result="shape"/>
<feColorMatrix in="SourceAlpha" type="matrix" values="0 0 0 0 0 0 0 0 0 0 0 0 0 0 0 0 0 0 127 0" result="hardAlpha"/>
<feOffset/>
<feGaussianBlur stdDeviation="12"/>
<feComposite in2="hardAlpha" operator="arithmetic" k2="-1" k3="1"/>
<feColorMatrix type="matrix" values="0 0 0 0 0.478431 0 0 0 0 0.427451 0 0 0 0 0.827451 0 0 0 0.8 0"/>
<feBlend mode="normal" in2="shape" result="effect1_innerShadow_1727_12762"/>
</filter>
<filter id="filter5_i_1727_12762" x="573" y="216" width="294" height="294" filterUnits="userSpaceOnUse" color-interpolation-filters="sRGB">
<feFlood flood-opacity="0" result="BackgroundImageFix"/>
<feBlend mode="normal" in="SourceGraphic" in2="BackgroundImageFix" result="shape"/>
<feColorMatrix in="SourceAlpha" type="matrix" values="0 0 0 0 0 0 0 0 0 0 0 0 0 0 0 0 0 0 127 0" result="hardAlpha"/>
<feOffset/>
<feGaussianBlur stdDeviation="16"/>
<feComposite in2="hardAlpha" operator="arithmetic" k2="-1" k3="1"/>
<feColorMatrix type="matrix" values="0 0 0 0 0.478431 0 0 0 0 0.427451 0 0 0 0 0.827451 0 0 0 0.8 0"/>
<feBlend mode="normal" in2="shape" result="effect1_innerShadow_1727_12762"/>
</filter>
<filter id="filter6_i_1727_12762" x="1194" y="148" width="100" height="100" filterUnits="userSpaceOnUse" color-interpolation-filters="sRGB">
<feFlood flood-opacity="0" result="BackgroundImageFix"/>
<feBlend mode="normal" in="SourceGraphic" in2="BackgroundImageFix" result="shape"/>
<feColorMatrix in="SourceAlpha" type="matrix" values="0 0 0 0 0 0 0 0 0 0 0 0 0 0 0 0 0 0 127 0" result="hardAlpha"/>
<feOffset/>
<feGaussianBlur stdDeviation="12"/>
<feComposite in2="hardAlpha" operator="arithmetic" k2="-1" k3="1"/>
<feColorMatrix type="matrix" values="0 0 0 0 0.478431 0 0 0 0 0.427451 0 0 0 0 0.827451 0 0 0 0.8 0"/>
<feBlend mode="normal" in2="shape" result="effect1_innerShadow_1727_12762"/>
</filter>
<filter id="filter7_i_1727_12762" x="1194" y="296" width="100" height="100" filterUnits="userSpaceOnUse" color-interpolation-filters="sRGB">
<feFlood flood-opacity="0" result="BackgroundImageFix"/>
<feBlend mode="normal" in="SourceGraphic" in2="BackgroundImageFix" result="shape"/>
<feColorMatrix in="SourceAlpha" type="matrix" values="0 0 0 0 0 0 0 0 0 0 0 0 0 0 0 0 0 0 127 0" result="hardAlpha"/>
<feOffset/>
<feGaussianBlur stdDeviation="12"/>
<feComposite in2="hardAlpha" operator="arithmetic" k2="-1" k3="1"/>
<feColorMatrix type="matrix" values="0 0 0 0 0.478431 0 0 0 0 0.427451 0 0 0 0 0.827451 0 0 0 0.8 0"/>
<feBlend mode="normal" in2="shape" result="effect1_innerShadow_1727_12762"/>
</filter>
<filter id="filter8_i_1727_12762" x="1194" y="444" width="100" height="100" filterUnits="userSpaceOnUse" color-interpolation-filters="sRGB">
<feFlood flood-opacity="0" result="BackgroundImageFix"/>
<feBlend mode="normal" in="SourceGraphic" in2="BackgroundImageFix" result="shape"/>
<feColorMatrix in="SourceAlpha" type="matrix" values="0 0 0 0 0 0 0 0 0 0 0 0 0 0 0 0 0 0 127 0" result="hardAlpha"/>
<feOffset/>
<feGaussianBlur stdDeviation="12"/>
<feComposite in2="hardAlpha" operator="arithmetic" k2="-1" k3="1"/>
<feColorMatrix type="matrix" values="0 0 0 0 0.478431 0 0 0 0 0.427451 0 0 0 0 0.827451 0 0 0 0.8 0"/>
<feBlend mode="normal" in2="shape" result="effect1_innerShadow_1727_12762"/>
</filter>
<clipPath id="clip0_1727_12762">
<rect width="48" height="48" fill="white" transform="translate(192 26)"/>
</clipPath>
<clipPath id="clip1_1727_12762">
<rect width="48" height="48" fill="white" transform="translate(192 174)"/>
</clipPath>
<clipPath id="clip2_1727_12762">
<rect width="48" height="48" fill="white" transform="translate(192 470)"/>
</clipPath>
<clipPath id="clip3_1727_12762">
<rect width="48" height="48" fill="white" transform="translate(192 618)"/>
</clipPath>
<clipPath id="clip4_1727_12762">
<rect width="48" height="48" fill="white" transform="translate(1220 322)"/>
</clipPath>
<clipPath id="clip5_1727_12762">
<rect width="48" height="48" fill="white" transform="translate(1220 470)"/>
</clipPath>
</defs>
</svg>
