<svg width="152" height="40" viewBox="0 0 152 40" fill="none" xmlns="http://www.w3.org/2000/svg">
<path d="M37.003 8.66142L57.1604 8.8189L53.5672 20.1575H62.6223L68.9715 0H40.7825L38.5118 5.20367L37.003 8.66142Z" fill="#FBB343"/>
<path d="M53.5672 20.1575L50.0738 31.1811H36.8455L39.9951 40H56.373L62.6223 20.1575H53.5672Z" fill="#FF6A6B"/>
<path d="M36.8455 31.1811H12.5935L15.9971 20.1575H6.87461L0.625 40H39.9951L36.8455 31.1811Z" fill="#554E84"/>
<path d="M20.625 5.19685L38.5118 5.20367L40.7825 0H13.2234L6.87461 20.1575H15.9971L20.625 5.19685Z" fill="#2EB297"/>
<path d="M92.6504 27.332C91.5241 27.332 90.5475 27.166 89.7207 26.834C88.8939 26.4954 88.2428 26.0202 87.7676 25.4082C87.2988 24.7897 87.0352 24.0605 86.9766 23.2207L86.9668 23.0645H89.7988L89.8086 23.1621C89.8542 23.5137 90.0039 23.8229 90.2578 24.0898C90.5117 24.3568 90.8503 24.5651 91.2734 24.7148C91.6966 24.8646 92.1784 24.9395 92.7188 24.9395C93.2526 24.9395 93.7181 24.8613 94.1152 24.7051C94.5124 24.5488 94.8216 24.334 95.043 24.0605C95.2643 23.7806 95.375 23.4616 95.375 23.1035V23.0938C95.375 22.6315 95.1862 22.2637 94.8086 21.9902C94.4375 21.7103 93.8158 21.4792 92.9434 21.2969L91.4492 20.9941C90.0039 20.7012 88.9427 20.2161 88.2656 19.5391C87.5951 18.8555 87.2598 17.9798 87.2598 16.9121V16.9023C87.2663 16.0365 87.4974 15.278 87.9531 14.627C88.4154 13.9759 89.0501 13.4714 89.8574 13.1133C90.6647 12.7552 91.5892 12.5762 92.6309 12.5762C93.7246 12.5762 94.6654 12.752 95.4531 13.1035C96.2409 13.4551 96.8529 13.9401 97.2891 14.5586C97.7318 15.1706 97.9824 15.877 98.041 16.6777L98.0508 16.8047H95.2773L95.2578 16.6875C95.2057 16.3424 95.0658 16.043 94.8379 15.7891C94.61 15.5352 94.3073 15.3366 93.9297 15.1934C93.5586 15.0436 93.1257 14.9688 92.6309 14.9688C92.1426 14.9688 91.7161 15.0404 91.3516 15.1836C90.9935 15.3268 90.7135 15.5286 90.5117 15.7891C90.3099 16.043 90.209 16.3457 90.209 16.6973V16.707C90.209 17.1562 90.3945 17.5241 90.7656 17.8105C91.1367 18.097 91.7357 18.3249 92.5625 18.4941L94.0469 18.7969C95.5378 19.0964 96.6217 19.5651 97.2988 20.2031C97.9824 20.8346 98.3242 21.7005 98.3242 22.8008V22.8105C98.3242 23.735 98.0964 24.5358 97.6406 25.2129C97.1849 25.89 96.5306 26.4141 95.6777 26.7852C94.8314 27.1497 93.8223 27.332 92.6504 27.332ZM105.004 27.0781C103.728 27.0781 102.803 26.847 102.23 26.3848C101.664 25.9225 101.381 25.1608 101.381 24.0996V18.4648H99.7793V16.3164H101.381V13.748H104.262V16.3164H106.41V18.4648H104.262V23.5234C104.262 24.0052 104.372 24.3535 104.594 24.5684C104.815 24.7832 105.16 24.8906 105.629 24.8906C105.798 24.8906 105.938 24.8874 106.049 24.8809C106.166 24.8743 106.286 24.8646 106.41 24.8516V26.9609C106.241 26.9935 106.033 27.0195 105.785 27.0391C105.544 27.0651 105.284 27.0781 105.004 27.0781ZM108.598 27V16.3164H111.449V18.0254H111.596C111.765 17.4264 112.077 16.9609 112.533 16.6289C112.989 16.2969 113.555 16.1309 114.232 16.1309C114.415 16.1309 114.594 16.1439 114.77 16.1699C114.945 16.196 115.102 16.2285 115.238 16.2676V18.7578C115.049 18.7057 114.848 18.6667 114.633 18.6406C114.424 18.6081 114.21 18.5918 113.988 18.5918C113.467 18.5918 113.015 18.6895 112.631 18.8848C112.253 19.0801 111.96 19.36 111.752 19.7246C111.55 20.0827 111.449 20.5156 111.449 21.0234V27H108.598ZM120.512 27.2246C119.717 27.2246 119.05 27.0684 118.51 26.7559C117.969 26.4434 117.559 25.9876 117.279 25.3887C117.006 24.7897 116.869 24.0671 116.869 23.2207V16.3164H119.721V22.5859C119.721 23.3281 119.874 23.8945 120.18 24.2852C120.486 24.6693 120.974 24.8613 121.645 24.8613C122.1 24.8613 122.488 24.7637 122.807 24.5684C123.126 24.3665 123.37 24.0866 123.539 23.7285C123.708 23.3704 123.793 22.957 123.793 22.4883V16.3164H126.645V27H123.793V25.3301H123.646C123.399 25.916 123.008 26.3783 122.475 26.7168C121.941 27.0553 121.286 27.2246 120.512 27.2246ZM129.359 27V12.3223H132.211V27H129.359ZM136.078 27L132.797 22.3418L134.848 20.5254L139.428 27H136.078ZM131.977 23.6797L131.908 20.5449H132.357L135.932 16.3164H139.174L134.652 21.3457L133.334 22.2246L131.977 23.6797ZM144.242 27.1855C143.35 27.1855 142.579 26.9642 141.928 26.5215C141.277 26.0723 140.775 25.4375 140.424 24.6172C140.072 23.7904 139.896 22.8073 139.896 21.668V21.6484C139.896 20.5026 140.069 19.5195 140.414 18.6992C140.766 17.8724 141.264 17.2376 141.908 16.7949C142.559 16.3522 143.334 16.1309 144.232 16.1309C144.975 16.1309 145.629 16.3034 146.195 16.6484C146.762 16.9935 147.182 17.4622 147.455 18.0547H147.602V12.3223H150.453V27H147.602V25.3105H147.455C147.182 25.8965 146.765 26.3555 146.205 26.6875C145.652 27.0195 144.997 27.1855 144.242 27.1855ZM145.209 24.8223C145.704 24.8223 146.13 24.6953 146.488 24.4414C146.853 24.1875 147.133 23.8262 147.328 23.3574C147.53 22.8822 147.631 22.319 147.631 21.668V21.6484C147.631 20.9974 147.53 20.4375 147.328 19.9688C147.126 19.4935 146.843 19.1289 146.479 18.875C146.12 18.6211 145.697 18.4941 145.209 18.4941C144.714 18.4941 144.285 18.6211 143.92 18.875C143.562 19.1289 143.285 19.4935 143.09 19.9688C142.895 20.4375 142.797 20.9974 142.797 21.6484V21.668C142.797 22.319 142.895 22.8822 143.09 23.3574C143.285 23.8262 143.562 24.1875 143.92 24.4414C144.285 24.6953 144.714 24.8223 145.209 24.8223Z" fill="#E8E6F7"/>
</svg>
