<svg width="24" height="24" viewBox="0 0 24 24" fill="none" xmlns="http://www.w3.org/2000/svg">
<path d="M21.9393 13.6903V20.2209C21.9393 20.6293 21.8537 21.0014 21.68 21.3429C21.5074 21.6868 21.2715 21.9873 20.9722 22.2455C20.6741 22.5049 20.3302 22.7056 19.9393 22.8547C19.5461 23.0026 19.1236 23.0777 18.6682 23.0777H5.31956C4.87472 23.0777 4.4557 23.0026 4.06368 22.8547C3.67166 22.7056 3.32659 22.5049 3.02964 22.2455C2.73386 21.9873 2.4956 21.6868 2.32072 21.3429C2.14818 21.0014 2.0625 20.6293 2.0625 20.2209V13.6903C2.0625 13.303 2.14818 12.9333 2.32189 12.5823C2.4956 12.2302 2.73504 11.9262 3.03081 11.675C3.32776 11.4227 3.67284 11.2173 4.06486 11.0647C4.45688 10.9121 4.87589 10.8347 5.32073 10.8347H18.6694C19.1142 10.8347 19.5344 10.9121 19.9323 11.0647C20.329 11.2173 20.6753 11.4227 20.9734 11.675C21.2727 11.9274 21.5074 12.2314 21.6811 12.5823C21.8548 12.9333 21.9393 13.303 21.9393 13.6903ZM6.21393 20.9497V14.0612H7.85126V13.0201H3.43105V14.0319H4.84772V20.9497H6.21393ZM6.88177 4.92502L5.05195 0.923828H6.64468L7.55548 3.91445L8.46276 0.923828H10.0531L8.33952 4.92502V9.58466H6.88177V4.92502ZM11.1834 15.0729H9.81605V18.7502C9.81605 19.0166 9.8184 19.2232 9.82896 19.3652C9.83835 19.5108 9.8184 19.6023 9.7691 19.641C9.72802 19.7995 9.613 19.9157 9.41699 19.9908C9.22802 20.0636 9.08131 19.9603 8.97919 19.6704C8.95807 19.6317 8.95572 19.5342 8.96628 19.3816C8.97567 19.2267 8.97919 19.026 8.97919 18.7772L8.95103 15.0729H7.58248L7.61417 18.7197C7.61417 19.0061 7.60712 19.2455 7.59773 19.4392C7.58834 19.6328 7.59069 19.7784 7.61417 19.8781C7.63294 20.0389 7.65055 20.2079 7.67168 20.3922C7.69046 20.5741 7.78435 20.722 7.95572 20.8312C8.11417 20.9298 8.29961 20.9814 8.51088 20.9814C8.72685 20.9814 8.93577 20.945 9.13765 20.8746C9.34305 20.8042 9.52849 20.7091 9.7022 20.5871C9.87474 20.4638 10.0027 20.33 10.0801 20.1915L10.0531 20.9192L11.1834 20.9486V15.0729ZM9.93225 5.53652C9.93225 4.99075 9.98507 4.53769 10.0813 4.1844C10.2034 3.81586 10.3947 3.55295 10.6635 3.39332C10.9323 3.19496 11.2738 3.0952 11.6905 3.0952C12.0567 3.0952 12.3618 3.15623 12.613 3.2736C12.8595 3.37337 13.0637 3.5459 13.2222 3.79473C13.3419 3.97548 13.4323 4.17619 13.4909 4.40624C13.5473 4.65389 13.579 4.98605 13.579 5.40389V6.96376C13.579 7.53066 13.5473 7.93677 13.4909 8.18677C13.4675 8.4133 13.3712 8.66682 13.1905 8.94499C13.0132 9.19147 12.8208 9.35579 12.613 9.4356C12.3618 9.55532 12.0825 9.61283 11.7632 9.61283C11.4393 9.61283 11.1377 9.56353 10.8724 9.46377C10.6224 9.38513 10.4381 9.24076 10.3219 9.03419C10.2034 8.87222 10.1024 8.65156 10.0215 8.36283C9.96394 8.09287 9.93225 7.69029 9.93225 7.14334V5.53652ZM11.1529 7.96142C11.1529 8.11987 11.2128 8.26189 11.3325 8.3863C11.4499 8.50837 11.5954 8.57057 11.7621 8.57057C11.9193 8.57057 12.0625 8.51189 12.187 8.39217C12.3114 8.2748 12.3712 8.12926 12.3712 7.96142V4.73253C12.3712 4.55412 12.3114 4.40506 12.187 4.28065C12.0637 4.15624 11.9193 4.09286 11.7632 4.09286C11.6048 4.09286 11.4628 4.15624 11.3407 4.28065C11.2163 4.40506 11.1529 4.55412 11.1529 4.73253V7.96142ZM15.6013 19.269V16.2185C15.6013 15.634 15.3947 15.2161 14.9792 14.9697C14.8407 14.891 14.6787 14.8499 14.5015 14.8499C14.1729 14.8499 13.7973 15.0037 13.3712 15.3112V13.0201H12.0027V20.891L13.1341 20.8617L13.2222 20.3711C13.5895 20.6798 13.9217 20.8676 14.2116 20.9368C14.5062 21.0049 14.7515 20.9779 14.9557 20.8535C15.16 20.7314 15.3184 20.5284 15.4311 20.2432C15.5438 19.9615 15.6013 19.634 15.6013 19.269ZM13.9522 15.6093C14.1107 15.6093 14.2492 15.6563 14.3748 15.7514C14.498 15.8453 14.5602 15.9521 14.5602 16.0694V19.5225C14.5602 19.641 14.498 19.7432 14.3748 19.8335C14.2492 19.9227 14.1095 19.9685 13.9522 19.9685C13.7914 19.9685 13.6517 19.9227 13.525 19.8335C13.4029 19.7443 13.3431 19.641 13.3431 19.5225V16.0694C13.3431 15.9509 13.4041 15.8453 13.525 15.7514C13.6517 15.6563 13.7914 15.6093 13.9522 15.6093ZM14.5895 8.97433C14.5543 8.89452 14.5262 8.81001 14.5168 8.72785C14.505 8.64452 14.4921 8.56118 14.4698 8.48254C14.451 8.38278 14.4417 8.24898 14.4417 8.07879V7.4262V3.33581H15.721V8.06588C15.721 8.18677 15.7644 8.28771 15.8536 8.37926C15.9464 8.46729 16.0626 8.51306 16.2116 8.51306C16.3513 8.51306 16.4698 8.46729 16.5684 8.37926C16.6694 8.28888 16.721 8.18677 16.721 8.06588V3.33581H17.9076V9.40626H16.3935L16.4205 8.91564C16.2809 9.11283 16.1494 9.26776 16.0191 9.37574C15.8607 9.47433 15.6881 9.5248 15.498 9.5248C15.2715 9.5248 15.0813 9.47433 14.9323 9.37574C14.802 9.28771 14.6881 9.15273 14.5895 8.97433ZM19.9159 18.884H18.8912V19.0319V19.5518C18.8912 19.7115 18.8337 19.8335 18.7198 19.9227C18.606 20.0131 18.4698 20.0554 18.3126 20.0554H18.1001C17.9428 20.0554 17.8137 20.0131 17.7081 19.9227C17.6036 19.8335 17.5497 19.7103 17.5497 19.5518V19.4932V18.9122V18.1375H19.9159V17.3194C19.9159 17.0131 19.9112 16.7173 19.9006 16.4356C19.8912 16.1516 19.8677 15.9309 19.8278 15.7748C19.7879 15.5049 19.6682 15.2889 19.4616 15.1258C19.2598 14.9626 19.0227 14.8511 18.7492 14.7924C18.4769 14.7302 18.1987 14.7208 17.9147 14.7619C17.633 14.8018 17.39 14.8945 17.1776 15.0436C16.9123 15.222 16.7198 15.4661 16.5989 15.7748C16.4792 16.08 16.4205 16.5072 16.4205 17.0542V18.8852C16.4205 19.6563 16.6259 20.2091 17.032 20.5354C17.4076 20.8417 17.8032 20.9967 18.2198 20.9967C18.2609 20.9967 18.2997 20.9967 18.3419 20.9967C18.809 20.9685 19.2198 20.769 19.5778 20.4016C19.8454 20.134 19.9792 19.7807 19.9792 19.3464C19.964 19.2056 19.9475 19.0507 19.9159 18.884ZM18.8595 17.1399H17.5508L17.5802 16.4133C17.5802 16.2537 17.64 16.1246 17.7586 16.0178C17.8783 15.9133 18.0203 15.8605 18.1917 15.8605H18.2515C18.4276 15.8605 18.579 15.911 18.7046 16.0096C18.8267 16.1093 18.8912 16.2431 18.8912 16.4133L18.8595 17.1399Z" fill="#BCB6E9"/>
</svg>
