<svg width="239" height="60" viewBox="0 0 239 60" fill="none" xmlns="http://www.w3.org/2000/svg">
<path d="M154.517 30.4835C154.533 30.4835 154.533 30.4669 154.55 30.4669C157.083 29.2502 159.933 29.9335 160.05 29.9669C160.1 29.9835 160.133 30.0002 160.183 30.0169C162.183 29.2169 164.133 29.0835 165.45 29.1502V26.3669L161.117 21.5835C160.817 21.2669 160.25 21.0669 159.6 21.0669C158.967 21.0669 158.383 21.2669 158.083 21.5835L157.433 22.3002C157.233 22.5169 156.85 22.5169 156.65 22.3002L153.633 18.9669C153.35 18.6669 152.817 18.4669 152.217 18.4502V40.8669C153.433 41.1335 154.383 41.5502 155.267 41.9835C155.15 41.7669 155.033 41.5669 154.933 41.3502C153.717 38.8335 153.75 36.3335 155.017 34.3169C155.8 33.0669 156.733 32.1169 157.733 31.3835C158 31.1835 158.267 31.0169 158.533 30.8502C157.583 30.8002 156.25 30.8502 155.033 31.4335C154.9 31.5169 154.767 31.6669 154.767 31.7335C154.767 31.7669 154.833 31.9002 155.133 32.1002C155.233 32.1669 155.3 32.2502 155.333 32.3502C155.4 32.5002 155.383 32.6835 155.283 32.8335C155.183 33.0002 155.017 33.0835 154.833 33.0835C154.733 33.0835 154.633 33.0502 154.55 33.0002C153.967 32.6335 153.683 32.2002 153.7 31.7169C153.7 30.9669 154.433 30.5335 154.517 30.4835Z" fill="#BCB6E9"/>
<path d="M162.317 50.1334C158.85 50.1334 157.1 49.25 155.4 48.3834C154.433 47.9 153.483 47.4167 152.217 47.1167V51.1834C153.733 51.5167 154.817 52.0667 155.867 52.6C157.533 53.4334 159.1 54.2167 162.317 54.2334C162.333 54.2334 162.35 54.2334 162.367 54.2334C163.6 54.2334 164.6 54.1167 165.45 53.9167V49.85C164.583 50.0334 163.583 50.1334 162.367 50.1334C162.35 50.1334 162.333 50.1334 162.317 50.1334Z" fill="#BCB6E9"/>
<path d="M154.934 18.8169C155.501 14.6835 159.051 11.4835 163.335 11.4835C163.685 11.4835 164.018 11.5002 164.351 11.5502C164.285 11.3669 164.218 11.2002 164.135 11.0169C163.301 9.05019 162.118 7.28353 160.601 5.78353C159.085 4.26686 157.335 3.08353 155.368 2.2502C153.335 1.38353 151.185 0.950195 148.951 0.950195V14.1835C150.735 14.1835 152.185 15.6169 152.218 17.3835C153.118 17.4002 153.951 17.7169 154.435 18.2502L154.934 18.8169Z" fill="#BCB6E9"/>
<path d="M155.918 19.8999L157.051 21.1499L157.301 20.8666C157.801 20.3333 158.668 19.9999 159.601 19.9999C160.535 19.9999 161.401 20.3333 161.901 20.8833L165.451 24.7999V17.4666C165.451 15.8333 165.218 14.2499 164.751 12.7166C164.301 12.6333 163.818 12.5833 163.351 12.5833C159.268 12.5499 155.968 15.8499 155.918 19.8999Z" fill="#BCB6E9"/>
<path d="M162.318 44.9835C161.201 44.9835 160.251 44.8835 159.435 44.7335C159.235 44.8835 158.985 45.0001 158.635 45.1001C158.585 45.1168 158.534 45.1168 158.484 45.1168C158.468 45.1168 158.451 45.1168 158.435 45.1168C157.935 45.0668 157.268 44.5668 156.585 43.8168C156.168 43.6335 155.768 43.4335 155.385 43.2335C154.418 42.7501 153.468 42.2668 152.201 41.9668V46.0335C153.718 46.3668 154.801 46.9168 155.851 47.4501C157.518 48.2835 159.085 49.0668 162.301 49.0835C162.318 49.0835 162.335 49.0835 162.351 49.0835C163.585 49.0835 164.585 48.9668 165.435 48.7668V44.7001C164.568 44.8835 163.568 44.9835 162.351 44.9835C162.351 44.9835 162.335 44.9835 162.318 44.9835Z" fill="#BCB6E9"/>
<path d="M155.4 53.5499C154.433 53.0665 153.483 52.5832 152.217 52.2832V56.3499C153.733 56.6832 154.817 57.2332 155.867 57.7665C157.533 58.5999 159.1 59.3832 162.317 59.3999C162.333 59.3999 162.35 59.3999 162.367 59.3999C163.617 59.3999 164.6 59.2832 165.45 59.0832V55.0165C164.567 55.1999 163.55 55.2999 162.317 55.2999C158.85 55.2999 157.1 54.4165 155.4 53.5499Z" fill="#BCB6E9"/>
<path d="M166.467 30.3499C166.233 30.2999 165.883 30.2499 165.45 30.2166C163.2 30.0832 158.6 30.6332 155.917 34.8832C154.6 36.9666 155.117 39.1666 155.783 40.6332C156.217 41.5832 156.75 42.3666 157.25 42.9332C157.783 43.5499 158.267 43.9332 158.5 44.0332C158.8 43.9332 158.983 43.7832 159.05 43.6166C159.05 43.5999 159.05 43.5832 159.067 43.5666C159.15 43.2332 158.933 42.7666 158.85 42.6332C158.767 42.4999 158.75 42.3499 158.783 42.1999C158.817 42.0499 158.917 41.9332 159.05 41.8666C160.317 41.2166 160.717 40.7166 160.833 40.4332C158.217 41.4166 157.083 39.5499 157.067 39.5332C156.917 39.2832 157 38.9499 157.25 38.7999C157.5 38.6499 157.817 38.7332 157.967 38.9666C157.967 38.9666 157.967 38.9832 157.983 38.9832C158.067 39.1166 158.883 40.2832 161 39.1999C161.217 39.0999 161.467 39.1332 161.633 39.3166C161.683 39.3666 162.05 39.7832 161.933 40.4666C161.8 41.1999 161.15 41.8999 159.983 42.5666C160.1 42.8832 160.2 43.3166 160.1 43.7666C160.75 43.8666 161.483 43.9166 162.333 43.9166C162.35 43.9166 162.367 43.9166 162.383 43.9166C163.617 43.9166 164.617 43.7999 165.467 43.5999V35.4999C163.967 36.8832 161.95 37.9332 159.417 38.6332C159.183 38.6999 158.95 38.5999 158.833 38.4166C158.8 38.3666 158.783 38.3166 158.767 38.2666C158.683 37.9832 158.85 37.6832 159.133 37.6166C161.917 36.8499 164.033 35.6166 165.467 33.9666C166.133 33.1999 166.65 32.3332 167 31.3666C167.083 31.1332 167.083 30.9332 166.983 30.7499C166.867 30.5499 166.667 30.3999 166.467 30.3499Z" fill="#BCB6E9"/>
<path d="M147.817 0H144.551V15.1333H147.817V0Z" fill="#BCB6E9"/>
<path d="M189.101 55.3667C189.085 55.3667 189.068 55.3667 189.051 55.3667C185.585 55.3667 183.835 54.4834 182.135 53.6167C180.468 52.7834 178.901 52.0001 175.685 51.9834C175.668 51.9834 175.651 51.9834 175.635 51.9834C172.751 51.9834 171.201 52.6167 169.701 53.3501C169.751 53.5001 169.818 53.6334 169.868 53.7834C170.301 54.8001 170.818 55.7501 171.435 56.6501C172.535 56.3167 173.851 56.0834 175.618 56.0834C175.635 56.0834 175.651 56.0834 175.668 56.0834C179.135 56.0834 180.885 56.9667 182.585 57.8334C184.251 58.6667 185.818 59.4501 189.035 59.4667C189.051 59.4667 189.068 59.4667 189.084 59.4667C192.268 59.4667 193.835 58.6834 195.485 57.8667C196.451 57.3834 197.435 56.9001 198.751 56.5667C199.335 55.7001 199.835 54.7667 200.251 53.8001C200.485 53.2501 200.685 52.7001 200.851 52.1334C198.635 52.3334 197.335 52.9834 195.968 53.6667C194.301 54.5001 192.551 55.3667 189.101 55.3667Z" fill="#BCB6E9"/>
<path d="M189.118 45.0499C189.102 45.0499 189.085 45.0499 189.068 45.0499C188.818 45.0499 188.585 45.0499 188.352 45.0333V47.3666C188.352 47.9999 188.168 48.5999 187.852 49.0999C188.235 49.1333 188.635 49.1499 189.068 49.1499C189.085 49.1499 189.102 49.1499 189.118 49.1499C192.302 49.1499 193.868 48.3666 195.518 47.5499C197.068 46.7833 198.668 45.9833 201.585 45.8666V41.7666C198.935 41.8833 197.502 42.5999 196.002 43.3499C194.302 44.1833 192.552 45.0499 189.118 45.0499Z" fill="#BCB6E9"/>
<path d="M196.751 5.78353C195.234 4.26686 193.484 3.08353 191.517 2.2502C189.484 1.38353 187.317 0.950195 185.101 0.950195C182.884 0.950195 180.717 1.38353 178.684 2.2502C176.717 3.08353 174.951 4.26686 173.451 5.78353C171.934 7.3002 170.751 9.05019 169.917 11.0169C169.551 11.8835 169.267 12.7669 169.051 13.6669C170.484 14.9502 171.467 16.7169 171.767 18.7002L172.201 18.2169C172.701 17.6669 173.551 17.3335 174.501 17.3335C175.451 17.3335 176.301 17.6669 176.801 18.2169L181.484 23.3835L181.851 23.7669V17.4169C181.851 15.6169 183.317 14.1502 185.117 14.1502C186.917 14.1502 188.384 15.6169 188.384 17.4169V30.5835L190.101 32.3835C190.384 32.0835 190.767 31.9002 191.201 31.9002H192.434V30.5002C192.434 29.6669 193.117 28.9835 193.951 28.9835H195.184V27.5835C195.184 26.7502 195.867 26.0669 196.701 26.0669H197.934V24.6669C197.934 23.8335 198.617 23.1502 199.451 23.1502H201.617V17.4169C201.617 15.2002 201.184 13.0335 200.317 11.0002C199.451 9.06686 198.267 7.3002 196.751 5.78353Z" fill="#BCB6E9"/>
<path d="M175.651 45.7665C175.667 45.7665 175.684 45.7665 175.701 45.7665C178.634 45.7665 180.334 46.3998 181.817 47.1165V43.7498C181.017 43.3498 180.284 42.8332 179.634 42.2165C178.601 41.8998 177.384 41.6832 175.701 41.6665C175.684 41.6665 175.667 41.6665 175.651 41.6665C172.467 41.6665 170.901 42.4498 169.251 43.2665C169.034 43.3832 168.817 43.4832 168.584 43.5832V47.3498C168.584 47.4165 168.584 47.4832 168.584 47.5498C168.651 47.5165 168.701 47.4832 168.767 47.4665C170.467 46.6332 172.217 45.7665 175.651 45.7665Z" fill="#BCB6E9"/>
<path d="M189.117 50.2002C189.1 50.2002 189.084 50.2002 189.067 50.2002C188.267 50.2002 187.55 50.1502 186.917 50.0668C186.4 50.4168 185.767 50.6335 185.084 50.6335C183.634 50.6335 182.417 49.6835 181.984 48.3835C180.384 47.5835 178.817 46.8502 175.7 46.8335C175.684 46.8335 175.667 46.8335 175.65 46.8335C172.467 46.8335 170.9 47.6168 169.25 48.4335C169.05 48.5335 168.85 48.6335 168.65 48.7335C168.75 49.9668 168.984 51.1835 169.367 52.3502C170.9 51.6168 172.617 50.9335 175.65 50.9335C175.667 50.9335 175.684 50.9335 175.7 50.9335C179.167 50.9335 180.917 51.8168 182.617 52.6835C184.284 53.5168 185.85 54.3002 189.067 54.3168C189.084 54.3168 189.1 54.3168 189.117 54.3168C192.3 54.3168 193.867 53.5335 195.517 52.7168C197 51.9835 198.517 51.2335 201.167 51.0502C201.434 49.8502 201.584 48.6168 201.584 47.3835V46.9335C198.934 47.0502 197.5 47.7668 196 48.5168C194.3 49.3335 192.55 50.2002 189.117 50.2002Z" fill="#BCB6E9"/>
<path d="M168.785 14.9331C168.652 15.7664 168.602 16.5998 168.602 17.4498V22.1998L170.768 19.7998C170.718 17.9164 169.968 16.2164 168.785 14.9331Z" fill="#BCB6E9"/>
<path d="M175.651 40.5998C175.667 40.5998 175.684 40.5998 175.701 40.5998C176.734 40.5998 177.601 40.6831 178.384 40.8164C177.334 39.4331 176.517 37.6998 175.951 35.6164C175.884 35.3831 175.984 35.1498 176.184 35.0331C176.234 34.9998 176.284 34.9831 176.334 34.9664C176.617 34.8831 176.917 35.0498 176.984 35.3331C177.684 37.8831 178.767 39.8664 180.201 41.2664C180.701 41.7498 181.251 42.1664 181.834 42.5164C182.284 42.7831 182.751 43.0164 183.234 43.1998C183.467 43.2831 183.667 43.2831 183.851 43.1831C183.934 43.1498 184.001 43.0831 184.051 43.0164C184.134 42.9164 184.201 42.7998 184.234 42.6831C184.467 41.6664 184.651 38.3164 182.851 35.3164C182.567 34.8498 182.234 34.3831 181.834 33.9331C181.251 33.2831 180.551 32.6664 179.701 32.1331C179.334 31.8998 178.951 31.7164 178.584 31.5998C176.851 31.0164 175.167 31.4498 173.951 31.9998C171.984 32.8831 170.751 34.2664 170.567 34.7164C170.667 35.0164 170.817 35.1998 171.001 35.2664C171.351 35.3998 171.867 35.1331 171.984 35.0664C172.117 34.9831 172.267 34.9664 172.417 34.9998C172.567 35.0331 172.684 35.1331 172.751 35.2664C173.401 36.5331 173.901 36.9331 174.184 37.0498C173.217 34.4331 175.067 33.2998 175.084 33.2831C175.334 33.1331 175.667 33.2164 175.817 33.4664C175.967 33.7164 175.884 34.0331 175.651 34.1831C175.651 34.1831 175.634 34.1831 175.634 34.1998C175.501 34.2831 174.334 35.0998 175.417 37.2164C175.517 37.4331 175.484 37.6831 175.301 37.8498C175.251 37.8998 174.834 38.2664 174.151 38.1498C173.417 38.0164 172.717 37.3664 172.051 36.1998C171.667 36.3331 171.151 36.4498 170.634 36.2498C170.267 36.1164 169.767 35.7498 169.517 34.8664C169.501 34.7998 169.501 34.7331 169.501 34.6664C169.601 33.7164 171.367 32.0831 173.267 31.1498C175.467 30.0831 177.634 29.9664 179.501 30.7998C179.767 30.9164 180.034 31.0664 180.301 31.2331C180.884 31.5998 181.401 31.9998 181.867 32.4164C182.401 32.8998 182.851 33.4164 183.234 33.9331C183.334 34.0664 183.434 34.1998 183.517 34.3498C183.601 34.4831 183.684 34.6164 183.767 34.7331C183.801 34.2664 183.801 33.7164 183.717 33.1331C183.684 32.8998 183.651 32.6498 183.584 32.3998C183.501 32.0164 183.367 31.6164 183.184 31.2331C183.101 31.0998 182.951 30.9664 182.884 30.9664C182.867 30.9664 182.801 30.9998 182.701 31.0998C182.651 31.1498 182.584 31.2331 182.517 31.3331C182.451 31.4331 182.367 31.4998 182.267 31.5331C182.134 31.5831 182.001 31.5831 181.867 31.5331C181.834 31.5164 181.817 31.5164 181.784 31.4998C181.534 31.3331 181.467 31.0164 181.617 30.7664C181.667 30.6998 181.701 30.6331 181.751 30.5831C181.784 30.5331 181.817 30.4831 181.867 30.4498V25.3331L180.717 24.1331L176.017 18.9498C175.717 18.6331 175.151 18.4331 174.501 18.4331C173.867 18.4331 173.284 18.6331 172.984 18.9498L168.617 23.7664V42.3998C168.684 42.3664 168.734 42.3331 168.801 42.2998C170.467 41.4831 172.217 40.5998 175.651 40.5998Z" fill="#BCB6E9"/>
<path d="M198.885 31.2331V38.6498H201.585V30.2998H199.818C199.301 30.2998 198.885 30.7165 198.885 31.2331Z" fill="#BCB6E9"/>
<path d="M198.967 24.6833V26.6167C198.967 26.9167 198.733 27.15 198.433 27.15H196.667C196.417 27.15 196.217 27.35 196.217 27.6V29.5333C196.217 29.8333 195.983 30.0667 195.683 30.0667H193.917C193.667 30.0667 193.467 30.2667 193.467 30.5167V32.45C193.467 32.75 193.233 32.9833 192.933 32.9833H191.167C190.917 32.9833 190.717 33.1833 190.717 33.4333V38.65H197.8V31.2333C197.8 30.1333 198.7 29.2333 199.8 29.2333H201.567V24.25H199.4C199.167 24.2333 198.967 24.4333 198.967 24.6833Z" fill="#BCB6E9"/>
<path d="M189.668 38.6499V33.5332L188.352 32.1499V38.6499H188.418H189.668Z" fill="#BCB6E9"/>
<path d="M188.418 39.7168H188.352V43.9668C188.585 43.9835 188.818 43.9835 189.068 43.9835C189.085 43.9835 189.102 43.9835 189.118 43.9835C192.302 43.9835 193.868 43.2001 195.518 42.3835C197.068 41.6168 198.668 40.8168 201.585 40.7001V39.7168H188.418Z" fill="#BCB6E9"/>
<path d="M217.951 30.2998H216.168V32.7831H217.951V30.2998Z" fill="#BCB6E9"/>
<path d="M233.4 41.3168C234.434 41.6335 235.284 42.0668 236.1 42.4668C236.617 42.7335 237.134 42.9835 237.7 43.2168V33.8335H233.4V41.3168Z" fill="#BCB6E9"/>
<path d="M237.7 30.2998H233.4V32.7831H237.7V30.2998Z" fill="#BCB6E9"/>
<path d="M233.4 15.7334V29.2334H237.7V23.1834C237.35 22.7001 237.017 22.2001 236.667 21.6667C235.284 19.5001 234.167 17.3334 233.4 15.7334Z" fill="#BCB6E9"/>
<path d="M229.184 41.7998C229.168 41.7998 229.151 41.7998 229.134 41.7998C227.051 41.7998 225.651 42.1331 224.484 42.5998V46.6165C225.668 46.1998 227.118 45.8831 229.151 45.8831C229.168 45.8831 229.184 45.8831 229.201 45.8831C232.668 45.8831 234.418 46.7665 236.118 47.6331C236.634 47.8998 237.134 48.1498 237.684 48.3665C237.701 48.0331 237.718 47.6831 237.718 47.3498V44.3665C236.951 44.0831 236.284 43.7498 235.634 43.4165C233.968 42.5998 232.401 41.8165 229.184 41.7998Z" fill="#BCB6E9"/>
<path d="M228.784 15.75C227.851 17.7333 226.368 20.5667 224.484 23.2V29.2333H228.784V15.75Z" fill="#BCB6E9"/>
<path d="M224.467 41.4667C225.583 41.0667 226.933 40.7834 228.767 40.75V33.8667H224.467V41.4667Z" fill="#BCB6E9"/>
<path d="M231.084 12.3501C230.401 12.3501 229.834 12.9001 229.834 13.6001V40.7501C230.784 40.7834 231.601 40.8834 232.317 41.0501V13.6001C232.334 12.9168 231.767 12.3501 231.084 12.3501Z" fill="#BCB6E9"/>
<path d="M229.184 46.9668C229.168 46.9668 229.151 46.9668 229.134 46.9668C227.034 46.9668 225.634 47.3001 224.451 47.7835C224.251 49.4001 222.884 50.6335 221.218 50.6335C220.451 50.6335 219.751 50.3668 219.201 49.9335C218.284 50.1501 217.201 50.2835 215.868 50.2835C215.851 50.2835 215.834 50.2835 215.818 50.2835C212.351 50.2835 210.601 49.4001 208.901 48.5335C207.684 47.9168 206.518 47.3335 204.734 47.0668V47.3668C204.734 48.6835 204.884 49.9668 205.184 51.2168C206.984 51.5335 208.201 52.1335 209.368 52.7335C211.034 53.5668 212.601 54.3501 215.818 54.3668C215.834 54.3668 215.851 54.3668 215.868 54.3668C219.051 54.3668 220.618 53.5835 222.268 52.7668C223.968 51.9335 225.718 51.0501 229.151 51.0501C229.168 51.0501 229.184 51.0501 229.201 51.0501C232.668 51.0501 234.418 51.9335 236.118 52.8001C236.318 52.9001 236.501 53.0001 236.701 53.0835C237.134 51.9168 237.434 50.7168 237.584 49.4835C236.884 49.2168 236.251 48.9001 235.634 48.5835C233.968 47.7668 232.401 46.9668 229.184 46.9668Z" fill="#BCB6E9"/>
<path d="M228.767 30.2998H224.467V32.7831H228.767V30.2998Z" fill="#BCB6E9"/>
<path d="M229.183 52.1333C229.167 52.1333 229.15 52.1333 229.133 52.1333C225.95 52.1333 224.383 52.9166 222.733 53.7333C221.033 54.5666 219.283 55.45 215.85 55.45C215.833 55.45 215.817 55.45 215.8 55.45C212.333 55.45 210.583 54.5666 208.883 53.7C207.85 53.1833 206.867 52.6833 205.5 52.3833C205.65 52.8666 205.833 53.3333 206.017 53.8C206.533 55.0333 207.2 56.2 208 57.25C208.483 57.45 208.917 57.6833 209.35 57.9C211.017 58.7333 212.583 59.5166 215.8 59.5333C215.817 59.5333 215.833 59.5333 215.85 59.5333C219.033 59.5333 220.6 58.75 222.25 57.9333C223.95 57.1 225.7 56.2166 229.133 56.2166C229.15 56.2166 229.167 56.2166 229.183 56.2166C231.583 56.2166 233.15 56.65 234.467 57.1833C235.183 56.2166 235.783 55.1833 236.283 54.0666C236.067 53.9666 235.85 53.85 235.633 53.75C233.967 52.9166 232.4 52.1333 229.183 52.1333Z" fill="#BCB6E9"/>
<path d="M215.801 44.0501C215.818 44.0501 215.834 44.0501 215.851 44.0501C216.634 44.0501 217.318 44.0001 217.934 43.9168V39.7168H204.701V40.8335C206.751 41.1168 208.068 41.7835 209.351 42.4168C211.018 43.2501 212.584 44.0335 215.801 44.0501Z" fill="#BCB6E9"/>
<path d="M217.951 33.8501H216.168V38.6334H217.951V33.8501Z" fill="#BCB6E9"/>
<path d="M211.333 16.7168C210.3 16.7168 209.467 17.5501 209.467 18.5835H213.183C213.183 17.5668 212.35 16.7168 211.333 16.7168Z" fill="#BCB6E9"/>
<path d="M215.8 49.1999C215.817 49.1999 215.833 49.1999 215.85 49.1999C216.833 49.1999 217.667 49.1332 218.383 48.9999C218.1 48.5166 217.933 47.9499 217.933 47.3666V44.9832C217.317 45.0666 216.617 45.1166 215.85 45.1166C215.833 45.1166 215.817 45.1166 215.8 45.1166C212.333 45.1166 210.583 44.2332 208.883 43.3666C207.667 42.7499 206.5 42.1666 204.717 41.8999V45.9832C206.767 46.2666 208.083 46.9332 209.367 47.5666C211.017 48.4166 212.583 49.1999 215.8 49.1999Z" fill="#BCB6E9"/>
<path d="M236.401 11.0169C235.568 9.05019 234.384 7.28353 232.868 5.78353C231.351 4.26686 229.601 3.08353 227.634 2.2502C225.601 1.38353 223.434 0.950195 221.218 0.950195C219.001 0.950195 216.834 1.38353 214.801 2.2502C212.834 3.08353 211.068 4.26686 209.568 5.78353C208.051 7.3002 206.868 9.05019 206.034 11.0169C205.168 13.0502 204.734 15.2169 204.734 17.4335V23.1669H206.518V20.5669C206.518 19.4669 207.418 18.5669 208.518 18.5669H208.434C208.434 17.1335 209.468 15.9335 210.834 15.6835V14.2502C210.834 13.9502 211.068 13.7169 211.368 13.7169C211.668 13.7169 211.901 13.9502 211.901 14.2502V15.7169C213.268 15.9669 214.301 17.1669 214.301 18.6002C215.368 18.6502 216.218 19.5169 216.218 20.5835V28.9835C216.818 28.8002 217.418 28.5335 218.001 28.2002V17.4502C218.001 15.6502 219.468 14.1835 221.268 14.1835C223.068 14.1835 224.534 15.6502 224.534 17.4502V21.2835C227.251 17.1169 228.951 12.8669 228.984 12.7835C228.984 12.7669 229.001 12.7669 229.001 12.7502C229.334 11.9002 230.168 11.3002 231.151 11.3002C232.118 11.3002 232.951 11.9002 233.301 12.7502C233.301 12.7669 233.318 12.7669 233.318 12.7835C233.351 12.8669 235.051 17.1169 237.768 21.2835V17.4502C237.701 15.2169 237.268 13.0669 236.401 11.0169Z" fill="#BCB6E9"/>
<path d="M206.5 24.25H204.717V29.2333H206.5V24.25Z" fill="#BCB6E9"/>
<path d="M206.5 30.2998H204.717V38.6498H206.5V30.2998Z" fill="#BCB6E9"/>
<path d="M207.551 20.5832V38.6499H215.084V20.5832C215.084 20.0666 214.667 19.6499 214.151 19.6499H208.467C207.967 19.6499 207.551 20.0666 207.551 20.5832Z" fill="#BCB6E9"/>
<path d="M45.2172 17.7335L44.3006 20.7002C31.9506 20.6668 24.1839 22.1335 19.9506 24.2002C12.0172 28.7668 14.5339 35.6835 22.5672 37.8502C28.4172 39.7668 35.1506 40.4668 37.8839 40.6835L36.9506 43.8335C23.9339 42.5002 18.0506 40.8002 11.1006 37.7502C-6.1661 30.0335 1.15057 26.9002 10.0506 23.4335C13.5339 22.3502 24.8839 19.1335 38.4506 18.4835C35.2006 18.2668 28.1339 16.9668 23.9006 15.4335C7.9339 10.7668 16.1172 5.95017 25.7839 3.66684C28.6006 3.01684 40.7672 0.0835017 50.6172 0.100168L49.8339 2.61684C41.4172 2.5835 35.9839 4.10017 33.2839 5.1835C26.7672 7.56683 26.1839 12.5002 34.3339 15.4335C38.0339 16.9668 43.6006 17.7335 45.2172 17.7335Z" fill="#BCB6E9"/>
<path d="M42.4995 44.2001L39.3828 44.1001L52.9328 0.100098C65.0995 0.100098 71.4995 2.0501 75.8495 3.9001C80.1995 5.7501 85.1828 10.5834 78.0162 14.8668C69.8162 19.7834 56.9162 19.6501 55.8162 19.6501C56.3662 19.8668 66.6161 20.8501 71.2828 22.8001C87.1328 28.5501 82.0328 36.0501 71.5995 39.7334C69.2161 40.7168 56.5495 44.3501 44.9661 44.0334L45.9995 40.8501C48.0328 40.8834 58.5661 39.8334 64.4328 36.3668C69.0995 33.6501 71.3828 28.9834 64.6495 24.8501C63.5161 24.3334 57.7161 21.3168 49.6995 20.6668L42.4995 44.2001ZM50.5495 17.8501C52.1661 18.2501 60.1661 17.7168 65.6995 15.8668C80.0828 10.5834 69.0162 2.6001 55.5495 2.81676L55.1828 2.8501L50.5828 17.8501" fill="#BCB6E9"/>
<path d="M0 59.5168L3.66667 47.8501H15.1333L14.4167 50.1168H6.4L5.65 52.5334H12.5333L11.8167 54.8001H4.93333L4.15 57.2668H12.1833L11.4667 59.5334H0V59.5168Z" fill="#BCB6E9"/>
<path d="M18.1833 57.2502L18.9333 54.7335H23.1833C24.0167 54.9168 24.3167 55.5002 24.15 56.1502C23.8833 57.1502 22.4333 57.2502 21.5667 57.2502H18.1833ZM20.6667 59.5168C20.7833 59.5168 26.4833 59.7502 27.55 56.3502C28.0667 54.6835 26.45 53.7002 24.8667 53.4835L24.8833 53.4502C26.35 53.2002 27.9667 52.4502 28.1833 50.9502C28.45 49.0002 26.6333 47.8335 25.0333 47.8335H17.8167L14.25 59.5002H20.6667V59.5168ZM20.3833 50.1002H23.6667C24.9833 50.1002 25.35 50.5668 25.1333 51.2335C24.85 52.1168 23.7333 52.4668 22.8 52.4668L19.6333 52.4835L20.3833 50.1002Z" fill="#BCB6E9"/>
<path d="M28.75 59.5168L32.2667 47.8501H37.8333L37.8667 55.7501H37.9L42.8 47.8501H48.2833L44.7667 59.5168H41.6167L44.5333 49.7501L44.5167 49.7168L38.0667 59.5168H35.1L34.85 49.6501L34.8 49.6834L31.8667 59.5334H28.75V59.5168Z" fill="#BCB6E9"/>
<path d="M62.5006 47.8501L60.1839 55.2334C59.1339 58.4834 56.1339 59.7501 53.0006 59.7501C49.8673 59.7501 47.8006 58.4668 48.7839 55.2334L51.1006 47.8501H54.3673L52.1006 55.0668C51.6839 56.5501 52.0839 57.4834 53.7006 57.4834C55.3173 57.4834 56.4339 56.5501 56.9506 55.0668L59.2173 47.8501H62.5006Z" fill="#BCB6E9"/>
<path d="M67.8996 50.1334H69.8329C72.8496 50.1334 73.1496 51.2668 72.3829 53.6834C71.6329 56.0834 69.4829 57.2501 67.6163 57.2501H65.8329L67.8996 50.1334ZM65.3496 47.8501L61.8496 59.5168H67.0996C71.3663 59.5168 74.6496 58.0001 75.9996 53.6834C77.3496 49.3668 73.8329 47.8501 70.7496 47.8501H65.3496Z" fill="#BCB6E9"/>
<path d="M111.817 10.5498H111.117V49.4498H111.817V10.5498Z" fill="#BCB6E9"/>
</svg>
