<svg width="209" height="60" viewBox="0 0 209 60" fill="none" xmlns="http://www.w3.org/2000/svg">
<g clip-path="url(#clip0_1864_18704)">
<mask id="mask0_1864_18704" style="mask-type:luminance" maskUnits="userSpaceOnUse" x="0" y="0" width="209" height="61">
<path d="M208.166 0H0V60.0011H208.166V0Z" fill="white"/>
</mask>
<g mask="url(#mask0_1864_18704)">
<path d="M205.173 24.9501C205.761 24.9489 206.335 25.122 206.825 25.4474C207.314 25.7728 207.695 26.2359 207.921 26.7782C208.147 27.3205 208.207 27.9176 208.094 28.494C207.98 29.0704 207.698 29.6002 207.284 30.0164C206.869 30.4327 206.341 30.7166 205.765 30.8324C205.189 30.9481 204.591 30.8905 204.048 30.6668C203.505 30.4431 203.04 30.0633 202.713 29.5755C202.386 29.0877 202.21 28.5138 202.209 27.9263C202.208 27.1388 202.52 26.3832 203.076 25.8252C203.632 25.2673 204.386 24.9526 205.173 24.9501ZM205.185 30.614C205.717 30.613 206.238 30.454 206.68 30.1571C207.123 29.8602 207.467 29.4388 207.67 28.9462C207.873 28.4536 207.925 27.9119 207.82 27.3896C207.715 26.8672 207.458 26.3878 207.08 26.0118C206.703 25.6359 206.222 25.3803 205.7 25.2774C205.177 25.1745 204.635 25.2289 204.144 25.4338C203.652 25.6386 203.232 25.9847 202.937 26.4283C202.641 26.8719 202.485 27.393 202.486 27.9257C202.488 28.6397 202.774 29.3235 203.28 29.8272C203.786 30.3309 204.471 30.6146 205.185 30.614Z" fill="#BCB6E9"/>
<path d="M204.672 26.3275C204.672 26.2169 204.696 26.2069 204.856 26.2069C205.783 26.2069 205.892 26.6594 205.892 27.1019C205.892 27.4205 205.759 27.9349 204.905 27.9349C204.821 27.9349 204.736 27.9349 204.672 27.926V26.3275ZM203.768 29.6119C203.989 29.5976 204.223 29.5854 204.431 29.5854C204.606 29.5854 204.84 29.5964 205.064 29.6119V29.4925H204.942C204.721 29.4925 204.667 29.4416 204.667 29.1849V28.0787C205.076 28.0787 205.086 28.1075 205.271 28.3453L206.237 29.6075C206.368 29.5911 206.5 29.5822 206.633 29.581C206.769 29.5822 206.905 29.5911 207.041 29.6075V29.488C206.84 29.4748 206.743 29.4548 206.544 29.1949L205.837 28.2767C205.751 28.1668 205.653 28.0669 205.544 27.9791C205.786 27.9538 206.01 27.84 206.174 27.6595C206.337 27.479 206.428 27.2446 206.429 27.0012C206.429 26.2269 205.844 26.0244 205.194 26.0244C204.966 26.0244 204.737 26.0543 204.432 26.0543C204.219 26.0543 203.99 26.041 203.769 26.0244V26.145H203.888C204.109 26.145 204.166 26.1948 204.166 26.4536V29.186C204.166 29.4427 204.111 29.4936 203.888 29.4936H203.769L203.768 29.6119Z" fill="#BCB6E9"/>
<path d="M70.5352 50.0597V25.1074H85.2846V26.7292H75.2322V36.3534H84.706V37.9685H75.2322V48.4424H85.4384V50.0597H70.5352Z" fill="#BCB6E9"/>
<path d="M91.6191 25.1074H99.7444C108.756 25.1074 113.03 31.4993 113.03 38.0504C113.03 46.0219 107.91 50.063 100.631 50.063H91.6191V25.1074ZM96.3173 48.4435H99.2433C106.754 48.4435 108.333 43.0129 108.333 38.1234C108.333 31.8455 105.406 26.7292 99.4756 26.7292H96.3173V48.4435Z" fill="#BCB6E9"/>
<path d="M123.558 25.1074H118.859V50.0597H123.558V25.1074Z" fill="#BCB6E9"/>
<path d="M132.23 45.5947C133.539 47.6744 134.925 48.7895 137.39 48.7895C138.549 48.7927 139.664 48.3439 140.498 47.5384C141.332 46.7329 141.819 45.6341 141.857 44.4752C141.857 37.236 130.15 40.662 130.15 31.7292C130.15 27.7235 133.499 24.4114 138.16 24.4114C139.702 24.3904 141.22 24.7965 142.546 25.5849C143.871 26.3733 144.953 27.5132 145.671 28.8784L144.052 29.9194C143.664 28.8758 142.965 27.9766 142.049 27.3435C141.132 26.7104 140.044 26.3738 138.931 26.3794C138.369 26.3712 137.812 26.4803 137.295 26.6997C136.778 26.9192 136.313 27.2441 135.929 27.6538C135.544 28.0634 135.25 28.5487 135.064 29.0787C134.879 29.6086 134.805 30.1715 134.85 30.7313C134.85 36.5844 146.557 34.1186 146.557 43.1311C146.557 47.7132 142.55 50.7564 138.353 50.7564C134.965 50.7564 132.23 49.7608 130.499 46.8658L132.23 45.5947Z" fill="#BCB6E9"/>
<path d="M163.12 24.4126C170.361 24.4126 175.521 30.2281 175.521 37.5834C175.521 44.9388 170.361 50.7554 163.12 50.7554C155.919 50.7554 150.76 44.9399 150.76 37.5834C150.76 30.227 155.919 24.4126 163.12 24.4126ZM163.12 49.137C169.128 49.137 170.475 42.4365 170.475 37.5834C170.475 32.7304 169.128 26.0321 163.12 26.0321C157.112 26.0321 155.803 32.7315 155.803 37.5834C155.803 42.4354 157.112 49.137 163.12 49.137Z" fill="#BCB6E9"/>
<path d="M180.848 50.0597V25.1074H185.046L198.099 42.2806H198.177V25.1074H200.179V50.0597H198.099L182.927 30.1474H182.849V50.0597H180.848Z" fill="#BCB6E9"/>
<path d="M71.0905 17.7043C71.2419 18.0216 71.4812 18.2888 71.7801 18.4739C72.079 18.6591 72.4248 18.7544 72.7764 18.7486C73.1552 18.7496 73.5194 18.603 73.7918 18.3399C74.0643 18.0768 74.2234 17.7178 74.2355 17.3392C74.2355 14.9741 70.4102 16.0936 70.4102 13.1754C70.4204 12.8449 70.4968 12.5198 70.6348 12.2193C70.7729 11.9189 70.9698 11.6492 71.214 11.4262C71.4581 11.2032 71.7445 11.0314 72.0562 10.9211C72.3679 10.8107 72.6986 10.764 73.0286 10.7837C73.5324 10.7768 74.0283 10.9095 74.4613 11.167C74.8944 11.4245 75.2477 11.7969 75.4822 12.2428L74.9535 12.5835C74.827 12.2423 74.5987 11.9482 74.2995 11.7411C74.0003 11.5339 73.6447 11.4237 73.2808 11.4253C73.0974 11.4224 72.9153 11.4579 72.7464 11.5294C72.5774 11.6009 72.4252 11.7069 72.2995 11.8406C72.1738 11.9743 72.0775 12.1327 72.0165 12.3058C71.9556 12.4789 71.9314 12.6628 71.9456 12.8457C71.9456 14.7584 75.771 13.9519 75.771 16.8967C75.7599 17.2367 75.6816 17.5711 75.5406 17.8806C75.3996 18.1901 75.1987 18.4687 74.9495 18.7002C74.7003 18.9317 74.4078 19.1115 74.0887 19.2294C73.7696 19.3473 73.4304 19.4008 73.0906 19.3869C72.587 19.435 72.0799 19.3416 71.6265 19.1173C71.1731 18.8929 70.7913 18.5465 70.5241 18.1169L71.0905 17.7043Z" fill="#BCB6E9"/>
<path d="M80.8273 10.7837C81.38 10.7879 81.9261 10.904 82.4327 11.1249C82.9393 11.3459 83.3959 11.6672 83.775 12.0694C84.1541 12.4716 84.4478 12.9465 84.6383 13.4653C84.8289 13.9841 84.9124 14.5361 84.8839 15.0881C84.9181 15.6404 84.8388 16.1938 84.651 16.7144C84.4631 17.2349 84.1707 17.7114 83.7917 18.1146C83.4127 18.5178 82.9551 18.8391 82.4472 19.0588C81.9393 19.2784 81.3918 19.3917 80.8384 19.3917C80.285 19.3917 79.7375 19.2784 79.2296 19.0588C78.7217 18.8391 78.2641 18.5178 77.8851 18.1146C77.5061 17.7114 77.2137 17.2349 77.0258 16.7144C76.838 16.1938 76.7587 15.6404 76.7929 15.0881C76.7631 14.5374 76.8452 13.9864 77.0342 13.4682C77.2232 12.9501 77.5151 12.4757 77.8924 12.0735C78.2697 11.6712 78.7246 11.3496 79.2296 11.1279C79.7346 10.9063 80.2792 10.7892 80.8307 10.7837M80.8307 18.8592C82.7953 18.8592 83.2345 16.6689 83.2345 15.0847C83.2345 13.5006 82.792 11.3103 80.8307 11.3103C78.8693 11.3103 78.4412 13.4995 78.4412 15.0847C78.4412 16.67 78.8693 18.8592 80.8307 18.8592Z" fill="#BCB6E9"/>
<path d="M87.8246 11.0103V16.8357C87.8244 17.0637 87.8695 17.2894 87.9571 17.4999C88.0448 17.7103 88.1733 17.9013 88.3352 18.0618C88.4971 18.2223 88.6892 18.3491 88.9005 18.4348C89.1117 18.5206 89.3378 18.5636 89.5658 18.5614C90.2837 18.5614 91.5305 18.3092 91.5305 16.912V11.0103H92.1854V17.1001C92.1854 18.1444 91.3911 19.3878 89.328 19.3878C87.9817 19.3878 86.2969 18.8723 86.2969 16.7981V11.0103H87.8246Z" fill="#BCB6E9"/>
<path d="M95.1229 19.1647V11.5394H93.5V11.0117H98.2823V11.5394H96.6528V19.1647H95.1229Z" fill="#BCB6E9"/>
<path d="M99.5781 19.1647V11.0117H101.114V14.597H104.461V11.0117H105.995V19.1647H104.461V15.2386H101.112V19.1647H99.5781Z" fill="#BCB6E9"/>
<path d="M108.049 19.1647V11.0117H112.869V11.5394H109.584V14.6855H112.682V15.2143H109.584V18.6381H112.92V19.1658L108.049 19.1647Z" fill="#BCB6E9"/>
<path d="M114.533 19.1634V11.0105H118.054C118.369 11.0003 118.682 11.0561 118.973 11.1745C119.264 11.2928 119.528 11.4709 119.746 11.6974C119.964 11.9238 120.132 12.1935 120.24 12.4891C120.347 12.7847 120.392 13.0995 120.37 13.4132C120.37 14.6588 119.465 15.2009 118.242 15.3513L120.406 19.1634H118.723L116.497 14.9852H116.597C117.957 14.9852 118.838 14.4575 118.838 13.2373C118.859 12.9825 118.822 12.7261 118.731 12.4874C118.639 12.2486 118.495 12.0335 118.309 11.8582C118.123 11.6829 117.899 11.5518 117.656 11.4748C117.412 11.3977 117.154 11.3766 116.901 11.4131H116.069V19.1634H114.533Z" fill="#BCB6E9"/>
<path d="M121.83 19.1647V11.0117H123.201L127.469 16.6225H127.492V11.0117H128.147V19.1647H127.467L122.515 12.66H122.488V19.1647H121.83Z" fill="#BCB6E9"/>
<path d="M141.314 12.7981C141.071 12.3792 140.73 12.0254 140.32 11.7669C139.91 11.5084 139.444 11.3528 138.961 11.3135C136.97 11.3135 135.965 12.7715 135.965 15.1256C135.965 16.9619 136.896 18.7485 138.771 18.7485C139.348 18.7493 139.912 18.5803 140.393 18.2626C140.874 17.9449 141.251 17.4925 141.477 16.9619L142.018 17.2263C141.718 17.9055 141.218 18.4766 140.584 18.8632C139.95 19.2498 139.213 19.4333 138.472 19.389C137.366 19.3756 136.31 18.9268 135.533 18.1399C134.755 17.353 134.32 16.2914 134.32 15.1853C134.297 14.6095 134.393 14.0351 134.6 13.4973C134.807 12.9595 135.121 12.4695 135.524 12.0573C135.927 11.6451 136.409 11.3192 136.942 11.0997C137.475 10.8801 138.047 10.7714 138.623 10.7803C139.244 10.7887 139.854 10.9462 140.402 11.2396C140.95 11.5329 141.419 11.9536 141.77 12.4662L141.314 12.7981Z" fill="#BCB6E9"/>
<path d="M148.983 19.1645H147.404L146.536 17.0372H143.732L142.913 19.1645H142.205L145.524 10.7837H145.55L148.983 19.1645ZM145.132 13.515L143.949 16.5107H146.327L145.132 13.515Z" fill="#BCB6E9"/>
<path d="M150.129 19.1647V11.0117H151.662V18.5231H154.934V19.1647H150.129Z" fill="#BCB6E9"/>
<path d="M157.69 11.0117H156.154V19.1647H157.69V11.0117Z" fill="#BCB6E9"/>
<path d="M159.902 19.1647V11.0117H164.583V11.5394H161.437V14.6855H164.307V15.2143H161.437V19.1658L159.902 19.1647Z" fill="#BCB6E9"/>
<path d="M169.304 10.7837C169.856 10.7883 170.402 10.9047 170.908 11.1259C171.414 11.3471 171.87 11.6684 172.249 12.0706C172.628 12.4728 172.921 12.9475 173.112 13.466C173.302 13.9846 173.385 14.5364 173.357 15.0881C173.391 15.6405 173.312 16.1941 173.124 16.7148C172.936 17.2354 172.643 17.7121 172.264 18.1154C171.885 18.5187 171.427 18.8401 170.919 19.0598C170.411 19.2795 169.864 19.3929 169.31 19.3929C168.757 19.3929 168.209 19.2795 167.701 19.0598C167.193 18.8401 166.735 18.5187 166.356 18.1154C165.977 17.7121 165.684 17.2354 165.497 16.7148C165.309 16.1941 165.229 15.6405 165.264 15.0881C165.234 14.5373 165.317 13.9862 165.506 13.4681C165.695 12.95 165.987 12.4755 166.365 12.0733C166.742 11.6712 167.197 11.3495 167.702 11.1279C168.207 10.9063 168.752 10.7892 169.304 10.7837ZM169.304 18.8592C171.267 18.8592 171.707 16.6689 171.707 15.0847C171.707 13.5006 171.265 11.3103 169.304 11.3103C167.342 11.3103 166.911 13.4995 166.911 15.0847C166.911 16.67 167.34 18.8592 169.304 18.8592Z" fill="#BCB6E9"/>
<path d="M174.764 19.1635V11.0105H178.287C178.601 11.0001 178.914 11.0559 179.206 11.1741C179.497 11.2924 179.761 11.4705 179.979 11.697C180.197 11.9235 180.365 12.1933 180.473 12.489C180.58 12.7846 180.624 13.0995 180.602 13.4132C180.602 14.6589 179.696 15.2009 178.475 15.3514L180.639 19.1635H178.953L176.727 14.9852H176.828C178.186 14.9852 179.068 14.4575 179.068 13.2374C179.089 12.9824 179.052 12.726 178.96 12.4873C178.868 12.2485 178.724 12.0335 178.538 11.8582C178.351 11.683 178.128 11.552 177.884 11.4749C177.64 11.3978 177.382 11.3767 177.129 11.4132H176.3V19.1635H174.764Z" fill="#BCB6E9"/>
<path d="M182.062 19.1647V11.0117H183.433L187.699 16.6225H187.723V11.0117H188.378V19.1647H187.698L182.742 12.66H182.714V19.1647H182.062Z" fill="#BCB6E9"/>
<path d="M192.066 11.0117H190.533V19.1647H192.066V11.0117Z" fill="#BCB6E9"/>
<path d="M200.184 19.1645H198.61L197.743 17.0372H194.937L194.118 19.1645H193.402L196.721 10.7837H196.745L200.184 19.1645ZM196.332 13.515L195.149 16.5107H197.528L196.332 13.515Z" fill="#BCB6E9"/>
<path d="M2.25391 49.7551L25.278 44.5945L2.26829 36.4305L25.5568 38.4073L8.48312 25.9068L28.0635 33.0498L9.23315 9.20268L33.0692 27.8981L25.9085 8.48252L37.7972 24.982L36.7397 2.26105L44.1957 25.0495L49.7512 2.2334V49.6909L2.25391 49.7551Z" fill="#BCB6E9"/>
<path d="M3.11516 2.23362H57.5696V57.8352H2.2357V2.23362H3.12069V-0.000976562H0V60.0012H59.938V-0.000976562H3.11516V2.23362Z" fill="#BCB6E9"/>
</g>
</g>
<defs>
<clipPath id="clip0_1864_18704">
<rect width="208.166" height="60" fill="white"/>
</clipPath>
</defs>
</svg>
