<svg width="203" height="60" viewBox="0 0 203 60" fill="none" xmlns="http://www.w3.org/2000/svg">
<mask id="mask0_1864_19019" style="mask-type:luminance" maskUnits="userSpaceOnUse" x="0" y="0" width="202" height="60">
<path d="M201.38 0H0V60H201.38V0Z" fill="white"/>
</mask>
<g mask="url(#mask0_1864_19019)">
<path d="M4.1091 32.9787H12.0987C13.6108 32.9614 15.1103 33.2562 16.5033 33.8444C17.8071 34.3989 18.9828 35.2163 19.9567 36.2454C20.9345 37.2887 21.6955 38.5155 22.1955 39.855C22.7318 41.2912 22.9997 42.8138 22.9857 44.3468V44.4122C22.9988 45.9504 22.731 47.4781 22.1955 48.9202C21.6985 50.266 20.9373 51.4989 19.9567 52.5462C18.9807 53.5771 17.8059 54.3994 16.5033 54.9636C15.113 55.5625 13.6125 55.863 12.0987 55.8456H4.1091V32.9787ZM12.0987 51.3048C12.9624 51.3155 13.819 51.1486 14.6156 50.8149C15.3618 50.499 16.0269 50.0189 16.5618 49.4102C17.1123 48.7766 17.5392 48.0452 17.8203 47.2542C18.1334 46.3624 18.2869 45.4226 18.2739 44.4774V44.4122C18.2832 43.4675 18.1298 42.5281 17.8203 41.6355C17.5443 40.8322 17.1171 40.0893 16.5618 39.4468C16.0245 38.8368 15.3603 38.3518 14.6156 38.0257C13.8217 37.6815 12.964 37.509 12.0987 37.5193H8.61604V51.3048H12.0987ZM23.4372 32.9787H28.2662L32.5097 48.4629L37.1045 32.9133H40.9676L45.5624 48.4629L49.806 32.9787H54.5178L47.5233 56.0091H43.6015L38.9775 41.0474L34.3535 56.0091H30.4319L23.4372 32.9787ZM57.1757 32.9787H65.5458C66.6696 32.9603 67.7867 33.1542 68.8383 33.5504C69.7649 33.9057 70.6034 34.4574 71.2967 35.1674C71.9816 35.8838 72.5098 36.7347 72.8477 37.6664C73.2194 38.6979 73.4026 39.7878 73.3892 40.8841V40.9494C73.4139 42.1463 73.1949 43.3354 72.7452 44.4449C72.3468 45.403 71.7423 46.2618 70.9748 46.9602C70.2108 47.6427 69.3141 48.1599 68.3408 48.4792C67.2975 48.8231 66.2052 48.9941 65.1069 48.9855H61.6827V55.8456H57.1757V32.9787ZM65.2532 44.5103C66.3845 44.5103 67.2626 44.178 67.8871 43.5138C68.5123 42.8473 68.849 41.9608 68.8236 41.0474V40.9821C68.8236 39.85 68.4969 38.9897 67.8432 38.4014C67.1894 37.8135 66.2967 37.5195 65.1654 37.5193H61.6827V44.5103H65.2532ZM31.5612 9.4131L28.8231 16.8732H34.2993L31.5612 9.4131ZM0.000277624 0L0 30L0.000277624 60H77.5004V0H0.000277624ZM42.5432 26.5022H37.8028L35.9187 21.3428H27.2038L25.3194 26.5022H20.6972L29.5296 3.33333H33.7105L42.5432 26.5022ZM18.9186 21.934V26.5022H4.10909V3.49778H8.64312V21.9342L18.9186 21.934ZM1.11139 58.889V30H76.3892V58.889H1.11139ZM81.6114 3.49778H83.8672V15.0296H89.7012V17.1102H81.6114V3.49778ZM90.579 12.0736V11.8986C90.579 8.86492 92.6013 6.60919 95.3431 6.60919C98.0657 6.60919 100.069 8.826 100.069 11.8791V12.0541C100.069 15.0877 98.0464 17.3241 95.3045 17.3241C92.5816 17.3241 90.579 15.1268 90.579 12.0736ZM97.8711 12.0347V11.9181C97.8711 9.99287 96.8018 8.55379 95.3045 8.55379C93.768 8.55379 92.7762 9.97333 92.7762 11.8987V12.0153C92.7762 13.9405 93.8458 15.399 95.3431 15.399C96.8794 15.399 97.8711 13.9599 97.8711 12.0347ZM100.844 15.8657L101.874 14.2905C102.808 15.0489 103.799 15.4962 104.714 15.4962C105.627 15.4962 106.152 15.0101 106.152 14.3683V14.3489C106.152 13.6098 105.355 13.2793 104.13 12.7542C102.594 12.093 101.31 11.393 101.31 9.70111V9.66219C101.31 7.81485 102.788 6.648 104.714 6.648C105.916 6.66729 107.083 7.05414 108.058 7.75653L107.125 9.37057C106.347 8.84553 105.491 8.45654 104.674 8.45654C103.858 8.45654 103.372 8.90385 103.372 9.46782V9.50661C103.372 10.1872 104.188 10.5373 105.394 11.0819C106.989 11.8014 108.195 12.5403 108.195 14.1544V14.1738C108.195 16.1963 106.658 17.3048 104.674 17.3048C103.27 17.2818 101.916 16.7733 100.844 15.8657ZM119.374 3.41991H121.552L126.55 17.1102H124.197L123.069 13.9016H117.78L116.652 17.1102H114.377L119.374 3.41991ZM122.369 11.8986L120.424 6.4341L118.48 11.8986H122.369ZM127.937 6.80357H130.135V8.32035C130.718 7.40646 131.554 6.60919 132.954 6.60919C134.938 6.60919 136.124 8.0092 136.124 10.2067V17.1102H133.927V10.829C133.927 9.38997 133.246 8.59272 132.079 8.59272C130.932 8.59272 130.135 9.44829 130.135 10.868V17.1102H127.937V6.80357ZM138.215 19.1133L138.935 17.3825C139.867 17.9488 140.936 18.2514 142.027 18.2575C143.835 18.2575 144.827 17.3631 144.827 15.535V14.5432C144.107 15.5546 143.213 16.3518 141.716 16.3518C139.654 16.3518 137.787 14.6989 137.787 11.529V11.4513C137.787 8.26202 139.674 6.60919 141.716 6.60919C143.232 6.60919 144.146 7.42584 144.807 8.33988V6.80357H147.005V15.4378C147.005 16.974 146.596 18.102 145.838 18.8604C145.021 19.6966 143.757 20.0854 142.124 20.0854C140.76 20.0961 139.415 19.7617 138.215 19.1133ZM144.846 11.5097V11.4707C144.846 9.66218 143.699 8.53438 142.377 8.53438C141.035 8.53438 140.004 9.64278 140.004 11.4707V11.4903C140.004 13.3182 141.054 14.4461 142.377 14.4461C143.699 14.4461 144.846 13.2987 144.846 11.5097ZM148.763 12.0736V11.9181C148.763 8.82602 150.63 6.60921 153.158 6.60921C155.958 6.60921 157.437 8.94266 157.437 12.0347C157.437 12.1709 157.437 12.482 157.417 12.7932H150.96C151.155 14.5239 152.225 15.4573 153.567 15.4573C154.539 15.4573 155.259 15.0295 155.939 14.3683L157.086 15.7295C156.634 16.2401 156.077 16.6467 155.452 16.9219C154.827 17.1972 154.152 17.3343 153.47 17.3241C150.825 17.3241 148.763 15.3017 148.763 12.0736ZM155.298 11.2764C155.181 9.64278 154.441 8.45654 153.158 8.45654C151.953 8.45654 151.096 9.52614 150.942 11.2764H155.298ZM159.219 3.06984H161.417V17.1102H159.219V3.06984ZM163.194 12.0736V11.9181C163.194 8.82602 165.061 6.60921 167.589 6.60921C170.389 6.60921 171.867 8.94266 171.867 12.0347C171.867 12.1709 171.867 12.482 171.848 12.7932H165.392C165.587 14.5239 166.656 15.4573 167.997 15.4573C168.971 15.4573 169.689 15.0295 170.37 14.3683L171.518 15.7295C171.064 16.2401 170.508 16.6467 169.882 16.9219C169.258 17.1972 168.582 17.3343 167.901 17.3241C165.255 17.3241 163.194 15.3017 163.194 12.0736ZM169.728 11.2764C169.611 9.64278 168.873 8.45654 167.589 8.45654C166.383 8.45654 165.528 9.52614 165.372 11.2764H169.728ZM172.704 15.8657L173.734 14.2905C174.669 15.0489 175.661 15.4962 176.574 15.4962C177.488 15.4962 178.013 15.0101 178.013 14.3683V14.3489C178.013 13.6098 177.216 13.2793 175.991 12.7542C174.454 12.093 173.171 11.393 173.171 9.7011V9.66218C173.171 7.81485 174.65 6.64799 176.574 6.64799C177.776 6.66728 178.944 7.05412 179.919 7.75653L178.986 9.37056C178.207 8.84553 177.353 8.45654 176.535 8.45654C175.719 8.45654 175.233 8.90385 175.233 9.46782V9.50661C175.233 10.1872 176.049 10.5373 177.255 11.0819C178.85 11.8014 180.056 12.5403 180.056 14.1544V14.1738C180.056 16.1963 178.518 17.3048 176.535 17.3048C175.131 17.2818 173.777 16.7733 172.704 15.8657ZM81.6114 22.8702H85.7729C89.6624 22.8702 92.2293 25.5927 92.2293 29.5793V29.7346C92.2293 33.7212 89.6624 36.4827 85.7729 36.4827H81.6114V22.8702ZM83.8672 24.912V34.4409H85.7537C88.2428 34.4409 89.8956 32.6712 89.8956 29.7542V29.6376C89.8956 26.701 88.2428 24.912 85.7537 24.912H83.8672ZM93.3833 31.4461V31.2905C93.3833 28.1985 95.2502 25.9817 97.7784 25.9817C100.579 25.9817 102.057 28.3151 102.057 31.4073C102.057 31.5432 102.057 31.8543 102.037 32.1656H95.5809C95.7753 33.8964 96.845 34.8298 98.1866 34.8298C99.1592 34.8298 99.8785 34.4017 100.559 33.7407L101.707 35.102C101.254 35.6124 100.696 36.0192 100.072 36.2944C99.448 36.5697 98.7717 36.707 98.0895 36.6968C95.4447 36.6968 93.3833 34.6741 93.3833 31.4461ZM99.9176 30.6489C99.8007 29.0152 99.0618 27.8291 97.7784 27.8291C96.5725 27.8291 95.7169 28.8986 95.5615 30.6489H99.9176ZM103.764 26.1761H105.962V27.8291C106.603 26.8372 107.498 25.9817 108.976 25.9817C111.037 25.9817 112.982 27.7123 112.982 31.1932V31.4657C112.982 34.9271 111.057 36.6772 108.976 36.6772C107.479 36.6772 106.584 35.8409 105.962 34.9271V39.4191H103.764V26.1761ZM110.765 31.4265V31.2516C110.765 29.1902 109.696 27.9264 108.373 27.9264C107.051 27.9264 105.923 29.2098 105.923 31.2321V31.4265C105.923 33.4491 107.051 34.7325 108.373 34.7325C109.715 34.7325 110.765 33.4879 110.765 31.4265ZM114.126 33.5269V33.4296C114.126 31.2127 115.604 30.1236 117.782 30.1236C118.59 30.1219 119.393 30.2601 120.154 30.5322V30.1041C120.154 28.7237 119.338 28.004 117.937 28.004C117.072 28.0251 116.222 28.2375 115.448 28.6263L114.826 26.8762C115.878 26.3331 117.045 26.0527 118.229 26.0593C119.571 26.0593 120.602 26.4288 121.263 27.1095C121.943 27.7902 122.293 28.8012 122.293 30.0849V36.4827H120.135V35.2187C119.823 35.6863 119.397 36.0663 118.896 36.3218C118.396 36.5772 117.838 36.6996 117.276 36.6772C115.565 36.6772 114.126 35.5297 114.126 33.5269ZM120.174 33.0213V31.9905C119.569 31.7431 118.921 31.6176 118.268 31.621C117.004 31.621 116.265 32.2629 116.265 33.3518V33.3908C116.265 34.4214 116.984 35.0049 117.937 35.0241C119.201 35.0436 120.174 34.188 120.174 33.0213ZM124.431 26.1761H126.629V28.1985C127.173 26.8566 128.165 25.9428 129.721 26.0205V28.4125H129.624C127.835 28.4125 126.629 29.5792 126.629 31.9321V36.4827H124.431V26.1761ZM131.814 33.9936V28.0623H130.686V26.1761H131.814V23.3953H134.012V26.1761H136.326V28.0623H134.012V33.5463C134.012 34.3436 134.42 34.6741 135.12 34.6741C135.534 34.677 135.941 34.5766 136.307 34.3825V36.1911C135.745 36.4936 135.116 36.6477 134.478 36.6384C132.962 36.6384 131.814 35.9965 131.814 33.9936ZM138.147 26.1761H140.344V27.6735C140.947 26.7594 141.744 25.9817 143.106 25.9817C143.663 25.9623 144.214 26.109 144.689 26.4033C145.163 26.6976 145.539 27.1262 145.77 27.6345C146.47 26.701 147.403 25.9817 148.784 25.9817C150.69 25.9817 151.934 27.2456 151.934 29.5793V36.4827H149.737V30.2211C149.737 28.7428 149.115 27.9652 147.987 27.9652C146.917 27.9652 146.139 28.782 146.139 30.2403V36.4827H143.942V30.2015C143.942 28.7429 143.3 27.9652 142.211 27.9652C141.102 27.9652 140.344 28.8404 140.344 30.2598V36.4827H138.147V26.1761ZM153.654 31.4461V31.2905C153.654 28.1985 155.52 25.9817 158.049 25.9817C160.85 25.9817 162.327 28.3151 162.327 31.4073C162.327 31.5432 162.327 31.8543 162.307 32.1656H155.852C156.045 33.8964 157.115 34.8298 158.457 34.8298C159.429 34.8298 160.149 34.4017 160.83 33.7407L161.978 35.102C161.525 35.6124 160.966 36.0192 160.342 36.2944C159.718 36.5697 159.042 36.707 158.359 36.6968C155.715 36.6968 153.654 34.6741 153.654 31.4461ZM160.188 30.6489C160.071 29.0152 159.331 27.8291 158.049 27.8291C156.843 27.8291 155.986 28.8986 155.832 30.6489H160.188ZM164.036 26.1761H166.233V27.6929C166.815 26.7789 167.652 25.9817 169.051 25.9817C171.036 25.9817 172.221 27.3816 172.221 29.5793V36.4827H170.025V30.2015C170.025 28.7625 169.344 27.9652 168.177 27.9652C167.029 27.9652 166.233 28.8207 166.233 30.2403V36.4827H164.036V26.1761ZM174.633 33.9936V28.0623H173.505V26.1761H174.633V23.3953H176.831V26.1761H179.145V28.0623H176.831V33.5463C176.831 34.3436 177.24 34.6741 177.939 34.6741C178.353 34.677 178.761 34.5766 179.126 34.3825V36.1911C178.564 36.4936 177.934 36.6477 177.297 36.6384C175.781 36.6384 174.633 35.9965 174.633 33.9936ZM185.4 31.4461V31.2711C185.4 28.2372 187.422 25.9817 190.164 25.9817C192.887 25.9817 194.889 28.1985 194.889 31.2516V31.4265C194.889 34.4601 192.867 36.6968 190.125 36.6968C187.402 36.6968 185.4 34.4992 185.4 31.4461ZM192.691 31.4073V31.2905C192.691 29.3652 191.624 27.9264 190.125 27.9264C188.589 27.9264 187.598 29.346 187.598 31.2711V31.3878C187.598 33.3129 188.667 34.7715 190.164 34.7715C191.7 34.7715 192.691 33.3326 192.691 31.4073ZM196.892 28.0623H195.744V26.2344H196.892V25.4371C196.892 24.387 197.143 23.5896 197.65 23.0841C198.156 22.5979 198.874 22.3451 199.809 22.3451C200.335 22.3324 200.86 22.4048 201.365 22.5591V24.4065C201.018 24.2979 200.658 24.2391 200.295 24.2315C199.497 24.2315 199.069 24.6786 199.069 25.6511V26.2344H201.345V28.0623H199.089V36.4827H196.892V28.0623ZM80.6974 42.2328H83.0892L85.7537 52.1115L88.5343 42.1938H90.4791L93.2599 52.1115L95.924 42.2328H98.2576L94.2905 55.9231H92.2486L89.4678 46.3164L86.6871 55.9231H84.6453L80.6974 42.2328ZM98.1878 52.8895V52.7922C98.1878 50.5754 99.6658 49.4862 101.844 49.4862C102.652 49.4845 103.455 49.6227 104.216 49.8948V49.4667C104.216 48.0862 103.399 47.3666 101.999 47.3666C101.134 47.3876 100.284 47.6001 99.5102 47.9889L98.8878 46.2386C99.9396 45.6957 101.107 45.4155 102.291 45.4221C103.633 45.4221 104.663 45.7915 105.325 46.4721C106.005 47.1528 106.355 48.1638 106.355 49.4475V55.8453H104.197V54.5811C103.885 55.049 103.459 55.4289 102.958 55.6843C102.458 55.9396 101.9 56.0622 101.338 56.0399C99.6268 56.0397 98.1878 54.8923 98.1878 52.8895ZM104.236 52.3839V51.3531C103.631 51.1056 102.983 50.9801 102.33 50.9837C101.066 50.9837 100.327 51.6255 100.327 52.7143V52.7533C100.327 53.7838 101.046 54.3674 101.999 54.3867C103.263 54.4062 104.236 53.5506 104.236 52.3839ZM108.707 53.3561V47.4249H107.58V45.5388H108.707V42.7577H110.905V45.5388H113.219V47.4249H110.905V52.9087C110.905 53.706 111.313 54.0368 112.013 54.0368C112.427 54.0395 112.835 53.9393 113.2 53.7452V55.5537C112.638 55.8563 112.009 56.0102 111.372 56.001C109.855 56.001 108.707 55.3592 108.707 53.3561ZM114.074 50.8086V50.6529C114.074 47.5611 115.941 45.3442 118.469 45.3442C121.269 45.3442 122.747 47.6777 122.747 50.7699C122.747 50.9058 122.747 51.2169 122.727 51.528H116.271C116.466 53.259 117.535 54.1925 118.877 54.1925C119.85 54.1925 120.569 53.7643 121.249 53.1033L122.397 54.4646C121.944 54.975 121.387 55.3818 120.763 55.657C120.138 55.9323 119.462 56.0695 118.78 56.0593C116.135 56.0593 114.074 54.0367 114.074 50.8086ZM120.608 50.0114C120.491 48.3778 119.752 47.1915 118.469 47.1915C117.263 47.1915 116.407 48.2612 116.252 50.0114H120.608ZM124.455 45.5388H126.652V47.5611C127.197 46.2193 128.189 45.3051 129.744 45.3831V47.775H129.647C127.858 47.775 126.652 48.9418 126.652 51.2947V55.8453H124.455V45.5388ZM142.755 54.3673C141.763 55.398 140.577 56.0397 139.06 56.0397C136.766 56.0397 135.015 54.5229 135.015 52.2477V52.1894C135.015 50.478 135.968 49.1946 137.68 48.2806C136.902 47.1915 136.532 46.3164 136.532 45.3442V45.2664C136.532 43.5357 137.894 42.0188 140.072 42.0188C142.055 42.0188 143.378 43.3995 143.378 45.1497V45.208C143.378 46.9193 142.327 48.0084 140.674 48.8057L142.775 51.3142C143.21 50.5197 143.587 49.6943 143.902 48.8444L145.633 49.5641C145.238 50.7051 144.71 51.7953 144.058 52.8117L145.925 54.9507L144.272 56.0981L142.755 54.3673ZM141.569 53.0063L138.846 49.7195C137.738 50.3418 137.271 51.2364 137.271 52.092V52.1503C137.262 52.4191 137.309 52.6869 137.409 52.9366C137.509 53.1864 137.66 53.4126 137.852 53.601C138.044 53.7893 138.273 53.9356 138.524 54.0308C138.776 54.1259 139.045 54.1677 139.313 54.1535C140.149 54.1533 140.888 53.706 141.569 53.0063ZM141.394 45.3051V45.2664C141.394 44.4108 140.83 43.8078 140.033 43.8078C139.837 43.8064 139.642 43.8453 139.462 43.9221C139.282 43.9989 139.119 44.1119 138.984 44.2541C138.849 44.3963 138.745 44.5647 138.678 44.7489C138.611 44.9331 138.582 45.129 138.594 45.3247V45.3634C138.594 46.0444 138.846 46.608 139.566 47.5222C140.791 46.9387 141.394 46.2385 141.394 45.3051ZM151.456 42.2328H155.812C158.788 42.2328 160.713 43.944 160.713 46.7637V46.8026C160.713 49.817 158.496 51.3921 155.678 51.431H153.712V55.8453H151.456V42.2328ZM155.678 49.3892C157.409 49.3892 158.419 48.3583 158.419 46.8417V46.8221C158.419 45.1886 157.409 44.2941 155.678 44.2941H153.712V49.3892H155.678ZM161.376 50.8086V50.6337C161.376 47.5998 163.398 45.3442 166.14 45.3442C168.863 45.3442 170.865 47.5611 170.865 50.6142V50.7891C170.865 53.8227 168.843 56.0593 166.101 56.0593C163.378 56.0593 161.376 53.8617 161.376 50.8086ZM168.667 50.7699V50.6529C168.667 48.7278 167.6 47.289 166.101 47.289C164.565 47.289 163.574 48.7084 163.574 50.6337V50.7503C163.574 52.6755 164.643 54.1341 166.14 54.1341C167.676 54.1341 168.667 52.695 168.667 50.7699ZM171.445 45.5388H173.702L175.452 52.5006L177.357 45.5191H179.225L181.13 52.5006L182.9 45.5388H185.117L182.218 55.9231H180.197L178.272 49.0389L176.327 55.9231H174.324L171.445 45.5388ZM185.709 50.8086V50.6529C185.709 47.5611 187.575 45.3442 190.104 45.3442C192.903 45.3442 194.382 47.6777 194.382 50.7699C194.382 50.9058 194.382 51.2169 194.362 51.528H187.907C188.1 53.259 189.17 54.1925 190.512 54.1925C191.484 54.1925 192.204 53.7643 192.884 53.1033L194.031 54.4646C193.579 54.975 193.021 55.3818 192.397 55.657C191.773 55.9323 191.097 56.0695 190.415 56.0593C187.77 56.0593 185.709 54.0367 185.709 50.8086ZM192.243 50.0114C192.126 48.3778 191.387 47.1915 190.104 47.1915C188.898 47.1915 188.042 48.2612 187.887 50.0114H192.243ZM196.089 45.5388H198.286V47.5611C198.831 46.2193 199.823 45.3051 201.38 45.3831V47.775H201.282C199.493 47.775 198.286 48.9418 198.286 51.2947V55.8453H196.089V45.5388Z" fill="#BCB6E9"/>
</g>
</svg>
