<svg width="53" height="60" viewBox="0 0 53 60" fill="none" xmlns="http://www.w3.org/2000/svg">
<g clip-path="url(#clip0_1864_18998)">
<path d="M52.44 0H0V59.84H52.44V0Z" fill="#BCB6E9"/>
<path d="M30.2009 40.6001C29.4409 41.0401 28.9609 41.5601 28.6809 42.2401C28.1209 43.7601 28.4409 45.4801 29.6009 47.4001L28.4809 48.5201L27.2009 50.4001C26.6009 52.0401 26.8409 53.7601 28.0409 55.6401C28.7609 56.8801 30.0809 57.4801 32.0409 57.4401H37.0409C37.8009 57.5201 38.1209 57.2801 37.9609 56.6801V47.6001H35.1209V49.8801L31.9209 45.3601L31.4409 43.9601C31.4409 43.1601 31.8009 42.8001 32.5209 42.8801L32.9209 43.0001C33.2409 43.1601 33.3609 43.4001 33.4409 43.7601V45.0401H36.6409V43.9601C36.6009 43.0001 36.4409 42.2401 36.1209 41.6801L35.6809 41.1201C35.0009 40.4801 34.0809 40.1601 32.9209 40.0801L31.2809 40.2001L30.2009 40.6001Z" fill="#3824BD"/>
<path d="M33.1597 54.6399H34.9197L34.9597 54.4399L31.0797 49.8799C30.7197 50.1199 30.4797 50.5999 30.3197 51.3199C30.1197 52.2399 30.2797 53.0799 30.7997 53.8799L31.4397 54.3199L33.1597 54.6399Z" fill="#BCB6E9"/>
<path d="M48.8802 48.7202H44.2802V53.7602H48.8802V57.4402H50.1602V2.24023H39.1602V57.6002H39.8002V36.5602H48.8802V40.2802H44.2802V45.0002H48.8802V48.7202Z" fill="#7A6DD3"/>
<path d="M9.84078 41.8399C9.56078 40.5999 8.84078 40.0799 7.80078 40.2799V46.3999C9.00078 46.5999 9.68078 45.9599 9.84078 44.4799V41.8399Z" fill="#7A6DD3"/>
<path d="M18.0402 36.3602L20.2802 36.0402C21.9202 36.1202 23.2002 36.7202 24.0402 37.8802L24.6802 38.8802C25.0002 39.8402 25.1602 41.1602 25.0002 42.8002L20.9602 42.7602V40.7602C20.8802 40.1602 20.6002 39.8402 19.9602 39.8402C19.3602 39.8802 19.0402 40.2802 19.0402 41.0402V53.0002L19.1602 53.5602C19.3202 53.9202 19.5602 54.1602 19.9202 54.2002C20.7202 54.4802 21.1602 54.1202 21.1602 53.2002V49.6802H20.0402V46.0002H25.1602V50.9602L38.8802 2.24023H2.24023V57.6402H3.56023V36.4802H7.88023L10.1202 36.7202C11.7602 37.2002 12.8802 38.0402 13.4802 39.3602C13.8002 40.0402 14.0002 41.2002 14.1602 42.8002C14.3202 45.0402 14.1202 46.4802 13.6402 47.0802C12.7202 49.1602 11.2402 50.2002 9.16023 50.0402L7.72023 50.0002V57.4802H17.8802C15.8402 57.0402 14.8402 55.4802 14.8402 52.9602V40.8402C14.5602 38.4402 15.6402 36.9202 18.0402 36.3602Z" fill="#7A6DD3"/>
</g>
<defs>
<clipPath id="clip0_1864_18998">
<rect width="52.8" height="60" fill="white"/>
</clipPath>
</defs>
</svg>
