<svg width="103" height="60" viewBox="0 0 103 60" fill="none" xmlns="http://www.w3.org/2000/svg">
<g clip-path="url(#clip0_1864_18663)">
<path d="M102.438 0H56.3782L43.3945 60H89.4541L102.438 0Z" fill="#7A6DD3"/>
<path d="M87.061 38.3374H84.1225H78.7248L75.4729 45.1159L75.1705 38.3374H70.866H67.9275H60.2051L55.9688 56.7207H66.6296L68.8639 47.0239L69.9092 56.7207H75.9909H77.4269L81.8163 48.3439L79.8862 56.7207H90.5471L94.7834 38.3374H87.061Z" fill="#E8E6F7"/>
<path d="M47.9049 38.3374L46.2549 45.4938L44.4188 38.3374H41.9596H37.3804H31.2987L27.0605 56.7207H37.7214L39.6313 48.4323L41.4803 56.7207H43.6667H49.1345H54.3276L58.5639 38.3374H47.9049Z" fill="#E8E6F7"/>
<path d="M23.2648 38.3374H15.0336H13.0519H4.57922L0 60.0002H10.4563L12.0011 52.689H19.3234C23.416 52.689 26.9684 49.8703 27.8975 45.8846L28.2054 44.5629C28.9483 41.381 26.5333 38.3374 23.2648 38.3374ZM18.0164 46.1593L17.9943 46.2607C17.7952 47.1548 17.0025 47.7908 16.0863 47.7908H13.1625L14.0548 43.7812H16.1102C17.3601 43.7812 18.2874 44.9389 18.0164 46.1593Z" fill="#E8E6F7"/>
<path d="M93.8709 56.2927C93.3879 55.782 93.1445 55.1847 93.1445 54.5045C93.1445 53.8169 93.3879 53.2177 93.8764 52.7053C94.3649 52.1928 94.9806 51.9365 95.7254 51.9365C96.4278 51.9365 97.0306 52.1872 97.5339 52.6887C98.0371 53.1901 98.2897 53.7948 98.2897 54.5063C98.2897 55.1847 98.0427 55.7802 97.5505 56.2927C97.0582 56.8052 96.4499 57.0614 95.7254 57.0614C94.9714 57.0596 94.3539 56.8033 93.8709 56.2927ZM94.0736 52.8896C93.6515 53.3431 93.4395 53.8777 93.4395 54.4971C93.4395 55.1847 93.6681 55.7378 94.1234 56.1581C94.5788 56.5784 95.1134 56.7886 95.7254 56.7886C96.3688 56.7886 96.9089 56.5581 97.3458 56.0973C97.7809 55.6364 98.0003 55.1036 98.0003 54.4971C98.0003 53.8998 97.7846 53.3689 97.3532 52.9062C96.9218 52.4435 96.3799 52.2112 95.7273 52.2112C95.047 52.2094 94.4958 52.4361 94.0736 52.8896ZM96.7485 55.782H96.4462L96.3209 55.3967C96.26 55.2069 96.19 55.0059 96.1089 54.7939C96.0277 54.5838 95.8194 54.4787 95.4802 54.4787C95.3364 54.4787 95.2166 54.4842 95.1244 54.4953V54.829C95.1244 55.2179 95.1355 55.5387 95.1595 55.7913H94.8387C94.8645 55.4428 94.8774 54.9396 94.8774 54.2833C94.8774 53.7007 94.8645 53.2454 94.8387 52.9191H95.1595L95.4194 52.9154C95.4636 52.9154 95.53 52.9136 95.6222 52.9117C95.9135 52.9117 96.1494 52.9689 96.3282 53.0832C96.5071 53.1975 96.5974 53.3966 96.5974 53.6823C96.5974 53.8003 96.566 53.9072 96.5034 54.0031C96.4407 54.0989 96.3374 54.1837 96.1937 54.2593L95.9946 54.3589V54.3828C96.1937 54.4547 96.3393 54.6188 96.4315 54.875C96.5236 55.1313 96.6048 55.3599 96.6748 55.5608L96.7485 55.782ZM96.1162 53.2583C95.9927 53.179 95.7936 53.1385 95.5226 53.1385C95.4563 53.1385 95.3936 53.1422 95.3364 53.1477C95.2793 53.1532 95.2111 53.1624 95.1337 53.1735C95.1281 53.3025 95.1244 53.6639 95.1244 54.2556C95.1705 54.2612 95.2682 54.2648 95.4194 54.2648C95.6849 54.2648 95.8987 54.2132 96.0609 54.1082C96.2232 54.0049 96.3043 53.8593 96.3043 53.6712C96.3024 53.4758 96.2397 53.3394 96.1162 53.2583Z" fill="#E8E6F7"/>
<path d="M92.8795 23.5948C92.5698 23.7681 92.2656 23.7939 91.943 23.7828C91.6278 23.7718 91.3236 23.84 91.0176 23.8898C90.2949 24.0059 89.5741 24.0354 88.8607 23.8271C87.5573 23.781 86.2595 23.7146 84.993 23.3459C84.1284 23.0934 83.2214 22.992 82.3734 22.6694C80.8987 22.1071 79.5308 21.3494 78.2735 20.4C77.6007 19.8912 76.913 19.399 76.2973 18.8183C76.218 18.7446 76.1406 18.6708 76.0632 18.5953C75.8162 18.3611 75.5636 18.1289 75.4272 17.8062C75.1802 17.432 74.8889 17.0891 74.6308 16.7241C74.3727 16.4365 74.1533 16.1213 74.0003 15.7655C73.7975 15.5222 73.709 15.2161 73.5542 14.9488C73.3496 14.735 73.2906 14.4529 73.1892 14.1893C73.1284 14.0695 73.0454 13.9663 72.9606 13.863C72.3651 13.1385 71.7789 12.4122 71.6407 11.4333C71.6093 11.2176 71.5282 10.9964 71.425 10.8028C71.0987 10.1963 70.8959 9.56217 70.7779 8.88008C70.5438 7.52512 70.188 6.18306 70.4959 4.79122C70.5124 4.71933 70.5014 4.64375 70.4977 4.56816C70.4332 3.55056 70.6046 2.56982 70.8867 1.59277C71.0341 1.08397 71.2664 0.553046 71.012 0H69.3179C69.2847 0.0774265 69.2994 0.165914 69.3547 0.206471C69.9207 0.599134 69.7695 1.07291 69.5262 1.56512C69.493 1.63149 69.4801 1.70707 69.4672 1.77897C69.4008 2.14582 69.187 2.30436 68.8127 2.29514C68.3371 2.28408 67.8615 2.27486 67.3877 2.30067C66.9822 2.32279 66.7904 2.54217 66.8033 2.9293C66.8181 3.36068 67.1296 3.62983 67.585 3.56899C67.8965 3.52659 68.2044 3.48419 68.5159 3.52475C68.9473 3.58005 69.1022 3.7644 69.1132 4.19762C69.1261 4.68799 69.0137 5.16914 68.9971 5.65951C68.986 5.9729 68.7814 6.15541 68.4643 6.2273C68.1159 6.30657 67.762 6.34713 67.4172 6.43562C66.9914 6.54438 66.7591 6.88174 66.855 7.20619C66.9822 7.63204 67.3048 7.81639 67.7472 7.70394C67.9352 7.656 68.1214 7.61545 68.315 7.60992C69.1483 7.58964 69.7197 8.5206 69.3345 9.26721C69.2828 9.36492 69.1944 9.44972 69.0985 9.45525C68.6671 9.4829 68.3482 9.79629 67.9445 9.894C67.679 9.95668 67.4725 10.1226 67.4596 10.4065C67.443 10.7457 67.5592 11.0609 67.856 11.2545C68.0901 11.4057 68.3556 11.378 68.562 11.1955C68.8367 10.9522 69.198 10.9724 69.5077 10.8434C69.6939 10.766 69.8746 10.8452 69.9907 11.0499C70.2046 11.4259 70.3281 11.8389 70.4977 12.2334C70.6839 12.6684 70.5954 12.9542 70.1898 13.2178C69.8801 13.4187 69.5944 13.651 69.246 13.7985C68.8478 13.9681 68.6985 14.3497 68.8441 14.6668C69.0653 15.1553 69.4266 15.3175 69.8801 15.1498C70.2359 15.0189 70.4922 14.7332 70.8185 14.5599C70.9641 14.4824 71.106 14.3829 71.2756 14.44C71.6997 14.582 71.8914 14.9562 72.0259 15.3249C72.155 15.677 71.9319 15.9499 71.6333 16.1397C71.2922 16.3554 70.9954 16.6264 70.6986 16.8919C70.4018 17.1592 70.4129 17.5684 70.6839 17.8413C70.9807 18.1399 71.484 18.1842 71.8232 17.9224C72.0462 17.7509 72.2545 17.5592 72.4776 17.3878C72.9311 17.0412 73.18 17.0836 73.4768 17.55C73.5487 17.6625 73.6316 17.7694 73.6961 17.8855C73.8381 18.1362 74.1367 18.304 74.1072 18.6487C74.1423 18.8275 74.1515 19.0064 74.0943 19.1833C73.9413 19.4912 73.674 19.7124 73.4841 19.9908C73.3072 20.2507 73.1302 20.5143 73.3459 20.8388C73.6335 21.0176 73.7699 21.4379 74.2068 21.3734C74.3856 21.2849 74.5073 21.1356 74.6308 20.9881C74.8004 20.7337 74.9516 20.4682 75.1488 20.2323C75.2133 20.1585 75.2834 20.0903 75.37 20.0442C75.8327 19.9742 76.5609 20.4443 76.7803 20.9291C76.8577 21.1006 76.8172 21.2038 76.6826 21.3015C76.6513 21.3273 76.6199 21.3568 76.5923 21.3881C76.5683 21.4232 76.5462 21.4582 76.5277 21.4969C76.3784 21.8767 76.0392 22.1421 75.9083 22.533C75.8936 22.6214 75.8899 22.7099 75.901 22.7984C75.9452 23.1542 76.1775 23.3459 76.4946 23.4381C76.7987 23.5284 77.0015 23.392 77.1306 23.1081C77.1988 22.9606 77.3481 22.8685 77.444 22.7357C77.4698 22.6989 77.4937 22.6602 77.5122 22.6196C77.5656 22.4611 77.6652 22.3357 77.7868 22.2269C77.9915 22.0463 78.2016 21.9338 78.4265 22.1974C78.4505 22.2325 78.4782 22.2638 78.5076 22.2933C78.539 22.3209 78.574 22.3449 78.6127 22.3652C78.751 22.4223 78.8929 22.4666 79.0367 22.5071C79.2838 22.603 79.516 22.732 79.7483 22.8611C79.9032 22.9477 79.9935 23.0528 79.9935 23.2427C79.9917 23.6851 79.94 24.1202 79.8073 24.5442C79.7889 24.5848 79.7723 24.6253 79.7631 24.6696C79.7059 24.9387 79.894 25.1415 79.9622 25.3738C80.0009 25.4364 80.058 25.477 80.1281 25.501C80.4765 25.5839 80.753 25.4807 80.9613 25.1894C81.0148 25.1065 81.059 25.0198 81.0904 24.9258C81.1438 24.6788 81.2323 24.4428 81.3005 24.1995C81.3614 23.9856 81.4904 23.8123 81.7135 23.781C82.5947 23.6556 83.1827 24.3138 82.9541 25.1691C82.8767 25.4586 82.8269 25.748 82.8454 26.0466C82.873 26.5057 83.0684 26.6937 83.5164 26.6919C83.9902 26.69 84.2169 26.4928 84.2354 26.0411C84.2464 25.7443 84.2593 25.4512 84.3183 25.1581C84.3773 24.8594 84.5137 24.7304 84.8271 24.7267C85.1866 24.723 85.535 24.7857 85.8871 24.8244C86.5287 24.8945 86.7038 25.1028 86.6743 25.7535C86.6688 25.8881 86.6282 26.0153 86.6098 26.148C86.5508 26.6163 86.7149 26.8725 87.1131 26.9389C87.5352 27.0089 87.8818 26.7711 87.9629 26.3508C87.9998 26.1609 87.985 25.9655 87.9924 25.7738C88.0108 25.23 88.197 25.0825 88.7556 25.171C89.1003 25.2079 89.4524 25.1304 89.7953 25.2208C90.0147 25.3406 90.1769 25.5157 90.3023 25.7296C90.4369 26.1056 90.4498 26.5149 90.612 26.8873C90.7761 27.2633 91.1392 27.4735 91.5024 27.3758C91.8176 27.291 91.9633 27.0218 91.884 26.5831C91.8269 26.2605 91.8084 25.9342 91.7605 25.6116C91.7181 25.3277 91.7586 24.9977 92.1126 24.9387C92.579 24.8613 93.0362 24.7138 93.5192 24.7322C93.9764 24.7488 94.0943 24.8373 94.1718 25.2816C94.2271 25.606 94.3119 25.9194 94.4538 26.2162C94.5829 26.4891 94.793 26.6273 95.0972 26.5831C95.4216 26.5352 95.523 26.2937 95.5581 26.0079C95.5802 25.8144 95.5562 25.6245 95.5101 25.4346C95.4548 25.2042 95.4014 24.9756 95.3977 24.7341C95.3922 24.4373 95.5138 24.2695 95.7922 24.1681C96.1849 24.0262 96.6033 23.9856 96.9905 23.8308C97.0992 23.7865 97.2117 23.7552 97.3204 23.7644L97.6818 22.0518C96.489 22.6657 95.2613 23.1745 93.9137 23.3386C93.5579 23.3846 93.1818 23.4252 92.8795 23.5948Z" fill="#E8E6F7"/>
<path d="M91.2408 0.519644C92.1146 1.10034 92.4114 1.92623 92.2768 2.93461C92.2234 3.33834 92.0353 3.6591 91.6703 3.86189C91.1984 4.42046 90.6158 4.4684 89.9725 4.22505C89.9319 4.20662 89.8914 4.19003 89.8508 4.17712C89.5485 4.06836 89.3236 3.71625 88.9327 3.88032C88.8922 3.90613 88.8572 3.93563 88.8277 3.9725C88.2838 4.61403 88.3336 4.98273 89.0747 5.36986C90.2324 5.97452 91.5007 5.90079 92.5958 4.98273C93.3903 4.31539 93.8235 3.48582 93.6631 2.4424C93.5304 1.57596 93.2594 0.740863 92.7709 -0.00390625H90.8979C90.7799 0.324235 91.0583 0.399818 91.2408 0.519644Z" fill="#E8E6F7"/>
<path d="M85.3387 3.88781C85.512 4.79849 85.5931 5.73682 86.1019 6.55533C86.3047 6.88163 86.6181 7.13419 86.749 7.50842C86.9278 8.01722 87.3389 8.33614 87.7611 8.59239C88.0984 8.79701 88.4469 8.99795 88.7953 9.19152C89.0515 9.33347 89.3115 9.40537 89.6009 9.39615C90.9153 9.34822 92.2057 9.17493 93.4261 8.64954C93.6897 8.53893 93.8944 8.33246 94.1119 8.1647C94.9673 7.50657 95.9038 6.90007 96.1379 5.72023C96.16 5.60594 96.2374 5.5027 96.3222 5.4179C96.9195 4.83167 96.9767 4.04266 97.0633 3.29052C97.1426 2.6158 97.0836 1.92449 97.0762 1.2424C97.0707 0.809182 96.9767 0.392553 96.7813 0.00173385H95.6217C95.5332 0.0975952 95.5259 0.213735 95.5443 0.335405C95.6033 0.715164 95.6918 1.09124 95.7526 1.46731C95.8982 2.36877 96.0494 3.2813 95.548 4.14221C95.3028 4.56252 95.0834 4.99759 94.888 5.44371C94.7885 5.6723 94.7166 5.90827 94.5691 6.12396C94.2207 6.63276 93.7266 6.94247 93.2067 7.23374C92.0896 7.86237 90.9153 8.25319 89.6101 8.13889C89.5659 8.12783 89.5216 8.11861 89.4755 8.11308C89.1345 8.10939 88.8616 7.95638 88.5814 7.77388C88.0579 7.43283 87.8643 6.85213 87.5159 6.38573C87.3481 6.16083 87.1509 5.91564 87.1214 5.60409C87.0845 5.49717 87.0569 5.38656 87.0145 5.27964C86.5702 4.39292 86.5739 3.45459 86.6863 2.5015C86.7638 2.30978 86.9112 2.15308 86.9702 1.95399C87.2043 1.17051 87.7887 0.737286 88.4874 0.409145C88.6515 0.331718 88.8653 0.263509 88.7473 -0.00195312H86.6955C86.1093 0.626676 85.5895 1.25899 85.4641 2.18442C85.3959 2.7559 85.23 3.30895 85.3387 3.88781Z" fill="#E8E6F7"/>
<path d="M94.2665 19.5203C93.3926 19.7563 92.5317 20.0881 91.6376 20.1932C90.2882 20.3517 88.9203 20.466 87.5654 20.2098C86.8022 20.066 85.991 20.0715 85.3237 19.5812C84.6729 19.5074 84.0775 19.2032 83.4304 19.1147C83.0396 19.0613 82.6967 18.8991 82.3686 18.6852C82.1197 18.523 81.9022 18.3165 81.6496 18.1635C80.5657 17.5091 79.6347 16.6648 78.7185 15.8057C78.4917 15.5937 78.2963 15.3522 78.0714 15.1365C77.1239 14.2221 76.2371 13.2543 75.6952 12.0284C75.5145 11.5749 75.3117 11.1177 75.2472 10.6347C75.1071 9.58023 74.8693 8.53313 74.9614 7.45469C74.9762 7.29062 74.884 7.13392 74.8711 6.97538C74.7826 5.93012 74.2941 4.92726 74.6001 3.83592C74.8527 2.9363 74.8121 1.98506 75.0094 1.06884C75.0813 0.73333 75.3338 0.377536 75.1108 0.00146484H74.2185C73.9107 0.552668 73.7337 1.14443 73.6563 1.76937C73.6194 2.07908 73.612 2.39984 73.4996 2.68927C73.1696 3.53359 73.2986 4.41109 73.2765 5.27753C73.2618 5.8785 73.483 6.44446 73.5604 7.02884C73.6876 8.00036 73.7153 8.97925 73.7392 9.95814C73.7466 10.2586 73.7595 10.5554 73.8756 10.8338C74.2941 11.8274 74.6886 12.834 75.2638 13.7539C75.6251 14.3327 76.0104 14.8876 76.4528 15.4149C77.0667 16.1467 77.8023 16.7385 78.4788 17.3985C78.7019 17.616 78.8328 17.922 79.1148 18.0787C79.7508 18.4308 80.2652 18.9544 80.9067 19.3083C81.7897 19.7968 82.6322 20.372 83.659 20.5084C84.1033 20.5674 84.5402 20.6153 84.9495 20.8126C85.3532 21.008 85.7883 21.1002 86.227 21.1776C86.286 21.1831 86.3431 21.196 86.3984 21.2163C87.6649 21.6754 88.9904 21.7251 90.2919 21.5795C91.1252 21.4873 91.9621 21.4615 92.7917 21.3454C93.282 21.2901 93.6858 20.984 94.1558 20.8716C94.8103 20.5619 95.5311 20.4531 96.2003 20.1618C96.8142 19.8927 97.3746 19.4705 98.0733 19.3876C98.1396 19.3802 98.1949 19.3747 98.2447 19.371L98.606 17.6658C98.5304 17.7211 98.4493 17.7708 98.3627 17.8188C97.0575 18.5377 95.7062 19.1295 94.2665 19.5203Z" fill="#E8E6F7"/>
<path d="M100.032 6.8042C100.03 6.66779 100.056 6.52768 100.126 6.42076C100.502 5.85665 100.439 5.21696 100.494 4.58649C100.576 3.66106 100.5 2.72641 100.655 1.80651C100.76 1.18157 100.653 0.584276 100.441 -0.00195312H99.4602C99.3257 0.149213 99.3644 0.326188 99.3736 0.505006C99.4713 2.19548 99.5469 3.88228 99.0233 5.53404C98.8574 6.05759 98.6454 6.56271 98.485 7.08257C98.1882 8.04118 97.5836 8.81729 96.9052 9.4662C96.2876 10.058 95.6995 10.705 94.9289 11.1677C94.1915 11.612 93.4744 12.0231 92.6227 12.1282C90.4345 12.3973 88.274 12.4508 86.353 11.0885C86.3051 11.0534 86.3623 11.1014 86.3143 11.0663C85.3852 10.4045 84.4266 9.76853 84.0561 8.59792C84.01 8.45228 83.9067 8.34352 83.8219 8.22185C83.3887 7.61349 83.044 6.95353 82.8965 6.22166C82.6329 4.91094 82.8264 3.59653 82.9389 2.28582C82.9905 1.66825 83.0108 1.0433 83.2707 0.460762C83.3371 0.31144 83.3555 0.141839 83.2283 -0.00195312H81.9803C81.8826 0.101282 81.866 0.234013 81.8347 0.364901C81.5526 1.53736 81.4678 2.73194 81.4199 3.93021C81.3719 5.13953 81.6282 6.31015 81.9194 7.47523C81.9784 7.70936 82.0614 7.91398 82.196 8.12045C82.478 8.55552 82.8504 8.93712 83.055 9.41458C83.4274 10.2755 84.0892 10.8912 84.7381 11.5217C84.9944 11.7706 85.2912 11.9715 85.5364 12.2314C85.9641 12.4434 86.3936 12.6481 86.8121 12.8767C86.8508 12.8951 86.8913 12.9098 86.9337 12.9209C87.2121 12.9356 87.3504 13.2029 87.5919 13.2841C88.0933 13.3209 88.6132 13.3172 89.0906 13.4555C90.1193 13.7523 91.1277 13.791 92.1453 13.4463C92.2596 13.4076 92.3794 13.4131 92.4974 13.4057C93.1537 13.3689 93.7805 13.2841 94.3317 12.8527C94.6156 12.6315 94.9861 12.5061 95.3364 12.3955C95.9558 12.2038 96.4646 11.8517 96.8535 11.3521C97.3218 10.753 97.7974 10.152 98.3892 9.68557C99.274 8.98689 99.416 7.87896 99.9985 7.01989C100.039 6.96459 100.03 6.87794 100.032 6.8042Z" fill="#E8E6F7"/>
<path d="M97.3216 14.1947C97.0543 14.3127 96.8718 14.5561 96.6137 14.687C95.8855 15.1478 95.0873 15.4446 94.2854 15.7617C93.3231 16.1433 92.3313 16.2373 91.3376 16.3664C90.7385 16.4438 90.1302 16.359 89.5255 16.2539C89.0148 16.1654 88.5374 15.8981 88.0083 15.9387C86.6626 16.0419 85.4993 15.4336 84.3176 14.9561C83.0032 14.4233 82.1995 13.2638 81.3754 12.1964C80.7929 11.4424 80.4094 10.5391 79.9928 9.67083C79.626 8.68272 78.9107 7.82181 78.9125 6.69728C78.9125 6.46132 78.8314 6.23457 78.7577 6.00782C78.4867 5.17825 78.4148 4.33393 78.5973 3.47302C78.8111 2.46463 79.0821 1.46546 79.0932 0.423893C79.095 0.278257 79.1485 0.128935 79.036 -0.00195312H78.1438C77.8581 0.615615 77.6037 1.23871 77.5723 1.9374C77.5502 2.46648 77.5742 3.01952 77.3345 3.5062C77.0525 4.08137 77.082 4.65101 77.2386 5.23724C77.3308 5.58013 77.423 5.92302 77.5115 6.26775C77.6645 6.85951 77.6461 7.48998 77.8378 8.05593C78.0996 8.82467 78.4056 9.58418 78.7909 10.3105C79.0139 10.7308 79.414 11.0682 79.5006 11.5346C79.6296 12.2314 80.0057 12.755 80.4703 13.2398C80.7062 13.4868 80.9219 13.7412 81.1044 14.0362C81.4049 14.521 81.8252 14.8897 82.3248 15.1829C83.1323 15.6566 83.9747 16.064 84.8062 16.4899C85.4016 16.7941 86.0229 17.0153 86.705 17.0835C87.2598 17.1388 87.824 17.1443 88.3715 17.3342C89.4094 17.6918 90.4841 17.7398 91.5773 17.6421C92.2981 17.5775 92.9581 17.2789 93.6623 17.1886C94.4845 17.0816 95.2108 16.689 95.998 16.4844C96.5086 16.1912 97.0414 15.9387 97.5299 15.6032C97.9152 15.3377 98.389 15.2105 98.671 14.7847C98.7651 14.6446 98.9439 14.5579 99.1061 14.4823C99.1669 14.4547 99.2296 14.4252 99.2923 14.4104L99.7292 12.3513C99.0397 13.0333 98.306 13.6675 97.4488 14.1413C97.4046 14.156 97.3622 14.1726 97.3216 14.1947Z" fill="#E8E6F7"/>
</g>
<defs>
<clipPath id="clip0_1864_18663">
<rect width="102.437" height="60" fill="white"/>
</clipPath>
</defs>
</svg>
