<svg width="211" height="60" viewBox="0 0 211 60" fill="none" xmlns="http://www.w3.org/2000/svg">
<path d="M83.4713 47.4447C78.422 47.4447 73.3273 45.6706 69.3242 42.1225L73.6457 36.9367C76.6479 39.3932 79.7867 40.9853 83.6078 40.9853C86.61 40.9853 88.4296 39.8026 88.4296 37.8465V37.7556C88.4296 35.8905 87.2924 34.9352 81.6972 33.5251C74.9649 31.7965 70.6434 29.9769 70.6434 23.3355V23.1991C70.6434 17.149 75.5107 13.146 82.2886 13.146C87.1559 13.146 91.2954 14.6471 94.6616 17.3765L90.8405 22.8806C87.8837 20.8336 84.9724 19.6054 82.1976 19.6054C79.3773 19.6054 77.9216 20.8791 77.9216 22.5167V22.6077C77.9216 24.7912 79.3318 25.519 85.1089 26.9747C91.8868 28.7487 95.6624 31.1596 95.6624 36.9822V37.0732C95.7078 43.7146 90.6586 47.4447 83.4713 47.4447Z" fill="#3824BD"/>
<path d="M113.084 46.9444H100.074V13.6465H113.084C123.547 13.6465 130.779 20.8337 130.779 30.2045V30.2955C130.779 39.6662 123.547 46.9444 113.084 46.9444ZM123.137 30.2955C123.137 24.3819 119.089 20.2424 113.084 20.2424H107.398V40.3485H113.084C119.089 40.3485 123.137 36.3 123.137 30.3864V30.2955Z" fill="#3824BD"/>
<path d="M150.976 47.5358C140.605 47.5358 133.463 40.2576 133.463 30.3865V30.2955C133.463 20.8338 140.832 13.0552 150.931 13.0552C156.935 13.0552 160.529 14.6928 164.032 17.6041L159.392 23.1992C156.799 21.0612 154.524 19.833 150.703 19.833C145.381 19.833 141.151 24.5639 141.151 30.2045V30.2955C141.151 36.391 145.336 40.849 151.249 40.849C153.933 40.849 156.298 40.1666 158.163 38.8474V34.1166H150.794V27.7936H165.26V42.2591C161.757 45.1704 157.072 47.5358 150.976 47.5358Z" fill="#BCB6E9"/>
<path d="M170.582 46.9444V13.6465H195.737V20.1514H177.86V26.9293H193.554V33.4342H177.86V40.4395H195.965V46.9444H170.582Z" fill="#BCB6E9"/>
<path d="M200.06 17.9679H199.287V14.3288H197.922V13.6465H201.425V14.3743H200.06V17.9679Z" fill="#BCB6E9"/>
<path d="M204.426 16.9217L203.062 14.8747V17.9679H202.334V13.6465H203.153L204.472 15.6935L205.791 13.6465H206.61V17.9679H205.837V14.8747L204.426 16.9217Z" fill="#BCB6E9"/>
<path d="M52.9491 18.0591C47.2175 23.5178 25.9286 37.3464 0.636719 36.3912C2.09237 43.169 5.77698 47.3995 5.77698 47.3995C21.5617 46.3078 46.6261 29.3858 54.9051 23.3358C54.4502 21.5617 53.7679 19.6967 52.9491 18.0591Z" fill="#7A6DD3"/>
<path d="M54.9511 23.3813C54.9511 23.3813 43.1239 42.4867 13.6016 54.3594C16.2854 55.9515 21.1982 58.2259 26.8389 58.2714C34.0261 58.3624 38.8935 56.6338 43.8063 53.3586C47.8548 50.6748 51.8123 45.8074 53.7229 40.9401C55.0875 37.5284 55.8609 33.8893 55.8609 30.2502C55.8154 27.9302 55.4969 25.5648 54.9511 23.3813Z" fill="#3824BD"/>
<path d="M46.0804 9.18892C41.1676 5.00393 34.8446 2.45654 27.8848 2.45654C12.464 2.45654 0 14.9205 0 30.3413C0 32.3883 0.227445 34.4808 0.636846 36.3913C0.636846 36.3913 31.8423 32.0244 46.0804 9.18892Z" fill="#E8E6F7"/>
</svg>
