<svg width="238" height="60" viewBox="0 0 238 60" fill="none" xmlns="http://www.w3.org/2000/svg">
<g clip-path="url(#clip0_1864_19031)">
<path d="M28.9846 55.2092C23.0061 55.206 17.2333 53.0257 12.7453 49.0759C8.25731 45.126 5.36132 39.677 4.59865 33.7473C3.83599 27.8175 5.25883 21.813 8.60124 16.856C11.9437 11.8991 16.9768 8.32895 22.76 6.81299C17.7003 7.57432 12.9652 9.77143 9.11686 13.1435C5.26852 16.5156 2.46853 20.9211 1.04924 25.837C-0.370054 30.753 -0.349041 35.9729 1.10978 40.8772C2.5686 45.7816 5.40397 50.1644 9.27933 53.5054C13.1547 56.8464 17.9073 59.0053 22.973 59.7259C28.0387 60.4464 33.2048 59.6984 37.8581 57.5705C42.5114 55.4427 46.4564 52.0244 49.2249 47.7213C51.9934 43.4183 53.4692 38.4113 53.477 33.2945C53.477 33.1536 53.477 33.0127 53.477 32.8718C52.9129 38.9779 50.0888 44.6531 45.558 48.7852C41.0273 52.9173 35.1167 55.2083 28.9846 55.2092Z" fill="#BCB6E9"/>
<path d="M29.7218 10.6177C41.4748 11.4466 50.302 21.1192 49.4483 32.8722C49.143 37.2836 47.4649 41.4889 44.6493 44.8987C48.6887 41.1865 51.1201 36.0447 51.4264 30.5672C51.7326 25.0897 49.8894 19.7088 46.289 15.5695C42.6886 11.4302 37.6151 8.8592 32.148 8.40342C26.6809 7.94765 21.2517 9.64312 17.0156 13.1291C20.6957 10.9161 25.0886 10.2862 29.7218 10.6177Z" fill="#BCB6E9"/>
<path d="M25.2466 29.0261L36.494 34.3141L34.6789 36.0132L44.31 39.8093C45.5525 36.7825 45.8978 33.4622 45.3047 30.2445C44.8477 30.2943 44.3884 30.3192 43.9288 30.3191C33.5351 30.3191 19.8011 18.8147 15.6238 15.0601C14.9773 16.2204 14.3722 17.3974 13.8086 18.5744L27.2939 26.4649L25.2466 29.0261Z" fill="#BCB6E9"/>
<path d="M19.8341 35.1844C27.4761 40.8288 35.3335 43.1579 43.1909 42.1301C43.5408 41.5424 43.8536 40.9334 44.1275 40.3066L29.0923 37.3477L30.8909 35.1927L18.9141 30.8081L21.4006 27.3767L11.6866 23.5889C11.3302 24.5752 11.0152 25.5532 10.75 26.4981C13.402 29.7628 16.454 32.6811 19.8341 35.1844Z" fill="#BCB6E9"/>
<path d="M9.9043 36.2949C10.6607 40.434 12.8521 44.1739 16.0932 46.8571C19.3342 49.5403 23.4175 50.995 27.625 50.9655C29.5134 50.9809 31.3927 50.7012 33.1948 50.1366C27.5338 49.5647 21.9142 47.1362 16.6179 42.9008C14.1715 40.9213 11.9231 38.709 9.9043 36.2949Z" fill="#BCB6E9"/>
<path d="M41.4927 44.5421C40.8959 44.5421 40.2908 44.6084 39.6941 44.6084C32.5246 44.6084 25.2722 42.0059 18.4425 36.9582C15.3879 34.6881 12.5868 32.0954 10.0878 29.2251C9.886 30.257 9.75035 31.3007 9.68164 32.3498C12.0869 35.6331 14.9093 38.5893 18.0778 41.1439C24.4599 46.233 31.0658 48.4957 37.7546 47.8907C39.1528 46.957 40.4114 45.8296 41.4927 44.5421Z" fill="#BCB6E9"/>
<path d="M44.782 28.0066C43.3564 23.1082 39.9582 17.3809 33.8081 12.3663C28.8765 8.34646 27.7327 0 27.7327 0C27.7327 0 21.7236 5.67758 18.9552 9.66432C18.1982 10.7694 17.4716 11.8967 16.7754 13.046C20.4223 16.3199 35.01 28.8023 44.782 28.0066ZM29.5644 15.574C29.5644 15.2625 29.6568 14.958 29.8299 14.6991C30.0029 14.4401 30.2488 14.2382 30.5366 14.119C30.8244 13.9999 31.141 13.9687 31.4465 14.0294C31.752 14.0902 32.0326 14.2402 32.2528 14.4604C32.473 14.6807 32.623 14.9613 32.6838 15.2667C32.7446 15.5722 32.7134 15.8889 32.5942 16.1766C32.475 16.4644 32.2731 16.7103 32.0142 16.8834C31.7552 17.0564 31.4507 17.1488 31.1393 17.1488C30.9296 17.1488 30.7221 17.107 30.5288 17.0258C30.3356 16.9446 30.1605 16.8256 30.0138 16.6759C29.8671 16.5261 29.7518 16.3486 29.6747 16.1537C29.5975 15.9588 29.56 15.7504 29.5644 15.5408V15.574ZM33.8247 22.2047C33.3841 22.2031 32.9538 22.0709 32.5883 21.8249C32.2227 21.579 31.9382 21.2302 31.7708 20.8226C31.6033 20.4151 31.5603 19.9671 31.6473 19.5351C31.7342 19.1032 31.9472 18.7067 32.2594 18.3957C32.5715 18.0847 32.9688 17.8732 33.4011 17.7878C33.8333 17.7024 34.2812 17.7471 34.6881 17.9161C35.095 18.0851 35.4428 18.3708 35.6874 18.7373C35.932 19.1038 36.0626 19.5345 36.0626 19.9751C36.056 20.5636 35.8171 21.1256 35.3979 21.5386C34.9787 21.9516 34.4132 22.1821 33.8247 22.1799V22.2047Z" fill="#BCB6E9"/>
<path d="M61.5742 22.3458L62.544 21.2434C63.143 21.8457 63.8562 22.3224 64.6419 22.6455C65.4275 22.9685 66.2697 23.1315 67.1192 23.1249C68.9095 23.1249 70.0947 22.1717 70.0947 20.8621C70.0947 19.6272 69.4234 18.9144 66.6219 18.3259C63.5552 17.6628 62.1461 16.6682 62.1461 14.48V14.3972C62.1461 12.3002 63.9944 10.7585 66.5307 10.7585C68.2425 10.7157 69.91 11.3059 71.2137 12.4162L70.3848 13.5766C69.3175 12.6434 67.9484 12.1282 66.5307 12.1261C64.7984 12.1261 63.6878 13.0793 63.6878 14.2811C63.6878 15.541 64.3757 16.2455 67.3098 16.8754C70.2439 17.5053 71.6612 18.616 71.6612 20.6549C71.6612 22.9425 69.7549 24.4262 67.1026 24.4262C65.0591 24.4799 63.0754 23.7334 61.5742 22.3458Z" fill="#BCB6E9"/>
<path d="M73.668 21.434V21.3926C73.668 19.3122 75.3837 18.2098 77.8785 18.2098C78.9023 18.2002 79.9218 18.3427 80.9038 18.6325V18.2844C80.9038 16.5107 79.818 15.5989 77.9697 15.5989C76.931 15.6128 75.9085 15.8592 74.9775 16.32L74.5383 15.1182C75.6567 14.5746 76.8836 14.2913 78.1272 14.2894C78.7039 14.2489 79.2829 14.3249 79.8297 14.5129C80.3765 14.7009 80.8799 14.9969 81.3099 15.3834C81.6632 15.7702 81.9348 16.2243 82.1085 16.7185C82.2823 17.2126 82.3546 17.7368 82.3211 18.2595V24.2769H80.9038V22.8016C80.4842 23.3412 79.942 23.773 79.3222 24.0613C78.7024 24.3496 78.0228 24.486 77.3397 24.4593C75.5163 24.5007 73.668 23.4481 73.668 21.434ZM80.9286 20.6715V19.7183C79.9873 19.4372 79.0101 19.2948 78.0277 19.2956C76.1794 19.2956 75.1516 20.1244 75.1516 21.3345V21.376C75.1516 22.611 76.2954 23.3403 77.6381 23.3403C79.4367 23.3486 80.9286 22.2297 80.9286 20.6715Z" fill="#BCB6E9"/>
<path d="M85.0649 14.4386H86.532V16.1543C86.8629 15.5562 87.3517 15.0605 87.9452 14.7214C88.5386 14.3823 89.2138 14.2128 89.8971 14.2314C92.2759 14.2314 93.6683 15.831 93.6683 18.1767V24.2935H92.2013V18.5331C92.2013 16.7013 91.2149 15.5575 89.4744 15.5575C89.0727 15.5497 88.6737 15.6255 88.3028 15.78C87.9319 15.9345 87.5972 16.1644 87.3198 16.455C87.0424 16.7457 86.8284 17.0908 86.6913 17.4685C86.5543 17.8461 86.4972 18.2482 86.5237 18.6491V24.2852H85.0566L85.0649 14.4386Z" fill="#BCB6E9"/>
<path d="M102.395 10.916H111.976V12.3085H103.895V17.0743H111.122V18.4419H103.895V24.2438H102.395V10.916Z" fill="#BCB6E9"/>
<path d="M113.51 14.4386H114.977V17.008C115.275 16.1847 115.822 15.4747 116.543 14.9771C117.263 14.4794 118.121 14.2187 118.997 14.2314V15.8891H118.906C116.751 15.8891 115.002 17.4307 115.002 20.4063V24.3267H113.535L113.51 14.4386Z" fill="#BCB6E9"/>
<path d="M120.48 21.4337V21.3923C120.48 19.3119 122.196 18.2095 124.699 18.2095C125.723 18.2012 126.742 18.3436 127.725 18.6322V18.2841C127.725 16.5104 126.639 15.5987 124.79 15.5987C123.752 15.6117 122.729 15.8581 121.798 16.3198L121.392 15.1179C122.508 14.5753 123.732 14.292 124.973 14.2891C125.55 14.2482 126.129 14.324 126.676 14.512C127.222 14.6999 127.726 14.9963 128.156 15.3832C128.51 15.7689 128.783 16.2228 128.957 16.7172C129.131 17.2117 129.202 17.7363 129.167 18.2593V24.2767H127.758V22.8013C127.337 23.3394 126.794 23.7701 126.175 24.0583C125.555 24.3464 124.876 24.4837 124.194 24.459C122.329 24.5005 120.48 23.4478 120.48 21.4337ZM127.741 20.6712V19.718C126.803 19.4361 125.828 19.2937 124.848 19.2953C123 19.2953 121.972 20.1242 121.972 21.3343V21.3757C121.972 22.6107 123.116 23.3401 124.459 23.3401C126.258 23.3484 127.741 22.2294 127.741 20.6712Z" fill="#BCB6E9"/>
<path d="M131.885 14.4383H133.352V16.154C133.683 15.5547 134.173 15.0582 134.769 14.719C135.364 14.3798 136.041 14.211 136.725 14.2311C139.104 14.2311 140.496 15.8308 140.496 18.1764V24.2933H139.029V18.5328C139.029 16.7011 138.035 15.5573 136.303 15.5573C135.901 15.5495 135.502 15.6253 135.131 15.7798C134.76 15.9343 134.425 16.1641 134.148 16.4548C133.871 16.7454 133.657 17.0905 133.519 17.4682C133.382 17.8459 133.325 18.2479 133.352 18.6488V24.285H131.885V14.4383Z" fill="#BCB6E9"/>
<path d="M142.635 19.4115V19.3701C142.632 18.325 142.949 17.304 143.542 16.4437C144.136 15.5835 144.978 14.925 145.956 14.5563C146.934 14.1877 148.001 14.1265 149.014 14.3809C150.028 14.6354 150.94 15.1933 151.628 15.9801L150.658 17.0079C150.297 16.5581 149.842 16.1923 149.326 15.9361C148.809 15.6799 148.242 15.5394 147.666 15.5242C147.183 15.538 146.707 15.6481 146.267 15.8482C145.826 16.0483 145.431 16.3344 145.102 16.6895C144.774 17.0447 144.52 17.4618 144.356 17.9164C144.191 18.3711 144.119 18.854 144.143 19.3369C144.122 19.828 144.2 20.3184 144.372 20.7789C144.544 21.2394 144.806 21.6607 145.144 22.0179C145.482 22.375 145.888 22.6606 146.338 22.8579C146.789 23.0551 147.274 23.16 147.765 23.1662C148.342 23.1506 148.91 23.0115 149.429 22.7585C149.948 22.5055 150.406 22.1442 150.774 21.6991L151.702 22.5777C151.041 23.3994 150.14 23.9956 149.125 24.284C148.11 24.5723 147.031 24.5386 146.036 24.1876C145.041 23.8365 144.18 23.1854 143.57 22.324C142.961 21.4626 142.634 20.4334 142.635 19.3784V19.4115Z" fill="#BCB6E9"/>
<path d="M153.783 10.6587H155.441V12.3164H153.783V10.6587ZM153.883 14.4382H155.375V24.2849H153.883V14.4382Z" fill="#BCB6E9"/>
<path d="M157.562 23.0334L158.3 21.9808C159.274 22.7562 160.471 23.1979 161.715 23.2406C162.9 23.2406 163.754 22.6273 163.754 21.6741C163.754 20.6795 162.594 20.2983 161.267 19.9419C159.717 19.5026 158.002 18.9638 158.002 17.1569C158.002 15.4992 159.411 14.3389 161.317 14.3389C162.578 14.36 163.808 14.7363 164.865 15.4247L164.193 16.527C163.329 15.9431 162.318 15.6129 161.276 15.5738C160.115 15.5738 159.369 16.1872 159.369 17.0077C159.369 17.9443 160.596 18.309 161.906 18.7069C163.431 19.1627 165.072 19.7595 165.072 21.5249V21.5664C165.072 23.4313 163.53 24.5171 161.566 24.5171C160.106 24.4671 158.702 23.9467 157.562 23.0334Z" fill="#BCB6E9"/>
<path d="M166.879 19.4113V19.3699C166.875 18.3229 167.191 17.2995 167.784 16.4373C168.378 15.575 169.222 14.915 170.202 14.546C171.181 14.177 172.251 14.1166 173.266 14.3729C174.281 14.6292 175.193 15.19 175.881 15.9799L174.911 17.0077C174.552 16.5633 174.103 16.2009 173.592 15.945C173.082 15.689 172.522 15.5455 171.952 15.524C171.469 15.5378 170.993 15.6479 170.553 15.848C170.112 16.0481 169.717 16.3341 169.388 16.6893C169.06 17.0445 168.806 17.4616 168.642 17.9162C168.477 18.3708 168.405 18.8538 168.429 19.3367C168.409 19.8275 168.488 20.3174 168.66 20.7774C168.832 21.2374 169.095 21.6583 169.433 22.0152C169.77 22.372 170.176 22.6577 170.626 22.8554C171.075 23.053 171.56 23.1586 172.051 23.166C172.629 23.1514 173.196 23.0129 173.715 22.7597C174.234 22.5066 174.693 22.1448 175.06 21.6989L175.997 22.5775C175.34 23.4193 174.437 24.0339 173.412 24.3346C172.388 24.6353 171.296 24.607 170.288 24.2536C169.281 23.9002 168.411 23.2395 167.799 22.3648C167.187 21.4901 166.866 20.4454 166.879 19.3781V19.4113Z" fill="#BCB6E9"/>
<path d="M177.1 19.4117V19.3703C177.1 18.0074 177.641 16.7003 178.605 15.7366C179.569 14.7729 180.876 14.2314 182.239 14.2314C183.602 14.2314 184.909 14.7729 185.872 15.7366C186.836 16.7003 187.378 18.0074 187.378 19.3703C187.381 20.0492 187.249 20.7221 186.99 21.3497C186.731 21.9773 186.35 22.5471 185.869 23.0261C185.387 23.505 184.816 23.8835 184.187 24.1395C183.558 24.3956 182.885 24.524 182.206 24.5174C181.533 24.5252 180.866 24.3984 180.243 24.1446C179.62 23.8908 179.054 23.515 178.578 23.0393C178.102 22.5636 177.727 21.9977 177.473 21.3747C177.219 20.7518 177.092 20.0844 177.1 19.4117ZM185.869 19.4117V19.3703C185.885 18.8763 185.802 18.3842 185.625 17.9226C185.449 17.4609 185.183 17.0389 184.842 16.6811C184.501 16.3233 184.092 16.0368 183.64 15.8382C183.187 15.6396 182.7 15.533 182.206 15.5244C181.716 15.5295 181.233 15.6331 180.785 15.8292C180.336 16.0254 179.932 16.3099 179.596 16.6659C179.26 17.0218 179 17.4418 178.83 17.9008C178.66 18.3598 178.585 18.8483 178.608 19.3371C178.591 19.8288 178.671 20.319 178.846 20.7791C179.02 21.2392 179.284 21.6599 179.623 22.0165C179.962 22.3732 180.368 22.6586 180.819 22.856C181.27 23.0535 181.755 23.159 182.247 23.1664C182.734 23.1656 183.215 23.0669 183.663 22.8762C184.111 22.6856 184.516 22.4068 184.854 22.0565C185.192 21.7063 185.456 21.2916 185.63 20.8373C185.804 20.3829 185.886 19.8981 185.869 19.4117Z" fill="#BCB6E9"/>
<path d="M61.252 30.7167H63.7882L66.971 40.6048L70.2863 30.6587H72.2673L75.5827 40.6048L78.7654 30.7167H81.252L76.5193 44.1523H74.4803L71.1649 34.5625L67.8495 44.1523H65.9018L61.252 30.7167Z" fill="#BCB6E9"/>
<path d="M80.9121 41.1602V41.1187C80.9121 38.9471 82.5698 37.8779 85.0563 37.8779C85.9742 37.8683 86.8873 38.0111 87.7584 38.3007V38.052C87.7584 36.6264 86.8881 35.8639 85.2718 35.8639C84.2793 35.8677 83.299 36.0824 82.3957 36.4938L81.7824 34.6786C82.9679 34.1162 84.2665 33.8327 85.5785 33.8498C86.1784 33.8071 86.7807 33.8848 87.3501 34.0784C87.9195 34.272 88.4444 34.5775 88.8939 34.977C89.2776 35.3934 89.5719 35.884 89.7587 36.4186C89.9454 36.9532 90.0206 37.5204 89.9797 38.0852V44.0694H87.7335V42.8013C87.331 43.2844 86.8225 43.6682 86.2474 43.9226C85.6724 44.1771 85.0464 44.2954 84.4181 44.2683C82.5864 44.2683 80.9121 43.1825 80.9121 41.1602ZM87.8081 40.4391V39.7511C87.0772 39.4755 86.3016 39.3377 85.5205 39.345C84.0368 39.345 83.1583 39.9749 83.1583 41.0027C83.1583 41.9807 83.9871 42.5278 85.1226 42.5278C86.6477 42.5858 87.8081 41.7155 87.8081 40.4391Z" fill="#BCB6E9"/>
<path d="M93.1456 41.2765V35.9719H91.8691V33.991H93.1456V31.231H95.4497V33.991H98.1849V35.9719H95.4497V40.945C95.4235 41.115 95.4374 41.2888 95.4903 41.4525C95.5432 41.6161 95.6337 41.7651 95.7546 41.8876C95.8754 42.01 96.0232 42.1025 96.1861 42.1576C96.3491 42.2127 96.5227 42.2289 96.693 42.2049C97.1895 42.2069 97.679 42.0874 98.1186 41.8567V43.7465C97.4873 44.1026 96.771 44.2802 96.0465 44.2604C94.3474 44.2272 93.1456 43.4813 93.1456 41.2765Z" fill="#BCB6E9"/>
<path d="M99.5696 39.0966V39.0552C99.5337 38.3843 99.6342 37.7131 99.8649 37.0821C100.096 36.4512 100.452 35.8735 100.912 35.3839C101.372 34.8944 101.926 34.5031 102.542 34.2338C103.157 33.9645 103.821 33.8227 104.493 33.8169C107.692 33.8169 109.309 36.3034 109.309 39.2292C109.309 39.4365 109.309 39.652 109.309 39.8757H101.907C101.976 40.5901 102.316 41.2508 102.857 41.7224C103.398 42.194 104.099 42.4408 104.816 42.412C105.329 42.415 105.837 42.3103 106.306 42.1047C106.776 41.8991 107.197 41.5972 107.543 41.2185L108.853 42.412C108.356 43.0268 107.723 43.5175 107.003 43.8455C106.284 44.1735 105.498 44.3297 104.708 44.3018C104.023 44.3181 103.342 44.194 102.707 43.9374C102.072 43.6807 101.496 43.2968 101.015 42.8092C100.533 42.3217 100.157 41.7408 99.9083 41.1023C99.6598 40.4639 99.5445 39.7813 99.5696 39.0966ZM107.029 38.3507C106.88 36.867 106.001 35.7067 104.476 35.7067C102.951 35.7067 102.073 36.7924 101.865 38.3507H107.029Z" fill="#BCB6E9"/>
<path d="M111.256 33.991H113.56V36.2621C113.798 35.5134 114.276 34.864 114.92 34.4145C115.565 33.965 116.339 33.7404 117.124 33.7755V36.2621H116.991C114.969 36.2621 113.56 37.5716 113.56 40.2405V44.0698H111.256V33.991Z" fill="#BCB6E9"/>
<path d="M122.064 30.7168H127.328C130.452 30.7168 132.4 32.4905 132.4 35.176C132.4 38.1681 129.996 39.7346 127.062 39.7346H124.41V44.0695H122.064V30.7168ZM127.137 37.6542C128.911 37.6542 130.013 36.6596 130.013 35.2672C130.013 33.7006 128.886 32.8801 127.137 32.8801H124.41V37.6874L127.137 37.6542Z" fill="#BCB6E9"/>
<path d="M132.996 39.0965C132.996 37.6743 133.561 36.3102 134.567 35.3046C135.573 34.2989 136.937 33.7339 138.359 33.7339C139.781 33.7339 141.145 34.2989 142.151 35.3046C143.156 36.3102 143.721 37.6743 143.721 39.0965C143.719 39.7965 143.578 40.489 143.304 41.1334C143.031 41.7779 142.632 42.3612 142.13 42.8492C141.628 43.3371 141.034 43.7199 140.382 43.975C139.73 44.2301 139.034 44.3525 138.334 44.3348C137.637 44.3526 136.943 44.23 136.294 43.9743C135.644 43.7186 135.053 43.335 134.555 42.8464C134.057 42.3577 133.663 41.774 133.395 41.1298C133.127 40.4856 132.992 39.7941 132.996 39.0965ZM141.417 39.0965C141.445 38.6761 141.388 38.2543 141.248 37.8569C141.108 37.4594 140.889 37.0946 140.603 36.7845C140.318 36.4744 139.973 36.2255 139.588 36.0531C139.204 35.8806 138.788 35.7881 138.367 35.7811C137.954 35.7781 137.544 35.8601 137.164 36.022C136.783 36.1838 136.44 36.4222 136.156 36.7222C135.871 37.0222 135.652 37.3774 135.51 37.7659C135.369 38.1544 135.309 38.5678 135.334 38.9805C135.318 39.3944 135.386 39.8073 135.532 40.1947C135.679 40.5821 135.902 40.9362 136.188 41.2359C136.474 41.5357 136.817 41.7752 137.197 41.9402C137.577 42.1051 137.986 42.1922 138.4 42.1964C138.806 42.201 139.209 42.1236 139.585 41.9688C139.96 41.814 140.3 41.5851 140.585 41.2956C140.87 41.0061 141.093 40.6622 141.242 40.2843C141.391 39.9064 141.462 39.5024 141.45 39.0965H141.417Z" fill="#BCB6E9"/>
<path d="M143.896 33.9907H146.259L148.281 40.8949L150.511 33.9575H152.492L154.721 40.8949L156.777 33.9907H159.106L155.79 44.1357H153.718L151.472 37.2563L149.201 44.1357H147.146L143.896 33.9907Z" fill="#BCB6E9"/>
<path d="M159.736 39.0966V39.0552C159.7 38.385 159.8 37.7145 160.03 37.0841C160.26 36.4536 160.616 35.8763 161.075 35.3869C161.534 34.8975 162.088 34.506 162.702 34.2362C163.317 33.9664 163.98 33.8238 164.651 33.8169C167.858 33.8169 169.475 36.3034 169.475 39.2292C169.486 39.4446 169.486 39.6604 169.475 39.8757H162.007C162.072 40.5916 162.409 41.2552 162.949 41.73C163.488 42.2049 164.189 42.4549 164.908 42.4286C165.419 42.4319 165.926 42.3274 166.394 42.1217C166.863 41.9161 167.282 41.6139 167.626 41.235L169.019 42.412C168.522 43.0268 167.889 43.5175 167.169 43.8455C166.45 44.1735 165.664 44.3297 164.874 44.3018C164.189 44.3193 163.508 44.1961 162.872 43.9398C162.236 43.6836 161.66 43.2997 161.178 42.8119C160.696 42.3241 160.32 41.7427 160.072 41.1037C159.824 40.4647 159.709 39.7816 159.736 39.0966ZM167.195 38.3507C167.046 36.867 166.167 35.7067 164.642 35.7067C163.117 35.7067 162.239 36.7924 162.032 38.3507H167.195Z" fill="#BCB6E9"/>
<path d="M171.422 33.991H173.726V36.2621C173.964 35.5134 174.442 34.864 175.086 34.4145C175.731 33.965 176.505 33.7404 177.29 33.7755V36.2621H177.157C175.135 36.2621 173.726 37.5716 173.726 40.2405V44.0698H171.422V33.991Z" fill="#BCB6E9"/>
<path d="M181.334 42.1138L182.743 40.4561C183.875 41.548 185.381 42.1675 186.954 42.1884C188.404 42.1884 189.316 41.5004 189.316 40.5307C189.316 39.5775 188.785 39.0636 186.307 38.4917C183.464 37.8038 181.864 36.9666 181.864 34.505C181.864 32.2174 183.771 30.6343 186.423 30.6343C188.182 30.5939 189.898 31.1816 191.264 32.292L190.004 34.0657C188.979 33.224 187.707 32.7408 186.382 32.6898C185.014 32.6898 184.21 33.4026 184.21 34.2729C184.21 35.3007 184.823 35.7565 187.393 36.3699C190.211 37.0578 191.661 38.069 191.661 40.2737C191.661 42.7603 189.697 44.2522 186.896 44.2522C184.84 44.2598 182.855 43.4969 181.334 42.1138Z" fill="#BCB6E9"/>
<path d="M193.32 39.0966V39.0552C193.284 38.3843 193.384 37.7131 193.615 37.0821C193.846 36.4512 194.202 35.8735 194.662 35.3839C195.122 34.8944 195.676 34.5031 196.292 34.2338C196.907 33.9645 197.571 33.8227 198.243 33.8169C201.442 33.8169 203.059 36.3034 203.059 39.2292C203.059 39.4365 203.059 39.652 203.059 39.8757H195.665C195.732 40.582 196.065 41.2365 196.595 41.7073C197.126 42.178 197.816 42.4299 198.525 42.412C199.037 42.415 199.545 42.3103 200.015 42.1047C200.485 41.8991 200.906 41.5972 201.252 41.2185L202.619 42.412C202.123 43.0278 201.49 43.5192 200.771 43.8473C200.051 44.1754 199.265 44.331 198.475 44.3018C197.789 44.3204 197.106 44.198 196.469 43.9424C195.831 43.6867 195.253 43.3032 194.77 42.8154C194.287 42.3276 193.909 41.7459 193.66 41.1063C193.41 40.4667 193.294 39.7827 193.32 39.0966ZM200.779 38.3507C200.622 36.867 199.743 35.7067 198.218 35.7067C196.693 35.7067 195.823 36.7924 195.607 38.3507H200.779Z" fill="#BCB6E9"/>
<path d="M203.697 33.9907H206.059L208.082 40.8949L210.311 33.9575H212.292L214.522 40.8949L216.577 33.9907H218.907L215.591 44.1357H213.511L211.265 37.2563L208.994 44.1357H206.938L203.697 33.9907Z" fill="#BCB6E9"/>
<path d="M219.536 39.0966V39.0552C219.501 38.385 219.601 37.7145 219.831 37.0841C220.061 36.4536 220.417 35.8763 220.876 35.3869C221.335 34.8975 221.889 34.506 222.503 34.2362C223.118 33.9664 223.78 33.8238 224.451 33.8169C227.659 33.8169 229.275 36.3034 229.275 39.2292C229.273 39.4453 229.26 39.6612 229.234 39.8757H221.841C221.906 40.5916 222.243 41.2552 222.783 41.73C223.322 42.2049 224.023 42.4549 224.742 42.4286C225.259 42.4292 225.772 42.3202 226.245 42.1088C226.717 41.8974 227.14 41.5883 227.485 41.2019L228.819 42.412C228.322 43.0268 227.689 43.5175 226.97 43.8455C226.251 44.1735 225.465 44.3297 224.675 44.3018C223.99 44.3193 223.308 44.1961 222.673 43.9398C222.037 43.6836 221.46 43.2997 220.979 42.8119C220.497 42.3241 220.121 41.7427 219.873 41.1037C219.625 40.4647 219.51 39.7816 219.536 39.0966ZM226.996 38.3507C226.847 36.867 225.968 35.7067 224.443 35.7067C222.918 35.7067 222.039 36.7924 221.832 38.3507H226.996Z" fill="#BCB6E9"/>
<path d="M231.223 33.991H233.527V36.2621C233.765 35.5134 234.243 34.864 234.887 34.4145C235.532 33.965 236.306 33.7404 237.091 33.7755V36.2621H236.958C234.936 36.2621 233.527 37.5716 233.527 40.2405V44.0698H231.223V33.991Z" fill="#BCB6E9"/>
<path d="M61.9141 54.4633L62.2373 54.0903C62.4391 54.296 62.6805 54.4586 62.9469 54.5683C63.2133 54.678 63.4992 54.7325 63.7873 54.7285C64.4006 54.7285 64.8067 54.4053 64.8067 53.9577C64.8067 53.535 64.5747 53.2946 63.6215 53.1289C62.6683 52.9631 62.0964 52.557 62.0964 51.811C62.1087 51.6299 62.1576 51.4532 62.2401 51.2915C62.3226 51.1298 62.437 50.9865 62.5765 50.8703C62.7159 50.7541 62.8775 50.6674 63.0514 50.6154C63.2253 50.5634 63.408 50.5472 63.5883 50.5677C64.1728 50.5519 64.7425 50.7526 65.188 51.1314L64.8896 51.5209C64.5255 51.2068 64.0609 51.0333 63.58 51.0319C62.9833 51.0319 62.6103 51.3551 62.6103 51.7613C62.6103 52.1923 62.8424 52.4326 63.8453 52.6399C64.8482 52.8471 65.3206 53.2366 65.3206 53.9246C65.3206 54.7037 64.6741 55.2093 63.7707 55.2093C63.0782 55.2125 62.4118 54.9448 61.9141 54.4633Z" fill="#BCB6E9"/>
<path d="M65.9426 53.4603C65.9291 53.2412 65.9594 53.0216 66.0315 52.8143C66.1036 52.6069 66.2162 52.416 66.3627 52.2525C66.5092 52.0891 66.6867 51.9563 66.8849 51.862C67.0831 51.7677 67.2981 51.7137 67.5174 51.7031C67.7401 51.7064 67.9597 51.7562 68.1621 51.8493C68.3645 51.9424 68.5453 52.0767 68.6927 52.2437C68.8402 52.4107 68.9512 52.6066 69.0185 52.819C69.0859 53.0313 69.1081 53.2554 69.0839 53.4769C69.088 53.5293 69.088 53.5819 69.0839 53.6343H66.4482C66.4589 53.9407 66.5888 54.2307 66.8102 54.4428C67.0315 54.6549 67.3269 54.7722 67.6334 54.7699C67.8323 54.7704 68.0291 54.7285 68.2106 54.647C68.3921 54.5656 68.5542 54.4464 68.686 54.2974L69.001 54.5792C68.8326 54.7816 68.6206 54.9434 68.381 55.0525C68.1413 55.1616 67.8801 55.2151 67.6168 55.2091C67.3899 55.2118 67.1648 55.1677 66.9555 55.0798C66.7462 54.9918 66.5573 54.8619 66.4003 54.6979C66.2433 54.5339 66.1217 54.3395 66.043 54.1266C65.9642 53.9137 65.9301 53.6869 65.9426 53.4603ZM68.6114 53.2696C68.617 53.1221 68.5929 52.975 68.5405 52.837C68.4881 52.699 68.4085 52.5729 68.3065 52.4662C68.2044 52.3595 68.082 52.2744 67.9464 52.216C67.8109 52.1575 67.665 52.1268 67.5174 52.1258C67.2234 52.1407 66.9463 52.2674 66.7428 52.4801C66.5394 52.6928 66.425 52.9753 66.4233 53.2696H68.6114Z" fill="#BCB6E9"/>
<path d="M69.8633 51.7695H70.3606V52.6481C70.4646 52.3703 70.6517 52.1313 70.8964 51.9637C71.1411 51.7961 71.4316 51.708 71.7282 51.7115V52.2503C71.536 52.2532 71.3467 52.2969 71.1727 52.3784C70.9986 52.4598 70.8438 52.5773 70.7185 52.723C70.5932 52.8686 70.5002 53.0392 70.4457 53.2235C70.3911 53.4078 70.3762 53.6015 70.402 53.7919V55.1264H69.9047L69.8633 51.7695Z" fill="#BCB6E9"/>
<path d="M72.0273 51.7695H72.5827L73.7099 54.5544L74.8454 51.7695H75.3842L73.9254 55.1512H73.4778L72.0273 51.7695Z" fill="#BCB6E9"/>
<path d="M76.0469 50.4932H76.6354V51.0402H76.0634L76.0469 50.4932ZM76.0469 51.7696H76.5442V55.085H76.0469V51.7696Z" fill="#BCB6E9"/>
<path d="M77.4063 53.4686C77.4032 53.1122 77.5096 52.7633 77.7112 52.4693C77.9127 52.1753 78.1997 51.9503 78.5333 51.8246C78.8668 51.699 79.231 51.6788 79.5764 51.7667C79.9218 51.8547 80.2319 52.0466 80.4648 52.3165L80.1332 52.6646C80.0096 52.5121 79.8545 52.388 79.6786 52.3008C79.5027 52.2135 79.31 52.1652 79.1137 52.159C78.949 52.1643 78.787 52.2024 78.637 52.2709C78.4871 52.3394 78.3523 52.437 78.2405 52.5581C78.1286 52.6792 78.042 52.8213 77.9856 52.9762C77.9292 53.1311 77.9042 53.2957 77.9119 53.4603C77.9007 53.7931 78.0217 54.1168 78.2485 54.3606C78.4752 54.6045 78.7893 54.7486 79.122 54.7616C79.3196 54.7561 79.5137 54.7081 79.691 54.6208C79.8684 54.5336 80.0249 54.4092 80.1498 54.256L80.4648 54.5544C80.3026 54.7615 80.0949 54.9283 79.8576 55.0419C79.6204 55.1555 79.3602 55.2127 79.0972 55.2092C78.6428 55.2005 78.2103 55.0127 77.8937 54.6868C77.577 54.3608 77.4019 53.923 77.4063 53.4686Z" fill="#BCB6E9"/>
<path d="M80.8795 53.4604C80.8684 53.2399 80.9014 53.0195 80.9766 52.812C81.0518 52.6045 81.1677 52.4141 81.3175 52.2519C81.4673 52.0898 81.6479 51.9592 81.8488 51.8679C82.0497 51.7765 82.2669 51.7261 82.4875 51.7198C82.7122 51.7176 82.9349 51.7627 83.141 51.8522C83.3471 51.9417 83.532 52.0737 83.6837 52.2395C83.8354 52.4052 83.9505 52.6011 84.0214 52.8143C84.0924 53.0276 84.1176 53.2533 84.0955 53.477C84.0996 53.5294 84.0996 53.582 84.0955 53.6344H81.4349C81.4457 53.9408 81.5755 54.2308 81.7969 54.4429C82.0182 54.655 82.3136 54.7723 82.6201 54.77C82.8191 54.7705 83.0158 54.7286 83.1973 54.6471C83.3788 54.5657 83.5409 54.4465 83.6727 54.2975L83.9877 54.5793C83.8193 54.7817 83.6073 54.9435 83.3677 55.0526C83.128 55.1617 82.8668 55.2152 82.6035 55.2092C82.3724 55.2189 82.1419 55.18 81.9267 55.0952C81.7115 55.0104 81.5165 54.8814 81.3541 54.7167C81.1917 54.552 81.0656 54.3551 80.9839 54.1388C80.9022 53.9224 80.8666 53.6913 80.8795 53.4604ZM83.5484 53.2697C83.5574 52.9765 83.45 52.6917 83.2496 52.4774C83.0493 52.2631 82.7724 52.1367 82.4792 52.1259C82.1853 52.1408 81.9081 52.2675 81.7047 52.4802C81.5012 52.6929 81.3869 52.9754 81.3851 53.2697H83.5484Z" fill="#BCB6E9"/>
<path d="M84.5176 54.7036L84.7745 54.3389C85.1035 54.606 85.5113 54.7574 85.9349 54.7699C86.3327 54.7699 86.6228 54.5627 86.6228 54.2394C86.6228 53.9079 86.2333 53.7753 85.794 53.6509C85.3547 53.5266 84.6916 53.3194 84.6916 52.7061C84.6974 52.5663 84.7321 52.4294 84.7936 52.3038C84.855 52.1782 84.9418 52.0666 85.0485 51.9763C85.1552 51.8859 85.2795 51.8187 85.4135 51.7788C85.5476 51.7389 85.6884 51.7273 85.8271 51.7446C86.2572 51.7552 86.6759 51.8843 87.0373 52.1176L86.8052 52.4906C86.5132 52.2925 86.1714 52.1804 85.8189 52.1673C85.421 52.1673 85.1641 52.3745 85.1641 52.6563C85.1641 52.9713 85.5868 53.0956 85.9929 53.2282C86.3991 53.3608 87.0704 53.5846 87.0704 54.1897C87.0704 54.8196 86.54 55.1926 85.8686 55.1926C85.3782 55.1749 84.9057 55.0039 84.5176 54.7036Z" fill="#BCB6E9"/>
<path d="M89.5064 53.4686C89.5064 53.0048 89.6906 52.5599 90.0186 52.232C90.3466 51.904 90.7914 51.7197 91.2552 51.7197C91.719 51.7197 92.1639 51.904 92.4919 52.232C92.8198 52.5599 93.0041 53.0048 93.0041 53.4686C93.0063 53.7007 92.9621 53.9308 92.8741 54.1456C92.786 54.3603 92.656 54.5553 92.4915 54.719C92.327 54.8827 92.1314 55.0119 91.9162 55.0989C91.7011 55.1859 91.4707 55.2291 91.2386 55.2257C91.0084 55.228 90.7801 55.184 90.5672 55.0961C90.3544 55.0083 90.1614 54.8786 89.9998 54.7146C89.8381 54.5507 89.7111 54.3558 89.6264 54.1418C89.5416 53.9277 89.5008 53.6988 89.5064 53.4686ZM92.4902 53.4686C92.4957 53.3 92.4676 53.132 92.4073 52.9744C92.3471 52.8168 92.2561 52.6728 92.1395 52.5509C92.023 52.4289 91.8833 52.3314 91.7286 52.2642C91.5739 52.1969 91.4073 52.1611 91.2386 52.159C91.0718 52.1611 90.907 52.1967 90.7542 52.2637C90.6014 52.3308 90.4637 52.4279 90.3492 52.5494C90.2347 52.6708 90.1459 52.814 90.0879 52.9705C90.03 53.127 90.0042 53.2936 90.012 53.4603C90.0064 53.6282 90.0343 53.7955 90.094 53.9526C90.1537 54.1096 90.244 54.2532 90.3597 54.3751C90.4754 54.4969 90.6141 54.5946 90.7679 54.6623C90.9216 54.7301 91.0872 54.7667 91.2552 54.7699C91.4228 54.7689 91.5884 54.7341 91.7422 54.6676C91.896 54.601 92.0347 54.504 92.1501 54.3825C92.2654 54.2609 92.355 54.1173 92.4135 53.9603C92.4719 53.8032 92.498 53.636 92.4902 53.4686Z" fill="#BCB6E9"/>
<path d="M93.9578 52.2171H93.502V51.7778H93.9578V51.5291C93.9473 51.2262 94.0508 50.9305 94.2479 50.7003C94.4458 50.5242 94.7044 50.4321 94.969 50.4433C95.1576 50.4367 95.3459 50.4648 95.5243 50.5262V50.9572C95.3661 50.9063 95.2015 50.8783 95.0353 50.8743C94.6458 50.8743 94.4551 51.1064 94.4551 51.5871V51.8606H95.516V52.2916H94.4551V55.2009H93.9578V52.2171Z" fill="#BCB6E9"/>
<path d="M98.011 54.2394V52.2171H97.5469V51.7695H98.011V50.7583H98.5083V51.7695H99.5775V52.2171H98.5083V54.1731C98.4983 54.2499 98.5064 54.3279 98.5318 54.401C98.5573 54.4741 98.5995 54.5403 98.655 54.5942C98.7106 54.6481 98.7779 54.6884 98.8517 54.7117C98.9256 54.735 99.0038 54.7407 99.0802 54.7285C99.2479 54.7328 99.4137 54.6927 99.561 54.6124V55.0434C99.3743 55.1405 99.1662 55.189 98.9559 55.1843C98.8273 55.204 98.6959 55.1932 98.5722 55.1527C98.4486 55.1122 98.3362 55.0431 98.2442 54.9511C98.1522 54.8591 98.0832 54.7468 98.0427 54.6231C98.0021 54.4995 97.9913 54.368 98.011 54.2394Z" fill="#BCB6E9"/>
<path d="M100.332 50.3936H100.829V52.3579C100.941 52.1538 101.107 51.9846 101.309 51.869C101.511 51.7534 101.741 51.696 101.973 51.7031C102.149 51.694 102.325 51.7229 102.489 51.788C102.653 51.853 102.801 51.9527 102.923 52.0801C103.045 52.2076 103.138 52.3598 103.196 52.5265C103.254 52.6931 103.275 52.8703 103.258 53.0459V55.1263H102.761V53.1868C102.778 53.057 102.766 52.9251 102.727 52.8003C102.687 52.6755 102.621 52.5608 102.532 52.4644C102.444 52.368 102.335 52.2922 102.214 52.2423C102.093 52.1924 101.963 52.1696 101.832 52.1756C101.699 52.1721 101.566 52.196 101.442 52.2456C101.319 52.2953 101.206 52.3698 101.112 52.4646C101.018 52.5593 100.945 52.6722 100.896 52.7964C100.848 52.9206 100.825 53.0534 100.829 53.1868V55.1097H100.332V50.3936Z" fill="#BCB6E9"/>
<path d="M103.987 53.4603C103.976 53.2399 104.009 53.0194 104.084 52.8119C104.159 52.6044 104.275 52.414 104.425 52.2519C104.575 52.0897 104.755 51.9592 104.956 51.8678C105.157 51.7764 105.374 51.7261 105.595 51.7197C105.818 51.723 106.037 51.7728 106.24 51.8659C106.442 51.959 106.623 52.0933 106.77 52.2603C106.918 52.4273 107.029 52.6232 107.096 52.8356C107.163 53.0479 107.186 53.272 107.161 53.4935C107.165 53.5459 107.165 53.5985 107.161 53.6509H104.501C104.511 53.9486 104.636 54.2308 104.849 54.4391C105.062 54.6474 105.347 54.7658 105.645 54.7699C105.845 54.7716 106.043 54.7303 106.226 54.6488C106.409 54.5673 106.573 54.4475 106.705 54.2974L107.012 54.5792C106.845 54.7815 106.635 54.9433 106.397 55.0524C106.158 55.1615 105.898 55.2151 105.636 55.2092C105.411 55.2084 105.189 55.1618 104.983 55.0724C104.776 54.9829 104.59 54.8524 104.436 54.6888C104.282 54.5252 104.162 54.332 104.085 54.1208C104.008 53.9096 103.975 53.6848 103.987 53.4603ZM106.656 53.2697C106.66 53.1238 106.636 52.9785 106.584 52.842C106.532 52.7056 106.454 52.5807 106.354 52.4745C106.254 52.3682 106.134 52.2828 106.001 52.223C105.868 52.1631 105.724 52.1301 105.578 52.1259C105.286 52.1427 105.011 52.2704 104.809 52.4829C104.607 52.6953 104.494 52.9767 104.492 53.2697H106.656Z" fill="#BCB6E9"/>
<path d="M109.508 54.4633L109.823 54.0903C110.026 54.2962 110.269 54.4589 110.537 54.5686C110.804 54.6783 111.092 54.7327 111.381 54.7285C111.986 54.7285 112.392 54.4053 112.392 53.9577C112.392 53.535 112.168 53.2946 111.215 53.1289C110.262 52.9631 109.69 52.557 109.69 51.811C109.702 51.6299 109.751 51.4532 109.834 51.2915C109.916 51.1298 110.031 50.9865 110.17 50.8703C110.31 50.7541 110.471 50.6674 110.645 50.6154C110.819 50.5634 111.002 50.5472 111.182 50.5677C111.764 50.5516 112.331 50.7525 112.773 51.1314L112.475 51.5209C112.111 51.2068 111.646 51.0333 111.165 51.0319C110.577 51.0319 110.196 51.3551 110.196 51.7613C110.196 52.1923 110.436 52.4326 111.431 52.6399C112.425 52.8471 112.914 53.2366 112.914 53.9246C112.914 54.7037 112.26 55.2093 111.364 55.2093C110.672 55.2143 110.005 54.9463 109.508 54.4633Z" fill="#BCB6E9"/>
<path d="M113.484 54.1566C113.484 53.4521 114.065 53.0708 114.918 53.0708C115.266 53.0699 115.613 53.1202 115.946 53.22V53.104C115.946 52.4989 115.581 52.184 114.951 52.184C114.597 52.1897 114.249 52.2746 113.932 52.4326L113.783 52.0265C114.161 51.8383 114.579 51.7418 115.001 51.7447C115.198 51.7312 115.395 51.7572 115.582 51.8212C115.768 51.8853 115.94 51.9861 116.087 52.1177C116.206 52.2496 116.298 52.4041 116.356 52.5722C116.415 52.7402 116.439 52.9182 116.427 53.0957V55.143H115.946V54.6374C115.805 54.8239 115.622 54.9739 115.412 55.0749C115.201 55.1758 114.969 55.2248 114.736 55.2175C114.583 55.2347 114.429 55.2205 114.282 55.1757C114.135 55.1309 113.998 55.0566 113.881 54.9572C113.764 54.8579 113.668 54.7356 113.6 54.5979C113.532 54.4602 113.492 54.3101 113.484 54.1566ZM115.971 53.8914V53.5682C115.65 53.4761 115.318 53.4287 114.985 53.4272C114.355 53.4272 114.007 53.7008 114.007 54.1235C114.007 54.5462 114.396 54.7948 114.835 54.7948C114.968 54.8098 115.103 54.7982 115.231 54.7607C115.36 54.7233 115.479 54.6607 115.583 54.5767C115.688 54.4927 115.774 54.3889 115.838 54.2712C115.901 54.1536 115.941 54.0245 115.954 53.8914H115.971Z" fill="#BCB6E9"/>
<path d="M117.365 51.7696H117.863V52.3581C117.976 52.154 118.144 51.9849 118.347 51.8695C118.55 51.754 118.781 51.6965 119.015 51.7033C119.191 51.6942 119.367 51.7231 119.531 51.7882C119.695 51.8532 119.843 51.9529 119.965 52.0803C120.087 52.2078 120.18 52.36 120.237 52.5267C120.295 52.6933 120.316 52.8705 120.299 53.046V55.1264H119.794V53.1869C119.814 53.0592 119.807 52.9286 119.771 52.8042C119.736 52.6797 119.674 52.5645 119.59 52.4666C119.505 52.3687 119.4 52.2904 119.282 52.2373C119.164 52.1842 119.036 52.1575 118.907 52.1592C118.769 52.1509 118.631 52.1717 118.502 52.2202C118.372 52.2687 118.255 52.3439 118.156 52.4407C118.058 52.5376 117.981 52.6541 117.93 52.7827C117.879 52.9112 117.856 53.0489 117.863 53.1869V55.1099H117.365V51.7696Z" fill="#BCB6E9"/>
<path d="M123.132 50.5845H126.365V51.0569H123.613V52.7146H126.1V53.187H123.613V55.168H123.107L123.132 50.5845Z" fill="#BCB6E9"/>
<path d="M127.195 51.7695H127.693V52.6481C127.798 52.3709 127.985 52.1326 128.229 51.9652C128.474 51.7977 128.764 51.7092 129.06 51.7115V52.2502C128.867 52.252 128.677 52.2948 128.502 52.3758C128.327 52.4567 128.171 52.574 128.045 52.7198C127.919 52.8657 127.825 53.0367 127.77 53.2215C127.715 53.4063 127.7 53.6008 127.726 53.7919V55.1263H127.195V51.7695Z" fill="#BCB6E9"/>
<path d="M129.25 54.1566C129.25 53.4521 129.838 53.0708 130.684 53.0708C131.035 53.07 131.384 53.1203 131.72 53.22V53.104C131.72 52.4989 131.347 52.184 130.717 52.184C130.363 52.1896 130.015 52.2746 129.698 52.4326L129.548 52.0265C129.927 51.8391 130.344 51.7426 130.767 51.7447C130.964 51.7302 131.161 51.7557 131.348 51.8198C131.535 51.884 131.706 51.9853 131.853 52.1176C131.975 52.2478 132.069 52.4019 132.129 52.5702C132.189 52.7385 132.213 52.9175 132.201 53.0957V55.1429H131.72V54.6373C131.577 54.823 131.392 54.9723 131.18 55.0731C130.968 55.1739 130.736 55.2234 130.502 55.2175C130.349 55.2347 130.194 55.2204 130.047 55.1757C129.9 55.1309 129.764 55.0566 129.647 54.9572C129.53 54.8579 129.434 54.7356 129.366 54.5979C129.297 54.4602 129.258 54.31 129.25 54.1566ZM131.737 53.8914V53.5681C131.416 53.476 131.084 53.4286 130.75 53.4272C130.129 53.4272 129.772 53.7007 129.772 54.1234C129.772 54.5462 130.162 54.7948 130.601 54.7948C130.734 54.8097 130.869 54.7981 130.997 54.7607C131.125 54.7233 131.245 54.6607 131.349 54.5767C131.453 54.4927 131.54 54.3888 131.603 54.2712C131.667 54.1536 131.707 54.0245 131.72 53.8914H131.737Z" fill="#BCB6E9"/>
<path d="M133.129 51.7696H133.626V52.3581C133.74 52.154 133.907 51.9849 134.111 51.8695C134.314 51.754 134.545 51.6965 134.778 51.7033C134.954 51.6942 135.13 51.7231 135.294 51.7882C135.458 51.8532 135.606 51.9529 135.728 52.0803C135.85 52.2078 135.943 52.36 136.001 52.5267C136.059 52.6933 136.08 52.8705 136.063 53.046V55.1264H135.566V53.1869C135.585 53.0574 135.576 52.9251 135.539 52.7995C135.501 52.6738 135.437 52.5579 135.35 52.4599C135.263 52.3619 135.156 52.2841 135.035 52.2322C134.915 52.1802 134.785 52.1553 134.654 52.1592C134.517 52.1533 134.381 52.1759 134.254 52.2255C134.126 52.275 134.011 52.3505 133.914 52.4472C133.818 52.5438 133.742 52.6595 133.692 52.7868C133.643 52.9142 133.62 53.0504 133.626 53.1869V55.1099H133.129V51.7696Z" fill="#BCB6E9"/>
<path d="M136.783 53.4686C136.783 53.1123 136.891 52.7644 137.094 52.4714C137.296 52.1784 137.584 51.9543 137.917 51.829C138.251 51.7037 138.614 51.6833 138.96 51.7704C139.305 51.8575 139.616 52.048 139.85 52.3165L139.518 52.6646C139.395 52.5121 139.24 52.388 139.064 52.3007C138.888 52.2135 138.695 52.1651 138.499 52.159C138.334 52.1643 138.172 52.2023 138.022 52.2708C137.872 52.3394 137.738 52.437 137.626 52.5581C137.514 52.6792 137.427 52.8213 137.371 52.9762C137.314 53.1311 137.289 53.2956 137.297 53.4603C137.29 53.6278 137.317 53.7949 137.376 53.9519C137.435 54.1089 137.524 54.2526 137.639 54.3746C137.754 54.4966 137.893 54.5943 138.046 54.6622C138.199 54.7301 138.364 54.7667 138.532 54.7699C138.73 54.7643 138.924 54.7163 139.101 54.6291C139.278 54.5418 139.435 54.4174 139.56 54.2643L139.875 54.5626C139.651 54.8458 139.345 55.0521 138.998 55.1526C138.651 55.2531 138.282 55.2429 137.941 55.1233C137.601 55.0037 137.306 54.7807 137.099 54.4856C136.891 54.1904 136.781 53.8377 136.783 53.4769V53.4686Z" fill="#BCB6E9"/>
<path d="M140.58 50.4932H141.152V51.0402H140.58V50.4932ZM140.58 51.7696H141.077V55.085H140.58V51.7696Z" fill="#BCB6E9"/>
<path d="M141.865 54.7036L142.114 54.3389C142.447 54.605 142.857 54.7562 143.283 54.7699C143.68 54.7699 143.971 54.5627 143.971 54.2394C143.971 53.9079 143.581 53.7753 143.142 53.6509C142.702 53.5266 142.039 53.3194 142.039 52.7061C142.045 52.5663 142.08 52.4294 142.141 52.3038C142.203 52.1782 142.289 52.0666 142.396 51.9763C142.503 51.8859 142.627 51.8187 142.761 51.7788C142.895 51.7389 143.036 51.7273 143.175 51.7446C143.605 51.7552 144.024 51.8843 144.385 52.1176L144.153 52.4906C143.861 52.2925 143.519 52.1804 143.167 52.1673C142.769 52.1673 142.512 52.3745 142.512 52.6563C142.512 52.9713 142.934 53.0956 143.382 53.2282C143.83 53.3608 144.46 53.5846 144.46 54.1897C144.46 54.8196 143.929 55.1926 143.258 55.1926C142.753 55.1836 142.265 55.0122 141.865 54.7036Z" fill="#BCB6E9"/>
<path d="M145.039 53.4686C145.036 53.1122 145.142 52.7633 145.344 52.4693C145.546 52.1753 145.832 51.9503 146.166 51.8246C146.5 51.699 146.864 51.6788 147.209 51.7667C147.555 51.8547 147.865 52.0466 148.098 52.3165L147.766 52.6646C147.642 52.5121 147.487 52.388 147.311 52.3008C147.135 52.2135 146.943 52.1652 146.747 52.159C146.582 52.1643 146.42 52.2024 146.27 52.2709C146.12 52.3394 145.985 52.437 145.873 52.5581C145.761 52.6792 145.675 52.8213 145.618 52.9762C145.562 53.1311 145.537 53.2957 145.545 53.4603C145.538 53.6278 145.565 53.795 145.624 53.952C145.682 54.109 145.772 54.2527 145.887 54.3746C146.002 54.4966 146.14 54.5944 146.294 54.6622C146.447 54.7301 146.612 54.7667 146.78 54.7699C146.977 54.7644 147.171 54.7164 147.349 54.6291C147.526 54.5419 147.683 54.4174 147.807 54.2643L148.122 54.5627C147.898 54.8426 147.592 55.0458 147.247 55.1442C146.902 55.2427 146.535 55.2316 146.196 55.1124C145.858 54.9932 145.564 54.7718 145.357 54.4788C145.15 54.1859 145.039 53.8358 145.039 53.4769V53.4686Z" fill="#BCB6E9"/>
<path d="M148.512 53.4686C148.512 53.0048 148.696 52.5599 149.024 52.232C149.352 51.904 149.797 51.7197 150.261 51.7197C150.725 51.7197 151.17 51.904 151.498 52.232C151.826 52.5599 152.01 53.0048 152.01 53.4686C152.012 53.6999 151.968 53.9294 151.881 54.1436C151.793 54.3578 151.664 54.5524 151.5 54.716C151.336 54.8796 151.142 55.009 150.928 55.0965C150.713 55.184 150.484 55.2279 150.253 55.2257C150.022 55.228 149.793 55.184 149.58 55.0963C149.367 55.0085 149.173 54.8789 149.011 54.7151C148.849 54.5512 148.721 54.3565 148.635 54.1424C148.549 53.9283 148.508 53.6992 148.512 53.4686ZM151.496 53.4686C151.501 53.3007 151.474 53.1333 151.414 52.9763C151.354 52.8192 151.264 52.6756 151.148 52.5538C151.032 52.432 150.894 52.3343 150.74 52.2665C150.586 52.1988 150.421 52.1622 150.253 52.159C150.085 52.1599 149.92 52.1947 149.767 52.2614C149.613 52.3281 149.475 52.4252 149.36 52.5469C149.246 52.6685 149.157 52.8122 149.099 52.9692C149.042 53.1263 149.017 53.2933 149.026 53.4603C149.019 53.6278 149.046 53.795 149.105 53.952C149.164 54.109 149.253 54.2526 149.368 54.3746C149.483 54.4966 149.621 54.5944 149.775 54.6622C149.928 54.7301 150.093 54.7667 150.261 54.7699C150.428 54.7689 150.594 54.7341 150.748 54.6676C150.902 54.601 151.04 54.504 151.156 54.3825C151.271 54.2609 151.361 54.1173 151.419 53.9603C151.478 53.8032 151.504 53.636 151.496 53.4686Z" fill="#BCB6E9"/>
<path d="M154.678 50.5845H156.377C157.405 50.5845 158.035 51.1315 158.035 52.0267C158.035 53.0047 157.206 53.5103 156.253 53.5103H155.151V55.11H154.637L154.678 50.5845ZM156.336 53.071C157.09 53.071 157.587 52.6732 157.587 52.0764C157.587 51.4299 157.098 51.0901 156.369 51.0901H155.217V53.0876L156.336 53.071Z" fill="#BCB6E9"/>
<path d="M158.748 53.8582V51.7695H159.246V53.7339C159.229 53.8636 159.24 53.9956 159.28 54.1204C159.319 54.2452 159.385 54.3598 159.474 54.4562C159.562 54.5526 159.671 54.6285 159.792 54.6784C159.913 54.7283 160.043 54.751 160.174 54.7451C160.311 54.7477 160.446 54.7219 160.573 54.6692C160.699 54.6166 160.813 54.5383 160.907 54.4393C161.001 54.3403 161.074 54.2228 161.12 54.0942C161.167 53.9657 161.186 53.8288 161.177 53.6924V51.7695H161.674V55.0849H161.177V54.5047C161.065 54.7082 160.899 54.8769 160.697 54.9924C160.495 55.1079 160.266 55.1657 160.033 55.1595C159.861 55.168 159.689 55.14 159.528 55.0774C159.367 55.0148 159.221 54.9189 159.1 54.7961C158.979 54.6733 158.885 54.5263 158.824 54.3647C158.764 54.203 158.738 54.0305 158.748 53.8582Z" fill="#BCB6E9"/>
<path d="M163.166 54.488V55.1263H162.66V50.3936H163.166V52.4491C163.295 52.2228 163.482 52.0347 163.708 51.9037C163.934 51.7728 164.19 51.7036 164.45 51.7031C164.67 51.7105 164.887 51.7617 165.087 51.8535C165.287 51.9454 165.466 52.0761 165.615 52.2382C165.764 52.4002 165.879 52.5902 165.954 52.7972C166.029 53.0042 166.061 53.2239 166.05 53.4437C166.064 53.6615 166.034 53.8798 165.963 54.0861C165.892 54.2923 165.781 54.4826 165.636 54.6458C165.491 54.8091 165.316 54.9421 165.119 55.0374C164.923 55.1326 164.71 55.1882 164.492 55.2009C164.228 55.2086 163.966 55.1468 163.734 55.0217C163.501 54.8966 163.305 54.7126 163.166 54.488ZM165.536 53.4603C165.547 53.2973 165.526 53.1337 165.472 52.9794C165.418 52.8251 165.334 52.6833 165.224 52.5624C165.114 52.4416 164.981 52.3443 164.832 52.2764C164.683 52.2085 164.523 52.1714 164.359 52.1673C164.194 52.1716 164.032 52.2085 163.881 52.2759C163.73 52.3433 163.594 52.4399 163.481 52.5601C163.368 52.6803 163.279 52.8217 163.221 52.9762C163.163 53.1307 163.135 53.2952 163.141 53.4603C163.134 53.626 163.161 53.7914 163.218 53.9469C163.276 54.1023 163.364 54.2447 163.478 54.3658C163.591 54.4869 163.728 54.5842 163.879 54.6522C164.03 54.7201 164.193 54.7573 164.359 54.7616C164.525 54.7612 164.688 54.7263 164.839 54.6591C164.99 54.5919 165.125 54.4939 165.236 54.3714C165.347 54.2488 165.431 54.1045 165.482 53.9476C165.534 53.7907 165.552 53.6247 165.536 53.4603Z" fill="#BCB6E9"/>
<path d="M166.887 50.3936H167.384V55.1263H166.887V50.3936Z" fill="#BCB6E9"/>
<path d="M168.43 50.4932H169.002V51.0402H168.43V50.4932ZM168.43 51.7696H168.927V55.085H168.43V51.7696Z" fill="#BCB6E9"/>
<path d="M169.781 53.4686C169.781 53.1123 169.889 52.7644 170.092 52.4714C170.294 52.1784 170.582 51.9543 170.915 51.829C171.249 51.7037 171.612 51.6833 171.958 51.7704C172.303 51.8575 172.614 52.048 172.848 52.3165L172.516 52.6646C172.393 52.5121 172.238 52.388 172.062 52.3007C171.886 52.2135 171.693 52.1651 171.497 52.159C171.334 52.1643 171.173 52.2018 171.024 52.2693C170.875 52.3368 170.741 52.4329 170.63 52.5522C170.518 52.6716 170.431 52.8117 170.374 52.9647C170.316 53.1176 170.29 53.2804 170.295 53.4437C170.289 53.6112 170.315 53.7784 170.374 53.9354C170.433 54.0924 170.522 54.236 170.637 54.358C170.752 54.48 170.891 54.5778 171.044 54.6456C171.197 54.7135 171.363 54.7501 171.53 54.7533C171.728 54.7478 171.922 54.6998 172.099 54.6125C172.277 54.5253 172.433 54.4008 172.558 54.2477L172.873 54.5461C172.649 54.8293 172.343 55.0355 171.996 55.136C171.649 55.2365 171.28 55.2263 170.94 55.1067C170.599 54.9871 170.304 54.7642 170.097 54.469C169.889 54.1738 169.779 53.8212 169.781 53.4603V53.4686Z" fill="#BCB6E9"/>
<path d="M175.393 53.2285V50.5845H175.906V53.187C175.878 53.3829 175.893 53.5827 175.951 53.7719C176.009 53.9612 176.108 54.1353 176.241 54.2819C176.374 54.4284 176.538 54.5437 176.721 54.6195C176.904 54.6953 177.101 54.7298 177.299 54.7204C177.493 54.7311 177.687 54.6985 177.867 54.625C178.047 54.5514 178.208 54.4387 178.339 54.2951C178.47 54.1514 178.567 53.9805 178.624 53.7945C178.681 53.6086 178.695 53.4124 178.667 53.2202V50.5845H179.172V53.187C179.172 53.6882 178.973 54.1689 178.619 54.5233C178.264 54.8777 177.784 55.0768 177.282 55.0768C176.781 55.0768 176.3 54.8777 175.946 54.5233C175.592 54.1689 175.393 53.6882 175.393 53.187V53.2285Z" fill="#BCB6E9"/>
<path d="M180.349 54.2394V52.2171H179.885V51.7695H180.349V50.7583H180.846V51.7695H181.899V52.2171H180.83V54.1731C180.82 54.2491 180.828 54.3263 180.853 54.3987C180.878 54.471 180.919 54.5366 180.974 54.5904C181.028 54.6441 181.095 54.6846 181.167 54.7085C181.24 54.7325 181.317 54.7393 181.393 54.7285C181.564 54.7338 181.732 54.6938 181.882 54.6124V55.0434C181.696 55.1405 181.488 55.189 181.277 55.1843C181.15 55.2012 181.02 55.1882 180.899 55.1464C180.777 55.1046 180.667 55.0351 180.577 54.9435C180.487 54.8519 180.42 54.7406 180.38 54.6184C180.341 54.4962 180.33 54.3665 180.349 54.2394Z" fill="#BCB6E9"/>
<path d="M182.678 50.4932H183.25V51.0402H182.678V50.4932ZM182.678 51.7696H183.175V55.085H182.727L182.678 51.7696Z" fill="#BCB6E9"/>
<path d="M184.285 50.3936H184.782V55.1263H184.285V50.3936Z" fill="#BCB6E9"/>
<path d="M185.826 50.4932H186.398V51.0402H185.826V50.4932ZM185.826 51.7696H186.323V55.085H185.826V51.7696Z" fill="#BCB6E9"/>
<path d="M187.568 54.2394V52.2171H187.096V51.7695H187.568V50.7583H188.065V51.7695H189.126V52.2171H188.065V54.1731C188.056 54.2491 188.064 54.3263 188.089 54.3987C188.114 54.471 188.155 54.5366 188.21 54.5904C188.264 54.6441 188.33 54.6846 188.403 54.7085C188.476 54.7325 188.553 54.7393 188.629 54.7285C188.799 54.7327 188.968 54.6927 189.118 54.6124V55.0434C188.931 55.1405 188.723 55.189 188.513 55.1843C188.384 55.204 188.253 55.1932 188.129 55.1527C188.006 55.1122 187.893 55.0431 187.801 54.9511C187.709 54.8591 187.64 54.7468 187.6 54.6231C187.559 54.4995 187.548 54.368 187.568 54.2394Z" fill="#BCB6E9"/>
<path d="M189.896 50.4932H190.468V51.0402H189.896V50.4932ZM189.896 51.7696H190.394V55.085H189.896V51.7696Z" fill="#BCB6E9"/>
<path d="M191.248 53.4603C191.237 53.2399 191.27 53.0194 191.345 52.8119C191.42 52.6044 191.536 52.414 191.686 52.2519C191.835 52.0897 192.016 51.9592 192.217 51.8678C192.418 51.7764 192.635 51.7261 192.856 51.7197C193.078 51.723 193.298 51.7728 193.5 51.8659C193.703 51.959 193.884 52.0933 194.031 52.2603C194.178 52.4273 194.289 52.6232 194.357 52.8356C194.424 53.0479 194.446 53.272 194.422 53.4935C194.426 53.5459 194.426 53.5985 194.422 53.6509H191.762C191.772 53.9573 191.902 54.2473 192.124 54.4594C192.345 54.6715 192.64 54.7888 192.947 54.7864C193.146 54.787 193.343 54.7451 193.524 54.6636C193.706 54.5822 193.868 54.463 193.999 54.314L194.314 54.5958C194.146 54.7982 193.934 54.96 193.694 55.0691C193.455 55.1782 193.193 55.2317 192.93 55.2257C192.701 55.2297 192.474 55.186 192.262 55.0976C192.051 55.0092 191.86 54.8778 191.702 54.7119C191.544 54.546 191.422 54.3492 191.344 54.1337C191.265 53.9183 191.233 53.689 191.248 53.4603ZM193.917 53.2697C193.922 53.1242 193.899 52.9791 193.848 52.8427C193.797 52.7063 193.72 52.5813 193.62 52.475C193.521 52.3686 193.401 52.283 193.269 52.2231C193.136 52.1632 192.993 52.1301 192.847 52.1259C192.553 52.1407 192.276 52.2674 192.073 52.4801C191.869 52.6928 191.755 52.9753 191.753 53.2697H193.917Z" fill="#BCB6E9"/>
<path d="M194.887 54.7035L195.144 54.3388C195.473 54.6059 195.88 54.7574 196.304 54.7698C196.702 54.7698 197 54.5626 197 54.2394C197 53.9078 196.602 53.7752 196.171 53.6509C195.74 53.5266 195.061 53.3194 195.061 52.706C195.068 52.5667 195.103 52.4304 195.165 52.3054C195.227 52.1803 195.314 52.0693 195.42 51.9792C195.527 51.8891 195.65 51.8218 195.784 51.7814C195.917 51.7411 196.058 51.7285 196.196 51.7446C196.627 51.7539 197.046 51.883 197.406 52.1175L197.183 52.4905C196.887 52.2934 196.543 52.1815 196.188 52.1673C195.79 52.1673 195.542 52.3745 195.542 52.6563C195.542 52.9713 195.956 53.0956 196.37 53.2282C196.785 53.3608 197.448 53.5846 197.448 54.1897C197.441 54.3359 197.404 54.4792 197.339 54.6105C197.274 54.7417 197.183 54.8581 197.071 54.9523C196.958 55.0466 196.828 55.1165 196.688 55.1579C196.547 55.1992 196.4 55.211 196.254 55.1926C195.759 55.1767 195.28 55.0056 194.887 54.7035Z" fill="#BCB6E9"/>
<path d="M199.967 52.8721C199.96 52.5661 200.013 52.2617 200.125 51.9769C200.237 51.692 200.405 51.4326 200.619 51.2139C200.834 50.9951 201.089 50.8216 201.372 50.7035C201.654 50.5854 201.957 50.5252 202.263 50.5264C202.593 50.5167 202.921 50.5758 203.226 50.6999C203.532 50.8241 203.808 51.0106 204.037 51.2475L203.681 51.6205C203.498 51.4253 203.277 51.2695 203.032 51.1626C202.787 51.0557 202.522 51 202.255 50.9989C202.016 51.0019 201.78 51.0531 201.561 51.1493C201.342 51.2454 201.145 51.3847 200.981 51.5587C200.817 51.7327 200.69 51.9379 200.607 52.1621C200.524 52.3863 200.487 52.6249 200.498 52.8638C200.487 53.103 200.524 53.342 200.607 53.5667C200.69 53.7914 200.817 53.9971 200.981 54.1718C201.144 54.3464 201.342 54.4864 201.56 54.5835C201.779 54.6806 202.016 54.7328 202.255 54.737C202.532 54.7368 202.805 54.6785 203.058 54.5657C203.311 54.4529 203.537 54.2881 203.722 54.0822L204.062 54.4137C203.838 54.6755 203.559 54.8853 203.246 55.0284C202.932 55.1716 202.591 55.2446 202.247 55.2426C201.939 55.2452 201.634 55.1849 201.35 55.0655C201.066 54.9461 200.81 54.7701 200.597 54.5482C200.383 54.3263 200.217 54.0632 200.109 53.775C200.001 53.4868 199.953 53.1795 199.967 52.8721Z" fill="#BCB6E9"/>
<path d="M204.467 53.4686C204.467 53.0048 204.652 52.5599 204.98 52.232C205.308 51.904 205.752 51.7197 206.216 51.7197C206.68 51.7197 207.125 51.904 207.453 52.232C207.781 52.5599 207.965 53.0048 207.965 53.4686C207.967 53.7007 207.923 53.9308 207.835 54.1456C207.747 54.3603 207.617 54.5553 207.452 54.719C207.288 54.8827 207.092 55.0119 206.877 55.0989C206.662 55.1859 206.432 55.2291 206.2 55.2257C205.969 55.228 205.741 55.184 205.528 55.0961C205.315 55.0083 205.122 54.8786 204.961 54.7146C204.799 54.5507 204.672 54.3558 204.587 54.1418C204.503 53.9277 204.462 53.6988 204.467 53.4686ZM207.451 53.4686C207.457 53.3 207.429 53.132 207.368 52.9744C207.308 52.8168 207.217 52.6728 207.1 52.5509C206.984 52.4289 206.844 52.3314 206.69 52.2642C206.535 52.1969 206.368 52.1611 206.2 52.159C206.033 52.161 205.869 52.1967 205.716 52.2638C205.564 52.331 205.427 52.4283 205.313 52.5498C205.199 52.6714 205.111 52.8147 205.054 52.9712C204.997 53.1276 204.972 53.294 204.981 53.4603C204.975 53.6278 205.001 53.795 205.06 53.952C205.119 54.109 205.208 54.2526 205.323 54.3746C205.438 54.4966 205.577 54.5944 205.73 54.6622C205.883 54.7301 206.049 54.7667 206.216 54.7699C206.384 54.7689 206.549 54.7341 206.703 54.6676C206.857 54.601 206.996 54.504 207.111 54.3825C207.226 54.2609 207.316 54.1173 207.374 53.9603C207.433 53.8032 207.459 53.636 207.451 53.4686Z" fill="#BCB6E9"/>
<path d="M208.736 51.7696H209.234V52.358C209.34 52.1634 209.497 52.0013 209.688 51.8889C209.88 51.7766 210.098 51.7181 210.319 51.7198C210.545 51.7128 210.768 51.7728 210.96 51.8923C211.152 52.0118 211.304 52.1854 211.397 52.3912C211.514 52.1832 211.685 52.0109 211.893 51.8927C212.1 51.7744 212.335 51.7147 212.574 51.7198C212.749 51.7124 212.923 51.7432 213.084 51.81C213.246 51.8769 213.391 51.9781 213.509 52.1067C213.627 52.2354 213.716 52.3883 213.77 52.5548C213.823 52.7213 213.839 52.8974 213.817 53.0708V55.1429H213.32V53.1869C213.32 52.5321 212.997 52.1757 212.45 52.1757C212.321 52.1763 212.194 52.2036 212.077 52.2559C211.959 52.3081 211.854 52.3842 211.767 52.4793C211.681 52.5743 211.615 52.6863 211.574 52.8081C211.533 52.9299 211.518 53.0589 211.53 53.1869V55.1181H211.032V53.1869C211.032 52.557 210.701 52.1923 210.203 52.1923C210.075 52.1944 209.949 52.2219 209.832 52.2732C209.714 52.3244 209.608 52.3984 209.519 52.4909C209.431 52.5834 209.361 52.6925 209.315 52.812C209.269 52.9314 209.247 53.0588 209.25 53.1869V55.1015H208.753L208.736 51.7696Z" fill="#BCB6E9"/>
<path d="M214.77 51.7695H215.267V52.3579C215.374 52.1639 215.531 52.0023 215.722 51.89C215.913 51.7777 216.131 51.7189 216.353 51.7197C216.579 51.7116 216.802 51.7711 216.994 51.8907C217.186 52.0104 217.338 52.1846 217.43 52.3911C217.548 52.1843 217.72 52.013 217.927 51.8949C218.134 51.7768 218.369 51.7164 218.607 51.7197C218.782 51.7111 218.958 51.7409 219.12 51.8072C219.283 51.8735 219.429 51.9746 219.548 52.1033C219.667 52.2321 219.757 52.3855 219.811 52.5526C219.864 52.7197 219.881 52.8966 219.859 53.0707V55.1428H219.353V53.1868C219.353 52.532 219.03 52.1756 218.524 52.1756C218.391 52.168 218.257 52.1892 218.132 52.2377C218.007 52.2862 217.894 52.3609 217.801 52.4567C217.707 52.5525 217.636 52.6673 217.59 52.7932C217.545 52.9192 217.527 53.0534 217.538 53.1868V55.118H217.041V53.1868C217.041 52.5569 216.709 52.1922 216.212 52.1922C216.084 52.1954 215.959 52.2237 215.842 52.2754C215.726 52.3271 215.621 52.4013 215.533 52.4937C215.445 52.586 215.377 52.6948 215.331 52.8137C215.285 52.9326 215.264 53.0594 215.267 53.1868V55.1014H214.77V51.7695Z" fill="#BCB6E9"/>
<path d="M220.854 50.4932H221.425V51.0402H220.854V50.4932ZM220.854 51.7696H221.351V55.085H220.854V51.7696Z" fill="#BCB6E9"/>
<path d="M222.105 54.7036L222.354 54.3389C222.687 54.605 223.097 54.7562 223.523 54.7699C223.921 54.7699 224.211 54.5626 224.211 54.2394C224.211 53.9079 223.821 53.7752 223.382 53.6509C222.943 53.5266 222.271 53.3194 222.271 52.706C222.278 52.566 222.314 52.4288 222.376 52.3032C222.439 52.1776 222.526 52.0661 222.633 51.9759C222.741 51.8857 222.866 51.8185 223 51.7787C223.135 51.7389 223.276 51.7273 223.415 51.7446C223.845 51.7552 224.264 51.8843 224.625 52.1176L224.393 52.4905C224.101 52.2924 223.759 52.1804 223.407 52.1673C223.009 52.1673 222.752 52.3745 222.752 52.6563C222.752 52.9713 223.166 53.0956 223.581 53.2282C223.995 53.3608 224.658 53.5846 224.658 54.1897C224.653 54.3364 224.616 54.4803 224.552 54.6122C224.487 54.744 224.396 54.861 224.284 54.9554C224.171 55.0499 224.04 55.1198 223.899 55.1606C223.758 55.2014 223.61 55.2123 223.465 55.1926C222.971 55.1766 222.496 55.0055 222.105 54.7036Z" fill="#BCB6E9"/>
<path d="M225.139 54.7035L225.396 54.3388C225.725 54.6059 226.132 54.7574 226.556 54.7698C226.954 54.7698 227.252 54.5626 227.252 54.2394C227.252 53.9078 226.854 53.7752 226.423 53.6509C225.992 53.5266 225.313 53.3194 225.313 52.706C225.32 52.5667 225.355 52.4304 225.417 52.3054C225.479 52.1803 225.566 52.0693 225.672 51.9792C225.779 51.8891 225.902 51.8218 226.036 51.7814C226.169 51.7411 226.31 51.7285 226.448 51.7446C226.878 51.7539 227.298 51.883 227.658 52.1175L227.435 52.4905C227.139 52.2934 226.795 52.1815 226.44 52.1673C226.042 52.1673 225.793 52.3745 225.793 52.6563C225.793 52.9713 226.208 53.0956 226.622 53.2282C227.037 53.3608 227.7 53.5846 227.7 54.1897C227.693 54.3359 227.656 54.4792 227.591 54.6105C227.526 54.7417 227.435 54.8581 227.323 54.9523C227.21 55.0466 227.08 55.1165 226.94 55.1579C226.799 55.1992 226.652 55.211 226.506 55.1926C226.01 55.1767 225.532 55.0056 225.139 54.7035Z" fill="#BCB6E9"/>
<path d="M228.529 50.4932H229.143V51.0402H228.571L228.529 50.4932ZM228.529 51.7696H229.035V55.085H228.529V51.7696Z" fill="#BCB6E9"/>
<path d="M229.879 53.4686C229.879 53.0048 230.063 52.5599 230.391 52.232C230.719 51.904 231.164 51.7197 231.628 51.7197C232.092 51.7197 232.536 51.904 232.864 52.232C233.192 52.5599 233.377 53.0048 233.377 53.4686C233.377 53.6979 233.331 53.9249 233.243 54.1366C233.155 54.3483 233.026 54.5406 232.864 54.7023C232.701 54.864 232.509 54.9921 232.296 55.0791C232.084 55.166 231.857 55.2102 231.628 55.2092C231.398 55.2125 231.17 55.1698 230.957 55.0836C230.743 54.9974 230.55 54.8695 230.387 54.7073C230.224 54.5451 230.095 54.352 230.008 54.1392C229.921 53.9265 229.877 53.6985 229.879 53.4686ZM232.863 53.4686C232.868 53.3007 232.84 53.1333 232.781 52.9763C232.721 52.8192 232.631 52.6756 232.515 52.5538C232.399 52.432 232.261 52.3343 232.107 52.2665C231.953 52.1988 231.788 52.1622 231.62 52.159C231.452 52.1599 231.287 52.1947 231.134 52.2614C230.98 52.3281 230.842 52.4252 230.727 52.5469C230.613 52.6685 230.524 52.8122 230.466 52.9692C230.409 53.1263 230.384 53.2933 230.393 53.4603C230.387 53.6271 230.415 53.7934 230.474 53.9494C230.534 54.1055 230.623 54.2482 230.738 54.3692C230.853 54.4903 230.991 54.5873 231.144 54.6547C231.296 54.722 231.461 54.7584 231.628 54.7616C231.795 54.7606 231.96 54.7261 232.113 54.66C232.266 54.5939 232.404 54.4977 232.52 54.3771C232.635 54.2564 232.725 54.1138 232.784 53.9577C232.843 53.8016 232.869 53.6353 232.863 53.4686Z" fill="#BCB6E9"/>
<path d="M234.115 51.7696H234.613V52.3581C234.726 52.154 234.894 51.9849 235.097 51.8695C235.3 51.754 235.531 51.6965 235.765 51.7033C235.941 51.6942 236.117 51.7231 236.281 51.7882C236.445 51.8532 236.593 51.9529 236.715 52.0803C236.837 52.2078 236.93 52.36 236.987 52.5267C237.045 52.6933 237.066 52.8705 237.049 53.046V55.1264H236.602V53.1869C236.619 53.0572 236.607 52.9253 236.568 52.8005C236.528 52.6757 236.462 52.561 236.374 52.4646C236.285 52.3682 236.177 52.2924 236.056 52.2425C235.935 52.1926 235.804 52.1698 235.673 52.1758C235.538 52.1689 235.402 52.1901 235.275 52.2381C235.148 52.2862 235.032 52.36 234.934 52.455C234.837 52.5499 234.761 52.6639 234.709 52.7899C234.658 52.9159 234.634 53.051 234.637 53.1869V55.1099H234.115V51.7696Z" fill="#BCB6E9"/>
</g>
<defs>
<clipPath id="clip0_1864_19031">
<rect width="237.091" height="60" fill="white"/>
</clipPath>
</defs>
</svg>
