<svg width="272" height="60" viewBox="0 0 272 60" fill="none" xmlns="http://www.w3.org/2000/svg">
<g clip-path="url(#clip0_1864_18977)">
<path d="M262.263 9.78955C264.947 9.78955 267.316 12.0001 267.316 14.8422C267.316 17.6843 264.947 19.8948 262.263 19.8948C259.579 19.8948 257.211 17.6843 257.211 14.8422C257.053 11.8422 259.421 9.78955 262.263 9.78955ZM262.263 19.1053C264.632 19.1053 266.368 17.2106 266.368 14.8422C266.368 12.3159 264.474 10.579 262.263 10.579C259.895 10.579 258.158 12.4738 258.158 14.8422C258 17.2106 259.895 19.1053 262.263 19.1053ZM260.211 11.8422H262.421C263.842 11.8422 264.474 12.4738 264.474 13.579C264.474 14.6843 263.842 15.158 262.895 15.158L264.632 17.8422H263.684L262.105 15.3159H261.158V17.8422H260.211V11.8422ZM261.158 14.3685H262.105C262.895 14.3685 263.684 14.3685 263.684 13.4211C263.684 12.6317 263.053 12.4738 262.421 12.4738H261.316V14.3685H261.158Z" fill="#BCB6E9"/>
<path d="M30.1579 0C13.5789 0 0 13.5789 0 30.1579C0 46.7368 13.5789 60.3158 30.1579 60.3158C46.7368 60.3158 60.3158 46.7368 60.3158 30.1579C60.3158 13.5789 46.7368 0 30.1579 0ZM30.1579 59.3684C14.0526 59.3684 0.947368 46.2632 0.947368 30.1579C0.947368 14.0526 14.0526 0.947369 30.1579 0.947369C46.2632 0.947369 59.3684 14.0526 59.3684 30.1579C59.3684 46.2632 46.2632 59.3684 30.1579 59.3684Z" fill="#7A6DD3"/>
<path d="M30.1577 49.4208C19.5787 49.4208 10.8945 40.7366 10.8945 30.1577C10.8945 19.5787 19.5787 10.8945 30.1577 10.8945C40.7366 10.8945 49.4208 19.5787 49.4208 30.1577C49.4208 40.7366 40.7366 49.4208 30.1577 49.4208Z" fill="#7A6DD3"/>
<path d="M30.1577 55.4208C16.263 55.4208 4.89453 44.0524 4.89453 30.1577C4.89453 16.263 16.263 4.89453 30.1577 4.89453C44.0524 4.89453 55.4208 16.263 55.4208 30.1577C55.4208 44.2103 44.0524 55.4208 30.1577 55.4208ZM30.1577 6.94716C17.3682 6.94716 6.94716 17.3682 6.94716 30.1577C6.94716 42.9472 17.3682 53.3682 30.1577 53.3682C42.9472 53.3682 53.3682 42.9472 53.3682 30.1577C53.3682 17.3682 42.9472 6.94716 30.1577 6.94716Z" fill="#7A6DD3"/>
<path d="M236.21 9.63135C236.21 9.63135 220.894 9.63135 220.42 9.63135C219.947 9.63135 219.631 9.94714 219.631 10.4208C219.631 10.5787 219.631 49.7366 219.631 50.2103C219.631 50.684 219.947 50.9998 220.42 50.9998C220.578 50.9998 236.368 50.9998 236.368 50.9998C248.841 50.9998 257.683 45.4735 257.683 32.2103C257.683 31.5787 257.683 29.3682 257.683 28.5787C257.841 15.9471 249.947 9.63135 236.21 9.63135ZM246.789 32.5261C246.789 38.0524 243.157 42.6313 236.526 42.6313H230.683V17.684H236.526C243.631 17.684 246.789 22.8945 246.789 27.7892C246.789 29.0524 246.789 32.2103 246.789 32.5261Z" fill="#BCB6E9"/>
<path d="M210.001 9.63135C209.369 9.63135 200.843 9.63135 200.527 9.63135C200.053 9.63135 199.738 9.94714 199.738 10.4208C199.738 10.8945 199.738 35.9998 199.738 35.9998C199.738 40.5787 196.896 43.5787 191.685 43.5787C186.317 43.5787 183.475 40.5787 183.475 35.9998C183.475 35.9998 183.475 10.8945 183.475 10.4208C183.475 10.105 183.159 9.63135 182.685 9.63135C182.685 9.63135 173.369 9.63135 173.211 9.63135C172.738 9.63135 172.422 9.94714 172.422 10.4208C172.422 10.5787 172.422 36.3156 172.422 36.3156C172.422 45.1577 179.211 52.105 191.685 52.105C204.001 52.105 210.79 45.3156 210.79 36.3156C210.79 36.3156 210.79 10.5787 210.79 10.4208C210.79 9.94714 210.632 9.63135 210.001 9.63135Z" fill="#BCB6E9"/>
<path d="M163.737 10.2631C163.737 9.94732 163.421 9.47363 162.948 9.47363C162.79 9.47363 150.79 9.47363 150.632 9.47363C150.158 9.47363 149.843 9.63153 149.685 10.1052C149.685 10.2631 141.474 36.9473 141.474 36.9473C141.474 36.9473 133.264 10.2631 133.264 10.1052C133.106 9.78942 132.79 9.47363 132.316 9.47363C132.158 9.47363 120.158 9.47363 120 9.47363C119.527 9.47363 119.211 9.78942 119.211 10.2631C119.211 10.7368 119.211 49.5789 119.211 50.0526C119.211 50.5263 119.527 50.8421 120 50.8421C120 50.8421 128.053 50.8421 128.527 50.8421C129 50.8421 129.316 50.5263 129.316 50.0526C129.316 49.8947 129.316 22.8947 129.316 22.8947H129.474C129.474 22.8947 137.843 49.8947 138 50.2105C138.158 50.5263 138.316 50.6842 138.79 50.6842C138.948 50.6842 143.843 50.6842 144.158 50.6842C144.474 50.6842 144.79 50.5263 144.948 50.0526C145.106 49.7368 153.474 22.7368 153.474 22.7368H153.632C153.632 22.7368 153.632 49.421 153.632 49.8947C153.632 50.3684 153.948 50.6842 154.421 50.6842C154.737 50.6842 162.474 50.6842 162.948 50.6842C163.421 50.6842 163.737 50.3684 163.737 49.8947C163.737 49.8947 163.737 10.5789 163.737 10.2631Z" fill="#BCB6E9"/>
<path d="M105.947 20.5265L110.526 15.316C110.684 15.1581 110.842 15.0002 110.842 14.6844C110.842 14.5265 110.684 14.2108 110.526 14.2108C108.158 11.8423 102.632 8.36865 93.6317 8.36865C82.7369 8.36865 75.7896 14.0529 75.7896 21.4739C75.7896 28.1055 81.3159 31.895 87.158 33.1581C89.6843 33.7897 91.8948 34.2634 94.7369 34.895C98.3685 35.6844 101.053 37.2634 101.053 39.6318C101.053 42.316 98.6843 44.0529 93.6317 44.0529C86.8422 44.0529 81.7896 40.7371 79.4212 39.0002C79.2633 38.8423 79.1054 38.8423 78.9475 38.8423C78.7896 38.8423 78.4738 39.0002 78.3159 39.1581L74.2106 44.8423C74.0527 45.0002 74.0527 45.1581 74.0527 45.316C74.0527 45.6318 74.2106 45.7897 74.3685 45.9476C76.7369 47.8423 83.0527 51.7897 93.6317 51.7897C103.895 51.7897 111.79 46.5792 111.79 39.0002C111.79 32.0529 106.737 28.2634 98.3685 26.3687C96.4738 25.895 94.4212 25.4213 92.0527 24.9476C88.1054 24.1581 86.2106 22.7371 86.2106 20.5265C86.2106 18.1581 88.579 16.1055 93.4738 16.1055C99.4738 16.1055 103.263 18.9476 104.842 20.3687C105 20.5265 105.158 20.5265 105.316 20.5265C105.632 20.6844 105.79 20.6844 105.947 20.5265Z" fill="#BCB6E9"/>
</g>
<defs>
<clipPath id="clip0_1864_18977">
<rect width="271.579" height="60" fill="white"/>
</clipPath>
</defs>
</svg>
