<svg width="32" height="32" viewBox="0 0 32 32" fill="none" xmlns="http://www.w3.org/2000/svg">
<path d="M11.0117 12.25L15.5792 27.25H16.4192L20.9867 12.25H11.0117Z" fill="#7A6DD3"/>
<path d="M20.8371 10.75L18.1071 4.75H13.8921L11.1621 10.75H20.8371Z" fill="#7A6DD3"/>
<path d="M26.9125 10.75L24.0475 6.16C23.778 5.72874 23.4032 5.37308 22.9585 5.12643C22.5137 4.87979 22.0136 4.75025 21.505 4.75H19.75L22.4725 10.75H26.9125Z" fill="#7A6DD3"/>
<path d="M22.5547 12.25L18.0547 27.025C18.692 26.7674 19.2215 26.2988 19.5547 25.6975L26.9422 12.25H22.5547Z" fill="#7A6DD3"/>
<path d="M12.2504 4.75H10.4954C9.98683 4.75025 9.48668 4.87979 9.04193 5.12643C8.59718 5.37308 8.22243 5.72874 7.95289 6.16L5.08789 10.75H9.52039L12.2504 4.75Z" fill="#7A6DD3"/>
<path d="M5.05664 12.25L12.4516 25.6975C12.7848 26.2988 13.3143 26.7674 13.9516 27.025L9.44414 12.25H5.05664Z" fill="#7A6DD3"/>
</svg>
