<svg width="456.000000" height="172.000000" viewBox="0 0 456 172" fill="none" xmlns="http://www.w3.org/2000/svg" xmlns:xlink="http://www.w3.org/1999/xlink">
	<defs>
		<clipPath id="clip1513_6377">
			<rect id="cogwheel_1827766 3" width="75.000000" height="75.000000" fill="white" fill-opacity="0"/>
		</clipPath>
		<clipPath id="clip1513_6381">
			<rect id="cogwheel_1827766 5" width="75.000000" height="75.000000" transform="translate(381.000000 97.000000)" fill="white" fill-opacity="0"/>
		</clipPath>
		<clipPath id="clip1513_6383">
			<rect id="idea_427735 1" width="139.000000" height="146.000000" transform="translate(159.000000 24.000000)" fill="white" fill-opacity="0"/>
		</clipPath>
	</defs>
	<path id="Vector 9" d="M69 38.19L104.5 38.19C110.02 38.19 114.5 42.66 114.5 48.19L114.5 77.71C114.5 83.23 118.97 87.71 124.5 87.71L206 87.71" stroke="#4E3CC4" stroke-opacity="1.000000" stroke-width="2.000000"/>
	<rect id="cogwheel_1827766 3" width="75.000000" height="75.000000" fill="#FFFFFF" fill-opacity="0"/>
	<g clip-path="url(#clip1513_6377)">
		<path id="Vector" d="M71.03 29.35L65.15 28.6C64.67 27.11 64.07 25.68 63.37 24.31L67 19.64C68.47 17.75 68.3 15.08 66.62 13.45L61.7 8.53C60.06 6.84 57.39 6.67 55.5 8.14L50.83 11.76C49.46 11.07 48.03 10.47 46.53 9.99L45.79 4.12C45.5 1.77 43.51 0 41.14 0L34.14 0C31.78 0 29.78 1.77 29.5 4.11L28.75 9.99C27.26 10.47 25.82 11.06 24.45 11.76L19.79 8.14C17.9 6.67 15.23 6.84 13.6 8.52L8.68 13.44C6.99 15.08 6.81 17.75 8.28 19.64L11.91 24.31C11.21 25.68 10.62 27.11 10.13 28.6L4.27 29.35C1.91 29.63 0.14 31.63 0.14 34L0.14 41C0.14 43.36 1.91 45.36 4.26 45.64L10.13 46.39C10.62 47.88 11.21 49.31 11.91 50.68L8.28 55.35C6.81 57.24 6.99 59.91 8.66 61.54L13.58 66.46C15.23 68.15 17.9 68.32 19.79 66.85L24.46 63.22C25.82 63.92 27.26 64.52 28.75 65L29.5 70.86C29.78 73.22 31.78 75 34.14 75L41.14 75C43.51 75 45.5 73.22 45.79 70.88L46.53 65C48.02 64.52 49.46 63.92 50.83 63.23L55.5 66.85C57.39 68.32 60.06 68.15 61.68 66.47L66.6 61.55C68.3 59.91 68.47 57.24 67 55.35L63.37 50.68C64.07 49.31 64.67 47.88 65.15 46.39L71.01 45.64C73.37 45.36 75.14 43.36 75.14 41L75.14 34C75.14 31.63 73.37 29.63 71.03 29.35ZM37.64 53.12C29.03 53.12 22.02 46.11 22.02 37.5C22.02 28.88 29.03 21.87 37.64 21.87C46.26 21.87 53.27 28.88 53.27 37.5C53.27 46.11 46.26 53.12 37.64 53.12Z" fill="#4E3CC4" fill-opacity="1.000000" fill-rule="evenodd"/>
	</g>
	<path id="Vector 8" d="M262 87.19L304.5 87.19C310.02 87.19 314.5 91.67 314.5 97.19L314.5 125.17C314.5 130.69 318.97 135.17 324.5 135.17L385 135.17" stroke="#4E3CC4" stroke-opacity="1.000000" stroke-width="2.000000"/>
	<rect id="cogwheel_1827766 5" width="75.000000" height="75.000000" transform="translate(381.000000 97.000000)" fill="#FFFFFF" fill-opacity="0"/>
	<g clip-path="url(#clip1513_6381)">
		<path id="Vector" d="M452.03 126.35L446.15 125.61C445.67 124.11 445.07 122.68 444.37 121.31L448 116.64C449.47 114.75 449.3 112.08 447.62 110.45L442.7 105.53C441.06 103.84 438.39 103.67 436.5 105.14L431.83 108.76C430.46 108.07 429.03 107.47 427.53 106.99L426.79 101.12C426.51 98.77 424.51 97 422.14 97L415.14 97C412.78 97 410.78 98.77 410.5 101.11L409.75 106.99C408.26 107.47 406.82 108.06 405.45 108.76L400.79 105.14C398.9 103.67 396.23 103.84 394.6 105.52L389.68 110.44C387.99 112.08 387.81 114.75 389.28 116.64L392.91 121.31C392.21 122.68 391.62 124.11 391.13 125.61L385.27 126.35C382.91 126.63 381.14 128.63 381.14 131L381.14 138C381.14 140.36 382.91 142.36 385.26 142.64L391.13 143.39C391.62 144.88 392.21 146.31 392.91 147.68L389.28 152.35C387.81 154.24 387.99 156.91 389.66 158.54L394.59 163.46C396.23 165.15 398.9 165.32 400.79 163.85L405.46 160.22C406.82 160.92 408.26 161.52 409.75 162L410.5 167.86C410.78 170.22 412.78 172 415.14 172L422.14 172C424.51 172 426.51 170.22 426.79 167.88L427.53 162C429.02 161.52 430.46 160.92 431.83 160.23L436.5 163.85C438.39 165.32 441.06 165.15 442.68 163.47L447.6 158.55C449.3 156.91 449.47 154.24 448 152.35L444.37 147.68C445.07 146.31 445.67 144.88 446.15 143.39L452.02 142.64C454.37 142.36 456.14 140.36 456.14 138L456.14 131C456.14 128.63 454.37 126.63 452.03 126.35ZM418.64 150.12C410.03 150.12 403.02 143.11 403.02 134.5C403.02 125.88 410.03 118.87 418.64 118.87C427.26 118.87 434.27 125.88 434.27 134.5C434.27 143.11 427.26 150.12 418.64 150.12Z" fill="#4E3CC4" fill-opacity="1.000000" fill-rule="evenodd"/>
	</g>
	<rect id="idea_427735 1" width="139.000000" height="146.000000" transform="translate(159.000000 24.000000)" fill="#FFFFFF" fill-opacity="0"/>
	<g clip-path="url(#clip1513_6383)">
		<path id="Vector" d="M244.42 135.62C246.16 129.54 249.64 124.07 254.27 119.81C262.96 112.2 268.46 100.65 268.46 87.87C268.46 64.14 249.64 44.68 226.47 45.89C205.91 46.81 189.11 65.06 188.53 86.65C188.24 100.04 193.75 111.9 202.72 119.81C207.65 124.07 211.12 129.54 212.86 135.62L244.42 135.62Z" fill="#7A6DD3" fill-opacity="1.000000" fill-rule="evenodd"/>
		<path id="Vector" d="M219.52 163.61C220.97 167.26 224.44 170 228.5 170C232.55 170 236.02 167.26 237.47 163.61L219.52 163.61Z" fill="#4E3CC4" fill-opacity="1.000000" fill-rule="evenodd"/>
		<path id="Vector" d="M239.21 163.91L218.07 163.91C215.18 163.91 212.86 161.48 212.86 158.44L212.86 135.32L244.42 135.32L244.42 158.44C244.42 161.48 242.11 163.91 239.21 163.91Z" fill="#4E3CC4" fill-opacity="1.000000" fill-rule="evenodd"/>
		<path id="Vector" d="M244.13 146.88L212.86 146.88C211.12 146.88 209.67 145.36 209.67 143.53C209.67 141.71 211.12 140.19 212.86 140.19L244.13 140.19C245.87 140.19 247.32 141.71 247.32 143.53C247.32 145.36 245.87 146.88 244.13 146.88Z" fill="#7A6DD3" fill-opacity="1.000000" fill-rule="evenodd"/>
		<path id="Vector" d="M244.13 157.52L212.86 157.52C211.12 157.52 209.67 156 209.67 154.18C209.67 152.35 211.12 150.83 212.86 150.83L244.13 150.83C245.87 150.83 247.32 152.35 247.32 154.18C247.32 156 245.87 157.52 244.13 157.52Z" fill="#7A6DD3" fill-opacity="1.000000" fill-rule="evenodd"/>
	</g>
</svg>
