<svg width="264.000000" height="392.000000" viewBox="0 0 264 392" fill="none" xmlns="http://www.w3.org/2000/svg" xmlns:xlink="http://www.w3.org/1999/xlink">
	<defs>
		<clipPath id="clip1504_5485">
			<rect id="idea_427735 1" width="264.000000" height="278.978729" transform="translate(0.000000 97.532227)" fill="white" fill-opacity="0"/>
		</clipPath>
		<clipPath id="clip1504_5501">
			<rect id="cogwheel_1827766 1" width="60.000000" height="60.000000" transform="translate(191.000000 27.000000)" fill="white" fill-opacity="0"/>
		</clipPath>
		<clipPath id="clip1504_5503">
			<rect id="cogwheel_1827766 3" width="61.000000" height="61.000000" transform="translate(0.000000 331.000000)" fill="white" fill-opacity="0"/>
		</clipPath>
		<clipPath id="clip1504_5505">
			<rect id="cogwheel_1827766 2" width="87.000000" height="87.000000" fill="white" fill-opacity="0"/>
		</clipPath>
	</defs>
	<rect id="idea_427735 1" width="264.000000" height="278.978729" transform="translate(0.000000 97.532227)" fill="#FFFFFF" fill-opacity="0"/>
	<g clip-path="url(#clip1504_5485)">
		<path id="Vector" d="M162.25 310.83C165.55 299.21 172.15 288.74 180.95 280.61C197.45 266.08 207.9 243.99 207.9 219.58C207.9 174.25 172.15 137.05 128.14 139.37C89.1 141.12 57.2 175.99 56.1 217.26C55.55 242.83 66 265.5 83.05 280.61C92.4 288.74 99 299.21 102.3 310.83L162.25 310.83Z" fill="#7A6DD3" fill-opacity="1.000000" fill-rule="evenodd"/>
		<path id="Vector" d="M114.95 364.3C117.7 371.28 124.3 376.51 132 376.51C139.7 376.51 146.3 371.28 149.05 364.3L114.95 364.3Z" fill="#4E3CC4" fill-opacity="1.000000" fill-rule="evenodd"/>
		<path id="Vector" d="M152.35 364.88L112.2 364.88C106.7 364.88 102.3 360.23 102.3 354.42L102.3 310.25L162.25 310.25L162.25 354.42C162.25 360.23 157.85 364.88 152.35 364.88Z" fill="#4E3CC4" fill-opacity="1.000000" fill-rule="evenodd"/>
		<path id="Vector" d="M161.69 332.33L102.3 332.33C99 332.33 96.25 329.43 96.25 325.94C96.25 322.45 99 319.55 102.3 319.55L161.69 319.55C165 319.55 167.75 322.45 167.75 325.94C167.75 329.43 165 332.33 161.69 332.33Z" fill="#7A6DD3" fill-opacity="1.000000" fill-rule="evenodd"/>
		<path id="Vector" d="M161.69 352.68L102.3 352.68C99 352.68 96.25 349.77 96.25 346.28C96.25 342.8 99 339.89 102.3 339.89L161.69 339.89C165 339.89 167.75 342.8 167.75 346.28C167.75 349.77 165 352.68 161.69 352.68Z" fill="#7A6DD3" fill-opacity="1.000000" fill-rule="evenodd"/>
		<path id="Vector" d="M131.99 97.53C129.24 97.53 126.49 99.85 126.49 103.34L126.49 123.1C126.49 126.01 128.69 128.91 131.99 128.91C135.29 128.91 137.49 126.59 137.49 123.1L137.49 103.34C137.49 99.85 134.74 97.53 131.99 97.53Z" fill="#7A6DD3" fill-opacity="1.000000" fill-rule="evenodd"/>
		<path id="Vector" d="M58.29 132.98C56.09 130.66 52.79 130.66 50.59 132.98C48.4 135.31 48.39 138.79 50.59 141.12L63.79 155.07C66 157.39 69.29 157.39 71.49 155.07C73.69 152.74 73.69 149.25 71.49 146.93L58.29 132.98Z" fill="#7A6DD3" fill-opacity="1.000000" fill-rule="evenodd"/>
		<path id="Vector" d="M41.25 213.19L22.54 213.19C19.79 213.19 17.04 215.51 17.04 219C17.04 221.91 19.24 224.81 22.54 224.81L41.25 224.81C43.99 224.81 46.75 222.49 46.75 219C46.75 216.09 43.99 213.19 41.25 213.19Z" fill="#7A6DD3" fill-opacity="1.000000" fill-rule="evenodd"/>
		<path id="Vector" d="M63.79 282.93L50.59 296.88C48.39 299.21 48.39 302.69 50.59 305.02C52.79 307.34 56.09 307.34 58.29 305.02L71.5 291.07C73.69 288.74 73.69 285.26 71.5 282.93C69.29 280.61 66 280.61 63.79 282.93Z" fill="#7A6DD3" fill-opacity="1.000000" fill-rule="evenodd"/>
		<path id="Vector" d="M200.19 282.93C198 280.61 194.69 280.61 192.5 282.93C190.29 285.26 190.29 288.75 192.5 291.07L205.69 305.02C207.9 307.34 211.19 307.34 213.4 305.02C215.6 302.69 215.6 299.21 213.4 296.88L200.19 282.93Z" fill="#7A6DD3" fill-opacity="1.000000" fill-rule="evenodd"/>
		<path id="Vector" d="M241.44 213.19L222.74 213.19C219.99 213.19 217.24 215.51 217.24 219C217.24 221.91 219.44 224.81 222.74 224.81L241.44 224.81C244.19 224.81 246.94 222.49 246.94 219C246.94 216.09 244.74 213.19 241.44 213.19Z" fill="#7A6DD3" fill-opacity="1.000000" fill-rule="evenodd"/>
		<path id="Vector" d="M205.69 132.98L192.5 146.93C190.29 149.25 190.29 152.74 192.5 155.07C194.69 157.39 198 157.39 200.19 155.07L213.4 141.12C215.6 138.79 215.6 135.31 213.4 132.98C211.19 130.66 207.9 130.66 205.69 132.98Z" fill="#7A6DD3" fill-opacity="1.000000" fill-rule="evenodd"/>
	</g>
	<rect id="cogwheel_1827766 1" width="60.000000" height="60.000000" transform="translate(191.000000 27.000000)" fill="#FFFFFF" fill-opacity="0"/>
	<g clip-path="url(#clip1504_5501)">
		<path id="Vector" d="M247.82 50.48L243.12 49.88C242.73 48.69 242.26 47.54 241.7 46.45L244.6 42.71C245.77 41.2 245.64 39.06 244.29 37.76L240.36 33.83C239.04 32.47 236.91 32.33 235.4 33.51L231.66 36.41C230.57 35.85 229.42 35.37 228.22 34.99L227.63 30.29C227.4 28.41 225.81 27 223.91 27L218.31 27C216.42 27 214.82 28.41 214.6 30.29L214 34.99C212.81 35.37 211.66 35.85 210.56 36.41L206.83 33.51C205.32 32.33 203.18 32.47 201.88 33.81L197.94 37.75C196.59 39.06 196.45 41.2 197.62 42.71L200.53 46.45C199.97 47.54 199.49 48.69 199.1 49.88L194.41 50.48C192.53 50.71 191.11 52.3 191.11 54.19L191.11 59.8C191.11 61.69 192.53 63.29 194.41 63.51L199.1 64.11C199.49 65.3 199.97 66.45 200.53 67.54L197.62 71.28C196.45 72.79 196.59 74.93 197.93 76.23L201.87 80.16C203.18 81.52 205.32 81.65 206.83 80.48L210.57 77.58C211.66 78.14 212.81 78.62 214 79L214.6 83.69C214.82 85.58 216.42 87 218.31 87L223.91 87C225.81 87 227.4 85.58 227.63 83.7L228.22 79C229.42 78.62 230.57 78.14 231.66 77.58L235.4 80.48C236.91 81.66 239.04 81.52 240.35 80.18L244.28 76.24C245.64 74.93 245.77 72.79 244.6 71.28L241.7 67.54C242.26 66.45 242.74 65.3 243.12 64.11L247.81 63.51C249.69 63.29 251.11 61.69 251.11 59.8L251.11 54.19C251.11 52.3 249.69 50.71 247.82 50.48ZM221.11 69.5C214.22 69.5 208.61 63.89 208.61 57C208.61 50.1 214.22 44.5 221.11 44.5C228.01 44.5 233.61 50.1 233.61 57C233.61 63.89 228.01 69.5 221.11 69.5Z" fill="#4E3CC4" fill-opacity="1.000000" fill-rule="evenodd"/>
	</g>
	<rect id="cogwheel_1827766 3" width="61.000000" height="61.000000" transform="translate(0.000000 331.000000)" fill="#FFFFFF" fill-opacity="0"/>
	<g clip-path="url(#clip1504_5503)">
		<path id="Vector" d="M57.77 354.87L52.99 354.26C52.59 353.05 52.11 351.88 51.54 350.77L54.49 346.97C55.69 345.43 55.55 343.26 54.18 341.94L50.18 337.94C48.84 336.56 46.67 336.42 45.14 337.62L41.34 340.57C40.23 340 39.06 339.52 37.84 339.12L37.24 334.35C37.01 332.44 35.39 331 33.46 331L27.77 331C25.84 331 24.22 332.44 23.99 334.34L23.38 339.12C22.17 339.52 21 340 19.89 340.57L16.09 337.62C14.56 336.42 12.39 336.56 11.06 337.93L7.06 341.93C5.68 343.26 5.54 345.43 6.74 346.97L9.69 350.77C9.12 351.88 8.63 353.05 8.24 354.26L3.47 354.87C1.56 355.1 0.11 356.72 0.11 358.65L0.11 364.34C0.11 366.27 1.56 367.89 3.46 368.12L8.24 368.73C8.63 369.94 9.12 371.11 9.69 372.22L6.74 376.02C5.54 377.56 5.68 379.73 7.05 381.05L11.05 385.05C12.39 386.43 14.55 386.56 16.09 385.37L19.89 382.42C21 382.99 22.17 383.48 23.38 383.87L23.99 388.64C24.22 390.55 25.84 392 27.77 392L33.46 392C35.39 392 37.01 390.55 37.24 388.65L37.84 383.87C39.06 383.48 40.23 382.99 41.34 382.42L45.14 385.37C46.67 386.57 48.84 386.43 50.17 385.06L54.17 381.06C55.55 379.72 55.69 377.56 54.49 376.02L51.54 372.22C52.11 371.11 52.6 369.94 52.99 368.73L57.76 368.12C59.67 367.89 61.11 366.27 61.11 364.34L61.11 358.65C61.11 356.72 59.67 355.1 57.77 354.87ZM30.61 374.2C23.61 374.2 17.91 368.5 17.91 361.5C17.91 354.49 23.61 348.79 30.61 348.79C37.62 348.79 43.32 354.49 43.32 361.5C43.32 368.5 37.62 374.2 30.61 374.2Z" fill="#4E3CC4" fill-opacity="1.000000" fill-rule="evenodd"/>
	</g>
	<rect id="cogwheel_1827766 2" width="87.000000" height="87.000000" fill="#FFFFFF" fill-opacity="0"/>
	<g clip-path="url(#clip1504_5505)">
		<path id="Vector" d="M82.39 34.05L75.58 33.18C75.01 31.45 74.32 29.79 73.51 28.2L77.72 22.78C79.42 20.59 79.23 17.49 77.28 15.61L71.57 9.9C69.67 7.93 66.57 7.74 64.37 9.44L58.96 13.65C57.38 12.84 55.71 12.15 53.98 11.58L53.11 4.78C52.79 2.05 50.47 0 47.73 0L39.6 0C36.86 0 34.54 2.05 34.22 4.77L33.35 11.58C31.62 12.15 29.95 12.83 28.37 13.65L22.95 9.44C20.76 7.74 17.67 7.93 15.78 9.88L10.07 15.59C8.1 17.49 7.91 20.59 9.61 22.79L13.82 28.2C13 29.79 12.32 31.45 11.75 33.18L4.95 34.05C2.22 34.37 0.16 36.69 0.16 39.43L0.16 47.56C0.16 50.3 2.22 52.62 4.94 52.94L11.75 53.81C12.32 55.54 13.01 57.21 13.82 58.79L9.61 64.21C7.91 66.4 8.1 69.5 10.05 71.38L15.76 77.09C17.67 79.05 20.76 79.25 22.96 77.55L28.37 73.34C29.96 74.15 31.62 74.84 33.35 75.4L34.22 82.2C34.54 84.94 36.86 87 39.6 87L47.73 87C50.47 87 52.79 84.94 53.11 82.22L53.98 75.41C55.71 74.84 57.37 74.15 58.96 73.34L64.38 77.55C66.57 79.26 69.67 79.06 71.55 77.11L77.26 71.4C79.23 69.49 79.42 66.4 77.72 64.21L73.51 58.79C74.33 57.21 75.02 55.54 75.58 53.81L82.38 52.94C85.11 52.62 87.16 50.3 87.16 47.56L87.16 39.43C87.16 36.69 85.11 34.37 82.39 34.05ZM43.66 61.62C33.67 61.62 25.54 53.49 25.54 43.5C25.54 33.5 33.67 25.37 43.66 25.37C53.66 25.37 61.79 33.5 61.79 43.5C61.79 53.49 53.66 61.62 43.66 61.62Z" fill="#4E3CC4" fill-opacity="1.000000" fill-rule="evenodd"/>
	</g>
</svg>
