<svg width="32" height="32" viewBox="0 0 32 32" fill="none" xmlns="http://www.w3.org/2000/svg">
<path d="M12.6748 24.609H20.1096C20.2653 24.609 20.4146 24.5471 20.5247 24.4371C20.6347 24.327 20.6966 24.1777 20.6966 24.022C20.6966 23.8663 20.6347 23.717 20.5247 23.607C20.4146 23.4969 20.2653 23.4351 20.1096 23.4351H12.6748C12.5192 23.4351 12.3699 23.4969 12.2598 23.607C12.1497 23.717 12.0879 23.8663 12.0879 24.022C12.0879 24.1777 12.1497 24.327 12.2598 24.4371C12.3699 24.5471 12.5192 24.609 12.6748 24.609Z" fill="#7A6DD3"/>
<path d="M14.9905 26.9568H17.7906C18.0029 26.9576 18.2111 26.8989 18.3916 26.7874C18.5721 26.6758 18.7178 26.5158 18.812 26.3256L19.2792 25.3916H13.502L13.9692 26.3256C14.0634 26.5158 14.209 26.6758 14.3895 26.7874C14.57 26.8989 14.7783 26.9576 14.9905 26.9568Z" fill="#7A6DD3"/>
<path d="M11.5587 13.7596C11.8211 13.8245 12.0647 13.9502 12.2697 14.1266C12.4747 14.3029 12.6353 14.5249 12.7388 14.7748C12.8422 15.0246 12.8854 15.2952 12.8651 15.5648C12.8447 15.8345 12.7612 16.0955 12.6214 16.327L12.4794 16.5535L13.1168 17.1796L13.2984 17.0513C13.5309 16.9039 13.7954 16.8145 14.0697 16.7904C14.3439 16.7664 14.6199 16.8085 14.8746 16.9131L14.9137 16.9288C15.1591 17.0305 15.3764 17.1897 15.5473 17.3931C15.7182 17.5965 15.8376 17.838 15.8955 18.0972L15.9538 18.3586L16.8456 18.3481L16.891 18.0949C16.9559 17.8324 17.0816 17.5888 17.2579 17.3839C17.4342 17.1789 17.6563 17.0182 17.9061 16.9148C18.1559 16.8114 18.4266 16.7681 18.6962 16.7885C18.9658 16.8089 19.2269 16.8923 19.4583 17.0321L19.6849 17.1753L20.311 16.5379L20.1826 16.3563C20.0353 16.1238 19.9458 15.8593 19.9218 15.585C19.8977 15.3108 19.9398 15.0348 20.0445 14.7801L20.0601 14.741C20.1618 14.4956 20.3211 14.2783 20.5245 14.1074C20.7278 13.9365 20.9693 13.8171 21.2286 13.7592L21.49 13.7009L21.4794 12.8193L21.2262 12.7626C20.9637 12.6977 20.7202 12.572 20.5152 12.3956C20.3102 12.2193 20.1496 11.9973 20.0461 11.7474C19.9427 11.4976 19.8994 11.227 19.9198 10.9574C19.9402 10.6877 20.0237 10.4267 20.1634 10.1952L20.3055 9.96866L19.6681 9.34257L19.4865 9.47092C19.254 9.61843 18.9895 9.70797 18.7152 9.73201C18.4409 9.75605 18.1649 9.71388 17.9103 9.60905L17.8712 9.5934C17.6258 9.49171 17.4085 9.33246 17.2376 9.12909C17.0667 8.92572 16.9473 8.68421 16.8894 8.42497L16.8311 8.16357L15.9393 8.17414L15.8939 8.42731C15.829 8.68979 15.7033 8.93334 15.527 9.13833C15.3506 9.34331 15.1286 9.50399 14.8788 9.60741C14.629 9.71083 14.3583 9.75409 14.0887 9.73372C13.8191 9.71334 13.558 9.62989 13.3266 9.4901L13.1 9.34805L12.4739 9.98549L12.6023 10.1671C12.7498 10.3995 12.8394 10.664 12.8634 10.9383C12.8874 11.2126 12.8453 11.4886 12.7404 11.7432L12.7247 11.7824C12.6231 12.0278 12.4638 12.2451 12.2604 12.4159C12.0571 12.5868 11.8156 12.7063 11.5563 12.7641L11.2949 12.8224L11.3055 13.7142L11.5587 13.7596ZM16.3924 10.522C16.9342 10.522 17.4638 10.6826 17.9142 10.9836C18.3647 11.2846 18.7158 11.7124 18.9231 12.2129C19.1304 12.7134 19.1846 13.2641 19.0789 13.7955C18.9733 14.3268 18.7124 14.8149 18.3293 15.198C17.9462 15.581 17.4582 15.8419 16.9268 15.9476C16.3955 16.0533 15.8447 15.999 15.3442 15.7917C14.8437 15.5844 14.4159 15.2333 14.1149 14.7829C13.814 14.3324 13.6533 13.8028 13.6533 13.2611C13.6542 12.5349 13.9431 11.8388 14.4566 11.3253C14.9701 10.8118 15.6663 10.5229 16.3924 10.522Z" fill="#7A6DD3"/>
<path d="M16.3921 15.2177C17.4726 15.2177 18.3486 14.3418 18.3486 13.2612C18.3486 12.1807 17.4726 11.3047 16.3921 11.3047C15.3115 11.3047 14.4355 12.1807 14.4355 13.2612C14.4355 14.3418 15.3115 15.2177 16.3921 15.2177Z" fill="#7A6DD3"/>
<path d="M12.3872 22.0265C12.4277 22.2074 12.5297 22.3686 12.6757 22.4828C12.8218 22.5969 13.0029 22.6569 13.1882 22.6526H19.5926C19.7764 22.6577 19.9564 22.5993 20.1022 22.4873C20.248 22.3752 20.3508 22.2164 20.3932 22.0375C20.5973 20.8823 21.1737 19.8255 22.0344 19.0284C22.8658 18.253 23.5245 17.3111 23.9675 16.2641C24.4106 15.2171 24.628 14.0885 24.6056 12.9518C24.5169 10.8849 23.6561 8.92645 22.1934 7.46339C20.7307 6.00034 18.7725 5.13909 16.7056 5.0498C16.5968 5.04589 16.4888 5.04354 16.3812 5.04354C14.2423 5.03398 12.1845 5.86097 10.647 7.34793C9.85292 8.10828 9.22364 9.02379 8.79828 10.0376C8.37293 11.0514 8.16059 12.1419 8.17447 13.2412C8.18834 14.3406 8.42812 15.4253 8.87892 16.4281C9.32972 17.4308 9.9819 18.3302 10.7949 19.0702C11.6354 19.8545 12.1948 20.8932 12.3872 22.0265ZM10.521 13.7145V12.8082C10.5206 12.6333 10.58 12.4635 10.6894 12.327C10.7988 12.1906 10.9517 12.0957 11.1225 12.0581L11.3858 11.999C11.522 11.9688 11.6488 11.9064 11.7558 11.8169C11.8627 11.7274 11.9465 11.6135 12.0002 11.4848L12.015 11.4457C12.0729 11.3069 12.0965 11.1562 12.0838 11.0063C12.0711 10.8565 12.0226 10.7119 11.9423 10.5848L11.8163 10.3872C11.7211 10.2399 11.6795 10.0643 11.6985 9.88997C11.7174 9.71562 11.7958 9.5531 11.9203 9.42967L12.5605 8.7895C12.6839 8.66485 12.8464 8.58646 13.0208 8.56751C13.1952 8.54856 13.3707 8.59019 13.518 8.68541L13.7438 8.82823C13.8669 8.90439 14.0067 8.94943 14.1511 8.95945C14.2955 8.96947 14.4402 8.94418 14.5726 8.88576C14.7092 8.83364 14.831 8.74915 14.9277 8.63956C15.0245 8.52996 15.0931 8.39852 15.1279 8.25654L15.1873 7.99241C15.2251 7.82174 15.3201 7.66911 15.4565 7.55986C15.593 7.4506 15.7627 7.39129 15.9375 7.39176H16.8437C17.0186 7.39133 17.1884 7.45075 17.3249 7.56016C17.4613 7.66957 17.5563 7.82238 17.5939 7.99319L17.6529 8.25654C17.6831 8.39268 17.7455 8.51957 17.835 8.62649C17.9245 8.73342 18.0384 8.81724 18.1671 8.87089L18.2062 8.88576C18.345 8.94371 18.4957 8.96735 18.6456 8.95468C18.7954 8.94201 18.94 8.8934 19.0671 8.81297L19.2647 8.68697C19.412 8.59175 19.5876 8.55012 19.762 8.56907C19.9363 8.58803 20.0989 8.66641 20.2222 8.79106L20.8624 9.43123C20.987 9.55466 21.0653 9.71719 21.0843 9.89153C21.1033 10.0659 21.0617 10.2414 20.9665 10.3888L20.8237 10.6145C20.7475 10.7376 20.7024 10.8774 20.6924 11.0218C20.6823 11.1662 20.7077 11.3109 20.7662 11.4433C20.8183 11.5799 20.9028 11.7018 21.0124 11.7985C21.122 11.8952 21.2534 11.9639 21.3954 11.9986L21.6595 12.0581C21.8302 12.0958 21.9828 12.1908 22.0921 12.3273C22.2013 12.4637 22.2606 12.6334 22.2602 12.8082V13.7145C22.2606 13.8894 22.2012 14.0591 22.0918 14.1956C21.9823 14.3321 21.8295 14.427 21.6587 14.4646L21.3954 14.5237C21.2592 14.5538 21.1324 14.6163 21.0254 14.7057C20.9185 14.7952 20.8347 14.9091 20.781 15.0378L20.7662 15.077C20.7083 15.2158 20.6847 15.3665 20.6975 15.5164C20.7102 15.6662 20.7589 15.8108 20.8393 15.9378L20.9649 16.1355C21.0601 16.2828 21.1017 16.4583 21.0827 16.6327C21.0638 16.807 20.9854 16.9695 20.8609 17.093L20.2207 17.7331C20.0974 17.8579 19.9348 17.9364 19.7604 17.9554C19.586 17.9743 19.4104 17.9326 19.2632 17.8372L19.0374 17.6944C18.9144 17.618 18.7746 17.5728 18.6301 17.5628C18.4857 17.5528 18.341 17.5782 18.2086 17.6369C18.072 17.689 17.9502 17.7735 17.8534 17.8831C17.7567 17.9927 17.6881 18.1241 17.6533 18.2661L17.5939 18.5302C17.5561 18.7009 17.4611 18.8535 17.3247 18.9628C17.1882 19.072 17.0185 19.1314 16.8437 19.1309H15.9375C15.7626 19.1313 15.5928 19.0719 15.4563 18.9625C15.3199 18.8531 15.2249 18.7003 15.1873 18.5295L15.1283 18.2661C15.0981 18.13 15.0357 18.0031 14.9462 17.8962C14.8567 17.7892 14.7428 17.7054 14.6141 17.6518L14.5749 17.6369C14.4361 17.579 14.2854 17.5555 14.1356 17.5682C13.9857 17.5809 13.8411 17.6296 13.7141 17.7101L13.5165 17.8357C13.3692 17.931 13.1936 17.9726 13.0192 17.9537C12.8448 17.9347 12.6823 17.8563 12.5589 17.7316L11.9188 17.0914C11.7942 16.968 11.7159 16.8055 11.6969 16.6311C11.6779 16.4568 11.7195 16.2812 11.8147 16.1339L11.9575 15.9081C12.0337 15.785 12.0788 15.6452 12.0888 15.5008C12.0989 15.3564 12.0735 15.2117 12.015 15.0793C11.9629 14.9428 11.8784 14.8209 11.7688 14.7242C11.6592 14.6275 11.5278 14.5588 11.3858 14.5241L11.1217 14.4646C10.951 14.4268 10.7984 14.3318 10.6891 14.1954C10.5799 14.0589 10.5206 13.8892 10.521 13.7145Z" fill="#7A6DD3"/>
</svg>
