<svg width="32" height="32" viewBox="0 0 32 32" fill="none" xmlns="http://www.w3.org/2000/svg">
<path fill-rule="evenodd" clip-rule="evenodd" d="M18.6778 8.78726C18.097 8.20653 17.3329 7.84513 16.5155 7.76465C15.6982 7.68417 14.8782 7.88959 14.1953 8.3459C13.5124 8.80222 13.0089 9.48119 12.7705 10.2671C12.5321 11.0531 12.5736 11.8974 12.888 12.6562C13.2023 13.4149 13.77 14.0413 14.4943 14.4284C15.2187 14.8155 16.0548 14.9395 16.8603 14.7793C17.6659 14.619 18.3909 14.1844 18.9119 13.5495C19.4329 12.9146 19.7177 12.1187 19.7176 11.2974C19.7182 10.8311 19.6266 10.3694 19.4482 9.93858C19.2697 9.50781 19.0079 9.11654 18.6778 8.78726ZM10.6946 18.9653C9.21099 20.3582 8.3169 22.2663 8.19595 24.2978C8.19448 24.3127 8.19608 24.3277 8.20067 24.342C8.20618 24.3559 8.21456 24.3685 8.22526 24.379C8.23477 24.3896 8.2462 24.3983 8.25894 24.4046C8.27292 24.4099 8.28779 24.4124 8.30273 24.412H24.0312C24.0463 24.4124 24.0613 24.4099 24.0754 24.4046C24.1019 24.3914 24.1229 24.3692 24.1346 24.342C24.1391 24.3277 24.1407 24.3127 24.1394 24.2978C24.0466 22.7835 23.5245 21.3268 22.634 20.0984C21.7436 18.87 20.5217 17.9206 19.1113 17.3614C17.701 16.8021 16.1605 16.6561 14.6702 16.9404C13.1799 17.2248 11.8014 17.9277 10.696 18.967L10.6946 18.9653ZM27.6836 10.9407C27.2106 10.4676 26.5881 10.1731 25.9223 10.1075C25.2565 10.0419 24.5885 10.2091 24.0322 10.5808C23.4759 10.9525 23.0657 11.5055 22.8714 12.1458C22.6772 12.786 22.7109 13.4737 22.9669 14.0919C23.2229 14.71 23.6854 15.2202 24.2754 15.5356C24.8654 15.851 25.5466 15.9521 26.2028 15.8216C26.8589 15.6911 27.4496 15.3371 27.874 14.8199C28.2985 14.3027 28.5304 13.6544 28.5304 12.9853C28.531 12.6055 28.4565 12.2294 28.3112 11.8785C28.1658 11.5276 27.9526 11.2089 27.6836 10.9407ZM24.8036 23.4972C24.5156 21.5551 23.58 19.7674 22.1486 18.4236C22.0944 18.3724 22.0392 18.3226 21.9836 18.2724C22.6854 17.8201 23.5031 17.5805 24.3381 17.5825H26.9402C28.1022 17.5862 29.2155 18.0494 30.0371 18.871C30.8587 19.6926 31.3219 20.8059 31.3256 21.9679V23.4972H24.8036ZM8.74063 10.9407C8.26758 10.4676 7.64512 10.1731 6.97931 10.1075C6.31349 10.0419 5.64552 10.2091 5.08921 10.5808C4.5329 10.9525 4.12268 11.5055 3.92843 12.1458C3.73419 12.786 3.76795 13.4737 4.02395 14.0919C4.27996 14.71 4.74237 15.2202 5.33241 15.5356C5.92244 15.851 6.60358 15.9521 7.25977 15.8216C7.91596 15.6911 8.50659 15.3371 8.93103 14.8199C9.35547 14.3027 9.58745 13.6544 9.58745 12.9853C9.58804 12.6055 9.51352 12.2294 9.36819 11.8785C9.22286 11.5276 9.00958 11.2089 8.74063 10.9407ZM10.3517 18.2724C10.2962 18.3219 10.2409 18.3735 10.1867 18.4236C8.75532 19.7674 7.81976 21.5551 7.5317 23.4972H1.00977V21.9679C1.01341 20.8059 1.4766 19.6926 2.29823 18.871C3.11985 18.0494 4.23317 17.5862 5.39511 17.5825H7.99722C8.83218 17.5805 9.64989 17.8201 10.3517 18.2724Z" fill="#7A6DD3"/>
</svg>
