<svg width="32" height="32" viewBox="0 0 32 32" fill="none" xmlns="http://www.w3.org/2000/svg">
<g clip-path="url(#clip0_2706_8645)">
<path d="M16 12.4844C14.0615 12.4844 12.4844 14.0615 12.4844 16C12.4844 17.9385 14.0615 19.5156 16 19.5156C17.9385 19.5156 19.5156 17.9385 19.5156 16C19.5156 14.0615 17.9385 12.4844 16 12.4844ZM16 18.1094C14.8369 18.1094 13.8906 17.1631 13.8906 16C13.8906 14.8369 14.8369 13.8906 16 13.8906C17.1631 13.8906 18.1094 14.8369 18.1094 16C18.1094 17.1631 17.1633 18.1094 16 18.1094Z" fill="#7A6DD3"/>
<path d="M16 15.2969C15.6124 15.2969 15.2969 15.6124 15.2969 16C15.2969 16.3878 15.6124 16.7031 16 16.7031C16.3878 16.7031 16.7031 16.3878 16.7031 16C16.7031 15.6124 16.3878 15.2969 16 15.2969Z" fill="#7A6DD3"/>
<path d="M27.8677 15.5895C25.43 12.1984 20.6931 8.26562 16 8.26562C11.0115 8.26562 6.2456 12.6497 4.13238 15.5895C3.95587 15.8346 3.95587 16.1653 4.13238 16.4105C6.57006 19.8016 11.3068 23.7343 16 23.7343C20.9887 23.7343 25.7545 19.3502 27.8677 16.4105C28.0441 16.1653 28.0441 15.8348 27.8677 15.5895ZM16 20.9218C13.2862 20.9218 11.0781 18.714 11.0781 16C11.0781 13.2862 13.2862 11.0781 16 11.0781C18.7139 11.0781 20.9218 13.2862 20.9218 16C20.9218 18.714 18.7139 20.9218 16 20.9218Z" fill="#7A6DD3"/>
</g>
<defs>
<clipPath id="clip0_2706_8645">
<rect width="24" height="24" fill="white" transform="translate(4 4)"/>
</clipPath>
</defs>
</svg>
