<svg width="400" height="400" viewBox="0 0 400 400" fill="none" xmlns="http://www.w3.org/2000/svg">
<g filter="url(#filter0_i_1727_12688)">
<rect x="141" y="140" width="120" height="120" rx="20" fill="#060415"/>
<path d="M178.656 217L190.469 183.18H196.703V189.742H194.547L186.086 217H178.656ZM185.008 208.797L186.742 203.5H202.516L204.25 208.797H185.008ZM203.148 217L194.688 189.742V183.18H198.789L210.578 217H203.148ZM213.567 217V183.18H220.645V217H213.567Z" fill="#7A6DD3"/>
</g>
<rect x="200" y="116" width="2" height="24" fill="#7A6DD3"/>
<rect x="180" y="96" width="2" height="44" fill="#7A6DD3"/>
<rect x="220" y="96" width="2" height="44" fill="#7A6DD3"/>
<rect x="240" y="116" width="2" height="24" fill="#7A6DD3"/>
<rect x="160" y="116" width="2" height="24" fill="#7A6DD3"/>
<circle cx="181" cy="96" r="7" fill="#7A6DD3"/>
<circle cx="201" cy="116" r="7" fill="#7A6DD3"/>
<circle cx="241" cy="116" r="7" fill="#7A6DD3"/>
<circle cx="161" cy="116" r="7" fill="#7A6DD3"/>
<circle cx="221" cy="96" r="7" fill="#7A6DD3"/>
<rect x="202" y="284" width="2" height="24" transform="rotate(-180 202 284)" fill="#7A6DD3"/>
<rect x="222" y="304" width="2" height="44" transform="rotate(-180 222 304)" fill="#7A6DD3"/>
<rect x="182" y="304" width="2" height="44" transform="rotate(-180 182 304)" fill="#7A6DD3"/>
<rect x="162" y="284" width="2" height="24" transform="rotate(-180 162 284)" fill="#7A6DD3"/>
<rect x="242" y="284" width="2" height="24" transform="rotate(-180 242 284)" fill="#7A6DD3"/>
<circle cx="221" cy="304" r="7" transform="rotate(-180 221 304)" fill="#7A6DD3"/>
<circle cx="201" cy="284" r="7" transform="rotate(-180 201 284)" fill="#7A6DD3"/>
<circle cx="161" cy="284" r="7" transform="rotate(-180 161 284)" fill="#7A6DD3"/>
<circle cx="241" cy="284" r="7" transform="rotate(-180 241 284)" fill="#7A6DD3"/>
<circle cx="181" cy="304" r="7" transform="rotate(-180 181 304)" fill="#7A6DD3"/>
<rect x="285" y="199" width="2" height="24" transform="rotate(90 285 199)" fill="#7A6DD3"/>
<rect x="305" y="179" width="2" height="44" transform="rotate(90 305 179)" fill="#7A6DD3"/>
<rect x="305" y="219" width="2" height="44" transform="rotate(90 305 219)" fill="#7A6DD3"/>
<rect x="285" y="239" width="2" height="24" transform="rotate(90 285 239)" fill="#7A6DD3"/>
<rect x="285" y="159" width="2" height="24" transform="rotate(90 285 159)" fill="#7A6DD3"/>
<circle cx="305" cy="180" r="7" transform="rotate(90 305 180)" fill="#7A6DD3"/>
<circle cx="285" cy="200" r="7" transform="rotate(90 285 200)" fill="#7A6DD3"/>
<circle cx="285" cy="240" r="7" transform="rotate(90 285 240)" fill="#7A6DD3"/>
<circle cx="285" cy="160" r="7" transform="rotate(90 285 160)" fill="#7A6DD3"/>
<circle cx="305" cy="220" r="7" transform="rotate(90 305 220)" fill="#7A6DD3"/>
<rect x="116" y="201" width="2" height="24" transform="rotate(-90 116 201)" fill="#7A6DD3"/>
<rect x="96" y="221" width="2" height="44" transform="rotate(-90 96 221)" fill="#7A6DD3"/>
<rect x="96" y="181" width="2" height="44" transform="rotate(-90 96 181)" fill="#7A6DD3"/>
<rect x="116" y="161" width="2" height="24" transform="rotate(-90 116 161)" fill="#7A6DD3"/>
<rect x="116" y="241" width="2" height="24" transform="rotate(-90 116 241)" fill="#7A6DD3"/>
<circle cx="96" cy="220" r="7" transform="rotate(-90 96 220)" fill="#7A6DD3"/>
<circle cx="116" cy="200" r="7" transform="rotate(-90 116 200)" fill="#7A6DD3"/>
<circle cx="116" cy="160" r="7" transform="rotate(-90 116 160)" fill="#7A6DD3"/>
<circle cx="116" cy="240" r="7" transform="rotate(-90 116 240)" fill="#7A6DD3"/>
<circle cx="96" cy="180" r="7" transform="rotate(-90 96 180)" fill="#7A6DD3"/>
<defs>
<filter id="filter0_i_1727_12688" x="141" y="140" width="120" height="120" filterUnits="userSpaceOnUse" color-interpolation-filters="sRGB">
<feFlood flood-opacity="0" result="BackgroundImageFix"/>
<feBlend mode="normal" in="SourceGraphic" in2="BackgroundImageFix" result="shape"/>
<feColorMatrix in="SourceAlpha" type="matrix" values="0 0 0 0 0 0 0 0 0 0 0 0 0 0 0 0 0 0 127 0" result="hardAlpha"/>
<feOffset/>
<feGaussianBlur stdDeviation="6"/>
<feComposite in2="hardAlpha" operator="arithmetic" k2="-1" k3="1"/>
<feColorMatrix type="matrix" values="0 0 0 0 0.478431 0 0 0 0 0.427451 0 0 0 0 0.827451 0 0 0 0.8 0"/>
<feBlend mode="normal" in2="shape" result="effect1_innerShadow_1727_12688"/>
</filter>
</defs>
</svg>
