<svg width="400" height="400" viewBox="0 0 400 400" fill="none" xmlns="http://www.w3.org/2000/svg">
<g filter="url(#filter0_i_1727_12593)">
<circle cx="48" cy="88" r="40" fill="#060415"/>
</g>
<path d="M33.5996 87.1997H38.3996V97.5997H33.5996V87.1997Z" fill="#7A6DD3"/>
<path d="M41.5996 87.1997H46.3996V97.5997H41.5996V87.1997Z" fill="#7A6DD3"/>
<path d="M49.5996 87.1997H54.3996V97.5997H49.5996V87.1997Z" fill="#7A6DD3"/>
<path d="M57.5996 87.1997H62.3996V97.5997H57.5996V87.1997Z" fill="#7A6DD3"/>
<path d="M32.8008 83.1997V84.7997C32.8008 85.0119 32.8851 85.2154 33.0351 85.3654C33.1851 85.5154 33.3886 85.5997 33.6008 85.5997H38.4008C38.613 85.5997 38.8164 85.5154 38.9665 85.3654C39.1165 85.2154 39.2008 85.0119 39.2008 84.7997V83.1997H32.8008Z" fill="#7A6DD3"/>
<path d="M40.8008 83.1997V84.7997C40.8008 85.0119 40.8851 85.2154 41.0351 85.3654C41.1851 85.5154 41.3886 85.5997 41.6008 85.5997H46.4008C46.613 85.5997 46.8164 85.5154 46.9665 85.3654C47.1165 85.2154 47.2008 85.0119 47.2008 84.7997V83.1997H40.8008Z" fill="#7A6DD3"/>
<path d="M48.8008 83.1997V84.7997C48.8008 85.0119 48.8851 85.2154 49.0351 85.3654C49.1851 85.5154 49.3886 85.5997 49.6008 85.5997H54.4008C54.613 85.5997 54.8164 85.5154 54.9665 85.3654C55.1165 85.2154 55.2008 85.0119 55.2008 84.7997V83.1997H48.8008Z" fill="#7A6DD3"/>
<path d="M56.8008 83.1997V84.7997C56.8008 85.0119 56.8851 85.2154 57.0351 85.3654C57.1851 85.5154 57.3886 85.5997 57.6008 85.5997H62.4008C62.613 85.5997 62.8164 85.5154 62.9665 85.3654C63.1165 85.2154 63.2008 85.0119 63.2008 84.7997V83.1997H56.8008Z" fill="#7A6DD3"/>
<path d="M63.2012 99.1455H32.8012C31.9175 99.1455 31.2012 99.8619 31.2012 100.746V102.346C31.2012 103.229 31.9175 103.946 32.8012 103.946H63.2012C64.0848 103.946 64.8012 103.229 64.8012 102.346V100.746C64.8012 99.8619 64.0848 99.1455 63.2012 99.1455Z" fill="#7A6DD3"/>
<path d="M64.5036 76.6158L48.4052 71.2798C48.0766 71.171 47.7218 71.171 47.3932 71.2798L31.4908 76.6158C31.1732 76.7226 30.8971 76.9263 30.7015 77.1983C30.5058 77.4703 30.4005 77.7968 30.4004 78.1318V79.9998C30.4004 80.4242 30.569 80.8312 30.869 81.1312C31.1691 81.4313 31.576 81.5998 32.0004 81.5998H64.0004C64.4247 81.5998 64.8317 81.4313 65.1318 81.1312C65.4318 80.8312 65.6004 80.4242 65.6004 79.9998V78.1342C65.6003 77.798 65.4943 77.4703 65.2974 77.1978C65.1005 76.9252 64.8228 76.7216 64.5036 76.6158Z" fill="#7A6DD3"/>
<g filter="url(#filter1_i_1727_12593)">
<circle cx="286" cy="72" r="40" fill="#060415"/>
</g>
<path d="M306.485 79.5C306.838 79.2407 307.116 78.8929 307.291 78.4917C307.467 78.0905 307.533 77.6502 307.484 77.2152C307.435 76.7802 307.272 76.3658 307.011 76.0139C306.751 75.662 306.402 75.3851 306 75.211V71.79L304 72.64V75.211C303.598 75.385 303.249 75.662 302.989 76.0139C302.728 76.3659 302.565 76.7804 302.516 77.2156C302.467 77.6508 302.533 78.0913 302.709 78.4926C302.884 78.8939 303.162 79.2417 303.515 79.501C303.201 79.7317 302.946 80.0328 302.77 80.3802C302.593 80.7276 302.501 81.1115 302.5 81.501V84C302.5 84.2653 302.606 84.5196 302.793 84.7071C302.981 84.8947 303.235 85 303.5 85H306.5C306.765 85 307.02 84.8947 307.207 84.7071C307.395 84.5196 307.5 84.2653 307.5 84V81.5C307.499 81.1105 307.407 80.7266 307.231 80.3792C307.055 80.0318 306.799 79.7307 306.485 79.5Z" fill="#7A6DD3"/>
<path d="M301 73.9102V81.3102C301.005 82.1704 300.787 83.0173 300.366 83.7677C299.946 84.518 299.337 85.1461 298.6 85.5902C294.776 87.8233 290.428 89.0001 286 89.0001C281.572 89.0001 277.224 87.8233 273.4 85.5902C272.663 85.1461 272.055 84.518 271.634 83.7677C271.213 83.0173 270.995 82.1704 271 81.3102V73.9102L283.27 79.1002C284.134 79.4632 285.063 79.6502 286 79.6502C286.938 79.6502 287.866 79.4632 288.73 79.1002L301 73.9102Z" fill="#7A6DD3"/>
<path d="M308.036 63.2372L287.948 54.7372C287.331 54.4775 286.668 54.3438 285.998 54.3438C285.329 54.3438 284.666 54.4775 284.048 54.7372L263.96 63.2372C263.417 63.4669 262.954 63.8514 262.628 64.3428C262.303 64.8342 262.129 65.4107 262.129 66.0002C262.129 66.5897 262.303 67.1662 262.628 67.6576C262.954 68.149 263.417 68.5335 263.96 68.7632L284.048 77.2632C284.665 77.5232 285.328 77.6571 285.998 77.6571C286.668 77.6571 287.331 77.5232 287.948 77.2632L308.036 68.7632C308.579 68.5335 309.042 68.149 309.368 67.6576C309.694 67.1662 309.868 66.5897 309.868 66.0002C309.868 65.4107 309.694 64.8342 309.368 64.3428C309.042 63.8514 308.579 63.4669 308.036 63.2372Z" fill="#7A6DD3"/>
<g filter="url(#filter2_i_1727_12593)">
<circle cx="252" cy="168" r="40" fill="#060415"/>
</g>
<g clip-path="url(#clip0_1727_12593)">
<path fill-rule="evenodd" clip-rule="evenodd" d="M240.649 150.785H260.076V155.651C260.076 156.862 261.061 157.847 262.273 157.847H267.139V160.762C264.72 164.953 262.3 169.144 259.881 173.334L259.728 173.599L259.153 178.689C259.073 179.4 259.412 180.086 260.026 180.454C260.64 180.822 261.405 180.798 261.994 180.392L266.302 177.424L267.139 175.975V184.515C267.139 184.901 266.825 185.215 266.439 185.215H240.649C240.264 185.215 239.949 184.901 239.949 184.515V151.484C239.949 151.099 240.263 150.785 240.649 150.785ZM261.541 150.845V155.651C261.541 156.054 261.869 156.383 262.273 156.383H267.078C267.044 156.309 266.996 156.24 266.934 156.178L261.745 150.989C261.683 150.927 261.615 150.879 261.541 150.845ZM245.484 158.988H253.544C253.948 158.988 254.276 158.66 254.276 158.256C254.276 157.852 253.949 157.524 253.544 157.524H245.484C245.08 157.524 244.752 157.852 244.752 158.256C244.752 158.66 245.08 158.988 245.484 158.988ZM245.484 175.896H257.51C257.914 175.896 258.242 175.568 258.242 175.163C258.242 174.759 257.914 174.431 257.51 174.431H245.484C245.08 174.431 244.752 174.759 244.752 175.163C244.752 175.568 245.08 175.896 245.484 175.896ZM245.484 180.122H257.51C257.914 180.122 258.242 179.795 258.242 179.39C258.242 178.986 257.914 178.658 257.51 178.658H245.484C245.08 178.658 244.752 178.986 244.752 179.39C244.752 179.795 245.08 180.122 245.484 180.122ZM245.484 171.669H257.51C257.914 171.669 258.242 171.341 258.242 170.937C258.242 170.532 257.914 170.204 257.51 170.204H245.484C245.08 170.204 244.752 170.532 244.752 170.937C244.752 171.341 245.08 171.669 245.484 171.669ZM245.484 167.442H261.604C262.008 167.442 262.336 167.114 262.336 166.71C262.336 166.305 262.008 165.978 261.604 165.978H245.484C245.08 165.978 244.752 166.305 244.752 166.71C244.752 167.114 245.08 167.442 245.484 167.442ZM245.484 163.215H261.604C262.008 163.215 262.336 162.887 262.336 162.483C262.336 162.079 262.008 161.751 261.604 161.751H245.484C245.08 161.751 244.752 162.079 244.752 162.483C244.752 162.887 245.08 163.215 245.484 163.215ZM270.294 158.226C269.033 160.41 267.772 162.594 266.511 164.779L270.562 167.117L273.379 162.239L275.165 163.27L272.958 167.092C272.762 167.433 272.878 167.868 273.219 168.065C273.559 168.261 273.994 168.145 274.191 167.804L276.754 163.365C276.95 163.025 276.834 162.59 276.493 162.393L274.09 161.006L274.345 160.565C274.988 159.451 274.603 158.013 273.489 157.37C272.375 156.727 270.937 157.112 270.294 158.226ZM269.83 168.386L265.779 166.047L261.534 173.399L265.585 175.738L269.83 168.386ZM264.567 176.841L261.064 174.818L260.608 178.853C260.592 178.995 260.656 179.125 260.779 179.198C260.901 179.271 261.046 179.267 261.163 179.186L264.567 176.841Z" fill="#7A6DD3"/>
</g>
<g filter="url(#filter3_i_1727_12593)">
<circle cx="352" cy="197" r="40" fill="#060415"/>
</g>
<g clip-path="url(#clip1_1727_12593)">
<path d="M361.368 191.482C361.107 191.057 360.644 190.797 360.145 190.797H353.541L357.11 179.673C357.25 179.236 357.174 178.758 356.903 178.388C356.634 178.019 356.203 177.8 355.745 177.8H349.18C348.557 177.8 348.004 178.203 347.815 178.796L342.49 195.391C342.351 195.827 342.427 196.305 342.697 196.675C342.967 197.045 343.398 197.264 343.856 197.264H345.012H350.312L348.601 215.536C348.574 215.826 348.757 216.095 349.038 216.176C349.317 216.257 349.615 216.128 349.747 215.868L361.425 192.882C361.65 192.437 361.629 191.907 361.368 191.482Z" fill="#7A6DD3"/>
</g>
<g filter="url(#filter4_i_1727_12593)">
<circle cx="99" cy="218" r="40" fill="#060415"/>
</g>
<path d="M100.501 201.094C92.746 200.218 86.1504 206.28 86.1504 213.851C86.1504 218.587 88.7672 222.925 92.8917 225.143V229.481C92.8917 231.117 94.2285 232.439 95.8499 232.439H96.17C96.3318 233.864 97.523 234.991 99.0011 234.991C100.479 234.991 101.67 233.864 101.832 232.439H102.15C103.772 232.439 105.109 231.117 105.109 229.481V225.157C109.304 222.925 111.85 218.601 111.85 213.851C111.85 207.065 106.587 201.793 100.501 201.094ZM95.1815 209.584C94.5824 210.12 93.6893 210.065 93.1763 209.47C92.6499 208.887 92.6926 207.991 93.2757 207.465C94.2997 206.555 95.5228 205.915 96.9308 205.559C97.6988 205.374 98.4667 205.844 98.6516 206.598C98.8507 207.365 98.3815 208.133 97.6134 208.318C96.6749 208.56 95.8499 208.987 95.1815 209.584Z" fill="#7A6DD3"/>
<g filter="url(#filter5_i_1727_12593)">
<circle cx="172" cy="109" r="40" fill="#060415"/>
</g>
<g clip-path="url(#clip2_1727_12593)">
<path d="M169.258 89.7998C167.002 89.7998 165.143 91.6585 165.143 93.9141V95.2855H158.286H155.543C154.786 95.2855 154.172 95.8996 154.172 96.657C154.172 97.4144 154.786 98.0284 155.543 98.0284H156.984L158.206 121.415C158.398 125.098 161.284 128.2 165.06 128.2H178.858C182.634 128.2 185.508 125.094 185.712 121.418L187.011 98.0284H188.458C189.215 98.0284 189.829 97.4143 189.829 96.6569C189.829 95.8995 189.215 95.2855 188.458 95.2855H185.715H178.858V93.9141C178.858 91.6585 176.999 89.7998 174.743 89.7998H169.258ZM169.258 92.5426H174.743C175.527 92.5426 176.115 93.1306 176.115 93.9141V95.2855H167.886V93.9141C167.886 93.1306 168.474 92.5426 169.258 92.5426ZM167.886 103.514C168.644 103.514 169.258 104.128 169.258 104.886V118.6C169.258 119.357 168.644 119.971 167.886 119.971C167.129 119.971 166.515 119.357 166.515 118.6V104.886C166.515 104.128 167.129 103.514 167.886 103.514ZM176.115 103.514C176.872 103.514 177.486 104.128 177.486 104.886V118.6C177.486 119.357 176.872 119.971 176.115 119.971C175.357 119.971 174.743 119.357 174.743 118.6V104.886C174.743 104.128 175.357 103.514 176.115 103.514Z" fill="#7A6DD3"/>
</g>
<g filter="url(#filter6_i_1727_12593)">
<circle cx="340" cy="328" r="40" fill="#060415"/>
</g>
<g clip-path="url(#clip3_1727_12593)">
<path d="M321.868 333.367H326.134C326.723 333.367 327.201 333.844 327.201 334.433V345.1C327.201 345.689 326.723 346.167 326.134 346.167H321.868C321.279 346.167 320.801 345.689 320.801 345.1V334.433C320.801 333.844 321.279 333.367 321.868 333.367Z" fill="#7A6DD3"/>
<path d="M332.533 324.833H336.8C337.389 324.833 337.867 325.311 337.867 325.9V345.1C337.867 345.689 337.389 346.167 336.8 346.167H332.533C331.944 346.167 331.467 345.689 331.467 345.1V325.9C331.467 325.311 331.944 324.833 332.533 324.833Z" fill="#7A6DD3"/>
<path d="M343.202 329.1H347.468C348.057 329.1 348.535 329.577 348.535 330.166V345.1C348.535 345.689 348.057 346.166 347.468 346.166H343.202C342.612 346.166 342.135 345.689 342.135 345.1V330.166C342.135 329.577 342.612 329.1 343.202 329.1Z" fill="#7A6DD3"/>
<path d="M353.868 322.7H358.134C358.723 322.7 359.201 323.177 359.201 323.767V345.1C359.201 345.689 358.723 346.167 358.134 346.167H353.868C353.279 346.167 352.801 345.689 352.801 345.1V323.767C352.801 323.177 353.279 322.7 353.868 322.7Z" fill="#7A6DD3"/>
<path d="M356.001 309.9C354.234 309.902 352.803 311.333 352.801 313.1C352.805 313.448 352.867 313.794 352.984 314.122L347.644 317.296C346.943 316.553 345.927 316.192 344.914 316.328C343.902 316.464 343.016 317.078 342.536 317.98L337.826 315.647C337.849 315.51 337.863 315.372 337.868 315.233C337.87 313.938 337.091 312.769 335.895 312.272C334.699 311.775 333.321 312.048 332.405 312.964C331.489 313.879 331.215 315.257 331.712 316.453L325.602 321.012C325.118 320.724 324.565 320.57 324.001 320.567C322.234 320.567 320.801 321.999 320.801 323.767C320.801 325.534 322.234 326.967 324.001 326.967C325.768 326.967 327.201 325.534 327.201 323.767C327.198 323.382 327.125 323.001 326.986 322.642L333.157 318.037C334.364 318.71 335.869 318.512 336.862 317.551L342.218 320.203C342.575 321.794 344.071 322.861 345.691 322.68C347.311 322.5 348.536 321.13 348.534 319.5C348.534 319.419 348.516 319.342 348.51 319.262L354.318 315.81C354.821 316.128 355.405 316.298 356.001 316.3C357.768 316.3 359.201 314.867 359.201 313.1C359.201 311.333 357.768 309.9 356.001 309.9Z" fill="#7A6DD3"/>
</g>
<g filter="url(#filter7_i_1727_12593)">
<circle cx="213" cy="266" r="40" fill="#060415"/>
</g>
<g clip-path="url(#clip4_1727_12593)">
<path d="M216.851 280.374C216.851 282.72 216.065 284.321 214.644 284.985C213.131 285.426 211.813 285.06 211.313 285.006C209.903 284.384 207.872 281.633 211.06 279.109C212.21 278.148 213.503 277.068 213.682 273.757C214.741 274.714 216.851 277.039 216.851 280.374ZM209.391 246.8C212.522 253.162 210.552 256.573 210.552 256.573C210.552 256.573 208.115 254.957 207.183 254.535C207.927 257.992 207.482 262.41 204.762 264.178C193.818 272.645 202.452 281.311 205.933 283.281C204.752 281.831 201.419 276.41 208.132 272.134C215.016 267.709 210.964 262.198 210.964 262.198C210.964 262.198 216.418 261.267 221.388 271.853C223.276 277.269 221.206 281.481 220.302 282.977C224.497 280.217 226.874 275.146 226.874 270.092C226.874 255.448 212.106 246.824 209.391 246.8Z" fill="#7A6DD3"/>
</g>
<g filter="url(#filter8_i_1727_12593)">
<circle cx="59" cy="328" r="40" fill="#060415"/>
</g>
<g clip-path="url(#clip5_1727_12593)">
<path d="M60.6104 310.123C59.5582 308.328 58.444 308.39 57.3917 310.123C52.5637 317.303 45.2598 328.073 45.2598 333.458C45.2598 337.234 46.8072 340.7 49.2831 343.176C51.759 345.652 55.2253 347.2 59.0011 347.2C62.7768 347.2 66.2431 345.652 68.719 343.176C71.1949 340.7 72.7424 337.234 72.7424 333.458C72.7424 328.011 65.4384 317.303 60.6104 310.123ZM68.9047 339.586C67.9144 341.196 66.4907 342.619 64.7576 343.61C63.9529 344.043 62.9625 343.795 62.5293 342.991C62.0341 342.124 62.3436 341.134 63.1482 340.7C64.3862 340.02 65.3765 339.029 66.1193 337.853C66.8621 336.677 67.2954 335.315 67.3573 333.892C67.4192 332.963 68.162 332.282 69.0904 332.344C70.0189 332.406 70.6998 333.149 70.6379 334.077C70.5141 336.058 69.8951 337.915 68.9047 339.586Z" fill="#7A6DD3"/>
</g>
<defs>
<filter id="filter0_i_1727_12593" x="8" y="48" width="80" height="80" filterUnits="userSpaceOnUse" color-interpolation-filters="sRGB">
<feFlood flood-opacity="0" result="BackgroundImageFix"/>
<feBlend mode="normal" in="SourceGraphic" in2="BackgroundImageFix" result="shape"/>
<feColorMatrix in="SourceAlpha" type="matrix" values="0 0 0 0 0 0 0 0 0 0 0 0 0 0 0 0 0 0 127 0" result="hardAlpha"/>
<feOffset/>
<feGaussianBlur stdDeviation="6"/>
<feComposite in2="hardAlpha" operator="arithmetic" k2="-1" k3="1"/>
<feColorMatrix type="matrix" values="0 0 0 0 0.478431 0 0 0 0 0.427451 0 0 0 0 0.827451 0 0 0 0.8 0"/>
<feBlend mode="normal" in2="shape" result="effect1_innerShadow_1727_12593"/>
</filter>
<filter id="filter1_i_1727_12593" x="246" y="32" width="80" height="80" filterUnits="userSpaceOnUse" color-interpolation-filters="sRGB">
<feFlood flood-opacity="0" result="BackgroundImageFix"/>
<feBlend mode="normal" in="SourceGraphic" in2="BackgroundImageFix" result="shape"/>
<feColorMatrix in="SourceAlpha" type="matrix" values="0 0 0 0 0 0 0 0 0 0 0 0 0 0 0 0 0 0 127 0" result="hardAlpha"/>
<feOffset/>
<feGaussianBlur stdDeviation="6"/>
<feComposite in2="hardAlpha" operator="arithmetic" k2="-1" k3="1"/>
<feColorMatrix type="matrix" values="0 0 0 0 0.478431 0 0 0 0 0.427451 0 0 0 0 0.827451 0 0 0 0.8 0"/>
<feBlend mode="normal" in2="shape" result="effect1_innerShadow_1727_12593"/>
</filter>
<filter id="filter2_i_1727_12593" x="212" y="128" width="80" height="80" filterUnits="userSpaceOnUse" color-interpolation-filters="sRGB">
<feFlood flood-opacity="0" result="BackgroundImageFix"/>
<feBlend mode="normal" in="SourceGraphic" in2="BackgroundImageFix" result="shape"/>
<feColorMatrix in="SourceAlpha" type="matrix" values="0 0 0 0 0 0 0 0 0 0 0 0 0 0 0 0 0 0 127 0" result="hardAlpha"/>
<feOffset/>
<feGaussianBlur stdDeviation="6"/>
<feComposite in2="hardAlpha" operator="arithmetic" k2="-1" k3="1"/>
<feColorMatrix type="matrix" values="0 0 0 0 0.478431 0 0 0 0 0.427451 0 0 0 0 0.827451 0 0 0 0.8 0"/>
<feBlend mode="normal" in2="shape" result="effect1_innerShadow_1727_12593"/>
</filter>
<filter id="filter3_i_1727_12593" x="312" y="157" width="80" height="80" filterUnits="userSpaceOnUse" color-interpolation-filters="sRGB">
<feFlood flood-opacity="0" result="BackgroundImageFix"/>
<feBlend mode="normal" in="SourceGraphic" in2="BackgroundImageFix" result="shape"/>
<feColorMatrix in="SourceAlpha" type="matrix" values="0 0 0 0 0 0 0 0 0 0 0 0 0 0 0 0 0 0 127 0" result="hardAlpha"/>
<feOffset/>
<feGaussianBlur stdDeviation="6"/>
<feComposite in2="hardAlpha" operator="arithmetic" k2="-1" k3="1"/>
<feColorMatrix type="matrix" values="0 0 0 0 0.478431 0 0 0 0 0.427451 0 0 0 0 0.827451 0 0 0 0.8 0"/>
<feBlend mode="normal" in2="shape" result="effect1_innerShadow_1727_12593"/>
</filter>
<filter id="filter4_i_1727_12593" x="59" y="178" width="80" height="80" filterUnits="userSpaceOnUse" color-interpolation-filters="sRGB">
<feFlood flood-opacity="0" result="BackgroundImageFix"/>
<feBlend mode="normal" in="SourceGraphic" in2="BackgroundImageFix" result="shape"/>
<feColorMatrix in="SourceAlpha" type="matrix" values="0 0 0 0 0 0 0 0 0 0 0 0 0 0 0 0 0 0 127 0" result="hardAlpha"/>
<feOffset/>
<feGaussianBlur stdDeviation="6"/>
<feComposite in2="hardAlpha" operator="arithmetic" k2="-1" k3="1"/>
<feColorMatrix type="matrix" values="0 0 0 0 0.478431 0 0 0 0 0.427451 0 0 0 0 0.827451 0 0 0 0.8 0"/>
<feBlend mode="normal" in2="shape" result="effect1_innerShadow_1727_12593"/>
</filter>
<filter id="filter5_i_1727_12593" x="132" y="69" width="80" height="80" filterUnits="userSpaceOnUse" color-interpolation-filters="sRGB">
<feFlood flood-opacity="0" result="BackgroundImageFix"/>
<feBlend mode="normal" in="SourceGraphic" in2="BackgroundImageFix" result="shape"/>
<feColorMatrix in="SourceAlpha" type="matrix" values="0 0 0 0 0 0 0 0 0 0 0 0 0 0 0 0 0 0 127 0" result="hardAlpha"/>
<feOffset/>
<feGaussianBlur stdDeviation="6"/>
<feComposite in2="hardAlpha" operator="arithmetic" k2="-1" k3="1"/>
<feColorMatrix type="matrix" values="0 0 0 0 0.478431 0 0 0 0 0.427451 0 0 0 0 0.827451 0 0 0 0.8 0"/>
<feBlend mode="normal" in2="shape" result="effect1_innerShadow_1727_12593"/>
</filter>
<filter id="filter6_i_1727_12593" x="300" y="288" width="80" height="80" filterUnits="userSpaceOnUse" color-interpolation-filters="sRGB">
<feFlood flood-opacity="0" result="BackgroundImageFix"/>
<feBlend mode="normal" in="SourceGraphic" in2="BackgroundImageFix" result="shape"/>
<feColorMatrix in="SourceAlpha" type="matrix" values="0 0 0 0 0 0 0 0 0 0 0 0 0 0 0 0 0 0 127 0" result="hardAlpha"/>
<feOffset/>
<feGaussianBlur stdDeviation="6"/>
<feComposite in2="hardAlpha" operator="arithmetic" k2="-1" k3="1"/>
<feColorMatrix type="matrix" values="0 0 0 0 0.478431 0 0 0 0 0.427451 0 0 0 0 0.827451 0 0 0 0.8 0"/>
<feBlend mode="normal" in2="shape" result="effect1_innerShadow_1727_12593"/>
</filter>
<filter id="filter7_i_1727_12593" x="173" y="226" width="80" height="80" filterUnits="userSpaceOnUse" color-interpolation-filters="sRGB">
<feFlood flood-opacity="0" result="BackgroundImageFix"/>
<feBlend mode="normal" in="SourceGraphic" in2="BackgroundImageFix" result="shape"/>
<feColorMatrix in="SourceAlpha" type="matrix" values="0 0 0 0 0 0 0 0 0 0 0 0 0 0 0 0 0 0 127 0" result="hardAlpha"/>
<feOffset/>
<feGaussianBlur stdDeviation="6"/>
<feComposite in2="hardAlpha" operator="arithmetic" k2="-1" k3="1"/>
<feColorMatrix type="matrix" values="0 0 0 0 0.478431 0 0 0 0 0.427451 0 0 0 0 0.827451 0 0 0 0.8 0"/>
<feBlend mode="normal" in2="shape" result="effect1_innerShadow_1727_12593"/>
</filter>
<filter id="filter8_i_1727_12593" x="19" y="288" width="80" height="80" filterUnits="userSpaceOnUse" color-interpolation-filters="sRGB">
<feFlood flood-opacity="0" result="BackgroundImageFix"/>
<feBlend mode="normal" in="SourceGraphic" in2="BackgroundImageFix" result="shape"/>
<feColorMatrix in="SourceAlpha" type="matrix" values="0 0 0 0 0 0 0 0 0 0 0 0 0 0 0 0 0 0 127 0" result="hardAlpha"/>
<feOffset/>
<feGaussianBlur stdDeviation="6"/>
<feComposite in2="hardAlpha" operator="arithmetic" k2="-1" k3="1"/>
<feColorMatrix type="matrix" values="0 0 0 0 0.478431 0 0 0 0 0.427451 0 0 0 0 0.827451 0 0 0 0.8 0"/>
<feBlend mode="normal" in2="shape" result="effect1_innerShadow_1727_12593"/>
</filter>
<clipPath id="clip0_1727_12593">
<rect width="38.4" height="38.4" fill="white" transform="translate(239.199 148.8)"/>
</clipPath>
<clipPath id="clip1_1727_12593">
<rect width="38.4" height="38.4" fill="white" transform="translate(332.801 177.8)"/>
</clipPath>
<clipPath id="clip2_1727_12593">
<rect width="38.4" height="38.4" fill="white" transform="translate(152.801 89.7998)"/>
</clipPath>
<clipPath id="clip3_1727_12593">
<rect width="38.4" height="38.4" fill="white" transform="translate(320.801 308.8)"/>
</clipPath>
<clipPath id="clip4_1727_12593">
<rect width="38.4" height="38.4" fill="white" transform="translate(193.801 246.8)"/>
</clipPath>
<clipPath id="clip5_1727_12593">
<rect width="38.4" height="38.4" fill="white" transform="translate(39.8008 308.8)"/>
</clipPath>
</defs>
</svg>
