<svg width="400" height="400" viewBox="0 0 400 400" fill="none" xmlns="http://www.w3.org/2000/svg">
<path d="M170.291 333C170.146 333 169.999 332.984 169.851 332.949C168.822 332.707 168.183 331.677 168.425 330.648C173.477 309.167 171.678 301.361 163.306 287.327C162.111 285.325 158.426 285.037 155.464 284.805C154.819 284.755 154.21 284.707 153.638 284.644C151.224 284.375 148.734 284.209 146.326 284.048C142.484 283.792 138.51 283.526 134.603 282.84C130.103 282.049 126.537 280.531 124.002 278.33C120.886 275.623 119.358 271.959 119.459 267.442C119.486 266.24 119.632 264.994 119.773 263.788C120.109 260.921 120.427 258.213 119.216 256.517C118.167 255.048 114.163 248.501 113.863 245.26C113.641 242.864 114.09 240.79 115.235 238.918C115.359 238.715 115.368 238.619 115.368 238.619C115.193 238.029 112.896 236.958 111.915 236.501C110.365 235.779 109.027 235.156 108.216 234.21C106.258 231.926 105.751 228.644 106.863 225.43C106.994 225.05 107.127 224.673 107.26 224.299C108.279 221.424 109.159 218.941 108.685 216.103C108.142 212.851 107.017 211.075 105.037 210.345C103.901 209.926 102.628 209.743 101.28 209.548C99.3539 209.27 97.3619 208.983 95.4554 207.981C92.6325 206.497 90.8836 204.5 90.2577 202.043C89.1768 197.802 91.7012 193.266 94.021 189.788C95.6048 187.413 97.2464 185.13 98.8334 182.921C102.848 177.337 106.64 172.062 109.353 165.67C112.024 159.374 112.51 152.046 112.981 144.96C113.175 142.031 113.376 139.002 113.728 136.061C115.489 121.33 122.661 107.292 134.468 95.4633C145.166 84.7465 159.114 76.494 173.743 72.2262C187.423 68.2353 202.126 66.4752 216.261 67.1356C231.44 67.8452 245.388 71.2013 257.717 77.1108C270.295 83.1391 281.496 92.3509 290.11 103.751C298.507 114.864 304.484 128.079 307.394 141.967C311.642 162.239 308.922 183.896 299.31 206.338C295.162 216.022 289.593 225.214 284.699 233.069C284.14 233.966 282.96 234.241 282.061 233.682C281.164 233.124 280.889 231.944 281.448 231.047C286.268 223.311 291.748 214.268 295.79 204.832C305.086 183.127 307.729 162.24 303.646 142.751C297.902 115.338 280.113 92.0893 256.061 80.5613C233.027 69.5212 202.655 67.7783 174.817 75.8998C149.846 83.1845 121.268 105.26 117.53 136.515C117.191 139.355 116.993 142.333 116.802 145.212C116.31 152.617 115.802 160.273 112.879 167.163C110 173.948 106.087 179.392 101.944 185.154C100.376 187.335 98.7543 189.591 97.2077 191.91C95.4744 194.509 93.2529 198.289 93.969 201.099C94.3207 202.479 95.3901 203.622 97.238 204.594C98.5614 205.289 100.148 205.518 101.828 205.76C103.312 205.974 104.848 206.196 106.362 206.754C111.311 208.579 112.178 213.768 112.463 215.473C113.099 219.287 111.966 222.484 110.87 225.577C110.741 225.942 110.611 226.309 110.483 226.679C109.82 228.595 110.06 230.479 111.124 231.72C111.403 232.04 112.685 232.637 113.533 233.033C115.795 234.086 118.358 235.281 119.037 237.533C119.268 238.3 119.363 239.508 118.503 240.915C117.784 242.089 117.529 243.321 117.676 244.908C117.849 246.777 120.882 252.261 122.334 254.294C124.402 257.192 123.964 260.933 123.577 264.234C123.44 265.402 123.311 266.507 123.288 267.528C123.146 273.853 127.064 277.629 135.267 279.071C138.971 279.722 142.84 279.98 146.582 280.23C149.031 280.393 151.564 280.562 154.062 280.84C154.571 280.897 155.15 280.942 155.763 280.99C159.402 281.275 164.387 281.665 166.596 285.367C170.798 292.411 173.792 298.597 174.747 305.895C175.619 312.557 174.868 319.982 172.154 331.524C171.946 332.405 171.16 333 170.291 333Z" fill="#7A6DD3"/>
<path d="M225.728 166.305C225.227 166.302 224.738 166.152 224.323 165.872C223.908 165.592 223.585 165.196 223.396 164.732C223.206 164.269 223.158 163.76 223.258 163.269C223.358 162.779 223.6 162.329 223.956 161.976L236.789 149.143L223.956 136.309C223.541 135.825 223.325 135.202 223.349 134.565C223.374 133.928 223.638 133.324 224.089 132.873C224.539 132.422 225.144 132.158 225.781 132.133C226.418 132.109 227.041 132.325 227.525 132.74L242.156 147.345C242.393 147.581 242.581 147.861 242.71 148.169C242.838 148.478 242.904 148.809 242.904 149.143C242.904 149.477 242.838 149.808 242.71 150.116C242.581 150.425 242.393 150.705 242.156 150.94L227.525 165.545C227.291 165.784 227.011 165.975 226.702 166.105C226.394 166.235 226.063 166.303 225.728 166.305ZM190.948 165.545C191.42 165.071 191.684 164.429 191.684 163.761C191.684 163.092 191.42 162.45 190.948 161.976L178.115 149.143L190.948 136.309C191.363 135.825 191.58 135.202 191.555 134.565C191.531 133.928 191.266 133.324 190.816 132.873C190.365 132.422 189.761 132.158 189.124 132.133C188.486 132.109 187.864 132.325 187.379 132.74L172.749 147.345C172.511 147.581 172.323 147.861 172.195 148.169C172.066 148.478 172 148.809 172 149.143C172 149.477 172.066 149.808 172.195 150.116C172.323 150.425 172.511 150.705 172.749 150.94L187.379 165.545C187.614 165.784 187.893 165.975 188.202 166.105C188.51 166.235 188.842 166.303 189.177 166.305C189.844 166.295 190.481 166.022 190.948 165.545ZM202.39 164.912L216.995 135.651C217.295 135.053 217.347 134.361 217.138 133.725C216.929 133.09 216.477 132.563 215.881 132.259C215.286 131.967 214.6 131.92 213.97 132.128C213.341 132.336 212.818 132.783 212.515 133.373L197.884 162.634C197.584 163.232 197.532 163.924 197.741 164.56C197.95 165.196 198.402 165.723 198.998 166.026C199.352 166.202 199.741 166.297 200.137 166.305C200.604 166.303 201.062 166.172 201.46 165.927C201.857 165.681 202.179 165.33 202.39 164.912Z" fill="#7A6DD3"/>
</svg>
