<svg width="400" height="400" viewBox="0 0 400 400" fill="none" xmlns="http://www.w3.org/2000/svg">
<path d="M176 200L87 200" stroke="#7A6DD3" stroke-width="2"/>
<path d="M313 203H236" stroke="#7A6DD3" stroke-width="2"/>
<path d="M80.5 72H129C134.523 72 139 76.4772 139 82L139 176C139 181.523 143.477 186 149 186H171" stroke="#7A6DD3" stroke-width="2"/>
<path d="M191 214H132C126.477 214 122 218.477 122 224L122 318C122 323.523 117.523 328 112 328H85.5" stroke="#7A6DD3" stroke-width="2"/>
<g filter="url(#filter0_i_1727_12604)">
<circle cx="48" cy="72" r="40" fill="#060415"/>
</g>
<path d="M68.4853 79.5C68.838 79.2407 69.116 78.8929 69.2914 78.4917C69.4667 78.0905 69.5331 77.6502 69.4839 77.2152C69.4347 76.7802 69.2717 76.3658 69.0112 76.0139C68.7507 75.662 68.402 75.3851 68.0003 75.211V71.79L66.0003 72.64V75.211C65.5983 75.385 65.2494 75.662 64.9888 76.0139C64.7281 76.3659 64.565 76.7804 64.5158 77.2156C64.4666 77.6508 64.5331 78.0913 64.7086 78.4926C64.8841 78.8939 65.1623 79.2417 65.5153 79.501C65.2013 79.7317 64.9459 80.0328 64.7696 80.3802C64.5933 80.7276 64.5011 81.1115 64.5003 81.501V84C64.5003 84.2653 64.6056 84.5196 64.7932 84.7071C64.9807 84.8947 65.2351 85 65.5003 85H68.5003C68.7655 85 69.0198 84.8947 69.2074 84.7071C69.3949 84.5196 69.5003 84.2653 69.5003 84V81.5C69.4995 81.1105 69.4072 80.7266 69.2309 80.3792C69.0546 80.0318 68.7992 79.7307 68.4853 79.5Z" fill="#7A6DD3"/>
<path d="M63.0001 73.9102V81.3102C63.0055 82.1704 62.7871 83.0173 62.3663 83.7677C61.9456 84.518 61.3369 85.1461 60.6001 85.5902C56.7765 87.8233 52.4281 89.0001 48.0001 89.0001C43.5721 89.0001 39.2237 87.8233 35.4001 85.5902C34.6633 85.1461 34.0546 84.518 33.6339 83.7677C33.2131 83.0173 32.9947 82.1704 33.0001 81.3102V73.9102L45.2701 79.1002C46.1345 79.4632 47.0626 79.6502 48.0001 79.6502C48.9376 79.6502 49.8657 79.4632 50.7301 79.1002L63.0001 73.9102Z" fill="#7A6DD3"/>
<path d="M70.0362 63.2372L49.9482 54.7372C49.3309 54.4775 48.6679 54.3438 47.9982 54.3438C47.3285 54.3438 46.6655 54.4775 46.0482 54.7372L25.9602 63.2372C25.4173 63.4669 24.954 63.8514 24.6283 64.3428C24.3026 64.8342 24.1289 65.4107 24.1289 66.0002C24.1289 66.5897 24.3026 67.1662 24.6283 67.6576C24.954 68.149 25.4173 68.5335 25.9602 68.7632L46.0482 77.2632C46.6655 77.5232 47.3285 77.6571 47.9982 77.6571C48.668 77.6571 49.331 77.5232 49.9482 77.2632L70.0362 68.7632C70.5792 68.5335 71.0424 68.149 71.3681 67.6576C71.6938 67.1662 71.8675 66.5897 71.8675 66.0002C71.8675 65.4107 71.6938 64.8342 71.3681 64.3428C71.0424 63.8514 70.5792 63.4669 70.0362 63.2372Z" fill="#7A6DD3"/>
<g filter="url(#filter1_i_1727_12604)">
<circle cx="48" cy="200" r="40" fill="#060415"/>
</g>
<path d="M49.5006 183.094C41.746 182.218 35.1504 188.28 35.1504 195.851C35.1504 200.587 37.7672 204.925 41.8917 207.143V211.481C41.8917 213.117 43.2285 214.439 44.8499 214.439H45.17C45.3318 215.864 46.523 216.991 48.0011 216.991C49.4794 216.991 50.6704 215.864 50.8323 214.439H51.1504C52.7717 214.439 54.1086 213.117 54.1086 211.481V207.157C58.3042 204.925 60.8499 200.601 60.8499 195.851C60.8499 189.065 55.5871 183.793 49.5006 183.094ZM44.1815 191.584C43.5824 192.12 42.6893 192.065 42.1763 191.47C41.6499 190.887 41.6926 189.991 42.2757 189.465C43.2997 188.555 44.5228 187.915 45.9308 187.559C46.6988 187.374 47.4667 187.844 47.6516 188.598C47.8507 189.365 47.3815 190.133 46.6134 190.318C45.6749 190.56 44.8499 190.987 44.1815 191.584Z" fill="#7A6DD3"/>
<g filter="url(#filter2_i_1727_12604)">
<circle cx="48" cy="328" r="40" fill="#060415"/>
</g>
<g clip-path="url(#clip0_1727_12604)">
<path fill-rule="evenodd" clip-rule="evenodd" d="M36.649 310.785H56.0764V315.651C56.0764 316.862 57.0613 317.847 58.2727 317.847H63.1391V320.762C60.7197 324.953 58.3004 329.144 55.8805 333.334L55.7278 333.599L55.153 338.689C55.0726 339.4 55.4116 340.086 56.026 340.454C56.6397 340.822 57.405 340.798 57.9942 340.392L62.3024 337.424L63.1391 335.975V344.515C63.1391 344.901 62.8248 345.215 62.4393 345.215H36.649C36.2635 345.215 35.9492 344.901 35.9492 344.515V311.484C35.9491 311.099 36.2635 310.785 36.649 310.785ZM57.5406 310.845V315.651C57.5406 316.054 57.8695 316.383 58.2727 316.383H63.0784C63.0445 316.309 62.9963 316.24 62.9341 316.178L57.7455 310.989C57.6833 310.927 57.6149 310.879 57.5406 310.845ZM41.4844 318.988H49.5442C49.9485 318.988 50.2763 318.66 50.2763 318.256C50.2763 317.852 49.9486 317.524 49.5442 317.524H41.4844C41.0801 317.524 40.7523 317.852 40.7523 318.256C40.7523 318.66 41.0801 318.988 41.4844 318.988ZM41.4844 335.896H53.5096C53.914 335.896 54.2418 335.568 54.2418 335.163C54.2418 334.759 53.914 334.431 53.5096 334.431H41.4844C41.0801 334.431 40.7523 334.759 40.7523 335.163C40.7523 335.568 41.0801 335.896 41.4844 335.896ZM41.4844 340.122H53.5096C53.914 340.122 54.2418 339.795 54.2418 339.39C54.2418 338.986 53.914 338.658 53.5096 338.658H41.4844C41.0801 338.658 40.7523 338.986 40.7523 339.39C40.7523 339.795 41.0801 340.122 41.4844 340.122ZM41.4844 331.669H53.5096C53.914 331.669 54.2418 331.341 54.2418 330.937C54.2418 330.532 53.914 330.204 53.5096 330.204H41.4844C41.0801 330.204 40.7523 330.532 40.7523 330.937C40.7523 331.341 41.0801 331.669 41.4844 331.669ZM41.4844 327.442H57.6038C58.0081 327.442 58.336 327.114 58.336 326.71C58.336 326.305 58.0082 325.978 57.6038 325.978H41.4844C41.0801 325.978 40.7523 326.305 40.7523 326.71C40.7523 327.114 41.0801 327.442 41.4844 327.442ZM41.4844 323.215H57.6038C58.0081 323.215 58.336 322.887 58.336 322.483C58.336 322.079 58.0082 321.751 57.6038 321.751H41.4844C41.0801 321.751 40.7523 322.079 40.7523 322.483C40.7523 322.887 41.0801 323.215 41.4844 323.215ZM66.2938 318.226C65.0329 320.41 63.7719 322.594 62.5109 324.779L66.562 327.117L69.3788 322.239L71.1652 323.27L68.9583 327.092C68.7618 327.433 68.8784 327.868 69.2188 328.065C69.5591 328.261 69.9944 328.145 70.1909 327.804L72.7537 323.365C72.9502 323.025 72.8335 322.59 72.4932 322.393L70.0905 321.006L70.345 320.565C70.9882 319.451 70.6029 318.013 69.4888 317.37C68.3748 316.727 66.937 317.112 66.2938 318.226ZM65.8298 328.386L61.7787 326.047L57.5338 333.399L61.5848 335.738L65.8298 328.386ZM60.5671 336.841L57.0635 334.818L56.6079 338.853C56.5918 338.995 56.6561 339.125 56.7785 339.198C56.9008 339.271 57.0459 339.267 57.1633 339.186L60.5671 336.841Z" fill="#7A6DD3"/>
</g>
<g filter="url(#filter3_i_1727_12604)">
<rect x="156" y="160" width="88" height="80" rx="8" fill="#060415"/>
<path d="M174.65 207.332C173.524 207.332 172.548 207.166 171.721 206.834C170.894 206.495 170.243 206.02 169.768 205.408C169.299 204.79 169.035 204.061 168.977 203.221L168.967 203.064H171.799L171.809 203.162C171.854 203.514 172.004 203.823 172.258 204.09C172.512 204.357 172.85 204.565 173.273 204.715C173.697 204.865 174.178 204.939 174.719 204.939C175.253 204.939 175.718 204.861 176.115 204.705C176.512 204.549 176.822 204.334 177.043 204.061C177.264 203.781 177.375 203.462 177.375 203.104V203.094C177.375 202.632 177.186 202.264 176.809 201.99C176.438 201.71 175.816 201.479 174.943 201.297L173.449 200.994C172.004 200.701 170.943 200.216 170.266 199.539C169.595 198.855 169.26 197.98 169.26 196.912V196.902C169.266 196.036 169.497 195.278 169.953 194.627C170.415 193.976 171.05 193.471 171.857 193.113C172.665 192.755 173.589 192.576 174.631 192.576C175.725 192.576 176.665 192.752 177.453 193.104C178.241 193.455 178.853 193.94 179.289 194.559C179.732 195.171 179.982 195.877 180.041 196.678L180.051 196.805H177.277L177.258 196.688C177.206 196.342 177.066 196.043 176.838 195.789C176.61 195.535 176.307 195.337 175.93 195.193C175.559 195.044 175.126 194.969 174.631 194.969C174.143 194.969 173.716 195.04 173.352 195.184C172.993 195.327 172.714 195.529 172.512 195.789C172.31 196.043 172.209 196.346 172.209 196.697V196.707C172.209 197.156 172.395 197.524 172.766 197.811C173.137 198.097 173.736 198.325 174.562 198.494L176.047 198.797C177.538 199.096 178.622 199.565 179.299 200.203C179.982 200.835 180.324 201.701 180.324 202.801V202.811C180.324 203.735 180.096 204.536 179.641 205.213C179.185 205.89 178.531 206.414 177.678 206.785C176.831 207.15 175.822 207.332 174.65 207.332ZM186.804 207.078C185.528 207.078 184.603 206.847 184.03 206.385C183.464 205.923 183.181 205.161 183.181 204.1V198.465H181.579V196.316H183.181V193.748H186.062V196.316H188.21V198.465H186.062V203.523C186.062 204.005 186.172 204.354 186.394 204.568C186.615 204.783 186.96 204.891 187.429 204.891C187.598 204.891 187.738 204.887 187.849 204.881C187.966 204.874 188.086 204.865 188.21 204.852V206.961C188.041 206.993 187.833 207.02 187.585 207.039C187.344 207.065 187.084 207.078 186.804 207.078ZM190.198 207V196.316H193.049V198.025H193.196C193.365 197.426 193.677 196.961 194.133 196.629C194.589 196.297 195.155 196.131 195.832 196.131C196.015 196.131 196.194 196.144 196.37 196.17C196.545 196.196 196.702 196.229 196.838 196.268V198.758C196.649 198.706 196.448 198.667 196.233 198.641C196.024 198.608 195.81 198.592 195.588 198.592C195.067 198.592 194.615 198.689 194.231 198.885C193.853 199.08 193.56 199.36 193.352 199.725C193.15 200.083 193.049 200.516 193.049 201.023V207H190.198ZM201.912 207.225C201.117 207.225 200.45 207.068 199.91 206.756C199.369 206.443 198.959 205.988 198.679 205.389C198.406 204.79 198.269 204.067 198.269 203.221V196.316H201.121V202.586C201.121 203.328 201.274 203.895 201.58 204.285C201.886 204.669 202.374 204.861 203.045 204.861C203.5 204.861 203.888 204.764 204.207 204.568C204.526 204.367 204.77 204.087 204.939 203.729C205.108 203.37 205.193 202.957 205.193 202.488V196.316H208.045V207H205.193V205.33H205.046C204.799 205.916 204.408 206.378 203.875 206.717C203.341 207.055 202.686 207.225 201.912 207.225ZM210.559 207V192.322H213.411V207H210.559ZM217.278 207L213.997 202.342L216.048 200.525L220.628 207H217.278ZM213.177 203.68L213.108 200.545H213.557L217.132 196.316H220.374L215.852 201.346L214.534 202.225L213.177 203.68ZM225.242 207.186C224.35 207.186 223.579 206.964 222.928 206.521C222.277 206.072 221.775 205.438 221.424 204.617C221.072 203.79 220.896 202.807 220.896 201.668V201.648C220.896 200.503 221.069 199.52 221.414 198.699C221.766 197.872 222.264 197.238 222.908 196.795C223.559 196.352 224.334 196.131 225.232 196.131C225.975 196.131 226.629 196.303 227.195 196.648C227.762 196.993 228.182 197.462 228.455 198.055H228.602V192.322H231.453V207H228.602V205.311H228.455C228.182 205.896 227.765 206.355 227.205 206.688C226.652 207.02 225.997 207.186 225.242 207.186ZM226.209 204.822C226.704 204.822 227.13 204.695 227.488 204.441C227.853 204.188 228.133 203.826 228.328 203.357C228.53 202.882 228.631 202.319 228.631 201.668V201.648C228.631 200.997 228.53 200.438 228.328 199.969C228.126 199.493 227.843 199.129 227.479 198.875C227.12 198.621 226.697 198.494 226.209 198.494C225.714 198.494 225.285 198.621 224.92 198.875C224.562 199.129 224.285 199.493 224.09 199.969C223.895 200.438 223.797 200.997 223.797 201.648V201.668C223.797 202.319 223.895 202.882 224.09 203.357C224.285 203.826 224.562 204.188 224.92 204.441C225.285 204.695 225.714 204.822 226.209 204.822Z" fill="#7A6DD3"/>
</g>
<g filter="url(#filter4_i_1727_12604)">
<circle cx="352" cy="200" r="40" fill="#060415"/>
</g>
<g clip-path="url(#clip1_1727_12604)">
<path d="M361.219 190.232C361.219 195.442 356.996 199.665 351.787 199.665C346.577 199.665 342.354 195.442 342.354 190.232C342.354 185.023 346.577 180.8 351.787 180.8C356.996 180.8 361.219 185.023 361.219 190.232ZM368.339 216.581C367.014 209.077 360.094 203.36 351.774 203.36C343.455 203.36 336.554 209.078 335.234 216.582C334.993 217.955 336.116 219.2 337.51 219.2H366.063C367.457 219.2 368.581 217.954 368.339 216.581Z" fill="#7A6DD3"/>
</g>
<defs>
<filter id="filter0_i_1727_12604" x="8" y="32" width="80" height="80" filterUnits="userSpaceOnUse" color-interpolation-filters="sRGB">
<feFlood flood-opacity="0" result="BackgroundImageFix"/>
<feBlend mode="normal" in="SourceGraphic" in2="BackgroundImageFix" result="shape"/>
<feColorMatrix in="SourceAlpha" type="matrix" values="0 0 0 0 0 0 0 0 0 0 0 0 0 0 0 0 0 0 127 0" result="hardAlpha"/>
<feOffset/>
<feGaussianBlur stdDeviation="6"/>
<feComposite in2="hardAlpha" operator="arithmetic" k2="-1" k3="1"/>
<feColorMatrix type="matrix" values="0 0 0 0 0.478431 0 0 0 0 0.427451 0 0 0 0 0.827451 0 0 0 0.8 0"/>
<feBlend mode="normal" in2="shape" result="effect1_innerShadow_1727_12604"/>
</filter>
<filter id="filter1_i_1727_12604" x="8" y="160" width="80" height="80" filterUnits="userSpaceOnUse" color-interpolation-filters="sRGB">
<feFlood flood-opacity="0" result="BackgroundImageFix"/>
<feBlend mode="normal" in="SourceGraphic" in2="BackgroundImageFix" result="shape"/>
<feColorMatrix in="SourceAlpha" type="matrix" values="0 0 0 0 0 0 0 0 0 0 0 0 0 0 0 0 0 0 127 0" result="hardAlpha"/>
<feOffset/>
<feGaussianBlur stdDeviation="6"/>
<feComposite in2="hardAlpha" operator="arithmetic" k2="-1" k3="1"/>
<feColorMatrix type="matrix" values="0 0 0 0 0.478431 0 0 0 0 0.427451 0 0 0 0 0.827451 0 0 0 0.8 0"/>
<feBlend mode="normal" in2="shape" result="effect1_innerShadow_1727_12604"/>
</filter>
<filter id="filter2_i_1727_12604" x="8" y="288" width="80" height="80" filterUnits="userSpaceOnUse" color-interpolation-filters="sRGB">
<feFlood flood-opacity="0" result="BackgroundImageFix"/>
<feBlend mode="normal" in="SourceGraphic" in2="BackgroundImageFix" result="shape"/>
<feColorMatrix in="SourceAlpha" type="matrix" values="0 0 0 0 0 0 0 0 0 0 0 0 0 0 0 0 0 0 127 0" result="hardAlpha"/>
<feOffset/>
<feGaussianBlur stdDeviation="6"/>
<feComposite in2="hardAlpha" operator="arithmetic" k2="-1" k3="1"/>
<feColorMatrix type="matrix" values="0 0 0 0 0.478431 0 0 0 0 0.427451 0 0 0 0 0.827451 0 0 0 0.8 0"/>
<feBlend mode="normal" in2="shape" result="effect1_innerShadow_1727_12604"/>
</filter>
<filter id="filter3_i_1727_12604" x="156" y="160" width="88" height="80" filterUnits="userSpaceOnUse" color-interpolation-filters="sRGB">
<feFlood flood-opacity="0" result="BackgroundImageFix"/>
<feBlend mode="normal" in="SourceGraphic" in2="BackgroundImageFix" result="shape"/>
<feColorMatrix in="SourceAlpha" type="matrix" values="0 0 0 0 0 0 0 0 0 0 0 0 0 0 0 0 0 0 127 0" result="hardAlpha"/>
<feOffset/>
<feGaussianBlur stdDeviation="6"/>
<feComposite in2="hardAlpha" operator="arithmetic" k2="-1" k3="1"/>
<feColorMatrix type="matrix" values="0 0 0 0 0.478431 0 0 0 0 0.427451 0 0 0 0 0.827451 0 0 0 0.8 0"/>
<feBlend mode="normal" in2="shape" result="effect1_innerShadow_1727_12604"/>
</filter>
<filter id="filter4_i_1727_12604" x="312" y="160" width="80" height="80" filterUnits="userSpaceOnUse" color-interpolation-filters="sRGB">
<feFlood flood-opacity="0" result="BackgroundImageFix"/>
<feBlend mode="normal" in="SourceGraphic" in2="BackgroundImageFix" result="shape"/>
<feColorMatrix in="SourceAlpha" type="matrix" values="0 0 0 0 0 0 0 0 0 0 0 0 0 0 0 0 0 0 127 0" result="hardAlpha"/>
<feOffset/>
<feGaussianBlur stdDeviation="6"/>
<feComposite in2="hardAlpha" operator="arithmetic" k2="-1" k3="1"/>
<feColorMatrix type="matrix" values="0 0 0 0 0.478431 0 0 0 0 0.427451 0 0 0 0 0.827451 0 0 0 0.8 0"/>
<feBlend mode="normal" in2="shape" result="effect1_innerShadow_1727_12604"/>
</filter>
<clipPath id="clip0_1727_12604">
<rect width="38.4" height="38.4" fill="white" transform="translate(35.1992 308.8)"/>
</clipPath>
<clipPath id="clip1_1727_12604">
<rect width="38.4" height="38.4" fill="white" transform="translate(332.801 180.8)"/>
</clipPath>
</defs>
</svg>
