<svg width="400" height="400" viewBox="0 0 400 400" fill="none" xmlns="http://www.w3.org/2000/svg">
<path d="M200 192C200 198.5 200 274 200 274" stroke="#7A6DD3" stroke-width="2"/>
<path d="M72 274.5L72 228C72 222.477 76.4772 218 82.0001 218L176 218C181.523 218 186 213.523 186 208L186 192" stroke="#7A6DD3" stroke-width="2"/>
<path d="M214 192L214 230C214 235.523 218.477 240 224 240L318 240C323.523 240 328 244.477 328 250L328 272" stroke="#7A6DD3" stroke-width="2"/>
<path d="M270.349 194.386H130.277C102.554 194.386 80 171.832 80 144.111C80 116.391 102.554 93.8369 130.277 93.8369C134.698 93.8369 139.08 94.4136 143.324 95.5522C148.256 68.3264 172.464 48 200.313 48C228.166 48 252.371 68.3264 257.3 95.5522C261.547 94.4136 265.929 93.8369 270.349 93.8369C298.073 93.8369 320.627 116.391 320.627 144.111C320.627 171.832 298.07 194.386 270.349 194.386ZM130.277 96.7612C104.17 96.7612 82.9272 118.001 82.9272 144.109C82.9272 170.216 104.17 191.456 130.277 191.456H270.349C296.457 191.456 317.7 170.216 317.7 144.109C317.7 118.001 296.457 96.7612 270.349 96.7612C265.66 96.7612 261.018 97.4491 256.551 98.8102L254.929 99.302L254.677 97.6276C250.655 71.0019 227.285 50.9243 200.313 50.9243C173.342 50.9243 149.972 71.0019 145.947 97.6276L145.695 99.302L144.073 98.8102C139.609 97.4491 134.967 96.7612 130.277 96.7612Z" fill="#7A6DD3"/>
<path d="M203.542 171C201.966 171 200.6 169.926 200.227 168.397L197.955 163.381C197.083 163.261 196.22 163.094 195.361 162.87L191.891 166.826C191.294 167.899 188.966 168.599 187.429 167.667L182.228 164.511C180.617 163.527 180.102 161.423 181.081 159.817L183.018 154.668C182.481 153.963 181.992 153.233 181.541 152.473L175.859 152.86C174.283 152.86 172.922 151.79 172.544 150.257L171.101 144.348C170.882 143.463 171.023 142.548 171.496 141.762C171.968 140.981 172.72 140.431 173.609 140.216L178.62 137.944C178.736 137.073 178.908 136.209 179.131 135.355L175.168 131.885C173.875 131.137 173.36 129.033 174.326 127.427L177.482 122.222C178.431 120.667 180.635 120.13 182.181 121.075L187.33 123.012C188.03 122.479 188.764 121.986 189.524 121.539L189.181 116.291C189.022 115.788 189.159 114.865 189.632 114.084C190.108 113.302 190.86 112.757 191.745 112.542L198.457 111C200.033 111 201.399 112.074 201.777 113.603L204.045 118.619C204.921 118.739 205.788 118.906 206.638 119.13L210.109 115.17C210.705 114.096 213.02 113.392 214.575 114.333L219.771 117.481C221.373 118.46 221.889 120.56 220.927 122.17L218.981 127.328C219.518 128.028 220.008 128.763 220.459 129.523L226.136 129.136C227.712 129.136 229.074 130.205 229.451 131.734L230.899 137.639C231.345 139.478 230.216 141.329 228.391 141.771L223.379 144.043C223.263 144.915 223.091 145.782 222.868 146.637L226.827 150.107C227.291 150.343 227.841 151.09 228.064 151.979C228.283 152.868 228.142 153.792 227.661 154.573L224.513 159.765C223.576 161.311 221.365 161.857 219.814 160.908L214.669 158.975C213.969 159.508 213.235 159.997 212.475 160.448L212.818 165.696C212.977 166.199 212.84 167.118 212.367 167.899C211.895 168.681 211.144 169.231 210.255 169.445L203.542 171ZM194.334 158.069L195.365 158.404C196.602 158.803 197.882 159.074 199.166 159.203L199.78 159.357C200.849 159.804 201.652 160.736 201.932 161.848L204.062 166.547L208.537 165.451L208.172 159.941C208.112 159.813 208.103 159.332 208.185 158.846L208.365 157.781L209.327 157.292C210.486 156.699 211.577 155.986 212.578 155.17L213.123 154.844C214.188 154.406 215.425 154.496 216.409 155.088L221.236 156.905L223.628 152.967L219.471 149.325C219.355 149.291 218.994 148.951 218.698 148.535L218.075 147.655L218.406 146.628C218.805 145.4 219.076 144.124 219.204 142.832L219.355 142.226C219.793 141.157 220.729 140.345 221.85 140.066L226.553 137.936L225.457 133.474L219.479 133.869C219.26 133.869 219.046 133.852 218.844 133.813L217.783 133.633L217.293 132.671C216.701 131.515 215.988 130.425 215.172 129.424L214.85 128.887C214.403 127.813 214.493 126.581 215.09 125.589L216.911 120.762L212.973 118.374L209.327 122.527C209.297 122.643 208.953 123.008 208.528 123.308L207.648 123.922L206.634 123.592C205.402 123.192 204.126 122.922 202.838 122.793L202.228 122.638C201.159 122.196 200.347 121.264 200.068 120.143L197.933 115.423L193.467 116.536L193.828 122.054C193.888 122.153 193.905 122.651 193.819 123.154L193.639 124.219L192.672 124.708C191.517 125.297 190.431 126.01 189.43 126.83L188.889 127.152C187.82 127.594 186.583 127.504 185.591 126.916L180.763 125.099L178.371 129.037L182.529 132.679C182.636 132.701 183.005 133.044 183.306 133.469L183.929 134.346L183.598 135.372C183.194 136.604 182.928 137.884 182.799 139.168L182.644 139.791C182.194 140.852 181.266 141.655 180.158 141.934L175.451 144.064L176.542 148.531L182.529 148.136C182.739 148.136 182.949 148.153 183.156 148.187L184.225 148.363L184.715 149.329C185.307 150.485 186.02 151.576 186.836 152.576L187.167 153.134C187.605 154.208 187.515 155.398 186.926 156.394L185.097 161.238L189.035 163.626L192.677 159.473C192.72 159.349 193.055 158.997 193.454 158.709L194.334 158.069ZM200.991 151.885C195.971 151.885 191.625 148.475 190.431 143.588C189.005 137.755 192.587 131.855 198.41 130.429C204.186 129.007 210.169 132.683 211.564 138.417C212.256 141.238 211.809 144.163 210.302 146.65C208.79 149.136 206.407 150.884 203.585 151.575C202.735 151.782 201.863 151.885 200.991 151.885ZM201.004 134.41C200.48 134.41 199.952 134.474 199.432 134.599C195.911 135.462 193.742 139.035 194.601 142.565C195.455 146.04 199.093 148.273 202.563 147.397C204.272 146.98 205.719 145.919 206.63 144.416C207.545 142.913 207.815 141.144 207.399 139.435C206.673 136.476 204.049 134.41 201.004 134.41Z" fill="#7A6DD3"/>
<g filter="url(#filter0_i_1727_12668)">
<circle cx="72" cy="312" r="40" fill="#060415"/>
</g>
<path d="M57.5996 311.2H62.3996V321.6H57.5996V311.2Z" fill="#7A6DD3"/>
<path d="M65.5996 311.2H70.3996V321.6H65.5996V311.2Z" fill="#7A6DD3"/>
<path d="M73.5996 311.2H78.3996V321.6H73.5996V311.2Z" fill="#7A6DD3"/>
<path d="M81.5996 311.2H86.3996V321.6H81.5996V311.2Z" fill="#7A6DD3"/>
<path d="M56.8008 307.2V308.8C56.8008 309.012 56.8851 309.216 57.0351 309.366C57.1851 309.516 57.3886 309.6 57.6008 309.6H62.4008C62.613 309.6 62.8164 309.516 62.9665 309.366C63.1165 309.216 63.2008 309.012 63.2008 308.8V307.2H56.8008Z" fill="#7A6DD3"/>
<path d="M64.8008 307.2V308.8C64.8008 309.012 64.8851 309.216 65.0351 309.366C65.1851 309.516 65.3886 309.6 65.6008 309.6H70.4008C70.613 309.6 70.8164 309.516 70.9665 309.366C71.1165 309.216 71.2008 309.012 71.2008 308.8V307.2H64.8008Z" fill="#7A6DD3"/>
<path d="M72.8008 307.2V308.8C72.8008 309.012 72.8851 309.216 73.0351 309.366C73.1851 309.516 73.3886 309.6 73.6008 309.6H78.4008C78.613 309.6 78.8164 309.516 78.9665 309.366C79.1165 309.216 79.2008 309.012 79.2008 308.8V307.2H72.8008Z" fill="#7A6DD3"/>
<path d="M80.8008 307.2V308.8C80.8008 309.012 80.8851 309.216 81.0351 309.366C81.1851 309.516 81.3886 309.6 81.6008 309.6H86.4008C86.613 309.6 86.8164 309.516 86.9665 309.366C87.1165 309.216 87.2008 309.012 87.2008 308.8V307.2H80.8008Z" fill="#7A6DD3"/>
<path d="M87.2012 323.146H56.8012C55.9175 323.146 55.2012 323.862 55.2012 324.746V326.346C55.2012 327.229 55.9175 327.946 56.8012 327.946H87.2012C88.0848 327.946 88.8012 327.229 88.8012 326.346V324.746C88.8012 323.862 88.0848 323.146 87.2012 323.146Z" fill="#7A6DD3"/>
<path d="M88.5036 300.616L72.4052 295.28C72.0766 295.171 71.7218 295.171 71.3932 295.28L55.4908 300.616C55.1732 300.723 54.8971 300.927 54.7015 301.199C54.5058 301.471 54.4005 301.797 54.4004 302.132V304C54.4004 304.424 54.569 304.831 54.869 305.131C55.1691 305.432 55.576 305.6 56.0004 305.6H88.0004C88.4247 305.6 88.8317 305.432 89.1318 305.131C89.4318 304.831 89.6004 304.424 89.6004 304V302.134C89.6003 301.798 89.4943 301.471 89.2974 301.198C89.1005 300.925 88.8228 300.722 88.5036 300.616Z" fill="#7A6DD3"/>
<g filter="url(#filter1_i_1727_12668)">
<circle cx="328" cy="312" r="40" fill="#060415"/>
</g>
<g clip-path="url(#clip0_1727_12668)">
<path d="M337.368 306.482C337.107 306.057 336.644 305.798 336.145 305.798H329.541L333.11 294.673C333.25 294.236 333.174 293.759 332.903 293.389C332.634 293.019 332.203 292.8 331.745 292.8H325.18C324.557 292.8 324.004 293.203 323.815 293.796L318.49 310.391C318.351 310.828 318.427 311.305 318.697 311.676C318.967 312.045 319.398 312.264 319.856 312.264H321.012H326.312L324.601 330.536C324.574 330.827 324.757 331.095 325.038 331.176C325.317 331.257 325.615 331.129 325.747 330.868L337.425 307.883C337.65 307.437 337.629 306.908 337.368 306.482Z" fill="#7A6DD3"/>
</g>
<g filter="url(#filter2_i_1727_12668)">
<circle cx="201" cy="312" r="40" fill="#060415"/>
</g>
<g clip-path="url(#clip1_1727_12668)">
<path d="M182.868 317.367H187.134C187.723 317.367 188.201 317.844 188.201 318.433V329.1C188.201 329.689 187.723 330.167 187.134 330.167H182.868C182.279 330.167 181.801 329.689 181.801 329.1V318.433C181.801 317.844 182.279 317.367 182.868 317.367Z" fill="#7A6DD3"/>
<path d="M193.533 308.833H197.8C198.389 308.833 198.867 309.311 198.867 309.9V329.1C198.867 329.689 198.389 330.167 197.8 330.167H193.533C192.944 330.167 192.467 329.689 192.467 329.1V309.9C192.467 309.311 192.944 308.833 193.533 308.833Z" fill="#7A6DD3"/>
<path d="M204.202 313.1H208.468C209.057 313.1 209.535 313.578 209.535 314.167V329.1C209.535 329.689 209.057 330.167 208.468 330.167H204.202C203.612 330.167 203.135 329.689 203.135 329.1V314.167C203.135 313.578 203.612 313.1 204.202 313.1Z" fill="#7A6DD3"/>
<path d="M214.868 306.7H219.134C219.723 306.7 220.201 307.178 220.201 307.767V329.1C220.201 329.689 219.723 330.167 219.134 330.167H214.868C214.279 330.167 213.801 329.689 213.801 329.1V307.767C213.801 307.178 214.279 306.7 214.868 306.7Z" fill="#7A6DD3"/>
<path d="M217.001 293.9C215.234 293.902 213.803 295.334 213.801 297.1C213.805 297.449 213.867 297.794 213.984 298.122L208.644 301.296C207.943 300.553 206.927 300.193 205.914 300.328C204.902 300.464 204.016 301.079 203.536 301.98L198.826 299.647C198.849 299.51 198.863 299.372 198.868 299.233C198.87 297.938 198.091 296.769 196.895 296.272C195.699 295.775 194.321 296.048 193.405 296.964C192.489 297.879 192.215 299.257 192.712 300.453L186.602 305.013C186.118 304.724 185.565 304.57 185.001 304.567C183.234 304.567 181.801 305.999 181.801 307.767C181.801 309.534 183.234 310.967 185.001 310.967C186.768 310.967 188.201 309.534 188.201 307.767C188.198 307.382 188.125 307.001 187.986 306.642L194.157 302.037C195.364 302.71 196.869 302.513 197.862 301.551L203.218 304.204C203.575 305.794 205.071 306.861 206.691 306.681C208.311 306.5 209.536 305.13 209.534 303.5C209.534 303.419 209.516 303.342 209.51 303.263L215.318 299.81C215.821 300.128 216.405 300.298 217.001 300.3C218.768 300.3 220.201 298.867 220.201 297.1C220.201 295.333 218.768 293.9 217.001 293.9Z" fill="#7A6DD3"/>
</g>
<defs>
<filter id="filter0_i_1727_12668" x="32" y="272" width="80" height="80" filterUnits="userSpaceOnUse" color-interpolation-filters="sRGB">
<feFlood flood-opacity="0" result="BackgroundImageFix"/>
<feBlend mode="normal" in="SourceGraphic" in2="BackgroundImageFix" result="shape"/>
<feColorMatrix in="SourceAlpha" type="matrix" values="0 0 0 0 0 0 0 0 0 0 0 0 0 0 0 0 0 0 127 0" result="hardAlpha"/>
<feOffset/>
<feGaussianBlur stdDeviation="6"/>
<feComposite in2="hardAlpha" operator="arithmetic" k2="-1" k3="1"/>
<feColorMatrix type="matrix" values="0 0 0 0 0.478431 0 0 0 0 0.427451 0 0 0 0 0.827451 0 0 0 0.8 0"/>
<feBlend mode="normal" in2="shape" result="effect1_innerShadow_1727_12668"/>
</filter>
<filter id="filter1_i_1727_12668" x="288" y="272" width="80" height="80" filterUnits="userSpaceOnUse" color-interpolation-filters="sRGB">
<feFlood flood-opacity="0" result="BackgroundImageFix"/>
<feBlend mode="normal" in="SourceGraphic" in2="BackgroundImageFix" result="shape"/>
<feColorMatrix in="SourceAlpha" type="matrix" values="0 0 0 0 0 0 0 0 0 0 0 0 0 0 0 0 0 0 127 0" result="hardAlpha"/>
<feOffset/>
<feGaussianBlur stdDeviation="6"/>
<feComposite in2="hardAlpha" operator="arithmetic" k2="-1" k3="1"/>
<feColorMatrix type="matrix" values="0 0 0 0 0.478431 0 0 0 0 0.427451 0 0 0 0 0.827451 0 0 0 0.8 0"/>
<feBlend mode="normal" in2="shape" result="effect1_innerShadow_1727_12668"/>
</filter>
<filter id="filter2_i_1727_12668" x="161" y="272" width="80" height="80" filterUnits="userSpaceOnUse" color-interpolation-filters="sRGB">
<feFlood flood-opacity="0" result="BackgroundImageFix"/>
<feBlend mode="normal" in="SourceGraphic" in2="BackgroundImageFix" result="shape"/>
<feColorMatrix in="SourceAlpha" type="matrix" values="0 0 0 0 0 0 0 0 0 0 0 0 0 0 0 0 0 0 127 0" result="hardAlpha"/>
<feOffset/>
<feGaussianBlur stdDeviation="6"/>
<feComposite in2="hardAlpha" operator="arithmetic" k2="-1" k3="1"/>
<feColorMatrix type="matrix" values="0 0 0 0 0.478431 0 0 0 0 0.427451 0 0 0 0 0.827451 0 0 0 0.8 0"/>
<feBlend mode="normal" in2="shape" result="effect1_innerShadow_1727_12668"/>
</filter>
<clipPath id="clip0_1727_12668">
<rect width="38.4" height="38.4" fill="white" transform="translate(308.801 292.8)"/>
</clipPath>
<clipPath id="clip1_1727_12668">
<rect width="38.4" height="38.4" fill="white" transform="translate(181.801 292.8)"/>
</clipPath>
</defs>
</svg>
