<svg width="400" height="400" viewBox="0 0 400 400" fill="none" xmlns="http://www.w3.org/2000/svg">
<rect x="113" y="91" width="174" height="218" rx="15" stroke="#7A6DD3" stroke-width="2"/>
<rect x="138" y="227" width="16" height="6" rx="3" fill="#7A6DD3"/>
<rect x="166" y="227" width="100" height="6" rx="3" fill="#7A6DD3"/>
<rect x="138" y="249" width="16" height="6" rx="3" fill="#7A6DD3"/>
<rect x="166" y="249" width="100" height="6" rx="3" fill="#7A6DD3"/>
<rect x="138" y="271" width="16" height="6" rx="3" fill="#7A6DD3"/>
<rect x="166" y="271" width="100" height="6" rx="3" fill="#7A6DD3"/>
<rect x="135" y="111" width="52" height="6" rx="3" fill="#7A6DD3"/>
<rect x="135" y="133" width="52" height="6" rx="3" fill="#7A6DD3"/>
<rect x="135" y="155" width="52" height="6" rx="3" fill="#7A6DD3"/>
<circle cx="233" cy="136" r="28.5" stroke="#7A6DD3" stroke-width="3"/>
<path d="M231.448 153.485V148.376L232.345 149.234C230.447 149.182 228.653 148.896 226.963 148.376C225.299 147.83 223.856 147.076 222.634 146.114L224.155 142.175C224.961 142.773 225.819 143.293 226.729 143.735C227.665 144.151 228.64 144.476 229.654 144.71C230.694 144.918 231.799 145.022 232.969 145.022C234.867 145.022 236.258 144.684 237.142 144.008C238.026 143.332 238.468 142.487 238.468 141.473C238.468 140.563 238.169 139.835 237.571 139.289C236.973 138.743 235.907 138.301 234.373 137.963L230.239 137.066C227.899 136.546 226.131 135.688 224.935 134.492C223.765 133.27 223.18 131.658 223.18 129.656C223.18 128.122 223.557 126.757 224.311 125.561C225.065 124.339 226.118 123.364 227.47 122.636C228.822 121.908 230.408 121.479 232.228 121.349L231.448 121.934V117.02H235.348V121.934L234.529 121.31C236.011 121.388 237.467 121.687 238.897 122.207C240.353 122.727 241.562 123.481 242.524 124.469L241.042 128.213C240.054 127.303 238.923 126.627 237.649 126.185C236.375 125.717 234.984 125.483 233.476 125.483C231.864 125.483 230.564 125.86 229.576 126.614C228.614 127.342 228.133 128.304 228.133 129.5C228.133 130.384 228.432 131.099 229.03 131.645C229.628 132.191 230.59 132.607 231.916 132.893L236.05 133.79C238.546 134.336 240.392 135.207 241.588 136.403C242.81 137.573 243.421 139.133 243.421 141.083C243.421 142.591 243.044 143.93 242.29 145.1C241.536 146.244 240.496 147.167 239.17 147.869C237.87 148.545 236.349 148.974 234.607 149.156L235.348 148.337V153.485H231.448Z" fill="#7A6DD3"/>
</svg>
