<svg width="37" height="24" viewBox="0 0 37 24" fill="none" xmlns="http://www.w3.org/2000/svg">
<rect width="37" height="24" rx="2" fill="#FE696B"/>
<path d="M10.1094 17V14.584H4.90938V13.592L10.3334 5.72H11.4374V13.464H13.1174V14.584H11.4374V17H10.1094ZM10.1094 13.464V7.304H10.4934L6.02938 13.816V13.464H10.1094ZM18.5031 17.144C17.6498 17.144 16.9245 16.9253 16.3271 16.488C15.7405 16.04 15.2978 15.384 14.9991 14.52C14.7005 13.656 14.5511 12.6 14.5511 11.352C14.5511 10.0933 14.7005 9.03733 14.9991 8.184C15.2978 7.32 15.7405 6.66933 16.3271 6.232C16.9245 5.79467 17.6498 5.576 18.5031 5.576C19.3671 5.576 20.0925 5.79467 20.6791 6.232C21.2658 6.66933 21.7085 7.31467 22.0071 8.168C22.3058 9.02133 22.4551 10.0773 22.4551 11.336C22.4551 12.5947 22.3058 13.656 22.0071 14.52C21.7085 15.384 21.2658 16.04 20.6791 16.488C20.0925 16.9253 19.3671 17.144 18.5031 17.144ZM18.5031 16.008C19.3991 16.008 20.0605 15.6293 20.4871 14.872C20.9245 14.1147 21.1431 12.936 21.1431 11.336C21.1431 9.736 20.9298 8.568 20.5031 7.832C20.0765 7.08533 19.4098 6.712 18.5031 6.712C17.6178 6.712 16.9565 7.08533 16.5191 7.832C16.0818 8.57867 15.8631 9.74667 15.8631 11.336C15.8631 12.936 16.0765 14.1147 16.5031 14.872C16.9405 15.6293 17.6071 16.008 18.5031 16.008ZM28.1289 17.144C27.2755 17.144 26.5502 16.9253 25.9529 16.488C25.3662 16.04 24.9235 15.384 24.6249 14.52C24.3262 13.656 24.1769 12.6 24.1769 11.352C24.1769 10.0933 24.3262 9.03733 24.6249 8.184C24.9235 7.32 25.3662 6.66933 25.9529 6.232C26.5502 5.79467 27.2755 5.576 28.1289 5.576C28.9929 5.576 29.7182 5.79467 30.3049 6.232C30.8915 6.66933 31.3342 7.31467 31.6329 8.168C31.9315 9.02133 32.0809 10.0773 32.0809 11.336C32.0809 12.5947 31.9315 13.656 31.6329 14.52C31.3342 15.384 30.8915 16.04 30.3049 16.488C29.7182 16.9253 28.9929 17.144 28.1289 17.144ZM28.1289 16.008C29.0249 16.008 29.6862 15.6293 30.1129 14.872C30.5502 14.1147 30.7689 12.936 30.7689 11.336C30.7689 9.736 30.5555 8.568 30.1289 7.832C29.7022 7.08533 29.0355 6.712 28.1289 6.712C27.2435 6.712 26.5822 7.08533 26.1449 7.832C25.7075 8.57867 25.4889 9.74667 25.4889 11.336C25.4889 12.936 25.7022 14.1147 26.1289 14.872C26.5662 15.6293 27.2329 16.008 28.1289 16.008Z" fill="#FEEEEE"/>
</svg>
