<svg width="48" height="16" viewBox="0 0 48 16" fill="none" xmlns="http://www.w3.org/2000/svg">
<rect width="48" height="16" rx="2" fill="#FE696B"/>
<path d="M13.811 12V3.54H16.667C18.035 3.54 19.091 3.904 19.835 4.632C20.579 5.352 20.951 6.396 20.951 7.764C20.951 9.132 20.579 10.18 19.835 10.908C19.091 11.636 18.035 12 16.667 12H13.811ZM14.795 11.16H16.595C18.803 11.16 19.907 10.028 19.907 7.764C19.907 5.508 18.803 4.38 16.595 4.38H14.795V11.16ZM22.7413 12V3.54H28.0813V4.368H23.7013V7.296H27.8293V8.124H23.7013V11.172H28.0813V12H22.7413ZM29.7614 12V3.54H30.7454V11.136H35.0534V12H29.7614Z" fill="#FEEEEE"/>
</svg>
