<svg width="48" height="16" viewBox="0 0 48 16" fill="none" xmlns="http://www.w3.org/2000/svg">
<rect width="48" height="16" rx="2" fill="#2DB296"/>
<path d="M17.4992 12.108C16.1392 12.108 15.1032 11.724 14.3912 10.956C13.6792 10.188 13.3232 9.128 13.3232 7.776C13.3232 6.88 13.4832 6.108 13.8032 5.46C14.1232 4.812 14.5832 4.312 15.1832 3.96C15.7832 3.608 16.5072 3.432 17.3552 3.432C17.9552 3.432 18.5072 3.524 19.0112 3.708C19.5152 3.884 19.9432 4.144 20.2952 4.488L19.9112 5.28C19.5272 4.944 19.1312 4.7 18.7232 4.548C18.3152 4.396 17.8552 4.32 17.3432 4.32C16.3832 4.32 15.6472 4.624 15.1352 5.232C14.6232 5.832 14.3672 6.68 14.3672 7.776C14.3672 8.896 14.6312 9.752 15.1592 10.344C15.6872 10.936 16.4752 11.232 17.5232 11.232C18.2032 11.232 18.8552 11.116 19.4792 10.884V8.376H17.3312V7.596H20.3312V11.508C20.1072 11.628 19.8352 11.732 19.5152 11.82C19.2032 11.908 18.8712 11.976 18.5192 12.024C18.1672 12.08 17.8272 12.108 17.4992 12.108ZM22.3663 12V3.54H27.7063V4.368H23.3263V7.296H27.4543V8.124H23.3263V11.172H27.7063V12H22.3663ZM31.31 12V4.392H28.238V3.54H35.378V4.392H32.306V12H31.31Z" fill="#FEF6EA"/>
</svg>
