<svg width="48" height="16" viewBox="0 0 48 16" fill="none" xmlns="http://www.w3.org/2000/svg">
<rect width="48" height="16" rx="2" fill="#FBB343"/>
<path d="M5.76553 12V3.54H9.11353C10.0255 3.54 10.7215 3.76 11.2015 4.2C11.6895 4.64 11.9335 5.268 11.9335 6.084C11.9335 6.892 11.6895 7.52 11.2015 7.968C10.7215 8.408 10.0255 8.628 9.11353 8.628H6.74953V12H5.76553ZM6.74953 7.8H8.99353C10.3055 7.8 10.9615 7.228 10.9615 6.084C10.9615 4.932 10.3055 4.356 8.99353 4.356H6.74953V7.8ZM11.7118 12L15.4438 3.54H16.2838L20.0158 12H18.9958L18.0598 9.84H13.6558L12.7318 12H11.7118ZM15.8518 4.692L14.0158 9.012H17.7118L15.8758 4.692H15.8518ZM22.4559 12V4.392H19.3839V3.54H26.5239V4.392H23.4519V12H22.4559ZM30.7553 12.108C29.9233 12.108 29.2113 11.932 28.6193 11.58C28.0273 11.228 27.5713 10.728 27.2513 10.08C26.9393 9.432 26.7833 8.66 26.7833 7.764C26.7833 6.876 26.9393 6.108 27.2513 5.46C27.5713 4.812 28.0273 4.312 28.6193 3.96C29.2113 3.608 29.9233 3.432 30.7553 3.432C31.3393 3.432 31.8753 3.524 32.3633 3.708C32.8593 3.892 33.2793 4.16 33.6233 4.512L33.2393 5.316C32.8713 4.972 32.4873 4.724 32.0873 4.572C31.6953 4.412 31.2593 4.332 30.7793 4.332C29.8273 4.332 29.0993 4.632 28.5953 5.232C28.0913 5.832 27.8393 6.676 27.8393 7.764C27.8393 8.86 28.0913 9.708 28.5953 10.308C29.0993 10.908 29.8273 11.208 30.7793 11.208C31.2593 11.208 31.6953 11.132 32.0873 10.98C32.4873 10.82 32.8713 10.568 33.2393 10.224L33.6233 11.028C33.2793 11.372 32.8593 11.64 32.3633 11.832C31.8753 12.016 31.3393 12.108 30.7553 12.108ZM35.1936 12V3.54H36.1776V7.284H41.2536V3.54H42.2376V12H41.2536V8.136H36.1776V12H35.1936Z" fill="#FEF6EA"/>
</svg>
