<svg width="48" height="16" viewBox="0 0 48 16" fill="none" xmlns="http://www.w3.org/2000/svg">
<rect width="48" height="16" rx="2" fill="#6188FF"/>
<path d="M9.4455 12V3.54H12.7935C13.7055 3.54 14.4015 3.76 14.8815 4.2C15.3695 4.64 15.6135 5.268 15.6135 6.084C15.6135 6.892 15.3695 7.52 14.8815 7.968C14.4015 8.408 13.7055 8.628 12.7935 8.628H10.4295V12H9.4455ZM10.4295 7.8H12.6735C13.9855 7.8 14.6415 7.228 14.6415 6.084C14.6415 4.932 13.9855 4.356 12.6735 4.356H10.4295V7.8ZM20.5215 12.108C19.7375 12.108 19.0535 11.932 18.4695 11.58C17.8935 11.22 17.4455 10.716 17.1255 10.068C16.8135 9.42 16.6575 8.652 16.6575 7.764C16.6575 6.876 16.8135 6.108 17.1255 5.46C17.4375 4.812 17.8815 4.312 18.4575 3.96C19.0415 3.608 19.7295 3.432 20.5215 3.432C21.3215 3.432 22.0095 3.608 22.5855 3.96C23.1695 4.312 23.6175 4.812 23.9295 5.46C24.2495 6.1 24.4095 6.864 24.4095 7.752C24.4095 8.64 24.2495 9.412 23.9295 10.068C23.6095 10.716 23.1575 11.22 22.5735 11.58C21.9975 11.932 21.3135 12.108 20.5215 12.108ZM20.5215 11.232C21.4255 11.232 22.1255 10.928 22.6215 10.32C23.1175 9.712 23.3655 8.86 23.3655 7.764C23.3655 6.668 23.1175 5.82 22.6215 5.22C22.1255 4.612 21.4255 4.308 20.5215 4.308C19.6335 4.308 18.9415 4.612 18.4455 5.22C17.9495 5.82 17.7015 6.668 17.7015 7.764C17.7015 8.852 17.9495 9.704 18.4455 10.32C18.9415 10.928 19.6335 11.232 20.5215 11.232ZM28.9287 12.108C28.2647 12.108 27.6647 12.024 27.1287 11.856C26.5927 11.68 26.1287 11.428 25.7367 11.1L26.0847 10.308C26.4927 10.62 26.9207 10.852 27.3687 11.004C27.8167 11.156 28.3367 11.232 28.9287 11.232C29.6487 11.232 30.1807 11.1 30.5247 10.836C30.8767 10.564 31.0527 10.208 31.0527 9.768C31.0527 9.416 30.9247 9.136 30.6687 8.928C30.4207 8.72 30.0007 8.556 29.4087 8.436L28.1607 8.184C27.4087 8.024 26.8447 7.764 26.4687 7.404C26.1007 7.036 25.9167 6.548 25.9167 5.94C25.9167 5.436 26.0447 4.996 26.3007 4.62C26.5647 4.244 26.9287 3.952 27.3927 3.744C27.8567 3.536 28.3927 3.432 29.0007 3.432C29.5687 3.432 30.0967 3.524 30.5847 3.708C31.0727 3.884 31.4847 4.14 31.8207 4.476L31.4727 5.244C31.1127 4.916 30.7327 4.68 30.3327 4.536C29.9327 4.384 29.4847 4.308 28.9887 4.308C28.3567 4.308 27.8527 4.456 27.4767 4.752C27.1007 5.04 26.9127 5.424 26.9127 5.904C26.9127 6.288 27.0287 6.592 27.2607 6.816C27.5007 7.04 27.8887 7.204 28.4247 7.308L29.6727 7.572C30.4807 7.74 31.0767 7.996 31.4607 8.34C31.8527 8.676 32.0487 9.136 32.0487 9.72C32.0487 10.192 31.9207 10.608 31.6647 10.968C31.4167 11.328 31.0567 11.608 30.5847 11.808C30.1207 12.008 29.5687 12.108 28.9287 12.108ZM35.4997 12V4.392H32.4277V3.54H39.5677V4.392H36.4957V12H35.4997Z" fill="#EDF1FF"/>
</svg>
