<svg width="48" height="16" viewBox="0 0 48 16" fill="none" xmlns="http://www.w3.org/2000/svg">
<rect width="48" height="16" rx="2" fill="#554D84"/>
<path d="M13.2485 12V3.54H16.5965C17.5085 3.54 18.2045 3.76 18.6845 4.2C19.1725 4.64 19.4165 5.268 19.4165 6.084C19.4165 6.892 19.1725 7.52 18.6845 7.968C18.2045 8.408 17.5085 8.628 16.5965 8.628H14.2325V12H13.2485ZM14.2325 7.8H16.4765C17.7885 7.8 18.4445 7.228 18.4445 6.084C18.4445 4.932 17.7885 4.356 16.4765 4.356H14.2325V7.8ZM24.2023 12.108C23.0903 12.108 22.2463 11.816 21.6703 11.232C21.0943 10.64 20.8063 9.78 20.8063 8.652V3.54H21.7903V8.604C21.7903 10.356 22.5943 11.232 24.2023 11.232C25.7943 11.232 26.5903 10.356 26.5903 8.604V3.54H27.5743V8.652C27.5743 9.78 27.2863 10.64 26.7103 11.232C26.1423 11.816 25.3063 12.108 24.2023 12.108ZM31.6967 12V4.392H28.6247V3.54H35.7647V4.392H32.6927V12H31.6967Z" fill="#ECEBF1"/>
</svg>
