<svg width="400" height="400" viewBox="0 0 400 400" fill="none" xmlns="http://www.w3.org/2000/svg">
<rect x="111" y="81" width="176" height="2" fill="#7A6DD3"/>
<rect x="81" y="109" width="2" height="174" fill="#7A6DD3"/>
<rect x="318" y="115" width="2" height="175" fill="#7A6DD3"/>
<g filter="url(#filter0_i_2506_19336)">
<rect x="42" y="42" width="80" height="80" rx="8" fill="#060415"/>
<path d="M55.6504 89.332C54.5241 89.332 53.5475 89.166 52.7207 88.834C51.8939 88.4954 51.2428 88.0202 50.7676 87.4082C50.2988 86.7897 50.0352 86.0605 49.9766 85.2207L49.9668 85.0645H52.7988L52.8086 85.1621C52.8542 85.5137 53.0039 85.8229 53.2578 86.0898C53.5117 86.3568 53.8503 86.5651 54.2734 86.7148C54.6966 86.8646 55.1784 86.9395 55.7188 86.9395C56.2526 86.9395 56.7181 86.8613 57.1152 86.7051C57.5124 86.5488 57.8216 86.334 58.043 86.0605C58.2643 85.7806 58.375 85.4616 58.375 85.1035V85.0938C58.375 84.6315 58.1862 84.2637 57.8086 83.9902C57.4375 83.7103 56.8158 83.4792 55.9434 83.2969L54.4492 82.9941C53.0039 82.7012 51.9427 82.2161 51.2656 81.5391C50.5951 80.8555 50.2598 79.9798 50.2598 78.9121V78.9023C50.2663 78.0365 50.4974 77.278 50.9531 76.627C51.4154 75.9759 52.0501 75.4714 52.8574 75.1133C53.6647 74.7552 54.5892 74.5762 55.6309 74.5762C56.7246 74.5762 57.6654 74.752 58.4531 75.1035C59.2409 75.4551 59.8529 75.9401 60.2891 76.5586C60.7318 77.1706 60.9824 77.877 61.041 78.6777L61.0508 78.8047H58.2773L58.2578 78.6875C58.2057 78.3424 58.0658 78.043 57.8379 77.7891C57.61 77.5352 57.3073 77.3366 56.9297 77.1934C56.5586 77.0436 56.1257 76.9688 55.6309 76.9688C55.1426 76.9688 54.7161 77.0404 54.3516 77.1836C53.9935 77.3268 53.7135 77.5286 53.5117 77.7891C53.3099 78.043 53.209 78.3457 53.209 78.6973V78.707C53.209 79.1562 53.3945 79.5241 53.7656 79.8105C54.1367 80.097 54.7357 80.3249 55.5625 80.4941L57.0469 80.7969C58.5378 81.0964 59.6217 81.5651 60.2988 82.2031C60.9824 82.8346 61.3242 83.7005 61.3242 84.8008V84.8105C61.3242 85.735 61.0964 86.5358 60.6406 87.2129C60.1849 87.89 59.5306 88.4141 58.6777 88.7852C57.8314 89.1497 56.8223 89.332 55.6504 89.332ZM67.8039 89.0781C66.5279 89.0781 65.6034 88.847 65.0305 88.3848C64.4641 87.9225 64.1809 87.1608 64.1809 86.0996V80.4648H62.5793V78.3164H64.1809V75.748H67.0617V78.3164H69.2102V80.4648H67.0617V85.5234C67.0617 86.0052 67.1724 86.3535 67.3938 86.5684C67.6151 86.7832 67.9602 86.8906 68.4289 86.8906C68.5982 86.8906 68.7382 86.8874 68.8488 86.8809C68.966 86.8743 69.0865 86.8646 69.2102 86.8516V88.9609C69.0409 88.9935 68.8326 89.0195 68.5852 89.0391C68.3443 89.0651 68.0839 89.0781 67.8039 89.0781ZM71.1977 89V78.3164H74.0492V80.0254H74.1957C74.365 79.4264 74.6775 78.9609 75.1332 78.6289C75.5889 78.2969 76.1553 78.1309 76.8324 78.1309C77.0147 78.1309 77.1938 78.1439 77.3695 78.1699C77.5453 78.196 77.7016 78.2285 77.8383 78.2676V80.7578C77.6495 80.7057 77.4477 80.6667 77.2328 80.6406C77.0245 80.6081 76.8096 80.5918 76.5883 80.5918C76.0674 80.5918 75.615 80.6895 75.2309 80.8848C74.8533 81.0801 74.5603 81.36 74.352 81.7246C74.1501 82.0827 74.0492 82.5156 74.0492 83.0234V89H71.1977ZM82.9117 89.2246C82.1174 89.2246 81.4501 89.0684 80.9098 88.7559C80.3694 88.4434 79.9592 87.9876 79.6793 87.3887C79.4059 86.7897 79.2691 86.0671 79.2691 85.2207V78.3164H82.1207V84.5859C82.1207 85.3281 82.2737 85.8945 82.5797 86.2852C82.8857 86.6693 83.374 86.8613 84.0445 86.8613C84.5003 86.8613 84.8876 86.7637 85.2066 86.5684C85.5257 86.3665 85.7698 86.0866 85.9391 85.7285C86.1083 85.3704 86.193 84.957 86.193 84.4883V78.3164H89.0445V89H86.193V87.3301H86.0465C85.7991 87.916 85.4085 88.3783 84.8746 88.7168C84.3408 89.0553 83.6865 89.2246 82.9117 89.2246ZM91.5594 89V74.3223H94.4109V89H91.5594ZM98.2781 89L94.9969 84.3418L97.0477 82.5254L101.628 89H98.2781ZM94.1766 85.6797L94.1082 82.5449H94.5574L98.1316 78.3164H101.374L96.8523 83.3457L95.534 84.2246L94.1766 85.6797ZM106.242 89.1855C105.35 89.1855 104.579 88.9642 103.928 88.5215C103.277 88.0723 102.775 87.4375 102.424 86.6172C102.072 85.7904 101.896 84.8073 101.896 83.668V83.6484C101.896 82.5026 102.069 81.5195 102.414 80.6992C102.766 79.8724 103.264 79.2376 103.908 78.7949C104.559 78.3522 105.334 78.1309 106.232 78.1309C106.975 78.1309 107.629 78.3034 108.195 78.6484C108.762 78.9935 109.182 79.4622 109.455 80.0547H109.602V74.3223H112.453V89H109.602V87.3105H109.455C109.182 87.8965 108.765 88.3555 108.205 88.6875C107.652 89.0195 106.997 89.1855 106.242 89.1855ZM107.209 86.8223C107.704 86.8223 108.13 86.6953 108.488 86.4414C108.853 86.1875 109.133 85.8262 109.328 85.3574C109.53 84.8822 109.631 84.319 109.631 83.668V83.6484C109.631 82.9974 109.53 82.4375 109.328 81.9688C109.126 81.4935 108.843 81.1289 108.479 80.875C108.12 80.6211 107.697 80.4941 107.209 80.4941C106.714 80.4941 106.285 80.6211 105.92 80.875C105.562 81.1289 105.285 81.4935 105.09 81.9688C104.895 82.4375 104.797 82.9974 104.797 83.6484V83.668C104.797 84.319 104.895 84.8822 105.09 85.3574C105.285 85.8262 105.562 86.1875 105.92 86.4414C106.285 86.6953 106.714 86.8223 107.209 86.8223Z" fill="#7A6DD3"/>
</g>
<g filter="url(#filter1_i_2506_19336)">
<circle cx="319" cy="318" r="40" fill="#060415"/>
</g>
<g clip-path="url(#clip0_2506_19336)">
<path d="M300.701 316.473H311.499L311.798 309.887H301.3L300.701 316.473Z" fill="#7A6DD3"/>
<path d="M323.446 298.8H314.554L314.152 307.637H323.848L323.446 298.8Z" fill="#7A6DD3"/>
<path d="M336.701 309.887H326.203L326.503 316.473H337.3L336.701 309.887Z" fill="#7A6DD3"/>
<path d="M324.353 318.723H313.65L313.248 327.56H324.755L324.353 318.723Z" fill="#7A6DD3"/>
<path d="M323.951 309.887H314.051L313.752 316.473H324.251L323.951 309.887Z" fill="#7A6DD3"/>
<path d="M323.82 334.95H322.535V329.81H315.465V334.95H314.18C313.558 334.95 313.055 335.454 313.055 336.075C313.055 336.696 313.558 337.2 314.18 337.2H323.82C324.441 337.2 324.945 336.696 324.945 336.075C324.945 335.454 324.441 334.95 323.82 334.95Z" fill="#7A6DD3"/>
<path d="M336.059 302.823C335.857 300.605 333.881 298.8 331.653 298.8H325.699L326.101 307.637H336.496L336.059 302.823Z" fill="#7A6DD3"/>
<path d="M337.924 323.333L337.505 318.723H326.605L327.007 327.56H334.064C335.185 327.56 336.207 327.117 336.942 326.312C337.677 325.508 338.026 324.45 337.924 323.333Z" fill="#7A6DD3"/>
<path d="M300.078 323.333C299.976 324.45 300.325 325.508 301.06 326.313C301.795 327.117 302.817 327.56 303.938 327.56H310.995L311.397 318.723H300.497L300.078 323.333Z" fill="#7A6DD3"/>
<path d="M301.942 302.823L301.504 307.637H311.9L312.301 298.8H306.347C304.12 298.8 302.143 300.605 301.942 302.823Z" fill="#7A6DD3"/>
</g>
<g filter="url(#filter2_i_2506_19336)">
<circle cx="319" cy="82" r="40" fill="#060415"/>
</g>
<g clip-path="url(#clip1_2506_19336)">
<path d="M300.868 87.3669H305.134C305.723 87.3669 306.201 87.8443 306.201 88.4333V99.1001C306.201 99.6892 305.723 100.167 305.134 100.167H300.868C300.279 100.167 299.801 99.6892 299.801 99.1001V88.4333C299.801 87.8443 300.279 87.3669 300.868 87.3669Z" fill="#7A6DD3"/>
<path d="M311.533 78.8333H315.8C316.389 78.8333 316.867 79.311 316.867 79.9V99.1C316.867 99.6891 316.389 100.167 315.8 100.167H311.533C310.944 100.167 310.467 99.6891 310.467 99.1V79.9C310.467 79.311 310.944 78.8333 311.533 78.8333Z" fill="#7A6DD3"/>
<path d="M322.202 83.1001H326.468C327.057 83.1001 327.535 83.5778 327.535 84.1669V99.1001C327.535 99.6892 327.057 100.167 326.468 100.167H322.202C321.612 100.167 321.135 99.6892 321.135 99.1001V84.1669C321.135 83.5778 321.612 83.1001 322.202 83.1001Z" fill="#7A6DD3"/>
<path d="M332.868 76.7H337.134C337.723 76.7 338.201 77.1777 338.201 77.7667V99.1C338.201 99.689 337.723 100.167 337.134 100.167H332.868C332.279 100.167 331.801 99.689 331.801 99.1V77.7667C331.801 77.1777 332.279 76.7 332.868 76.7Z" fill="#7A6DD3"/>
<path d="M335.001 63.9001C333.234 63.9021 331.803 65.3337 331.801 67.1001C331.805 67.4486 331.867 67.7939 331.984 68.122L326.644 71.2962C325.943 70.5529 324.927 70.1927 323.914 70.3283C322.902 70.4638 322.016 71.0787 321.536 71.9802L316.826 69.6474C316.849 69.5103 316.863 69.372 316.868 69.2334C316.87 67.938 316.091 66.7693 314.895 66.272C313.699 65.7751 312.321 66.0482 311.405 66.9638C310.489 67.8794 310.215 69.2568 310.712 70.4533L304.602 75.0126C304.118 74.724 303.565 74.5701 303.001 74.5669C301.234 74.5669 299.801 75.9994 299.801 77.7669C299.801 79.5341 301.234 80.9669 303.001 80.9669C304.768 80.9669 306.201 79.5341 306.201 77.7669C306.198 77.3818 306.125 77.0009 305.986 76.6419L312.157 72.0369C313.364 72.7099 314.869 72.5126 315.862 71.5509L321.218 74.2037C321.575 75.7939 323.071 76.8611 324.691 76.6806C326.311 76.5001 327.536 75.1302 327.534 73.5001C327.534 73.4189 327.516 73.3423 327.51 73.2626L333.318 69.8099C333.821 70.1283 334.405 70.2982 335.001 70.3001C336.768 70.3001 338.201 68.8673 338.201 67.1001C338.201 65.333 336.768 63.9001 335.001 63.9001Z" fill="#7A6DD3"/>
</g>
<g filter="url(#filter3_i_2506_19336)">
<circle cx="82" cy="318" r="40" fill="#060415"/>
</g>
<g clip-path="url(#clip2_2506_19336)">
<path d="M91.3685 312.482C91.1067 312.057 90.6442 311.798 90.1453 311.798H83.5405L87.1104 300.673C87.2501 300.236 87.1738 299.759 86.9034 299.389C86.6341 299.019 86.2026 298.8 85.7451 298.8H79.1801C78.5566 298.8 78.0042 299.203 77.8147 299.796L72.4904 316.391C72.3507 316.828 72.4269 317.305 72.6974 317.676C72.9667 318.045 73.3981 318.264 73.8557 318.264H75.0116H80.3122L78.6015 336.536C78.5741 336.827 78.7573 337.095 79.0379 337.176C79.3172 337.257 79.6153 337.129 79.7474 336.868L91.4246 313.883C91.6503 313.437 91.6291 312.908 91.3685 312.482Z" fill="#7A6DD3"/>
</g>
<defs>
<filter id="filter0_i_2506_19336" x="42" y="42" width="80" height="80" filterUnits="userSpaceOnUse" color-interpolation-filters="sRGB">
<feFlood flood-opacity="0" result="BackgroundImageFix"/>
<feBlend mode="normal" in="SourceGraphic" in2="BackgroundImageFix" result="shape"/>
<feColorMatrix in="SourceAlpha" type="matrix" values="0 0 0 0 0 0 0 0 0 0 0 0 0 0 0 0 0 0 127 0" result="hardAlpha"/>
<feOffset/>
<feGaussianBlur stdDeviation="6"/>
<feComposite in2="hardAlpha" operator="arithmetic" k2="-1" k3="1"/>
<feColorMatrix type="matrix" values="0 0 0 0 0.478431 0 0 0 0 0.427451 0 0 0 0 0.827451 0 0 0 0.8 0"/>
<feBlend mode="normal" in2="shape" result="effect1_innerShadow_2506_19336"/>
</filter>
<filter id="filter1_i_2506_19336" x="279" y="278" width="80" height="80" filterUnits="userSpaceOnUse" color-interpolation-filters="sRGB">
<feFlood flood-opacity="0" result="BackgroundImageFix"/>
<feBlend mode="normal" in="SourceGraphic" in2="BackgroundImageFix" result="shape"/>
<feColorMatrix in="SourceAlpha" type="matrix" values="0 0 0 0 0 0 0 0 0 0 0 0 0 0 0 0 0 0 127 0" result="hardAlpha"/>
<feOffset/>
<feGaussianBlur stdDeviation="6"/>
<feComposite in2="hardAlpha" operator="arithmetic" k2="-1" k3="1"/>
<feColorMatrix type="matrix" values="0 0 0 0 0.478431 0 0 0 0 0.427451 0 0 0 0 0.827451 0 0 0 0.8 0"/>
<feBlend mode="normal" in2="shape" result="effect1_innerShadow_2506_19336"/>
</filter>
<filter id="filter2_i_2506_19336" x="279" y="42" width="80" height="80" filterUnits="userSpaceOnUse" color-interpolation-filters="sRGB">
<feFlood flood-opacity="0" result="BackgroundImageFix"/>
<feBlend mode="normal" in="SourceGraphic" in2="BackgroundImageFix" result="shape"/>
<feColorMatrix in="SourceAlpha" type="matrix" values="0 0 0 0 0 0 0 0 0 0 0 0 0 0 0 0 0 0 127 0" result="hardAlpha"/>
<feOffset/>
<feGaussianBlur stdDeviation="6"/>
<feComposite in2="hardAlpha" operator="arithmetic" k2="-1" k3="1"/>
<feColorMatrix type="matrix" values="0 0 0 0 0.478431 0 0 0 0 0.427451 0 0 0 0 0.827451 0 0 0 0.8 0"/>
<feBlend mode="normal" in2="shape" result="effect1_innerShadow_2506_19336"/>
</filter>
<filter id="filter3_i_2506_19336" x="42" y="278" width="80" height="80" filterUnits="userSpaceOnUse" color-interpolation-filters="sRGB">
<feFlood flood-opacity="0" result="BackgroundImageFix"/>
<feBlend mode="normal" in="SourceGraphic" in2="BackgroundImageFix" result="shape"/>
<feColorMatrix in="SourceAlpha" type="matrix" values="0 0 0 0 0 0 0 0 0 0 0 0 0 0 0 0 0 0 127 0" result="hardAlpha"/>
<feOffset/>
<feGaussianBlur stdDeviation="6"/>
<feComposite in2="hardAlpha" operator="arithmetic" k2="-1" k3="1"/>
<feColorMatrix type="matrix" values="0 0 0 0 0.478431 0 0 0 0 0.427451 0 0 0 0 0.827451 0 0 0 0.8 0"/>
<feBlend mode="normal" in2="shape" result="effect1_innerShadow_2506_19336"/>
</filter>
<clipPath id="clip0_2506_19336">
<rect width="38.4" height="38.4" fill="white" transform="translate(299.801 298.8)"/>
</clipPath>
<clipPath id="clip1_2506_19336">
<rect width="38.4" height="38.4" fill="white" transform="translate(299.801 62.8)"/>
</clipPath>
<clipPath id="clip2_2506_19336">
<rect width="38.4" height="38.4" fill="white" transform="translate(62.8008 298.8)"/>
</clipPath>
</defs>
</svg>
