<svg width="400" height="400" viewBox="0 0 400 400" fill="none" xmlns="http://www.w3.org/2000/svg">
<path d="M224 200L313 200" stroke="#7A6DD3" stroke-width="2"/>
<path d="M87 203H164" stroke="#7A6DD3" stroke-width="2"/>
<path d="M322.5 72H274C268.477 72 264 76.4772 264 82L264 176C264 181.523 259.523 186 254 186H232" stroke="#7A6DD3" stroke-width="2"/>
<path d="M209 214H268C273.523 214 278 218.477 278 224L278 318C278 323.523 282.477 328 288 328H314.5" stroke="#7A6DD3" stroke-width="2"/>
<g filter="url(#filter0_i_2506_19295)">
<circle cx="352" cy="72" r="40" fill="#060415"/>
</g>
<g clip-path="url(#clip0_2506_19295)">
<path d="M359.951 48H343.98C341.162 48.0032 338.878 50.2872 338.875 53.1056V90.8946C338.878 93.7131 341.162 95.9971 343.98 95.9999H359.951C362.77 95.9971 365.054 93.7131 365.057 90.8946V53.1056C365.054 50.2872 362.77 48.0032 359.951 48ZM351.966 91.6365C350.761 91.6365 349.784 90.6597 349.784 89.4544C349.784 88.2495 350.761 87.2727 351.966 87.2727C353.171 87.2727 354.148 88.2495 354.148 89.4544C354.148 90.6597 353.171 91.6365 351.966 91.6365ZM355.239 54.5455H348.693C348.091 54.5455 347.602 54.0569 347.602 53.4544C347.602 52.852 348.091 52.3638 348.693 52.3638H355.239C355.841 52.3638 356.329 52.852 356.329 53.4544C356.329 54.0569 355.841 54.5455 355.239 54.5455Z" fill="#7A6DD3"/>
</g>
<g filter="url(#filter1_i_2506_19295)">
<circle cx="352" cy="200" r="40" fill="#060415"/>
</g>
<path d="M368.801 200C368.801 204.455 367.031 208.728 363.881 211.879C360.73 215.03 356.457 216.8 352.001 216.8C347.546 216.8 343.272 215.03 340.122 211.879C336.971 208.728 335.201 204.455 335.201 200C335.201 199.681 335.328 199.376 335.553 199.151C335.778 198.926 336.083 198.8 336.401 198.8C336.719 198.8 337.025 198.926 337.25 199.151C337.475 199.376 337.601 199.681 337.601 200C337.596 203.213 338.665 206.337 340.638 208.874C342.61 211.411 345.374 213.216 348.49 214.003C351.605 214.791 354.895 214.515 357.836 213.219C360.777 211.924 363.201 209.683 364.723 206.853C366.246 204.023 366.779 200.766 366.239 197.598C365.699 194.43 364.116 191.533 361.742 189.367C359.368 187.201 356.338 185.89 353.134 185.643C349.93 185.395 346.735 186.224 344.056 188H344.801C345.119 188 345.425 188.126 345.65 188.351C345.875 188.576 346.001 188.881 346.001 189.2C346.001 189.518 345.875 189.823 345.65 190.048C345.425 190.273 345.119 190.4 344.801 190.4H341.201C341.044 190.4 340.887 190.369 340.742 190.309C340.596 190.248 340.464 190.16 340.352 190.048C340.241 189.937 340.153 189.805 340.092 189.659C340.032 189.513 340.001 189.357 340.001 189.2V185.6C340.001 185.281 340.128 184.976 340.353 184.751C340.578 184.526 340.883 184.4 341.201 184.4C341.519 184.4 341.825 184.526 342.05 184.751C342.275 184.976 342.401 185.281 342.401 185.6V186.216C344.92 184.461 347.871 183.429 350.935 183.234C353.999 183.038 357.057 183.686 359.779 185.107C362.5 186.528 364.78 188.667 366.371 191.293C367.961 193.918 368.802 196.93 368.801 200ZM362.801 200C362.801 202.136 362.168 204.224 360.981 206C359.794 207.776 358.108 209.16 356.134 209.978C354.161 210.795 351.989 211.009 349.894 210.592C347.799 210.175 345.875 209.147 344.364 207.636C342.854 206.126 341.825 204.202 341.409 202.107C340.992 200.012 341.206 197.84 342.023 195.867C342.841 193.893 344.225 192.207 346.001 191.02C347.777 189.833 349.865 189.2 352.001 189.2C354.865 189.203 357.61 190.342 359.634 192.366C361.659 194.391 362.798 197.136 362.801 200ZM356.267 201.401L353.201 199.358V194C353.201 193.681 353.075 193.376 352.85 193.151C352.625 192.926 352.319 192.8 352.001 192.8C351.683 192.8 351.378 192.926 351.153 193.151C350.928 193.376 350.801 193.681 350.801 194V200C350.801 200.197 350.85 200.392 350.943 200.566C351.036 200.74 351.171 200.889 351.336 200.998L354.936 203.398C355.2 203.571 355.523 203.632 355.832 203.569C356.142 203.505 356.414 203.322 356.59 203.059C356.765 202.796 356.83 202.474 356.769 202.164C356.709 201.853 356.528 201.579 356.267 201.401Z" fill="#7A6DD3"/>
<g filter="url(#filter2_i_2506_19295)">
<circle cx="352" cy="328" r="40" fill="#060415"/>
</g>
<g clip-path="url(#clip1_2506_19295)">
<path fill-rule="evenodd" clip-rule="evenodd" d="M357.885 323.674H357.983V310.332C357.983 309.488 357.294 308.799 356.45 308.799H342.704V314.216C342.704 314.558 342.427 314.835 342.085 314.835H336.668V338.629C336.668 339.472 337.356 340.162 338.201 340.162H347.196V329.427C347.196 327.363 348.963 325.932 350.667 325.117C352.84 324.08 355.494 323.674 357.885 323.674ZM345.973 311.977H354.094C354.436 311.977 354.715 312.256 354.715 312.598C354.715 312.939 354.437 313.217 354.094 313.217H345.973C345.631 313.217 345.352 312.939 345.352 312.598C345.353 312.256 345.631 311.977 345.973 311.977ZM345.519 334.674H340.557C340.215 334.674 339.938 334.397 339.938 334.055C339.938 333.713 340.215 333.436 340.557 333.436H345.519C345.861 333.436 346.137 333.713 346.137 334.055C346.137 334.398 345.861 334.674 345.519 334.674ZM345.519 327.523H340.557C340.215 327.523 339.938 327.244 339.938 326.904C339.938 326.562 340.215 326.283 340.557 326.283H345.519C345.861 326.283 346.137 326.561 346.137 326.904C346.137 327.244 345.861 327.523 345.519 327.523ZM340.557 320.368C340.215 320.368 339.938 320.092 339.938 319.75C339.938 319.408 340.215 319.131 340.557 319.131H354.097C354.438 319.131 354.716 319.408 354.716 319.75C354.716 320.092 354.438 320.368 354.097 320.368H340.557ZM341.466 313.597H337.287L341.466 309.42V313.597ZM365.101 340.395C365.894 340.015 366.7 339.504 367.335 338.858V342.685C367.335 345.178 363.105 347.2 357.885 347.2C352.664 347.2 348.433 345.178 348.433 342.685V338.858C349.069 339.505 349.875 340.015 350.667 340.395C352.84 341.432 355.494 341.836 357.885 341.836C360.275 341.836 362.928 341.433 365.101 340.395ZM366.684 332.691C366.921 332.508 367.137 332.314 367.335 332.117V336.086C367.335 338.578 363.104 340.6 357.885 340.6C352.663 340.6 348.432 338.578 348.432 336.086V332.117C348.63 332.315 348.847 332.509 349.083 332.691V332.693C349.182 332.77 349.287 332.846 349.393 332.923L349.401 332.927C349.508 333.001 349.616 333.074 349.727 333.144L349.737 333.15C349.848 333.222 349.962 333.29 350.082 333.358L350.092 333.364C350.13 333.385 350.169 333.407 350.207 333.428L350.224 333.439C350.341 333.502 350.458 333.564 350.579 333.625L350.613 333.643C350.727 333.7 350.847 333.757 350.967 333.813L351.014 333.832C351.05 333.851 351.088 333.868 351.129 333.885L351.141 333.889C351.216 333.923 351.292 333.955 351.371 333.987L351.429 334.01C351.465 334.025 351.501 334.04 351.537 334.055C351.558 334.063 351.578 334.072 351.599 334.078C351.663 334.104 351.729 334.129 351.792 334.153C351.813 334.161 351.835 334.17 351.856 334.178C351.892 334.191 351.928 334.204 351.965 334.216C351.99 334.225 352.018 334.235 352.046 334.244C352.095 334.261 352.142 334.278 352.191 334.295C352.229 334.308 352.267 334.321 352.303 334.333C352.337 334.344 352.369 334.354 352.403 334.366C352.435 334.376 352.467 334.384 352.499 334.396C352.531 334.406 352.563 334.417 352.595 334.426C352.65 334.443 352.707 334.459 352.763 334.477C352.793 334.485 352.822 334.494 352.854 334.502C352.888 334.513 352.925 334.523 352.961 334.534L353.057 334.56C353.106 334.575 353.157 334.588 353.208 334.6C353.241 334.609 353.276 334.619 353.31 334.628C353.352 334.639 353.397 334.649 353.439 334.66C353.469 334.666 353.499 334.675 353.529 334.681C353.575 334.694 353.625 334.705 353.671 334.715C353.699 334.721 353.727 334.728 353.754 334.735C353.812 334.747 353.871 334.76 353.928 334.773C353.956 334.779 353.984 334.783 354.013 334.79C354.06 334.801 354.109 334.811 354.158 334.82C354.181 334.825 354.204 334.831 354.226 334.835C354.294 334.848 354.362 334.861 354.43 334.873C354.456 334.878 354.479 334.882 354.504 334.886C354.555 334.894 354.606 334.905 354.657 334.914C354.683 334.918 354.706 334.922 354.729 334.927C354.8 334.937 354.87 334.948 354.94 334.958C354.961 334.963 354.983 334.965 355.004 334.969C355.059 334.977 355.114 334.986 355.17 334.992C355.195 334.996 355.218 334.998 355.244 335.002C355.316 335.013 355.391 335.021 355.465 335.032L355.491 335.035C355.559 335.043 355.626 335.052 355.695 335.058L355.765 335.066C355.831 335.073 355.899 335.081 355.965 335.087L355.998 335.089C356.075 335.098 356.151 335.104 356.23 335.11L356.296 335.116C356.358 335.121 356.421 335.125 356.485 335.129L356.536 335.134C356.615 335.138 356.694 335.144 356.774 335.149L356.827 335.151C356.891 335.155 356.957 335.157 357.023 335.161L357.082 335.164C357.163 335.166 357.243 335.17 357.322 335.172H357.363C357.433 335.174 357.503 335.176 357.573 335.176L357.635 335.179H358.13L358.194 335.176C358.262 335.176 358.332 335.174 358.402 335.172H358.443C358.524 335.17 358.602 335.166 358.683 335.164L358.742 335.161C358.808 335.157 358.874 335.155 358.938 335.151C358.956 335.151 358.974 335.149 358.993 335.149C359.072 335.144 359.151 335.138 359.229 335.134L359.28 335.129C359.344 335.125 359.408 335.121 359.469 335.116C359.493 335.114 359.514 335.112 359.535 335.11C359.614 335.104 359.691 335.098 359.767 335.089L359.801 335.087C359.869 335.081 359.935 335.072 360 335.066L360.071 335.058C360.139 335.052 360.207 335.043 360.275 335.035L360.3 335.032C360.375 335.022 360.449 335.014 360.522 335.002L360.596 334.992C360.651 334.985 360.706 334.977 360.762 334.969C360.783 334.964 360.804 334.963 360.825 334.958L361.036 334.927C361.059 334.922 361.083 334.918 361.108 334.914C361.159 334.906 361.21 334.894 361.261 334.886C361.287 334.882 361.31 334.878 361.335 334.873C361.404 334.861 361.471 334.848 361.539 334.835C361.563 334.831 361.584 334.825 361.608 334.82C361.656 334.812 361.705 334.801 361.755 334.79C361.782 334.784 361.81 334.78 361.838 334.773C361.896 334.76 361.955 334.747 362.012 334.735C362.04 334.729 362.067 334.722 362.095 334.715C362.142 334.705 362.191 334.694 362.238 334.681C362.268 334.675 362.297 334.666 362.327 334.66C362.37 334.65 362.414 334.639 362.457 334.628C362.49 334.62 362.525 334.609 362.559 334.6C362.61 334.588 362.661 334.575 362.709 334.56C362.741 334.552 362.773 334.543 362.805 334.534C362.841 334.524 362.877 334.513 362.914 334.502C362.944 334.494 362.973 334.485 363.003 334.477C363.059 334.459 363.116 334.443 363.171 334.426C363.204 334.417 363.235 334.407 363.267 334.396C363.299 334.385 363.333 334.377 363.365 334.366C363.396 334.354 363.429 334.345 363.462 334.333C363.498 334.321 363.537 334.308 363.575 334.295C363.624 334.278 363.672 334.261 363.72 334.244C363.747 334.236 363.775 334.225 363.801 334.216C363.837 334.204 363.873 334.191 363.909 334.178C363.93 334.17 363.952 334.161 363.973 334.153C364.037 334.129 364.103 334.104 364.167 334.078C364.188 334.072 364.207 334.063 364.228 334.055C364.264 334.04 364.3 334.025 364.337 334.01C364.356 334.003 364.375 333.995 364.395 333.987C364.473 333.955 364.55 333.923 364.624 333.889L364.637 333.885C364.677 333.868 364.716 333.851 364.754 333.832L364.799 333.813C364.92 333.757 365.039 333.7 365.156 333.643L365.188 333.625C365.31 333.564 365.428 333.502 365.543 333.439L365.56 333.428C365.598 333.407 365.637 333.385 365.675 333.364L365.685 333.358C365.805 333.29 365.919 333.223 366.03 333.15L366.04 333.144C366.15 333.073 366.259 333.001 366.366 332.927L366.374 332.923C366.48 332.846 366.585 332.77 366.684 332.693V332.691ZM357.885 324.914C363.09 324.914 367.335 326.94 367.335 329.428C367.335 331.913 363.09 333.941 357.885 333.941C352.679 333.941 348.433 331.913 348.433 329.428C348.433 326.94 352.679 324.914 357.885 324.914Z" fill="#7A6DD3"/>
</g>
<g filter="url(#filter3_i_2506_19295)">
<rect x="156" y="160" width="88" height="80" rx="8" fill="#060415"/>
<path d="M174.65 207.332C173.524 207.332 172.548 207.166 171.721 206.834C170.894 206.495 170.243 206.02 169.768 205.408C169.299 204.79 169.035 204.061 168.977 203.221L168.967 203.064H171.799L171.809 203.162C171.854 203.514 172.004 203.823 172.258 204.09C172.512 204.357 172.85 204.565 173.273 204.715C173.697 204.865 174.178 204.939 174.719 204.939C175.253 204.939 175.718 204.861 176.115 204.705C176.512 204.549 176.822 204.334 177.043 204.061C177.264 203.781 177.375 203.462 177.375 203.104V203.094C177.375 202.632 177.186 202.264 176.809 201.99C176.438 201.71 175.816 201.479 174.943 201.297L173.449 200.994C172.004 200.701 170.943 200.216 170.266 199.539C169.595 198.855 169.26 197.98 169.26 196.912V196.902C169.266 196.036 169.497 195.278 169.953 194.627C170.415 193.976 171.05 193.471 171.857 193.113C172.665 192.755 173.589 192.576 174.631 192.576C175.725 192.576 176.665 192.752 177.453 193.104C178.241 193.455 178.853 193.94 179.289 194.559C179.732 195.171 179.982 195.877 180.041 196.678L180.051 196.805H177.277L177.258 196.688C177.206 196.342 177.066 196.043 176.838 195.789C176.61 195.535 176.307 195.337 175.93 195.193C175.559 195.044 175.126 194.969 174.631 194.969C174.143 194.969 173.716 195.04 173.352 195.184C172.993 195.327 172.714 195.529 172.512 195.789C172.31 196.043 172.209 196.346 172.209 196.697V196.707C172.209 197.156 172.395 197.524 172.766 197.811C173.137 198.097 173.736 198.325 174.562 198.494L176.047 198.797C177.538 199.096 178.622 199.565 179.299 200.203C179.982 200.835 180.324 201.701 180.324 202.801V202.811C180.324 203.735 180.096 204.536 179.641 205.213C179.185 205.89 178.531 206.414 177.678 206.785C176.831 207.15 175.822 207.332 174.65 207.332ZM186.804 207.078C185.528 207.078 184.603 206.847 184.03 206.385C183.464 205.923 183.181 205.161 183.181 204.1V198.465H181.579V196.316H183.181V193.748H186.062V196.316H188.21V198.465H186.062V203.523C186.062 204.005 186.172 204.354 186.394 204.568C186.615 204.783 186.96 204.891 187.429 204.891C187.598 204.891 187.738 204.887 187.849 204.881C187.966 204.874 188.086 204.865 188.21 204.852V206.961C188.041 206.993 187.833 207.02 187.585 207.039C187.344 207.065 187.084 207.078 186.804 207.078ZM190.198 207V196.316H193.049V198.025H193.196C193.365 197.426 193.677 196.961 194.133 196.629C194.589 196.297 195.155 196.131 195.832 196.131C196.015 196.131 196.194 196.144 196.37 196.17C196.545 196.196 196.702 196.229 196.838 196.268V198.758C196.649 198.706 196.448 198.667 196.233 198.641C196.024 198.608 195.81 198.592 195.588 198.592C195.067 198.592 194.615 198.689 194.231 198.885C193.853 199.08 193.56 199.36 193.352 199.725C193.15 200.083 193.049 200.516 193.049 201.023V207H190.198ZM201.912 207.225C201.117 207.225 200.45 207.068 199.91 206.756C199.369 206.443 198.959 205.988 198.679 205.389C198.406 204.79 198.269 204.067 198.269 203.221V196.316H201.121V202.586C201.121 203.328 201.274 203.895 201.58 204.285C201.886 204.669 202.374 204.861 203.045 204.861C203.5 204.861 203.888 204.764 204.207 204.568C204.526 204.367 204.77 204.087 204.939 203.729C205.108 203.37 205.193 202.957 205.193 202.488V196.316H208.045V207H205.193V205.33H205.046C204.799 205.916 204.408 206.378 203.875 206.717C203.341 207.055 202.686 207.225 201.912 207.225ZM210.559 207V192.322H213.411V207H210.559ZM217.278 207L213.997 202.342L216.048 200.525L220.628 207H217.278ZM213.177 203.68L213.108 200.545H213.557L217.132 196.316H220.374L215.852 201.346L214.534 202.225L213.177 203.68ZM225.242 207.186C224.35 207.186 223.579 206.964 222.928 206.521C222.277 206.072 221.775 205.438 221.424 204.617C221.072 203.79 220.896 202.807 220.896 201.668V201.648C220.896 200.503 221.069 199.52 221.414 198.699C221.766 197.872 222.264 197.238 222.908 196.795C223.559 196.352 224.334 196.131 225.232 196.131C225.975 196.131 226.629 196.303 227.195 196.648C227.762 196.993 228.182 197.462 228.455 198.055H228.602V192.322H231.453V207H228.602V205.311H228.455C228.182 205.896 227.765 206.355 227.205 206.688C226.652 207.02 225.997 207.186 225.242 207.186ZM226.209 204.822C226.704 204.822 227.13 204.695 227.488 204.441C227.853 204.188 228.133 203.826 228.328 203.357C228.53 202.882 228.631 202.319 228.631 201.668V201.648C228.631 200.997 228.53 200.438 228.328 199.969C228.126 199.493 227.843 199.129 227.479 198.875C227.12 198.621 226.697 198.494 226.209 198.494C225.714 198.494 225.285 198.621 224.92 198.875C224.562 199.129 224.285 199.493 224.09 199.969C223.895 200.438 223.797 200.997 223.797 201.648V201.668C223.797 202.319 223.895 202.882 224.09 203.357C224.285 203.826 224.562 204.188 224.92 204.441C225.285 204.695 225.714 204.822 226.209 204.822Z" fill="#7A6DD3"/>
</g>
<g filter="url(#filter4_i_2506_19295)">
<circle cx="48" cy="200" r="40" fill="#060415"/>
</g>
<path d="M56.0004 192C54.9399 191.999 53.9232 191.577 53.1734 190.827C52.4235 190.077 52.0017 189.06 52.0004 188V182.4H38.4004C37.3395 182.4 36.3221 182.821 35.572 183.571C34.8218 184.322 34.4004 185.339 34.4004 186.4V213.6C34.4004 214.661 34.8218 215.678 35.572 216.428C36.3221 217.178 37.3395 217.6 38.4004 217.6H57.6004C58.1257 217.6 58.6458 217.496 59.1311 217.295C59.6164 217.094 60.0574 216.8 60.4288 216.428C60.8003 216.057 61.0949 215.616 61.2959 215.131C61.4969 214.645 61.6004 214.125 61.6004 213.6V192H56.0004ZM40.0004 189.6H48.8004C49.0126 189.6 49.216 189.684 49.3661 189.834C49.5161 189.984 49.6004 190.188 49.6004 190.4C49.6004 190.612 49.5161 190.816 49.3661 190.966C49.216 191.116 49.0126 191.2 48.8004 191.2H40.0004C39.7882 191.2 39.5847 191.116 39.4347 190.966C39.2847 190.816 39.2004 190.612 39.2004 190.4C39.2004 190.188 39.2847 189.984 39.4347 189.834C39.5847 189.684 39.7882 189.6 40.0004 189.6ZM52.0004 212H40.0004C39.7882 212 39.5847 211.916 39.4347 211.766C39.2847 211.616 39.2004 211.412 39.2004 211.2C39.2004 210.988 39.2847 210.784 39.4347 210.634C39.5847 210.484 39.7882 210.4 40.0004 210.4H52.0004C52.2126 210.4 52.416 210.484 52.5661 210.634C52.7161 210.784 52.8004 210.988 52.8004 211.2C52.8004 211.412 52.7161 211.616 52.5661 211.766C52.416 211.916 52.2126 212 52.0004 212ZM56.0004 208H40.0004C39.7882 208 39.5847 207.916 39.4347 207.766C39.2847 207.616 39.2004 207.412 39.2004 207.2C39.2004 206.988 39.2847 206.784 39.4347 206.634C39.5847 206.484 39.7882 206.4 40.0004 206.4H56.0004C56.2126 206.4 56.416 206.484 56.5661 206.634C56.7161 206.784 56.8004 206.988 56.8004 207.2C56.8004 207.412 56.7161 207.616 56.5661 207.766C56.416 207.916 56.2126 208 56.0004 208ZM56.0004 204H40.0004C39.7882 204 39.5847 203.916 39.4347 203.766C39.2847 203.616 39.2004 203.412 39.2004 203.2C39.2004 202.988 39.2847 202.784 39.4347 202.634C39.5847 202.484 39.7882 202.4 40.0004 202.4H56.0004C56.2126 202.4 56.416 202.484 56.5661 202.634C56.7161 202.784 56.8004 202.988 56.8004 203.2C56.8004 203.412 56.7161 203.616 56.5661 203.766C56.416 203.916 56.2126 204 56.0004 204ZM56.0004 200H40.0004C39.7882 200 39.5847 199.916 39.4347 199.766C39.2847 199.616 39.2004 199.412 39.2004 199.2C39.2004 198.988 39.2847 198.784 39.4347 198.634C39.5847 198.484 39.7882 198.4 40.0004 198.4H56.0004C56.2126 198.4 56.416 198.484 56.5661 198.634C56.7161 198.784 56.8004 198.988 56.8004 199.2C56.8004 199.412 56.7161 199.616 56.5661 199.766C56.416 199.916 56.2126 200 56.0004 200ZM56.0004 196H42.4004C42.1882 196 41.9847 195.916 41.8347 195.766C41.6847 195.616 41.6004 195.412 41.6004 195.2C41.6004 194.988 41.6847 194.784 41.8347 194.634C41.9847 194.484 42.1882 194.4 42.4004 194.4H56.0004C56.2126 194.4 56.416 194.484 56.5661 194.634C56.7161 194.784 56.8004 194.988 56.8004 195.2C56.8004 195.412 56.7161 195.616 56.5661 195.766C56.416 195.916 56.2126 196 56.0004 196Z" fill="#7A6DD3"/>
<path d="M61.1308 189.931L54.0684 182.869C53.9326 182.735 53.7738 182.627 53.5996 182.549V188C53.5996 188.637 53.8525 189.247 54.3026 189.697C54.7526 190.147 55.3631 190.4 55.9996 190.4H61.4508C61.3731 190.226 61.2647 190.067 61.1308 189.931Z" fill="#7A6DD3"/>
<defs>
<filter id="filter0_i_2506_19295" x="312" y="32" width="80" height="80" filterUnits="userSpaceOnUse" color-interpolation-filters="sRGB">
<feFlood flood-opacity="0" result="BackgroundImageFix"/>
<feBlend mode="normal" in="SourceGraphic" in2="BackgroundImageFix" result="shape"/>
<feColorMatrix in="SourceAlpha" type="matrix" values="0 0 0 0 0 0 0 0 0 0 0 0 0 0 0 0 0 0 127 0" result="hardAlpha"/>
<feOffset/>
<feGaussianBlur stdDeviation="6"/>
<feComposite in2="hardAlpha" operator="arithmetic" k2="-1" k3="1"/>
<feColorMatrix type="matrix" values="0 0 0 0 0.478431 0 0 0 0 0.427451 0 0 0 0 0.827451 0 0 0 0.8 0"/>
<feBlend mode="normal" in2="shape" result="effect1_innerShadow_2506_19295"/>
</filter>
<filter id="filter1_i_2506_19295" x="312" y="160" width="80" height="80" filterUnits="userSpaceOnUse" color-interpolation-filters="sRGB">
<feFlood flood-opacity="0" result="BackgroundImageFix"/>
<feBlend mode="normal" in="SourceGraphic" in2="BackgroundImageFix" result="shape"/>
<feColorMatrix in="SourceAlpha" type="matrix" values="0 0 0 0 0 0 0 0 0 0 0 0 0 0 0 0 0 0 127 0" result="hardAlpha"/>
<feOffset/>
<feGaussianBlur stdDeviation="6"/>
<feComposite in2="hardAlpha" operator="arithmetic" k2="-1" k3="1"/>
<feColorMatrix type="matrix" values="0 0 0 0 0.478431 0 0 0 0 0.427451 0 0 0 0 0.827451 0 0 0 0.8 0"/>
<feBlend mode="normal" in2="shape" result="effect1_innerShadow_2506_19295"/>
</filter>
<filter id="filter2_i_2506_19295" x="312" y="288" width="80" height="80" filterUnits="userSpaceOnUse" color-interpolation-filters="sRGB">
<feFlood flood-opacity="0" result="BackgroundImageFix"/>
<feBlend mode="normal" in="SourceGraphic" in2="BackgroundImageFix" result="shape"/>
<feColorMatrix in="SourceAlpha" type="matrix" values="0 0 0 0 0 0 0 0 0 0 0 0 0 0 0 0 0 0 127 0" result="hardAlpha"/>
<feOffset/>
<feGaussianBlur stdDeviation="6"/>
<feComposite in2="hardAlpha" operator="arithmetic" k2="-1" k3="1"/>
<feColorMatrix type="matrix" values="0 0 0 0 0.478431 0 0 0 0 0.427451 0 0 0 0 0.827451 0 0 0 0.8 0"/>
<feBlend mode="normal" in2="shape" result="effect1_innerShadow_2506_19295"/>
</filter>
<filter id="filter3_i_2506_19295" x="156" y="160" width="88" height="80" filterUnits="userSpaceOnUse" color-interpolation-filters="sRGB">
<feFlood flood-opacity="0" result="BackgroundImageFix"/>
<feBlend mode="normal" in="SourceGraphic" in2="BackgroundImageFix" result="shape"/>
<feColorMatrix in="SourceAlpha" type="matrix" values="0 0 0 0 0 0 0 0 0 0 0 0 0 0 0 0 0 0 127 0" result="hardAlpha"/>
<feOffset/>
<feGaussianBlur stdDeviation="6"/>
<feComposite in2="hardAlpha" operator="arithmetic" k2="-1" k3="1"/>
<feColorMatrix type="matrix" values="0 0 0 0 0.478431 0 0 0 0 0.427451 0 0 0 0 0.827451 0 0 0 0.8 0"/>
<feBlend mode="normal" in2="shape" result="effect1_innerShadow_2506_19295"/>
</filter>
<filter id="filter4_i_2506_19295" x="8" y="160" width="80" height="80" filterUnits="userSpaceOnUse" color-interpolation-filters="sRGB">
<feFlood flood-opacity="0" result="BackgroundImageFix"/>
<feBlend mode="normal" in="SourceGraphic" in2="BackgroundImageFix" result="shape"/>
<feColorMatrix in="SourceAlpha" type="matrix" values="0 0 0 0 0 0 0 0 0 0 0 0 0 0 0 0 0 0 127 0" result="hardAlpha"/>
<feOffset/>
<feGaussianBlur stdDeviation="6"/>
<feComposite in2="hardAlpha" operator="arithmetic" k2="-1" k3="1"/>
<feColorMatrix type="matrix" values="0 0 0 0 0.478431 0 0 0 0 0.427451 0 0 0 0 0.827451 0 0 0 0.8 0"/>
<feBlend mode="normal" in2="shape" result="effect1_innerShadow_2506_19295"/>
</filter>
<clipPath id="clip0_2506_19295">
<rect width="48" height="48" fill="white" transform="translate(328 48)"/>
</clipPath>
<clipPath id="clip1_2506_19295">
<rect width="38.4" height="38.4" fill="white" transform="translate(332.801 308.8)"/>
</clipPath>
</defs>
</svg>
