<svg width="400" height="400" viewBox="0 0 400 400" fill="none" xmlns="http://www.w3.org/2000/svg">
<path d="M224 200L313 200" stroke="#7A6DD3" stroke-width="2"/>
<path d="M87 203H164" stroke="#7A6DD3" stroke-width="2"/>
<path d="M322.5 72H274C268.477 72 264 76.4772 264 82L264 176C264 181.523 259.523 186 254 186H232" stroke="#7A6DD3" stroke-width="2"/>
<path d="M209 214H268C273.523 214 278 218.477 278 224L278 318C278 323.523 282.477 328 288 328H314.5" stroke="#7A6DD3" stroke-width="2"/>
<g filter="url(#filter0_i_2506_19313)">
<circle cx="352" cy="72" r="40" fill="#060415"/>
</g>
<path fill-rule="evenodd" clip-rule="evenodd" d="M356.8 52C360.114 52 362.8 54.6682 362.8 57.9596C362.8 60.6622 360.409 63.5415 358.767 65.2H360.492C360.934 65.2 361.292 65.5582 361.292 66C361.292 66.4418 360.934 66.8 360.492 66.8H347.583C346.405 66.8 345.103 67.3892 344.084 68.4104C343.072 69.4246 342.4 70.804 342.4 72.3C342.4 73.796 343.072 75.1754 344.084 76.1896C345.103 77.2108 346.405 77.8 347.583 77.8H348.002C347.894 72.4938 352.29 68 357.6 68C363.183 68 367.671 72.9609 367.159 78.4967C367.848 78.8494 368.491 79.3217 369.048 79.8801C370.312 81.146 371.2 82.9166 371.2 84.9C371.2 86.8834 370.312 88.654 369.048 89.92C367.792 91.1788 366.102 92 364.417 92H337.972C337.971 92 337.97 92 337.969 92H333.692C333.25 92 332.892 91.642 332.892 91.2C332.892 90.758 333.25 90.4 333.692 90.4H335.983C334.359 88.7468 332 85.8777 332 83.1596C332 79.8682 334.686 77.2 338 77.2C341.314 77.2 344 79.8682 344 83.1596C344 85.8622 341.609 88.7416 339.967 90.4H364.417C365.595 90.4 366.897 89.8108 367.916 88.7896C368.928 87.7754 369.6 86.396 369.6 84.9C369.6 83.404 368.928 82.0246 367.916 81.0104C367.587 80.6808 367.228 80.3962 366.854 80.1618C365.733 84.22 362.015 87.2 357.6 87.2C352.913 87.2 349.011 83.8416 348.168 79.4H347.583C345.898 79.4 344.208 78.5789 342.952 77.3199C341.688 76.054 340.8 74.2834 340.8 72.3C340.8 70.3166 341.688 68.546 342.952 67.2801C344.208 66.0211 345.898 65.2 347.583 65.2H354.783C353.159 63.5468 350.8 60.6777 350.8 57.9596C350.8 54.6682 353.486 52 356.8 52ZM356.8 60C358.125 60 359.2 58.9255 359.2 57.6C359.2 56.2745 358.125 55.2 356.8 55.2C355.475 55.2 354.4 56.2745 354.4 57.6C354.4 58.9255 355.475 60 356.8 60ZM359.1 72.9007C359.486 73.1152 359.625 73.6023 359.41 73.9885L357.76 76.96H359.26C359.782 76.96 360.173 77.344 360.248 77.8C360.283 78.0101 360.251 78.2354 360.134 78.4456L358.166 81.9885C357.951 82.3748 357.464 82.5139 357.078 82.2993C356.692 82.0848 356.553 81.5977 356.767 81.2115L358.24 78.56H356.74C356.263 78.56 355.896 78.24 355.779 77.8373C355.708 77.5957 355.727 77.3243 355.866 77.0744L358.012 73.2115C358.226 72.8252 358.713 72.6861 359.1 72.9007ZM340.4 82.4C340.4 83.7255 339.325 84.8 338 84.8C336.675 84.8 335.6 83.7255 335.6 82.4C335.6 81.0745 336.675 80 338 80C339.325 80 340.4 81.0745 340.4 82.4Z" fill="#7A6DD3"/>
<g filter="url(#filter1_i_2506_19313)">
<circle cx="352" cy="200" r="40" fill="#060415"/>
</g>
<path d="M335.201 210.8C335.203 211.277 335.393 211.734 335.73 212.071C336.067 212.409 336.524 212.599 337.001 212.6H342.311C341.241 210.874 340.652 208.892 340.604 206.862C340.557 204.831 341.053 202.824 342.041 201.05C343.029 199.275 344.473 197.796 346.224 196.767C347.975 195.738 349.97 195.195 352.001 195.195C354.032 195.195 356.027 195.738 357.778 196.767C359.529 197.796 360.974 199.275 361.962 201.05C362.95 202.824 363.446 204.831 363.398 206.862C363.351 208.892 362.761 210.874 361.691 212.6H367.001C367.478 212.599 367.935 212.409 368.272 212.071C368.61 211.734 368.8 211.277 368.801 210.8V190.4H335.201V210.8Z" fill="#7A6DD3"/>
<path d="M367.001 183.2H337.001C336.524 183.201 336.067 183.391 335.73 183.729C335.393 184.066 335.203 184.523 335.201 185V189.2H368.801V185C368.8 184.523 368.61 184.066 368.272 183.729C367.935 183.391 367.478 183.201 367.001 183.2ZM347.201 186.8H338.201C338.042 186.8 337.889 186.737 337.777 186.624C337.664 186.512 337.601 186.359 337.601 186.2C337.601 186.041 337.664 185.888 337.777 185.776C337.889 185.663 338.042 185.6 338.201 185.6H347.201C347.36 185.6 347.513 185.663 347.625 185.776C347.738 185.888 347.801 186.041 347.801 186.2C347.801 186.359 347.738 186.512 347.625 186.624C347.513 186.737 347.36 186.8 347.201 186.8Z" fill="#7A6DD3"/>
<path d="M352.001 196.4C349.983 196.4 348.011 196.998 346.334 198.119C344.657 199.24 343.349 200.833 342.577 202.697C341.805 204.561 341.603 206.611 341.997 208.59C342.39 210.569 343.362 212.386 344.788 213.813C346.215 215.239 348.032 216.211 350.011 216.604C351.989 216.998 354.04 216.796 355.904 216.024C357.768 215.252 359.361 213.944 360.482 212.267C361.603 210.59 362.201 208.618 362.201 206.6C362.197 203.896 361.121 201.304 359.209 199.392C357.297 197.48 354.705 196.404 352.001 196.4ZM352.001 212.6C351.645 212.6 351.297 212.495 351.001 212.297C350.705 212.099 350.474 211.818 350.338 211.489C350.202 211.16 350.166 210.798 350.235 210.449C350.305 210.1 350.476 209.779 350.728 209.527C350.98 209.276 351.3 209.104 351.65 209.035C351.999 208.965 352.361 209.001 352.69 209.137C353.019 209.273 353.3 209.504 353.497 209.8C353.695 210.096 353.801 210.444 353.801 210.8C353.799 211.277 353.609 211.734 353.272 212.071C352.935 212.409 352.478 212.599 352.001 212.6ZM353.801 206C353.801 206.478 353.611 206.935 353.274 207.273C352.936 207.611 352.478 207.8 352.001 207.8C351.523 207.8 351.066 207.611 350.728 207.273C350.39 206.935 350.201 206.478 350.201 206V201.2C350.201 200.723 350.39 200.265 350.728 199.927C351.066 199.59 351.523 199.4 352.001 199.4C352.478 199.4 352.936 199.59 353.274 199.927C353.611 200.265 353.801 200.723 353.801 201.2V206Z" fill="#7A6DD3"/>
<path d="M352 200.6C351.841 200.601 351.689 200.664 351.577 200.776C351.464 200.889 351.401 201.041 351.4 201.2V206C351.4 206.159 351.464 206.312 351.576 206.424C351.689 206.537 351.841 206.6 352 206.6C352.16 206.6 352.312 206.537 352.425 206.424C352.537 206.312 352.6 206.159 352.6 206V201.2C352.6 201.041 352.537 200.889 352.424 200.776C352.312 200.664 352.159 200.601 352 200.6Z" fill="#7A6DD3"/>
<path d="M352 211.4C352.332 211.4 352.6 211.131 352.6 210.8C352.6 210.469 352.332 210.2 352 210.2C351.669 210.2 351.4 210.469 351.4 210.8C351.4 211.131 351.669 211.4 352 211.4Z" fill="#7A6DD3"/>
<g filter="url(#filter2_i_2506_19313)">
<circle cx="352" cy="328" r="40" fill="#060415"/>
</g>
<path d="M366.231 311.059H362.843V314.447C362.843 315.125 362.278 315.576 361.713 315.576C361.149 315.576 360.584 315.125 360.584 314.447V311.059H342.513V314.447C342.513 315.125 341.949 315.576 341.384 315.576C340.819 315.576 340.254 315.125 340.254 314.447V311.059H336.866C335.172 311.059 333.93 312.527 333.93 314.447V318.513H370.071V314.447C370.071 312.527 368.038 311.059 366.231 311.059ZM333.93 320.885V341.553C333.93 343.586 335.172 344.941 336.979 344.941H366.344C368.151 344.941 370.184 343.473 370.184 341.553V320.885H333.93ZM343.981 339.859H341.271C340.819 339.859 340.367 339.52 340.367 338.955V336.132C340.367 335.68 340.706 335.228 341.271 335.228H344.094C344.546 335.228 344.998 335.567 344.998 336.132V338.955C344.885 339.52 344.546 339.859 343.981 339.859ZM343.981 329.694H341.271C340.819 329.694 340.367 329.355 340.367 328.791V325.967C340.367 325.515 340.706 325.064 341.271 325.064H344.094C344.546 325.064 344.998 325.402 344.998 325.967V328.791C344.885 329.355 344.546 329.694 343.981 329.694ZM353.017 339.859H350.193C349.741 339.859 349.29 339.52 349.29 338.955V336.132C349.29 335.68 349.629 335.228 350.193 335.228H353.017C353.469 335.228 353.92 335.567 353.92 336.132V338.955C353.92 339.52 353.581 339.859 353.017 339.859ZM353.017 329.694H350.193C349.741 329.694 349.29 329.355 349.29 328.791V325.967C349.29 325.515 349.629 325.064 350.193 325.064H353.017C353.469 325.064 353.92 325.402 353.92 325.967V328.791C353.92 329.355 353.581 329.694 353.017 329.694ZM362.052 339.859H359.229C358.777 339.859 358.325 339.52 358.325 338.955V336.132C358.325 335.68 358.664 335.228 359.229 335.228H362.052C362.504 335.228 362.956 335.567 362.956 336.132V338.955C362.956 339.52 362.617 339.859 362.052 339.859ZM362.052 329.694H359.229C358.777 329.694 358.325 329.355 358.325 328.791V325.967C358.325 325.515 358.664 325.064 359.229 325.064H362.052C362.504 325.064 362.956 325.402 362.956 325.967V328.791C362.956 329.355 362.617 329.694 362.052 329.694Z" fill="#7A6DD3"/>
<g filter="url(#filter3_i_2506_19313)">
<rect x="156" y="160" width="88" height="80" rx="8" fill="#060415"/>
<path d="M174.65 207.332C173.524 207.332 172.548 207.166 171.721 206.834C170.894 206.495 170.243 206.02 169.768 205.408C169.299 204.79 169.035 204.061 168.977 203.221L168.967 203.064H171.799L171.809 203.162C171.854 203.514 172.004 203.823 172.258 204.09C172.512 204.357 172.85 204.565 173.273 204.715C173.697 204.865 174.178 204.939 174.719 204.939C175.253 204.939 175.718 204.861 176.115 204.705C176.512 204.549 176.822 204.334 177.043 204.061C177.264 203.781 177.375 203.462 177.375 203.104V203.094C177.375 202.632 177.186 202.264 176.809 201.99C176.438 201.71 175.816 201.479 174.943 201.297L173.449 200.994C172.004 200.701 170.943 200.216 170.266 199.539C169.595 198.855 169.26 197.98 169.26 196.912V196.902C169.266 196.036 169.497 195.278 169.953 194.627C170.415 193.976 171.05 193.471 171.857 193.113C172.665 192.755 173.589 192.576 174.631 192.576C175.725 192.576 176.665 192.752 177.453 193.104C178.241 193.455 178.853 193.94 179.289 194.559C179.732 195.171 179.982 195.877 180.041 196.678L180.051 196.805H177.277L177.258 196.688C177.206 196.342 177.066 196.043 176.838 195.789C176.61 195.535 176.307 195.337 175.93 195.193C175.559 195.044 175.126 194.969 174.631 194.969C174.143 194.969 173.716 195.04 173.352 195.184C172.993 195.327 172.714 195.529 172.512 195.789C172.31 196.043 172.209 196.346 172.209 196.697V196.707C172.209 197.156 172.395 197.524 172.766 197.811C173.137 198.097 173.736 198.325 174.562 198.494L176.047 198.797C177.538 199.096 178.622 199.565 179.299 200.203C179.982 200.835 180.324 201.701 180.324 202.801V202.811C180.324 203.735 180.096 204.536 179.641 205.213C179.185 205.89 178.531 206.414 177.678 206.785C176.831 207.15 175.822 207.332 174.65 207.332ZM186.804 207.078C185.528 207.078 184.603 206.847 184.03 206.385C183.464 205.923 183.181 205.161 183.181 204.1V198.465H181.579V196.316H183.181V193.748H186.062V196.316H188.21V198.465H186.062V203.523C186.062 204.005 186.172 204.354 186.394 204.568C186.615 204.783 186.96 204.891 187.429 204.891C187.598 204.891 187.738 204.887 187.849 204.881C187.966 204.874 188.086 204.865 188.21 204.852V206.961C188.041 206.993 187.833 207.02 187.585 207.039C187.344 207.065 187.084 207.078 186.804 207.078ZM190.198 207V196.316H193.049V198.025H193.196C193.365 197.426 193.677 196.961 194.133 196.629C194.589 196.297 195.155 196.131 195.832 196.131C196.015 196.131 196.194 196.144 196.37 196.17C196.545 196.196 196.702 196.229 196.838 196.268V198.758C196.649 198.706 196.448 198.667 196.233 198.641C196.024 198.608 195.81 198.592 195.588 198.592C195.067 198.592 194.615 198.689 194.231 198.885C193.853 199.08 193.56 199.36 193.352 199.725C193.15 200.083 193.049 200.516 193.049 201.023V207H190.198ZM201.912 207.225C201.117 207.225 200.45 207.068 199.91 206.756C199.369 206.443 198.959 205.988 198.679 205.389C198.406 204.79 198.269 204.067 198.269 203.221V196.316H201.121V202.586C201.121 203.328 201.274 203.895 201.58 204.285C201.886 204.669 202.374 204.861 203.045 204.861C203.5 204.861 203.888 204.764 204.207 204.568C204.526 204.367 204.77 204.087 204.939 203.729C205.108 203.37 205.193 202.957 205.193 202.488V196.316H208.045V207H205.193V205.33H205.046C204.799 205.916 204.408 206.378 203.875 206.717C203.341 207.055 202.686 207.225 201.912 207.225ZM210.559 207V192.322H213.411V207H210.559ZM217.278 207L213.997 202.342L216.048 200.525L220.628 207H217.278ZM213.177 203.68L213.108 200.545H213.557L217.132 196.316H220.374L215.852 201.346L214.534 202.225L213.177 203.68ZM225.242 207.186C224.35 207.186 223.579 206.964 222.928 206.521C222.277 206.072 221.775 205.438 221.424 204.617C221.072 203.79 220.896 202.807 220.896 201.668V201.648C220.896 200.503 221.069 199.52 221.414 198.699C221.766 197.872 222.264 197.238 222.908 196.795C223.559 196.352 224.334 196.131 225.232 196.131C225.975 196.131 226.629 196.303 227.195 196.648C227.762 196.993 228.182 197.462 228.455 198.055H228.602V192.322H231.453V207H228.602V205.311H228.455C228.182 205.896 227.765 206.355 227.205 206.688C226.652 207.02 225.997 207.186 225.242 207.186ZM226.209 204.822C226.704 204.822 227.13 204.695 227.488 204.441C227.853 204.188 228.133 203.826 228.328 203.357C228.53 202.882 228.631 202.319 228.631 201.668V201.648C228.631 200.997 228.53 200.438 228.328 199.969C228.126 199.493 227.843 199.129 227.479 198.875C227.12 198.621 226.697 198.494 226.209 198.494C225.714 198.494 225.285 198.621 224.92 198.875C224.562 199.129 224.285 199.493 224.09 199.969C223.895 200.438 223.797 200.997 223.797 201.648V201.668C223.797 202.319 223.895 202.882 224.09 203.357C224.285 203.826 224.562 204.188 224.92 204.441C225.285 204.695 225.714 204.822 226.209 204.822Z" fill="#7A6DD3"/>
</g>
<g filter="url(#filter4_i_2506_19313)">
<circle cx="68" cy="203" r="40" fill="#060415"/>
</g>
<path d="M78.413 206.258C77.0728 204.918 76.4653 203.127 76.5913 201.377H73.3903C73.0745 201.377 72.791 201.188 72.665 200.896L70.9775 196.953L67.4923 204.09C67.358 204.357 67.082 204.531 66.7828 204.531C66.7745 204.531 66.7745 204.531 66.767 204.531C66.4595 204.524 66.1835 204.334 66.0575 204.051L63.203 197.435L62.225 200.991C62.1305 201.339 61.8148 201.575 61.46 201.575H55.1518C54.7183 201.575 54.3635 201.22 54.3635 200.787C54.3635 200.345 54.7183 199.998 55.1518 199.998H60.8608L62.2798 194.857C62.3668 194.534 62.6503 194.305 62.9818 194.281C63.329 194.265 63.6283 194.447 63.7625 194.754L66.83 201.851L70.3153 194.723C70.4495 194.447 70.7173 194.265 71.0488 194.281C71.3563 194.289 71.6323 194.47 71.7508 194.754L73.9115 199.801H76.9003C77.192 198.894 77.6968 198.051 78.4063 197.333C79.6048 196.142 81.1895 195.48 82.8695 195.48C83.2955 195.48 83.7208 195.519 84.131 195.606V190.512C84.131 189.376 83.216 188.462 82.0813 188.462H53.8588C52.7233 188.462 51.8008 189.377 51.8008 190.512V209.081C51.8008 210.216 52.7233 211.139 53.8588 211.139H82.079C83.2145 211.139 84.1288 210.216 84.1288 209.081V207.969C83.711 208.056 83.2933 208.095 82.8673 208.095C81.1888 208.095 79.604 207.441 78.413 206.258Z" fill="#7A6DD3"/>
<path d="M75.2625 215.961H72.4365V212.709H63.5002V215.961H60.675C60.2392 215.961 59.8867 216.315 59.8867 216.75C59.8867 217.185 60.2392 217.538 60.675 217.538H75.2625C75.6982 217.538 76.0507 217.185 76.0507 216.75C76.0507 216.314 75.6982 215.961 75.2625 215.961Z" fill="#7A6DD3"/>
<path d="M89.8308 206.984L88.1276 205.281C87.8988 205.628 87.6386 205.951 87.3393 206.251C87.0401 206.55 86.7161 206.81 86.3613 207.047L88.0646 208.75C88.3091 208.995 88.6241 209.121 88.9473 209.121C89.2706 209.121 89.5863 208.995 89.8301 208.75C90.3191 208.261 90.3191 207.472 89.8308 206.984Z" fill="#7A6DD3"/>
<path fill-rule="evenodd" clip-rule="evenodd" d="M79.5263 198.445C81.3796 196.6 84.3676 196.6 86.2208 198.445C88.0621 200.296 88.0711 203.288 86.2208 205.139C84.4066 206.953 81.4073 207.01 79.5263 205.139C77.6813 203.294 77.6813 200.298 79.5263 198.445ZM82.8004 204.6C84.3468 204.6 85.6004 203.346 85.6004 201.8C85.6004 200.254 84.3468 199 82.8004 199C81.254 199 80.0004 200.254 80.0004 201.8C80.0004 203.346 81.254 204.6 82.8004 204.6Z" fill="#7A6DD3"/>
<defs>
<filter id="filter0_i_2506_19313" x="312" y="32" width="80" height="80" filterUnits="userSpaceOnUse" color-interpolation-filters="sRGB">
<feFlood flood-opacity="0" result="BackgroundImageFix"/>
<feBlend mode="normal" in="SourceGraphic" in2="BackgroundImageFix" result="shape"/>
<feColorMatrix in="SourceAlpha" type="matrix" values="0 0 0 0 0 0 0 0 0 0 0 0 0 0 0 0 0 0 127 0" result="hardAlpha"/>
<feOffset/>
<feGaussianBlur stdDeviation="6"/>
<feComposite in2="hardAlpha" operator="arithmetic" k2="-1" k3="1"/>
<feColorMatrix type="matrix" values="0 0 0 0 0.478431 0 0 0 0 0.427451 0 0 0 0 0.827451 0 0 0 0.8 0"/>
<feBlend mode="normal" in2="shape" result="effect1_innerShadow_2506_19313"/>
</filter>
<filter id="filter1_i_2506_19313" x="312" y="160" width="80" height="80" filterUnits="userSpaceOnUse" color-interpolation-filters="sRGB">
<feFlood flood-opacity="0" result="BackgroundImageFix"/>
<feBlend mode="normal" in="SourceGraphic" in2="BackgroundImageFix" result="shape"/>
<feColorMatrix in="SourceAlpha" type="matrix" values="0 0 0 0 0 0 0 0 0 0 0 0 0 0 0 0 0 0 127 0" result="hardAlpha"/>
<feOffset/>
<feGaussianBlur stdDeviation="6"/>
<feComposite in2="hardAlpha" operator="arithmetic" k2="-1" k3="1"/>
<feColorMatrix type="matrix" values="0 0 0 0 0.478431 0 0 0 0 0.427451 0 0 0 0 0.827451 0 0 0 0.8 0"/>
<feBlend mode="normal" in2="shape" result="effect1_innerShadow_2506_19313"/>
</filter>
<filter id="filter2_i_2506_19313" x="312" y="288" width="80" height="80" filterUnits="userSpaceOnUse" color-interpolation-filters="sRGB">
<feFlood flood-opacity="0" result="BackgroundImageFix"/>
<feBlend mode="normal" in="SourceGraphic" in2="BackgroundImageFix" result="shape"/>
<feColorMatrix in="SourceAlpha" type="matrix" values="0 0 0 0 0 0 0 0 0 0 0 0 0 0 0 0 0 0 127 0" result="hardAlpha"/>
<feOffset/>
<feGaussianBlur stdDeviation="6"/>
<feComposite in2="hardAlpha" operator="arithmetic" k2="-1" k3="1"/>
<feColorMatrix type="matrix" values="0 0 0 0 0.478431 0 0 0 0 0.427451 0 0 0 0 0.827451 0 0 0 0.8 0"/>
<feBlend mode="normal" in2="shape" result="effect1_innerShadow_2506_19313"/>
</filter>
<filter id="filter3_i_2506_19313" x="156" y="160" width="88" height="80" filterUnits="userSpaceOnUse" color-interpolation-filters="sRGB">
<feFlood flood-opacity="0" result="BackgroundImageFix"/>
<feBlend mode="normal" in="SourceGraphic" in2="BackgroundImageFix" result="shape"/>
<feColorMatrix in="SourceAlpha" type="matrix" values="0 0 0 0 0 0 0 0 0 0 0 0 0 0 0 0 0 0 127 0" result="hardAlpha"/>
<feOffset/>
<feGaussianBlur stdDeviation="6"/>
<feComposite in2="hardAlpha" operator="arithmetic" k2="-1" k3="1"/>
<feColorMatrix type="matrix" values="0 0 0 0 0.478431 0 0 0 0 0.427451 0 0 0 0 0.827451 0 0 0 0.8 0"/>
<feBlend mode="normal" in2="shape" result="effect1_innerShadow_2506_19313"/>
</filter>
<filter id="filter4_i_2506_19313" x="28" y="163" width="80" height="80" filterUnits="userSpaceOnUse" color-interpolation-filters="sRGB">
<feFlood flood-opacity="0" result="BackgroundImageFix"/>
<feBlend mode="normal" in="SourceGraphic" in2="BackgroundImageFix" result="shape"/>
<feColorMatrix in="SourceAlpha" type="matrix" values="0 0 0 0 0 0 0 0 0 0 0 0 0 0 0 0 0 0 127 0" result="hardAlpha"/>
<feOffset/>
<feGaussianBlur stdDeviation="6"/>
<feComposite in2="hardAlpha" operator="arithmetic" k2="-1" k3="1"/>
<feColorMatrix type="matrix" values="0 0 0 0 0.478431 0 0 0 0 0.427451 0 0 0 0 0.827451 0 0 0 0.8 0"/>
<feBlend mode="normal" in2="shape" result="effect1_innerShadow_2506_19313"/>
</filter>
</defs>
</svg>
