<svg width="400" height="400" viewBox="0 0 400 400" fill="none" xmlns="http://www.w3.org/2000/svg">
<path d="M176 200L87 200" stroke="#7A6DD3" stroke-width="2"/>
<path d="M313 203H236" stroke="#7A6DD3" stroke-width="2"/>
<path d="M77.5 72H126C131.523 72 136 76.4772 136 82L136 176C136 181.523 140.477 186 146 186H168" stroke="#7A6DD3" stroke-width="2"/>
<path d="M191 214H132C126.477 214 122 218.477 122 224L122 318C122 323.523 117.523 328 112 328H85.5" stroke="#7A6DD3" stroke-width="2"/>
<g filter="url(#filter0_i_2506_19276)">
<circle cx="48" cy="72" r="40" fill="#060415"/>
</g>
<g clip-path="url(#clip0_2506_19276)">
<path d="M56.0004 63.9999C54.9399 63.9986 53.9232 63.5768 53.1734 62.8269C52.4235 62.0771 52.0017 61.0604 52.0004 59.9999V54.3999H38.4004C37.3395 54.3999 36.3221 54.8213 35.572 55.5715C34.8218 56.3216 34.4004 57.339 34.4004 58.3999V85.5999C34.4004 86.6608 34.8218 87.6782 35.572 88.4283C36.3221 89.1785 37.3395 89.5999 38.4004 89.5999H54.4004C52.9703 89.6014 51.5659 89.2195 50.3335 88.4941C49.1011 87.7686 48.0857 86.726 47.393 85.4749C46.7003 84.2237 46.3557 82.8098 46.395 81.3802C46.4342 79.9507 46.856 78.5578 47.6163 77.3465C48.3767 76.1353 49.4478 75.1501 50.7182 74.4933C51.9886 73.8366 53.4118 73.5324 54.8396 73.6124C56.2675 73.6925 57.6478 74.1538 58.8368 74.9484C60.0258 75.7429 60.9802 76.8417 61.6004 78.1303V63.9999H56.0004ZM40.0004 61.5999H48.8004C49.0126 61.5999 49.216 61.6842 49.3661 61.8342C49.5161 61.9842 49.6004 62.1877 49.6004 62.3999C49.6004 62.6121 49.5161 62.8156 49.3661 62.9656C49.216 63.1156 49.0126 63.1999 48.8004 63.1999H40.0004C39.7882 63.1999 39.5847 63.1156 39.4347 62.9656C39.2847 62.8156 39.2004 62.6121 39.2004 62.3999C39.2004 62.1877 39.2847 61.9842 39.4347 61.8342C39.5847 61.6842 39.7882 61.5999 40.0004 61.5999ZM44.0004 83.9999H40.0004C39.7882 83.9999 39.5847 83.9156 39.4347 83.7656C39.2847 83.6156 39.2004 83.4121 39.2004 83.1999C39.2004 82.9877 39.2847 82.7842 39.4347 82.6342C39.5847 82.4842 39.7882 82.3999 40.0004 82.3999H44.0004C44.2126 82.3999 44.416 82.4842 44.5661 82.6342C44.7161 82.7842 44.8004 82.9877 44.8004 83.1999C44.8004 83.4121 44.7161 83.6156 44.5661 83.7656C44.416 83.9156 44.2126 83.9999 44.0004 83.9999ZM39.2004 79.1999C39.2004 78.9877 39.2847 78.7842 39.4347 78.6342C39.5847 78.4842 39.7882 78.3999 40.0004 78.3999H43.2004C43.4126 78.3999 43.616 78.4842 43.7661 78.6342C43.9161 78.7842 44.0004 78.9877 44.0004 79.1999C44.0004 79.4121 43.9161 79.6156 43.7661 79.7656C43.616 79.9156 43.4126 79.9999 43.2004 79.9999H40.0004C39.7882 79.9999 39.5847 79.9156 39.4347 79.7656C39.2847 79.6156 39.2004 79.4121 39.2004 79.1999ZM44.8004 75.9999H40.0004C39.7882 75.9999 39.5847 75.9156 39.4347 75.7656C39.2847 75.6156 39.2004 75.4121 39.2004 75.1999C39.2004 74.9877 39.2847 74.7842 39.4347 74.6342C39.5847 74.4842 39.7882 74.3999 40.0004 74.3999H44.8004C45.0126 74.3999 45.216 74.4842 45.3661 74.6342C45.5161 74.7842 45.6004 74.9877 45.6004 75.1999C45.6004 75.4121 45.5161 75.6156 45.3661 75.7656C45.216 75.9156 45.0126 75.9999 44.8004 75.9999ZM56.0004 71.9999H40.0004C39.7882 71.9999 39.5847 71.9156 39.4347 71.7656C39.2847 71.6156 39.2004 71.4121 39.2004 71.1999C39.2004 70.9877 39.2847 70.7842 39.4347 70.6342C39.5847 70.4842 39.7882 70.3999 40.0004 70.3999H56.0004C56.2126 70.3999 56.416 70.4842 56.5661 70.6342C56.7161 70.7842 56.8004 70.9877 56.8004 71.1999C56.8004 71.4121 56.7161 71.6156 56.5661 71.7656C56.416 71.9156 56.2126 71.9999 56.0004 71.9999ZM56.0004 67.9999H42.4004C42.1882 67.9999 41.9847 67.9156 41.8347 67.7656C41.6847 67.6156 41.6004 67.4121 41.6004 67.1999C41.6004 66.9877 41.6847 66.7842 41.8347 66.6342C41.9847 66.4842 42.1882 66.3999 42.4004 66.3999H56.0004C56.2126 66.3999 56.416 66.4842 56.5661 66.6342C56.7161 66.7842 56.8004 66.9877 56.8004 67.1999C56.8004 67.4121 56.7161 67.6156 56.5661 67.7656C56.416 67.9156 56.2126 67.9999 56.0004 67.9999Z" fill="#7A6DD3"/>
<path d="M61.1308 61.9312L54.0684 54.8688C53.9326 54.7349 53.7738 54.6265 53.5996 54.5488V60C53.5996 60.6365 53.8525 61.247 54.3026 61.6971C54.7526 62.1472 55.3631 62.4 55.9996 62.4H61.4508C61.3731 62.2258 61.2647 62.067 61.1308 61.9312Z" fill="#7A6DD3"/>
<path d="M63.4487 88.3919L59.9095 84.8463C60.7037 83.5013 60.98 81.9127 60.6865 80.3786C60.393 78.8444 59.55 77.47 58.3155 76.513C57.0809 75.5561 55.5397 75.0824 53.9808 75.1807C52.4219 75.279 50.9525 75.9427 49.848 77.0472C48.7435 78.1517 48.0798 79.6211 47.9815 81.18C47.8831 82.7389 48.3569 84.2802 49.3138 85.5147C50.2707 86.7492 51.6452 87.5923 53.1794 87.8857C54.7135 88.1792 56.3021 87.9029 57.6471 87.1087L61.1927 90.6479C61.3408 90.796 61.5167 90.9135 61.7102 90.9937C61.9037 91.0739 62.1112 91.1151 62.3207 91.1151C62.5302 91.1151 62.7376 91.0739 62.9311 90.9937C63.1247 90.9135 63.3005 90.796 63.4487 90.6479C63.5968 90.4998 63.7143 90.3239 63.7945 90.1304C63.8746 89.9368 63.9159 89.7294 63.9159 89.5199C63.9159 89.3104 63.8746 89.103 63.7945 88.9094C63.7143 88.7159 63.5968 88.54 63.4487 88.3919ZM50.4007 81.5999C50.4007 80.8088 50.6353 80.0354 51.0748 79.3776C51.5143 78.7198 52.139 78.2071 52.8699 77.9044C53.6008 77.6016 54.4051 77.5224 55.181 77.6767C55.957 77.8311 56.6697 78.212 57.2291 78.7715C57.7885 79.3309 58.1695 80.0436 58.3238 80.8195C58.4781 81.5954 58.3989 82.3997 58.0962 83.1306C57.7934 83.8615 57.2807 84.4862 56.6229 84.9258C55.9651 85.3653 55.1918 85.5999 54.4007 85.5999C53.8754 85.5999 53.3552 85.4964 52.8699 85.2954C52.3846 85.0944 51.9437 84.7997 51.5722 84.4283C51.2008 84.0569 50.9062 83.6159 50.7051 83.1306C50.5041 82.6453 50.4007 82.1252 50.4007 81.5999Z" fill="#7A6DD3"/>
</g>
<g filter="url(#filter1_i_2506_19276)">
<circle cx="48" cy="200" r="40" fill="#060415"/>
</g>
<g clip-path="url(#clip1_2506_19276)">
<path d="M65.2511 201.605H65.2061C64.7336 201.605 64.2761 201.433 63.9161 201.118L47.9786 187.063L32.0411 201.118C31.6886 201.433 31.2311 201.605 30.7511 201.605C28.9736 201.605 28.1261 199.415 29.4461 198.215L46.6736 182.615C47.4161 181.948 48.5411 181.948 49.2836 182.615L66.5561 198.223C67.8761 199.415 67.0361 201.605 65.2511 201.605ZM47.9786 188.465L62.7086 201.455V215.78C62.7086 216.943 61.7636 217.888 60.6011 217.888H35.3486C34.1861 217.888 33.2411 216.943 33.2411 215.78V201.455L47.9786 188.465ZM47.9786 195.838C42.7436 195.838 38.5061 200.075 38.5061 205.31C38.5061 210.545 42.7511 214.783 47.9786 214.783C53.2061 214.783 57.4511 210.545 57.4511 205.31C57.4511 200.075 53.2136 195.838 47.9786 195.838ZM43.8836 204.943C43.3661 204.425 42.5336 204.425 42.0236 204.943C41.5061 205.453 41.5061 206.293 42.0236 206.803L45.0011 209.78C45.5186 210.29 46.3511 210.29 46.8611 209.78L53.9336 202.708C54.4511 202.19 54.4511 201.358 53.9336 200.848C53.4161 200.33 52.5836 200.33 52.0736 200.848L45.9311 206.99L43.8836 204.943Z" fill="#7A6DD3"/>
</g>
<g filter="url(#filter2_i_2506_19276)">
<circle cx="48" cy="328" r="40" fill="#060415"/>
</g>
<path d="M48.0016 328C50.2286 327.998 52.3638 327.112 53.9386 325.537C55.5133 323.962 56.3991 321.827 56.4016 319.6C55.9405 308.456 40.0609 308.459 39.6016 319.6C39.604 321.827 40.4898 323.962 42.0646 325.537C43.6394 327.112 45.7745 327.998 48.0016 328ZM47.4016 314.8C47.4039 314.642 47.4681 314.492 47.5804 314.381C47.6927 314.271 47.844 314.209 48.0016 314.209C48.1592 314.209 48.3104 314.271 48.4227 314.381C48.535 314.492 48.5992 314.642 48.6016 314.8V319.354L50.8276 321.574C50.8839 321.63 50.9286 321.696 50.9592 321.77C50.9898 321.843 51.0056 321.921 51.0058 322.001C51.0059 322.08 50.9904 322.158 50.9601 322.232C50.9299 322.305 50.8854 322.372 50.8293 322.428C50.7732 322.484 50.7066 322.528 50.6333 322.559C50.56 322.589 50.4814 322.604 50.4021 322.604C50.3227 322.604 50.2442 322.588 50.171 322.558C50.0979 322.527 50.0314 322.482 49.9756 322.426L47.5756 320.026C47.465 319.912 47.4027 319.759 47.4016 319.6V314.8Z" fill="#7A6DD3"/>
<path d="M64.0271 325.95C63.779 325.704 63.4847 325.509 63.161 325.377C62.8374 325.246 62.4908 325.18 62.1414 325.182C61.792 325.185 61.4467 325.258 61.1253 325.395C60.8039 325.532 60.5129 325.731 60.269 325.981L55.4764 330.774C55.7065 331.398 55.7825 332.067 55.6978 332.727C55.6132 333.386 55.3705 334.015 54.9904 334.56C54.6103 335.105 54.104 335.55 53.5147 335.857C52.9255 336.165 52.2707 336.325 51.6061 336.325H43.2954C43.1383 336.321 42.9887 336.257 42.8787 336.145C42.7687 336.032 42.7071 335.882 42.7071 335.724C42.7071 335.567 42.7687 335.416 42.8787 335.304C42.9887 335.192 43.1383 335.128 43.2954 335.124H51.6061C55.4645 335.01 55.4786 329.397 51.6061 329.268H40.9326C40.5479 329.268 40.1669 329.344 39.8115 329.491C39.4561 329.638 39.1331 329.854 38.8611 330.126L31.3724 337.615C31.2626 337.728 31.2012 337.88 31.2012 338.038C31.2012 338.196 31.2626 338.347 31.3724 338.461L37.5349 344.623C37.6477 344.734 37.7997 344.797 37.958 344.797C38.1163 344.797 38.2682 344.734 38.381 344.623L40.2412 342.763L52.9742 340.063C53.5273 339.947 54.0342 339.672 54.4323 339.271L64.0271 329.676C64.2725 329.432 64.4671 329.141 64.6 328.822C64.7328 328.502 64.8012 328.159 64.8012 327.813C64.8012 327.467 64.7328 327.124 64.6 326.804C64.4671 326.484 64.2725 326.194 64.0271 325.95Z" fill="#7A6DD3"/>
<g filter="url(#filter3_i_2506_19276)">
<rect x="156" y="160" width="88" height="80" rx="8" fill="#060415"/>
<path d="M174.65 207.332C173.524 207.332 172.548 207.166 171.721 206.834C170.894 206.495 170.243 206.02 169.768 205.408C169.299 204.79 169.035 204.061 168.977 203.221L168.967 203.064H171.799L171.809 203.162C171.854 203.514 172.004 203.823 172.258 204.09C172.512 204.357 172.85 204.565 173.273 204.715C173.697 204.865 174.178 204.939 174.719 204.939C175.253 204.939 175.718 204.861 176.115 204.705C176.512 204.549 176.822 204.334 177.043 204.061C177.264 203.781 177.375 203.462 177.375 203.104V203.094C177.375 202.632 177.186 202.264 176.809 201.99C176.438 201.71 175.816 201.479 174.943 201.297L173.449 200.994C172.004 200.701 170.943 200.216 170.266 199.539C169.595 198.855 169.26 197.98 169.26 196.912V196.902C169.266 196.036 169.497 195.278 169.953 194.627C170.415 193.976 171.05 193.471 171.857 193.113C172.665 192.755 173.589 192.576 174.631 192.576C175.725 192.576 176.665 192.752 177.453 193.104C178.241 193.455 178.853 193.94 179.289 194.559C179.732 195.171 179.982 195.877 180.041 196.678L180.051 196.805H177.277L177.258 196.688C177.206 196.342 177.066 196.043 176.838 195.789C176.61 195.535 176.307 195.337 175.93 195.193C175.559 195.044 175.126 194.969 174.631 194.969C174.143 194.969 173.716 195.04 173.352 195.184C172.993 195.327 172.714 195.529 172.512 195.789C172.31 196.043 172.209 196.346 172.209 196.697V196.707C172.209 197.156 172.395 197.524 172.766 197.811C173.137 198.097 173.736 198.325 174.562 198.494L176.047 198.797C177.538 199.096 178.622 199.565 179.299 200.203C179.982 200.835 180.324 201.701 180.324 202.801V202.811C180.324 203.735 180.096 204.536 179.641 205.213C179.185 205.89 178.531 206.414 177.678 206.785C176.831 207.15 175.822 207.332 174.65 207.332ZM186.804 207.078C185.528 207.078 184.603 206.847 184.03 206.385C183.464 205.923 183.181 205.161 183.181 204.1V198.465H181.579V196.316H183.181V193.748H186.062V196.316H188.21V198.465H186.062V203.523C186.062 204.005 186.172 204.354 186.394 204.568C186.615 204.783 186.96 204.891 187.429 204.891C187.598 204.891 187.738 204.887 187.849 204.881C187.966 204.874 188.086 204.865 188.21 204.852V206.961C188.041 206.993 187.833 207.02 187.585 207.039C187.344 207.065 187.084 207.078 186.804 207.078ZM190.198 207V196.316H193.049V198.025H193.196C193.365 197.426 193.677 196.961 194.133 196.629C194.589 196.297 195.155 196.131 195.832 196.131C196.015 196.131 196.194 196.144 196.37 196.17C196.545 196.196 196.702 196.229 196.838 196.268V198.758C196.649 198.706 196.448 198.667 196.233 198.641C196.024 198.608 195.81 198.592 195.588 198.592C195.067 198.592 194.615 198.689 194.231 198.885C193.853 199.08 193.56 199.36 193.352 199.725C193.15 200.083 193.049 200.516 193.049 201.023V207H190.198ZM201.912 207.225C201.117 207.225 200.45 207.068 199.91 206.756C199.369 206.443 198.959 205.988 198.679 205.389C198.406 204.79 198.269 204.067 198.269 203.221V196.316H201.121V202.586C201.121 203.328 201.274 203.895 201.58 204.285C201.886 204.669 202.374 204.861 203.045 204.861C203.5 204.861 203.888 204.764 204.207 204.568C204.526 204.367 204.77 204.087 204.939 203.729C205.108 203.37 205.193 202.957 205.193 202.488V196.316H208.045V207H205.193V205.33H205.046C204.799 205.916 204.408 206.378 203.875 206.717C203.341 207.055 202.686 207.225 201.912 207.225ZM210.559 207V192.322H213.411V207H210.559ZM217.278 207L213.997 202.342L216.048 200.525L220.628 207H217.278ZM213.177 203.68L213.108 200.545H213.557L217.132 196.316H220.374L215.852 201.346L214.534 202.225L213.177 203.68ZM225.242 207.186C224.35 207.186 223.579 206.964 222.928 206.521C222.277 206.072 221.775 205.438 221.424 204.617C221.072 203.79 220.896 202.807 220.896 201.668V201.648C220.896 200.503 221.069 199.52 221.414 198.699C221.766 197.872 222.264 197.238 222.908 196.795C223.559 196.352 224.334 196.131 225.232 196.131C225.975 196.131 226.629 196.303 227.195 196.648C227.762 196.993 228.182 197.462 228.455 198.055H228.602V192.322H231.453V207H228.602V205.311H228.455C228.182 205.896 227.765 206.355 227.205 206.688C226.652 207.02 225.997 207.186 225.242 207.186ZM226.209 204.822C226.704 204.822 227.13 204.695 227.488 204.441C227.853 204.188 228.133 203.826 228.328 203.357C228.53 202.882 228.631 202.319 228.631 201.668V201.648C228.631 200.997 228.53 200.438 228.328 199.969C228.126 199.493 227.843 199.129 227.479 198.875C227.12 198.621 226.697 198.494 226.209 198.494C225.714 198.494 225.285 198.621 224.92 198.875C224.562 199.129 224.285 199.493 224.09 199.969C223.895 200.438 223.797 200.997 223.797 201.648V201.668C223.797 202.319 223.895 202.882 224.09 203.357C224.285 203.826 224.562 204.188 224.92 204.441C225.285 204.695 225.714 204.822 226.209 204.822Z" fill="#7A6DD3"/>
</g>
<g filter="url(#filter4_i_2506_19276)">
<circle cx="352" cy="200" r="40" fill="#060415"/>
</g>
<g clip-path="url(#clip2_2506_19276)">
<path fill-rule="evenodd" clip-rule="evenodd" d="M367.807 215.812H336.194C334.322 215.812 332.801 214.292 332.801 212.418V187.582C332.801 185.707 334.319 184.188 336.192 184.188H348.045C349.075 184.188 350.207 184.843 350.716 185.734L351.858 187.733C351.965 187.919 352.348 188.141 352.561 188.141H367.813C369.683 188.141 371.201 189.66 371.201 191.533V212.42C371.201 214.296 369.682 215.812 367.807 215.812ZM351.441 198.871C351.127 198.871 350.871 199.122 350.871 199.436V207.341C350.871 207.653 351.122 207.906 351.441 207.906H352.56C352.875 207.906 353.13 207.655 353.13 207.341V199.436C353.13 199.124 352.88 198.871 352.56 198.871H351.441ZM346.359 202.259C346.044 202.259 345.789 202.516 345.789 202.821V207.344C345.789 207.654 346.039 207.906 346.359 207.906H347.478C347.793 207.906 348.048 207.649 348.048 207.344V202.821C348.048 202.51 347.797 202.259 347.478 202.259H346.359ZM357.643 207.906C357.957 207.906 358.213 207.658 358.213 207.34V196.048C358.213 195.736 357.962 195.482 357.643 195.482H356.524C356.209 195.482 355.954 195.731 355.954 196.048V207.34C355.954 207.652 356.204 207.906 356.524 207.906H357.643Z" fill="#7A6DD3"/>
</g>
<defs>
<filter id="filter0_i_2506_19276" x="8" y="32" width="80" height="80" filterUnits="userSpaceOnUse" color-interpolation-filters="sRGB">
<feFlood flood-opacity="0" result="BackgroundImageFix"/>
<feBlend mode="normal" in="SourceGraphic" in2="BackgroundImageFix" result="shape"/>
<feColorMatrix in="SourceAlpha" type="matrix" values="0 0 0 0 0 0 0 0 0 0 0 0 0 0 0 0 0 0 127 0" result="hardAlpha"/>
<feOffset/>
<feGaussianBlur stdDeviation="6"/>
<feComposite in2="hardAlpha" operator="arithmetic" k2="-1" k3="1"/>
<feColorMatrix type="matrix" values="0 0 0 0 0.478431 0 0 0 0 0.427451 0 0 0 0 0.827451 0 0 0 0.8 0"/>
<feBlend mode="normal" in2="shape" result="effect1_innerShadow_2506_19276"/>
</filter>
<filter id="filter1_i_2506_19276" x="8" y="160" width="80" height="80" filterUnits="userSpaceOnUse" color-interpolation-filters="sRGB">
<feFlood flood-opacity="0" result="BackgroundImageFix"/>
<feBlend mode="normal" in="SourceGraphic" in2="BackgroundImageFix" result="shape"/>
<feColorMatrix in="SourceAlpha" type="matrix" values="0 0 0 0 0 0 0 0 0 0 0 0 0 0 0 0 0 0 127 0" result="hardAlpha"/>
<feOffset/>
<feGaussianBlur stdDeviation="6"/>
<feComposite in2="hardAlpha" operator="arithmetic" k2="-1" k3="1"/>
<feColorMatrix type="matrix" values="0 0 0 0 0.478431 0 0 0 0 0.427451 0 0 0 0 0.827451 0 0 0 0.8 0"/>
<feBlend mode="normal" in2="shape" result="effect1_innerShadow_2506_19276"/>
</filter>
<filter id="filter2_i_2506_19276" x="8" y="288" width="80" height="80" filterUnits="userSpaceOnUse" color-interpolation-filters="sRGB">
<feFlood flood-opacity="0" result="BackgroundImageFix"/>
<feBlend mode="normal" in="SourceGraphic" in2="BackgroundImageFix" result="shape"/>
<feColorMatrix in="SourceAlpha" type="matrix" values="0 0 0 0 0 0 0 0 0 0 0 0 0 0 0 0 0 0 127 0" result="hardAlpha"/>
<feOffset/>
<feGaussianBlur stdDeviation="6"/>
<feComposite in2="hardAlpha" operator="arithmetic" k2="-1" k3="1"/>
<feColorMatrix type="matrix" values="0 0 0 0 0.478431 0 0 0 0 0.427451 0 0 0 0 0.827451 0 0 0 0.8 0"/>
<feBlend mode="normal" in2="shape" result="effect1_innerShadow_2506_19276"/>
</filter>
<filter id="filter3_i_2506_19276" x="156" y="160" width="88" height="80" filterUnits="userSpaceOnUse" color-interpolation-filters="sRGB">
<feFlood flood-opacity="0" result="BackgroundImageFix"/>
<feBlend mode="normal" in="SourceGraphic" in2="BackgroundImageFix" result="shape"/>
<feColorMatrix in="SourceAlpha" type="matrix" values="0 0 0 0 0 0 0 0 0 0 0 0 0 0 0 0 0 0 127 0" result="hardAlpha"/>
<feOffset/>
<feGaussianBlur stdDeviation="6"/>
<feComposite in2="hardAlpha" operator="arithmetic" k2="-1" k3="1"/>
<feColorMatrix type="matrix" values="0 0 0 0 0.478431 0 0 0 0 0.427451 0 0 0 0 0.827451 0 0 0 0.8 0"/>
<feBlend mode="normal" in2="shape" result="effect1_innerShadow_2506_19276"/>
</filter>
<filter id="filter4_i_2506_19276" x="312" y="160" width="80" height="80" filterUnits="userSpaceOnUse" color-interpolation-filters="sRGB">
<feFlood flood-opacity="0" result="BackgroundImageFix"/>
<feBlend mode="normal" in="SourceGraphic" in2="BackgroundImageFix" result="shape"/>
<feColorMatrix in="SourceAlpha" type="matrix" values="0 0 0 0 0 0 0 0 0 0 0 0 0 0 0 0 0 0 127 0" result="hardAlpha"/>
<feOffset/>
<feGaussianBlur stdDeviation="6"/>
<feComposite in2="hardAlpha" operator="arithmetic" k2="-1" k3="1"/>
<feColorMatrix type="matrix" values="0 0 0 0 0.478431 0 0 0 0 0.427451 0 0 0 0 0.827451 0 0 0 0.8 0"/>
<feBlend mode="normal" in2="shape" result="effect1_innerShadow_2506_19276"/>
</filter>
<clipPath id="clip0_2506_19276">
<rect width="38.4" height="38.4" fill="white" transform="translate(28.8008 52.7998)"/>
</clipPath>
<clipPath id="clip1_2506_19276">
<rect width="38.4" height="38.4" fill="white" transform="translate(28.8008 180.8)"/>
</clipPath>
<clipPath id="clip2_2506_19276">
<rect width="38.4" height="38.4" fill="white" transform="translate(332.801 180.8)"/>
</clipPath>
</defs>
</svg>
