<svg width="200" height="200" viewBox="0 0 200 200" fill="none" xmlns="http://www.w3.org/2000/svg">
<path d="M172.684 12.9292L21.2299 53.4554C16.3688 54.781 12.9657 58.8914 12.5236 63.929C12.2585 67.4649 13.496 70.7348 15.8828 73.1217C16.8991 74.1379 18.0919 74.9779 19.5068 75.5967L86.1511 105.03L123.407 67.7743C125.882 65.2997 129.771 65.2997 132.246 67.7743C134.676 70.205 134.721 74.1383 132.246 76.6133L94.8577 114.001L124.424 180.513C126.456 185.11 131.052 187.849 136.046 187.452C141.129 187.055 145.195 183.607 146.52 178.746L187.091 27.3366C188.196 23.2262 187.091 18.9397 184.086 15.9344C181.08 12.9288 176.794 11.8241 172.684 12.9292Z" fill="#7A6DD3"/>
<path d="M63.611 127.533L45.8955 145.252C43.4541 147.693 43.4541 151.648 45.8955 154.09C47.1162 155.31 48.7153 155.921 50.3145 155.921C51.9136 155.921 53.5127 155.31 54.7334 154.09L72.4489 136.371C74.8903 133.93 74.8903 129.975 72.4489 127.533C70.0074 125.092 66.0524 125.092 63.611 127.533Z" fill="#7A6DD3"/>
<path d="M40.7839 104.706L23.0654 122.418C20.624 124.86 20.624 128.815 23.0654 131.256C24.2861 132.477 25.8853 133.087 27.4844 133.087C29.0835 133.087 30.6826 132.477 31.9033 131.256L49.6218 113.544C52.0632 111.103 52.0632 107.147 49.6218 104.706C47.1804 102.265 43.2253 102.265 40.7839 104.706Z" fill="#7A6DD3"/>
<path d="M95.2789 150.36C92.8375 147.919 88.8824 147.919 86.441 150.36L68.7256 168.079C66.2842 170.52 66.2842 174.475 68.7256 176.917C69.9463 178.137 71.5454 178.748 73.1445 178.748C74.7437 178.748 76.3428 178.137 77.5635 176.917L95.2789 159.198C97.7203 156.757 97.7203 152.802 95.2789 150.36Z" fill="#7A6DD3"/>
</svg>
